M48
; DRILL file {KiCad (6.0.0)} date Wed Apr 27 06:18:32 2022
; FORMAT={-:-/ absolute / inch / decimal}
; #@! TF.CreationDate,2022-04-27T06:18:32+02:00
; #@! TF.GenerationSoftware,Kicad,Pcbnew,(6.0.0)
; #@! TF.FileFunction,Plated,1,2,PTH
FMAT,2
INCH
; #@! TA.AperFunction,Plated,PTH,ViaDrill
T1C0.0118
; #@! TA.AperFunction,Plated,PTH,ViaDrill
T2C0.0157
; #@! TA.AperFunction,Plated,PTH,ComponentDrill
T3C0.0300
; #@! TA.AperFunction,Plated,PTH,ComponentDrill
T4C0.0315
; #@! TA.AperFunction,Plated,PTH,ComponentDrill
T5C0.0350
; #@! TA.AperFunction,Plated,PTH,ComponentDrill
T6C0.0512
; #@! TA.AperFunction,Plated,PTH,ComponentDrill
T7C0.0591
%
G90
G05
T1
X5.08Y-3.47
X5.125Y-3.125
X5.3Y-3.15
X5.36Y-3.24
X5.37Y-3.5
X5.3732Y-3.35
X5.385Y-3.6
X5.56Y-3.45
X5.85Y-3.45
T2
X3.55Y-3.225
X3.65Y-3.825
X3.7Y-2.825
X3.875Y-2.45
X4.05Y-3.525
X4.325Y-3.225
X4.35Y-3.825
X4.375Y-2.075
X4.65Y-2.7
X4.818Y-3.5
X4.818Y-3.66
X4.875Y-3.7
X4.93Y-2.46
X4.975Y-2.175
X5.012Y-3.346
X5.018Y-3.512
X5.125Y-2.925
X5.184Y-3.348
X5.246Y-3.204
X5.25Y-3.452
X5.25Y-3.7
X5.325Y-3.55
X5.35Y-3.06
X5.35Y-4.0
X5.36Y-2.92
X5.475Y-3.636
X5.484Y-3.451
X5.49Y-3.14
X5.494Y-3.0
X5.5Y-2.325
X5.56Y-3.23
X5.7Y-3.175
X5.85Y-3.55
X5.93Y-3.41
X5.975Y-4.0
X6.3Y-3.16
X6.3Y-3.45
X6.375Y-3.75
X6.65Y-4.0
X6.75Y-3.25
X6.75Y-3.45
X6.775Y-2.6
X6.85Y-3.74
X6.9Y-3.525
X6.925Y-3.05
X7.175Y-2.2
X7.375Y-3.475
X7.625Y-2.075
X7.95Y-3.825
X8.25Y-2.425
X8.25Y-3.55
X8.4Y-2.825
X8.4Y-3.175
T3
X6.38Y-2.68
X6.38Y-2.8
X6.38Y-2.92
X6.5Y-2.68
X6.5Y-2.8
X6.5Y-2.92
X6.62Y-2.68
X6.62Y-2.8
X6.62Y-2.92
T4
X5.672Y-2.957
X5.673Y-3.6293
X5.7243Y-2.8736
X5.7253Y-3.5459
X5.8054Y-3.0407
X5.8064Y-3.713
X5.8577Y-2.9573
X5.8587Y-3.6296
X5.8721Y-3.0825
X5.8731Y-3.7548
X5.9244Y-2.9991
X5.9254Y-3.6715
X5.9388Y-3.1244
X5.9398Y-3.7967
X5.9911Y-3.041
X5.9921Y-3.7133
T5
X7.4Y-3.35
X7.5Y-3.35
X7.6Y-3.35
X7.85Y-2.9
X7.85Y-3.0
X7.85Y-3.1
T6
X4.6464Y-4.0213
X5.0226Y-3.8691
X5.05Y-4.064
X6.3031Y-3.249
X6.3031Y-3.649
X6.6969Y-3.1506
X6.6969Y-3.3474
X6.6969Y-3.5506
X6.6969Y-3.7474
X7.0006Y-3.7531
X7.099Y-4.1469
X7.1974Y-3.7531
X7.4006Y-3.8031
X7.499Y-4.1969
X7.5974Y-3.8031
T7
X5.6281Y-2.8714
X5.6291Y-3.5437
X6.035Y-3.1266
X6.036Y-3.7989
T5
G00X7.25Y-2.8238
M15
G01X7.25Y-2.7762
M16
G05
G00X7.25Y-3.2238
M15
G01X7.25Y-3.1762
M16
G05
G00X7.75Y-2.8238
M15
G01X7.75Y-2.7762
M16
G05
G00X7.75Y-3.2238
M15
G01X7.75Y-3.1762
M16
G05
T0
M30
