%TF.GenerationSoftware,KiCad,Pcbnew,(6.0.0)*%
%TF.CreationDate,2022-04-05T22:00:03+02:00*%
%TF.ProjectId,Vectrex Pad miniNeoGeo,56656374-7265-4782-9050-6164206d696e,rev?*%
%TF.SameCoordinates,Original*%
%TF.FileFunction,Profile,NP*%
%FSLAX46Y46*%
G04 Gerber Fmt 4.6, Leading zero omitted, Abs format (unit mm)*
G04 Created by KiCad (PCBNEW (6.0.0)) date 2022-04-05 22:00:03*
%MOMM*%
%LPD*%
G01*
G04 APERTURE LIST*
%TA.AperFunction,Profile*%
%ADD10C,0.050000*%
%TD*%
G04 APERTURE END LIST*
D10*
X203542900Y-105577640D02*
X203471780Y-105288080D01*
X158851600Y-61262260D02*
X158849758Y-62675900D01*
X99273360Y-51854100D02*
X99445888Y-52068496D01*
X104808020Y-106885740D02*
X104868980Y-106558080D01*
X95011240Y-55620920D02*
X95166180Y-55834280D01*
X94482920Y-55031640D02*
X94523560Y-55059580D01*
X158841440Y-59326780D02*
X158851600Y-61262260D01*
X98866960Y-106733340D02*
X98795840Y-106855260D01*
X153068020Y-63817500D02*
X152803860Y-63814960D01*
X109580680Y-47561500D02*
X109110780Y-47614840D01*
X210337400Y-57150000D02*
X210644740Y-57569100D01*
X204398880Y-107551220D02*
X204233780Y-107403900D01*
X188097160Y-47917100D02*
X187497720Y-48023780D01*
X128016000Y-106641900D02*
X120449340Y-107589320D01*
X150548340Y-105379520D02*
X147624800Y-105379520D01*
X98071940Y-107563920D02*
X97993200Y-107602020D01*
X203659740Y-106126280D02*
X203606400Y-105849420D01*
X196679820Y-48140620D02*
X196098160Y-48008540D01*
X218391740Y-76702920D02*
X218808300Y-78359000D01*
X97660460Y-107716320D02*
X97556320Y-107741720D01*
X133167120Y-63822580D02*
X130378200Y-63797180D01*
X89217500Y-63266320D02*
X90078560Y-61315600D01*
X83172300Y-82240120D02*
X83309460Y-81424780D01*
X158877000Y-53004720D02*
X158874460Y-53032660D01*
X208699100Y-55211980D02*
X208737200Y-55227220D01*
X214299800Y-101790500D02*
X212694520Y-103538020D01*
X211764880Y-59319160D02*
X212016340Y-59799220D01*
X182831740Y-107777280D02*
X181536340Y-107579160D01*
X105895140Y-109545120D02*
X105750360Y-109489240D01*
X196369940Y-109844840D02*
X196194680Y-109855000D01*
X98912680Y-106652060D02*
X98866960Y-106733340D01*
X203522580Y-51998880D02*
G75*
G03*
X207782325Y-56016927I2108200J-2032000D01*
G01*
X174459900Y-106652060D02*
X173448980Y-106547920D01*
X125143260Y-50271680D02*
X123002040Y-49806860D01*
X104701340Y-108267500D02*
X104673400Y-108193840D01*
X190093600Y-109006640D02*
X188694060Y-108745020D01*
X186527440Y-48224440D02*
X185877200Y-48379380D01*
X217741500Y-96621600D02*
X217180160Y-97706180D01*
X129070100Y-63647320D02*
X128882140Y-63576200D01*
X128384300Y-63329820D02*
X128280160Y-63258700D01*
X197901560Y-108872020D02*
X197797420Y-109095540D01*
X94584520Y-55100220D02*
X94724220Y-55239920D01*
X185549540Y-108209080D02*
X184083960Y-107985560D01*
X193294000Y-109603540D02*
X192831720Y-109534960D01*
X111015780Y-47467520D02*
X110865920Y-47467520D01*
X91488260Y-104559100D02*
X90182700Y-103449120D01*
X126839980Y-50810160D02*
X126839980Y-50797460D01*
X104950260Y-108772960D02*
X104848660Y-108574840D01*
X208434940Y-55250080D02*
X208462880Y-55234840D01*
X158874460Y-53032660D02*
X158869380Y-53167280D01*
X197858380Y-106354880D02*
X197860920Y-106408220D01*
X89286080Y-102539800D02*
X88590120Y-101780340D01*
X191427100Y-109253020D02*
X190093600Y-109006640D01*
X219235020Y-80474820D02*
X219519500Y-81795620D01*
X197563740Y-109418120D02*
X197355460Y-109540040D01*
X203850240Y-51127660D02*
X203527660Y-50934620D01*
X126839980Y-50797460D02*
X126837440Y-50787300D01*
X98701860Y-107010200D02*
X98656140Y-107073700D01*
X152186640Y-63820040D02*
X151843740Y-63820040D01*
X99070160Y-106088180D02*
X99029520Y-106296460D01*
X83309460Y-81424780D02*
X83525360Y-80322420D01*
X219110560Y-93037660D02*
X218663520Y-94361000D01*
X163525200Y-52544980D02*
X162112960Y-52661820D01*
X151018240Y-63817500D02*
X150688040Y-63817500D01*
X211526120Y-58925460D02*
X211764880Y-59319160D01*
X97022920Y-107784900D02*
X96956880Y-107777280D01*
X129987040Y-63787020D02*
X129783840Y-63776860D01*
X194134740Y-109710220D02*
X193794380Y-109667040D01*
X179265580Y-107279440D02*
X178097180Y-107091480D01*
X196194680Y-109855000D02*
X196052440Y-109857540D01*
X112847120Y-47543720D02*
X112328960Y-47515780D01*
X118153180Y-48534320D02*
X117154960Y-48290480D01*
X94345760Y-55011320D02*
X94368620Y-55006240D01*
X184906920Y-48618140D02*
X184337960Y-48768000D01*
X126837440Y-50787300D02*
X126834900Y-50779680D01*
X126768860Y-50713640D02*
X126746000Y-50698400D01*
X199547480Y-49049940D02*
X199151240Y-48900080D01*
X202440540Y-50274220D02*
X202143360Y-50124360D01*
X158892240Y-52959000D02*
X158884620Y-52976780D01*
X172651420Y-106476800D02*
X172435520Y-106436160D01*
X194467480Y-109748320D02*
X194134740Y-109710220D01*
X198142860Y-107944920D02*
X198125080Y-108115100D01*
X210042760Y-56746140D02*
X210337400Y-57150000D01*
X145750280Y-63804800D02*
X140378180Y-63789560D01*
X104655620Y-108112560D02*
X104655620Y-108074460D01*
X100373180Y-50274220D02*
X99862640Y-50548540D01*
X203979780Y-51508660D02*
X203995020Y-51455320D01*
X127322580Y-62263020D02*
X127198120Y-62059820D01*
X140378180Y-63789560D02*
X138076940Y-63792100D01*
X82936080Y-83995260D02*
X82969100Y-83538060D01*
X204071220Y-107200700D02*
X203926440Y-107007660D01*
X208462880Y-55234840D02*
X208498440Y-55222140D01*
X83499960Y-92166440D02*
X83256120Y-91089480D01*
X93558360Y-106022140D02*
X92565220Y-105351580D01*
X96286320Y-107548680D02*
X95539560Y-107182920D01*
X180845460Y-107457240D02*
X180248560Y-107391200D01*
X198127620Y-107746800D02*
X198142860Y-107944920D01*
X135630920Y-105943400D02*
X128016000Y-106641900D01*
X107477560Y-109651800D02*
X106758740Y-109659420D01*
X185877200Y-48379380D02*
X185206640Y-48549560D01*
X197987920Y-107137200D02*
X198046340Y-107325160D01*
X205290420Y-107873800D02*
X205143100Y-107856020D01*
X197942200Y-106921300D02*
X197987920Y-107137200D01*
X97556320Y-107741720D02*
X97477580Y-107756960D01*
X201401680Y-49753520D02*
X200830180Y-49496980D01*
X176669700Y-50612040D02*
X175859440Y-50777140D01*
X153433780Y-63987680D02*
X153410920Y-63947040D01*
X153253440Y-63827660D02*
X153162000Y-63822580D01*
X203682600Y-51818540D02*
X203789280Y-51719480D01*
X105394760Y-109286040D02*
X105285540Y-109197140D01*
X128557020Y-63428880D02*
X128384300Y-63329820D01*
X107894120Y-109628940D02*
X107477560Y-109651800D01*
X219740480Y-90307160D02*
X219461080Y-91798140D01*
X140540740Y-105628440D02*
X135630920Y-105943400D01*
X208409540Y-55270400D02*
X208434940Y-55250080D01*
X84988400Y-74615040D02*
X85293200Y-73530460D01*
X205430120Y-107886500D02*
X205290420Y-107873800D01*
X94368620Y-55006240D02*
X94396560Y-55003700D01*
X115039140Y-47807880D02*
X114556540Y-47731680D01*
X104681020Y-107614720D02*
X104701340Y-107431840D01*
X208376520Y-55305960D02*
X208409540Y-55270400D01*
X159047180Y-52910740D02*
X158986220Y-52915820D01*
X162112960Y-52661820D02*
X161150300Y-52745640D01*
X203989940Y-51264820D02*
X203977240Y-51236880D01*
X95166179Y-55834281D02*
G75*
G03*
X99445888Y-52068496I2209801J1803401D01*
G01*
X191770000Y-47602140D02*
X191279780Y-47614840D01*
X218663520Y-94361000D02*
X218213940Y-95600520D01*
X110467140Y-47485300D02*
X110294420Y-47500540D01*
X97782380Y-107680760D02*
X97660460Y-107716320D01*
X99153980Y-105618280D02*
X99128580Y-105737660D01*
X197883780Y-106580940D02*
X197906640Y-106735880D01*
X192318640Y-47594520D02*
X191770000Y-47602140D01*
X128122680Y-63139320D02*
X128016000Y-63042800D01*
X82834480Y-87492840D02*
X82806540Y-86377780D01*
X197634860Y-109359700D02*
X197563740Y-109418120D01*
X87045800Y-68404740D02*
X87472520Y-67299840D01*
X204558900Y-107655360D02*
X204398880Y-107551220D01*
X183004460Y-49133760D02*
X182344060Y-49303940D01*
X212016340Y-59799220D02*
X212636100Y-61071760D01*
X114556540Y-47731680D02*
X114259360Y-47678340D01*
X158831280Y-56024780D02*
X158841440Y-59326780D01*
X98856800Y-51188620D02*
X98844100Y-51198780D01*
X215597740Y-67896740D02*
X216847420Y-71432420D01*
X147624800Y-105379520D02*
X140540740Y-105628440D01*
X219905580Y-84973160D02*
X219951300Y-86245700D01*
X86611460Y-69583300D02*
X87045800Y-68404740D01*
X198081900Y-107444540D02*
X198112380Y-107637580D01*
X203903580Y-51610260D02*
X203956920Y-51554380D01*
X98831400Y-51214020D02*
X98828860Y-51221640D01*
X99128580Y-105737660D02*
X99105720Y-105857040D01*
X195686680Y-47922180D02*
X195138040Y-47851060D01*
X203995020Y-51297840D02*
X203989940Y-51264820D01*
X108473240Y-109585760D02*
X107894120Y-109628940D01*
X203001880Y-50591720D02*
X202834240Y-50492660D01*
X152803860Y-63814960D02*
X152509220Y-63817500D01*
X216847420Y-71432420D02*
X217771980Y-74394060D01*
X188589920Y-47815500D02*
X188097160Y-47917100D01*
X97190560Y-107784900D02*
X97094040Y-107787440D01*
X197703440Y-109270800D02*
X197634860Y-109359700D01*
X127198120Y-62059820D02*
X127099060Y-61854080D01*
X115994180Y-47993300D02*
X115646200Y-47922180D01*
X153410920Y-63947040D02*
X153393140Y-63919100D01*
X94724220Y-55239920D02*
X95011240Y-55620920D01*
X196954140Y-109717840D02*
X196712840Y-109788960D01*
X126448820Y-50591720D02*
X125826520Y-50431700D01*
X203751180Y-106545380D02*
X203690220Y-106347260D01*
X127457200Y-62453520D02*
X127322580Y-62263020D01*
X198046340Y-107325160D02*
X198081900Y-107444540D01*
X106997500Y-47891700D02*
X106309160Y-48033940D01*
X194355720Y-47746920D02*
X193941700Y-47696120D01*
X173448980Y-106547920D02*
X172930820Y-106512360D01*
X167071040Y-52153820D02*
X166281100Y-52240180D01*
X104673400Y-108193840D02*
X104655620Y-108112560D01*
X210644740Y-57569100D02*
X211033360Y-58143140D01*
X182344060Y-49303940D02*
X181643020Y-49489360D01*
X98872040Y-51175920D02*
X98856800Y-51188620D01*
X83723480Y-79474060D02*
X83977480Y-78414880D01*
X126819660Y-50751740D02*
X126809500Y-50741580D01*
X82844640Y-88282780D02*
X82834480Y-87492840D01*
X209895440Y-56555640D02*
X210042760Y-56746140D01*
X158884620Y-52976780D02*
X158877000Y-53004720D01*
X192836800Y-47609760D02*
X192318640Y-47594520D01*
X184083960Y-107985560D02*
X182831740Y-107777280D01*
X118912640Y-48724820D02*
X118153180Y-48534320D01*
X172194220Y-51427380D02*
X171538900Y-51528980D01*
X99123500Y-51676300D02*
X99273360Y-51854100D01*
X98999040Y-106433620D02*
X98963480Y-106542840D01*
X218213940Y-95600520D02*
X217741500Y-96621600D01*
X126794260Y-50731420D02*
X126781560Y-50721260D01*
X127030480Y-61673740D02*
X126972060Y-61470540D01*
X120449340Y-107589320D02*
X114896900Y-108427520D01*
X211033360Y-58143140D02*
X211526120Y-58925460D01*
X126850140Y-60355480D02*
X126839980Y-50960020D01*
X203977240Y-51236880D02*
X203944220Y-51201320D01*
X94358460Y-106507280D02*
X93558360Y-106022140D01*
X203995020Y-51455320D02*
X204000100Y-51363880D01*
X207756760Y-107076240D02*
X206959200Y-107454700D01*
X178569620Y-50203100D02*
X177985420Y-50352960D01*
X98358960Y-107360720D02*
X98216720Y-107472480D01*
X212636100Y-61071760D02*
X215597740Y-67896740D01*
X83060540Y-90096340D02*
X82910680Y-89070180D01*
X96687640Y-107708700D02*
X96593660Y-107685840D01*
X187497720Y-48023780D02*
X187037980Y-48120300D01*
X197157340Y-109634020D02*
X196954140Y-109717840D01*
X90947240Y-59580780D02*
X91777820Y-58196480D01*
X113725960Y-47609760D02*
X113256060Y-47581820D01*
X97297240Y-107779820D02*
X97190560Y-107784900D01*
X219461080Y-91798140D02*
X219110560Y-93037660D01*
X105750360Y-109489240D02*
X105572560Y-109397800D01*
X204792580Y-107756960D02*
X204558900Y-107655360D01*
X126972060Y-61470540D02*
X126921260Y-61259720D01*
X126852680Y-60596780D02*
X126850140Y-60355480D01*
X96956880Y-107777280D02*
X96893380Y-107764580D01*
X104658160Y-108016040D02*
X104670860Y-107805220D01*
X194843400Y-109783880D02*
X194467480Y-109748320D01*
X158922720Y-52933600D02*
X158904940Y-52943760D01*
X215168480Y-100708460D02*
X214299800Y-101790500D01*
X203522580Y-51998880D02*
X203682600Y-51818540D01*
X109283500Y-109474000D02*
X109006640Y-109522260D01*
X97993200Y-107602020D02*
X97889060Y-107645200D01*
X178097180Y-107091480D02*
X177020220Y-106967020D01*
X201810620Y-49936400D02*
X201401680Y-49753520D01*
X128696720Y-63500000D02*
X128557020Y-63428880D01*
X198125080Y-108115100D02*
X198102220Y-108275120D01*
X179280820Y-50045620D02*
X178569620Y-50203100D01*
X125826520Y-50431700D02*
X125143260Y-50271680D01*
X197906640Y-106735880D02*
X197942200Y-106921300D01*
X165341300Y-52344320D02*
X164414200Y-52440840D01*
X88414860Y-65029080D02*
X89217500Y-63266320D01*
X98216720Y-107472480D02*
X98145600Y-107520740D01*
X175257460Y-50871120D02*
X174586900Y-50990500D01*
X203789280Y-51719480D02*
X203903580Y-51610260D01*
X83080860Y-82842100D02*
X83172300Y-82240120D01*
X198059040Y-108468160D02*
X198003160Y-108600240D01*
X153433779Y-63987680D02*
G75*
G03*
X158849758Y-62675900I2565401J1244600D01*
G01*
X158869380Y-53167280D02*
X158859220Y-53385720D01*
X181643020Y-49489360D02*
X181091840Y-49631600D01*
X170411140Y-51696620D02*
X169321480Y-51856640D01*
X153355040Y-63873380D02*
X153337260Y-63858140D01*
X92565220Y-105351580D02*
X91978480Y-104940100D01*
X129783840Y-63776860D02*
X129606040Y-63764160D01*
X126654560Y-50660300D02*
X126448820Y-50591720D01*
X198318120Y-48602900D02*
X197779640Y-48417480D01*
X195742560Y-109844840D02*
X195440300Y-109824520D01*
X219814140Y-83433920D02*
X219837000Y-83708240D01*
X126834900Y-50779680D02*
X126832360Y-50769520D01*
X106758740Y-109659420D02*
X106354880Y-109654340D01*
X94447360Y-55016400D02*
X94482920Y-55031640D01*
X83990180Y-93822520D02*
X83499960Y-92166440D01*
X117154960Y-48290480D02*
X116771420Y-48183800D01*
X152509220Y-63817500D02*
X152186640Y-63820040D01*
X98828860Y-51231800D02*
X98831400Y-51239420D01*
X96893380Y-107764580D02*
X96809560Y-107739180D01*
X208480660Y-106669840D02*
X207756760Y-107076240D01*
X98874580Y-51318160D02*
X99123500Y-51676300D01*
X151604980Y-63820040D02*
X151290020Y-63820040D01*
X173230540Y-51249580D02*
X172194220Y-51427380D01*
X93573600Y-55763160D02*
X94206060Y-55105300D01*
X204233780Y-107403900D02*
X204071220Y-107200700D01*
X84264500Y-77251560D02*
X84670900Y-75755500D01*
X98854260Y-51287680D02*
X98874580Y-51318160D01*
X167924480Y-52064920D02*
X167071040Y-52153820D01*
X105549700Y-48216820D02*
X104579420Y-48511460D01*
X97477580Y-107756960D02*
X97383600Y-107772200D01*
X94206060Y-55105300D02*
X94267020Y-55054500D01*
X193941700Y-47696120D02*
X193448940Y-47652940D01*
X217771980Y-74394060D02*
X218391740Y-76702920D01*
X159321500Y-52882800D02*
X159047180Y-52910740D01*
X85676740Y-72275700D02*
X86057740Y-71163180D01*
X208790540Y-55272940D02*
X208851500Y-55338980D01*
X99105720Y-105857040D02*
X99070160Y-106088180D01*
X99862640Y-50548540D02*
X99331780Y-50876200D01*
X158986220Y-52915820D02*
X158965900Y-52918360D01*
X161909760Y-105641140D02*
X158242000Y-105506520D01*
X208777840Y-106499660D02*
X208480660Y-106669840D01*
X151290020Y-63820040D02*
X151018240Y-63817500D01*
X172435520Y-106436160D02*
X165846760Y-105890060D01*
X82969100Y-83538060D02*
X82997040Y-83314540D01*
X115646200Y-47922180D02*
X115371880Y-47871380D01*
X203956920Y-51554380D02*
X203979780Y-51508660D01*
X105062020Y-108938060D02*
X104950260Y-108772960D01*
X111508540Y-47482760D02*
X111015780Y-47467520D01*
X165846760Y-105890060D02*
X163837620Y-105740200D01*
X82854800Y-85448140D02*
X82895440Y-84841080D01*
X171538900Y-51528980D02*
X170411140Y-51696620D01*
X91777820Y-58196480D02*
X92809060Y-56700420D01*
X127099060Y-61854080D02*
X127030480Y-61673740D01*
X203360020Y-50810160D02*
X203166980Y-50680620D01*
X107541060Y-47812960D02*
X106997500Y-47891700D01*
X198729600Y-48762920D02*
X198318120Y-48602900D01*
X153337260Y-63858140D02*
X153319480Y-63847980D01*
X189156340Y-47752000D02*
X188589920Y-47815500D01*
X99331780Y-50876200D02*
X98872040Y-51175920D01*
X196098160Y-48008540D02*
X195686680Y-47922180D01*
X91978480Y-104940100D02*
X91488260Y-104559100D01*
X127891540Y-62920880D02*
X127685800Y-62715140D01*
X159852360Y-52842160D02*
X159321500Y-52882800D01*
X172930820Y-106512360D02*
X172651420Y-106476800D01*
X158846520Y-53926740D02*
X158849060Y-54358540D01*
X153301700Y-63840360D02*
X153283920Y-63832740D01*
X98831400Y-51239420D02*
X98833940Y-51252120D01*
X179852320Y-49938940D02*
X179280820Y-50045620D01*
X123002040Y-49806860D02*
X119588280Y-48950880D01*
X109890560Y-109336840D02*
X109283500Y-109474000D01*
X126839980Y-50830480D02*
X126839980Y-50810160D01*
X87472520Y-67299840D02*
X88414860Y-65029080D01*
X177297080Y-50497740D02*
X176669700Y-50612040D01*
X114259360Y-47678340D02*
X113880900Y-47617380D01*
X208635600Y-55209440D02*
X208699100Y-55211980D01*
X218808300Y-78359000D02*
X219235020Y-80474820D01*
X82806540Y-86377780D02*
X82854800Y-85448140D01*
X106220260Y-109636560D02*
X106039920Y-109593380D01*
X203944220Y-51201320D02*
X203850240Y-51127660D01*
X82910680Y-89070180D02*
X82844640Y-88282780D01*
X104670860Y-107805220D02*
X104681020Y-107614720D01*
X197797420Y-109095540D02*
X197751700Y-109189520D01*
X192831720Y-109534960D02*
X192382140Y-109456220D01*
X197261480Y-48265080D02*
X196679820Y-48140620D01*
X195150740Y-109811820D02*
X194843400Y-109783880D01*
X129606040Y-63764160D02*
X129428240Y-63738760D01*
X126921260Y-61259720D02*
X126883160Y-61028580D01*
X98833940Y-51252120D02*
X98839020Y-51262280D01*
X96405700Y-107607100D02*
X96286320Y-107548680D01*
X196712840Y-109788960D02*
X196575680Y-109814360D01*
X129258060Y-63700660D02*
X129070100Y-63647320D01*
X208531460Y-55211980D02*
X208572100Y-55209440D01*
X203527660Y-50934620D02*
X203360020Y-50810160D01*
X205018640Y-107835700D02*
X204792580Y-107756960D01*
X209697320Y-56296560D02*
X209895440Y-56555640D01*
X197866000Y-106451400D02*
X197873620Y-106519980D01*
X104868980Y-106558080D02*
G75*
G03*
X99171298Y-105536349I-2844800J533400D01*
G01*
X99171298Y-105536349D02*
X99153980Y-105618280D01*
X187037980Y-48120300D02*
X186527440Y-48224440D01*
X155249880Y-105427780D02*
X150548340Y-105379520D01*
X189651640Y-47718980D02*
X189156340Y-47752000D01*
X109110780Y-47614840D02*
X108712000Y-47668180D01*
X208572100Y-55209440D02*
X208635600Y-55209440D01*
X82895440Y-84841080D02*
X82936080Y-83995260D01*
X94322900Y-55021480D02*
X94345760Y-55011320D01*
X104777540Y-107078780D02*
X104808020Y-106885740D01*
X95539560Y-107182920D02*
X94358460Y-106507280D01*
X90182700Y-103449120D02*
X89286080Y-102539800D01*
X97094040Y-107787440D02*
X97022920Y-107784900D01*
X177985420Y-50352960D02*
X177297080Y-50497740D01*
X135707120Y-63794640D02*
X133167120Y-63822580D01*
X219951300Y-86245700D02*
X219958920Y-87701120D01*
X126827280Y-50759360D02*
X126819660Y-50751740D01*
X197779640Y-48417480D02*
X197261480Y-48265080D01*
X210350100Y-105427780D02*
X208777840Y-106499660D01*
X212694520Y-103538020D02*
X211800440Y-104360980D01*
X186235340Y-108331000D02*
X185549540Y-108209080D01*
X195440300Y-109824520D02*
X195150740Y-109811820D01*
X98839020Y-51262280D02*
X98854260Y-51287680D01*
X203926440Y-107007660D02*
X203847700Y-106809540D01*
X119588280Y-48950880D02*
X118912640Y-48724820D01*
X203690220Y-106347260D02*
X203659740Y-106126280D01*
X193794380Y-109667040D02*
X193294000Y-109603540D01*
X191279780Y-47614840D02*
X190670180Y-47637700D01*
X130378200Y-63797180D02*
X129987040Y-63787020D01*
X98475800Y-107261660D02*
X98358960Y-107360720D01*
X96593660Y-107685840D02*
X96509840Y-107655360D01*
X92809060Y-56700420D02*
X93573600Y-55763160D01*
X219872560Y-84226400D02*
X219905580Y-84973160D01*
X97889060Y-107645200D02*
X97782380Y-107680760D01*
X86060280Y-98353880D02*
X85239860Y-96857820D01*
X200830180Y-49496980D02*
X200172320Y-49248060D01*
X199151240Y-48900080D02*
X198729600Y-48762920D01*
X106309160Y-48033940D02*
X105549700Y-48216820D01*
X190670180Y-47637700D02*
X190167260Y-47663100D01*
X164414200Y-52440840D02*
X163525200Y-52544980D01*
X181536340Y-107579160D02*
X180845460Y-107457240D01*
X106354880Y-109654340D02*
X106220260Y-109636560D01*
X128016000Y-63042800D02*
X127891540Y-62920880D01*
X98795840Y-106855260D02*
X98701860Y-107010200D01*
X174586900Y-50990500D02*
X173746160Y-51142900D01*
X219837000Y-83708240D02*
X219872560Y-84226400D01*
X126746000Y-50698400D02*
X126654560Y-50660300D01*
X114896900Y-108427520D02*
X112044480Y-108943140D01*
X158242000Y-105506520D02*
X155249880Y-105427780D01*
X208851500Y-55338980D02*
X209697320Y-56296560D01*
X126839980Y-50960020D02*
X126839980Y-50830480D01*
X103187500Y-48986440D02*
X101922580Y-49507140D01*
X200172320Y-49248060D02*
X199547480Y-49049940D01*
X153162000Y-63822580D02*
X153068020Y-63817500D01*
X197873620Y-106519980D02*
X197883780Y-106580940D01*
X183786780Y-48922940D02*
X183004460Y-49133760D01*
X106039920Y-109593380D02*
X105895140Y-109545120D01*
X98839020Y-51203860D02*
X98831400Y-51214020D01*
X195138040Y-47851060D02*
X194355720Y-47746920D01*
X112044480Y-108943140D02*
X109890560Y-109336840D01*
X193448940Y-47652940D02*
X192836800Y-47609760D01*
X207782325Y-56016927D02*
X208376520Y-55305960D01*
X196052440Y-109857540D02*
X195742560Y-109844840D01*
X197860920Y-106408220D02*
X197866000Y-106451400D01*
X110865920Y-47467520D02*
X110713520Y-47475140D01*
X163837620Y-105740200D02*
X161909760Y-105641140D01*
X138076940Y-63792100D02*
X135707120Y-63794640D01*
X87795100Y-100904040D02*
X86974680Y-99814380D01*
X94396560Y-55003700D02*
X94424500Y-55006240D01*
X219910660Y-88877140D02*
X219740480Y-90307160D01*
X112328960Y-47515780D02*
X111508540Y-47482760D01*
X101287580Y-49817020D02*
X100373180Y-50274220D01*
X197751700Y-109189520D02*
X197703440Y-109270800D01*
X203166980Y-50680620D02*
X203001880Y-50591720D01*
X175859440Y-50777140D02*
X175257460Y-50871120D01*
X203847700Y-106809540D02*
X203751180Y-106545380D01*
X153283920Y-63832740D02*
X153253440Y-63827660D01*
X219694760Y-82641440D02*
X219814140Y-83433920D01*
X94424500Y-55006240D02*
X94447360Y-55016400D01*
X185206640Y-48549560D02*
X184906920Y-48618140D01*
X101922580Y-49507140D02*
X101287580Y-49817020D01*
X204000100Y-51363880D02*
X203995020Y-51297840D01*
X188694060Y-108745020D02*
X187045600Y-108470700D01*
X105148380Y-109057440D02*
X105062020Y-108938060D01*
X85293200Y-73530460D02*
X85676740Y-72275700D01*
X84594700Y-95420180D02*
X83990180Y-93822520D01*
X115371880Y-47871380D02*
X115039140Y-47807880D01*
X180248560Y-107391200D02*
X179265580Y-107279440D01*
X216484200Y-98823780D02*
X215168480Y-100708460D01*
X197857165Y-106312694D02*
X197858380Y-106354880D01*
X126781560Y-50721260D02*
X126768860Y-50713640D01*
X113256060Y-47581820D02*
X112847120Y-47543720D01*
X104701340Y-107431840D02*
X104734360Y-107226100D01*
X128280160Y-63258700D02*
X128122680Y-63139320D01*
X86057740Y-71163180D02*
X86611460Y-69583300D01*
X126857760Y-60827920D02*
X126852680Y-60596780D01*
X219519500Y-81795620D02*
X219694760Y-82641440D01*
X192382140Y-109456220D02*
X191427100Y-109253020D01*
X96509840Y-107655360D02*
X96405700Y-107607100D01*
X173746160Y-51142900D02*
X173230540Y-51249580D01*
X82997040Y-83314540D02*
X83080860Y-82842100D01*
X98963480Y-106542840D02*
X98912680Y-106652060D01*
X98828860Y-51221640D02*
X98828860Y-51231800D01*
X198112380Y-107637580D02*
X198127620Y-107746800D01*
X83525360Y-80322420D02*
X83723480Y-79474060D01*
X208737200Y-55227220D02*
X208790540Y-55272940D01*
X128882140Y-63576200D02*
X128696720Y-63500000D01*
X202143360Y-50124360D02*
X201810620Y-49936400D01*
X96809560Y-107739180D02*
X96687640Y-107708700D01*
X83256120Y-91089480D02*
X83060540Y-90096340D01*
X153375360Y-63893700D02*
X153355040Y-63873380D01*
X104579420Y-48511460D02*
X103840280Y-48762920D01*
X94267020Y-55054500D02*
X94292420Y-55036720D01*
X105572560Y-109397800D02*
X105394760Y-109286040D01*
X104769920Y-108404660D02*
X104701340Y-108267500D01*
X205851760Y-107853480D02*
X205625700Y-107873800D01*
X110713520Y-47475140D02*
X110467140Y-47485300D01*
X206072740Y-107805220D02*
X205851760Y-107853480D01*
X126832360Y-50769520D02*
X126827280Y-50759360D01*
X97383600Y-107772200D02*
X97297240Y-107779820D01*
X94523560Y-55059580D02*
X94584520Y-55100220D01*
X203471780Y-105288080D02*
G75*
G03*
X197857165Y-106312694I-2743200J-863600D01*
G01*
X109006640Y-109522260D02*
X108473240Y-109585760D01*
X208498440Y-55222140D02*
X208531460Y-55211980D01*
X150688040Y-63817500D02*
X150291800Y-63817500D01*
X113880900Y-47617380D02*
X113725960Y-47609760D01*
X198003160Y-108600240D02*
X197901560Y-108872020D01*
X105285540Y-109197140D02*
X105148380Y-109057440D01*
X98844100Y-51198780D02*
X98839020Y-51203860D01*
X187045600Y-108470700D02*
X186235340Y-108331000D01*
X196575680Y-109814360D02*
X196369940Y-109844840D01*
X104734360Y-107226100D02*
X104777540Y-107078780D01*
X99029520Y-106296460D02*
X98999040Y-106433620D01*
X205625700Y-107873800D02*
X205430120Y-107886500D01*
X90078560Y-61315600D02*
X90947240Y-59580780D01*
X219958920Y-87701120D02*
X219910660Y-88877140D01*
X161150300Y-52745640D02*
X160492440Y-52791360D01*
X151843740Y-63820040D02*
X151604980Y-63820040D01*
X169321480Y-51856640D02*
X167924480Y-52064920D01*
X110294420Y-47500540D02*
X109580680Y-47561500D01*
X85239860Y-96857820D02*
X84594700Y-95420180D01*
X158849060Y-54358540D02*
X158831280Y-56024780D01*
X177020220Y-106967020D02*
X174459900Y-106652060D01*
X150291800Y-63817500D02*
X145750280Y-63804800D01*
X158943040Y-52925980D02*
X158922720Y-52933600D01*
X104655620Y-108074460D02*
X104658160Y-108016040D01*
X108712000Y-47668180D02*
X108005880Y-47754540D01*
X180522880Y-49776380D02*
X179852320Y-49938940D01*
X166281100Y-52240180D02*
X165341300Y-52344320D01*
X104848660Y-108574840D02*
X104769920Y-108404660D01*
X197355460Y-109540040D02*
X197157340Y-109634020D01*
X153393140Y-63919100D02*
X153375360Y-63893700D01*
X160492440Y-52791360D02*
X159852360Y-52842160D01*
X126809500Y-50741580D02*
X126794260Y-50731420D01*
X205143100Y-107856020D02*
X205018640Y-107835700D01*
X98145600Y-107520740D02*
X98071940Y-107563920D01*
X158965900Y-52918360D02*
X158943040Y-52925980D01*
X198102220Y-108275120D02*
X198059040Y-108468160D01*
X181091840Y-49631600D02*
X180522880Y-49776380D01*
X129428240Y-63738760D02*
X129258060Y-63700660D01*
X202834240Y-50492660D02*
X202440540Y-50274220D01*
X184337960Y-48768000D02*
X183786780Y-48922940D01*
X206959200Y-107454700D02*
X206072740Y-107805220D01*
X98656140Y-107073700D02*
X98579940Y-107160060D01*
X153319480Y-63847980D02*
X153301700Y-63840360D01*
X203606400Y-105849420D02*
X203542900Y-105577640D01*
X98579940Y-107160060D02*
X98475800Y-107261660D01*
X84670900Y-75755500D02*
X84988400Y-74615040D01*
X158859220Y-53385720D02*
X158846520Y-53926740D01*
X108005880Y-47754540D02*
X107541060Y-47812960D01*
X126883160Y-61028580D02*
X126857760Y-60827920D01*
X217180160Y-97706180D02*
X216484200Y-98823780D01*
X103840280Y-48762920D02*
X103187500Y-48986440D01*
X94292420Y-55036720D02*
X94322900Y-55021480D01*
X83977480Y-78414880D02*
X84264500Y-77251560D01*
X116771420Y-48183800D02*
X115994180Y-47993300D01*
X127685800Y-62715140D02*
X127457200Y-62453520D01*
X211800440Y-104360980D02*
X210350100Y-105427780D01*
X190167260Y-47663100D02*
X189651640Y-47718980D01*
X88590120Y-101780340D02*
X87795100Y-100904040D01*
X86974680Y-99814380D02*
X86060280Y-98353880D01*
X158904940Y-52943760D02*
X158892240Y-52959000D01*
M02*
