%TF.GenerationSoftware,KiCad,Pcbnew,(6.0.0)*%
%TF.CreationDate,2022-05-12T16:51:59+02:00*%
%TF.ProjectId,Vectrex Pad miniNeoGeo-rounded,56656374-7265-4782-9050-6164206d696e,1.2*%
%TF.SameCoordinates,Original*%
%TF.FileFunction,Paste,Top*%
%TF.FilePolarity,Positive*%
%FSLAX46Y46*%
G04 Gerber Fmt 4.6, Leading zero omitted, Abs format (unit mm)*
G04 Created by KiCad (PCBNEW (6.0.0)) date 2022-05-12 16:51:59*
%MOMM*%
%LPD*%
G01*
G04 APERTURE LIST*
G04 Aperture macros list*
%AMRoundRect*
0 Rectangle with rounded corners*
0 $1 Rounding radius*
0 $2 $3 $4 $5 $6 $7 $8 $9 X,Y pos of 4 corners*
0 Add a 4 corners polygon primitive as box body*
4,1,4,$2,$3,$4,$5,$6,$7,$8,$9,$2,$3,0*
0 Add four circle primitives for the rounded corners*
1,1,$1+$1,$2,$3*
1,1,$1+$1,$4,$5*
1,1,$1+$1,$6,$7*
1,1,$1+$1,$8,$9*
0 Add four rect primitives between the rounded corners*
20,1,$1+$1,$2,$3,$4,$5,0*
20,1,$1+$1,$4,$5,$6,$7,0*
20,1,$1+$1,$6,$7,$8,$9,0*
20,1,$1+$1,$8,$9,$2,$3,0*%
G04 Aperture macros list end*
%ADD10RoundRect,0.250000X0.262500X0.450000X-0.262500X0.450000X-0.262500X-0.450000X0.262500X-0.450000X0*%
%ADD11RoundRect,0.250000X-0.475000X0.250000X-0.475000X-0.250000X0.475000X-0.250000X0.475000X0.250000X0*%
%ADD12RoundRect,0.100000X-0.100000X-0.450000X0.100000X-0.450000X0.100000X0.450000X-0.100000X0.450000X0*%
%ADD13RoundRect,0.250000X-0.262500X-0.450000X0.262500X-0.450000X0.262500X0.450000X-0.262500X0.450000X0*%
%ADD14RoundRect,0.250000X0.450000X-0.262500X0.450000X0.262500X-0.450000X0.262500X-0.450000X-0.262500X0*%
%ADD15RoundRect,0.250000X0.475000X-0.250000X0.475000X0.250000X-0.475000X0.250000X-0.475000X-0.250000X0*%
%ADD16RoundRect,0.250000X-0.450000X0.262500X-0.450000X-0.262500X0.450000X-0.262500X0.450000X0.262500X0*%
%ADD17RoundRect,0.100000X0.100000X-0.637500X0.100000X0.637500X-0.100000X0.637500X-0.100000X-0.637500X0*%
%ADD18RoundRect,0.100000X-0.100000X0.637500X-0.100000X-0.637500X0.100000X-0.637500X0.100000X0.637500X0*%
%ADD19RoundRect,0.250000X-0.250000X-0.475000X0.250000X-0.475000X0.250000X0.475000X-0.250000X0.475000X0*%
G04 APERTURE END LIST*
D10*
%TO.C,R6*%
X133627500Y-81915000D03*
X131802500Y-81915000D03*
%TD*%
D11*
%TO.C,C3*%
X133350000Y-89220000D03*
X133350000Y-91120000D03*
%TD*%
D12*
%TO.C,U2*%
X136185000Y-80005000D03*
X136835000Y-80005000D03*
X137485000Y-80005000D03*
X138135000Y-80005000D03*
X138135000Y-76205000D03*
X137485000Y-76205000D03*
X136835000Y-76205000D03*
X136185000Y-76205000D03*
%TD*%
D13*
%TO.C,R8*%
X125452500Y-93980000D03*
X127277500Y-93980000D03*
%TD*%
D10*
%TO.C,R2*%
X160932500Y-77470000D03*
X159107500Y-77470000D03*
%TD*%
D13*
%TO.C,R10*%
X127357500Y-81915000D03*
X129182500Y-81915000D03*
%TD*%
D14*
%TO.C,R4*%
X177800000Y-86637500D03*
X177800000Y-84812500D03*
%TD*%
D15*
%TO.C,C2*%
X125730000Y-91120000D03*
X125730000Y-89220000D03*
%TD*%
D14*
%TO.C,R3*%
X173990000Y-86637500D03*
X173990000Y-84812500D03*
%TD*%
D16*
%TO.C,R7*%
X134620000Y-68937500D03*
X134620000Y-70762500D03*
%TD*%
%TO.C,R9*%
X131445000Y-68937500D03*
X131445000Y-70762500D03*
%TD*%
D13*
%TO.C,R1*%
X163552500Y-77470000D03*
X165377500Y-77470000D03*
%TD*%
D17*
%TO.C,U4*%
X128860000Y-79062500D03*
X129510000Y-79062500D03*
X130160000Y-79062500D03*
X130810000Y-79062500D03*
X131460000Y-79062500D03*
X132110000Y-79062500D03*
X132760000Y-79062500D03*
X132760000Y-73337500D03*
X132110000Y-73337500D03*
X131460000Y-73337500D03*
X130810000Y-73337500D03*
X130160000Y-73337500D03*
X129510000Y-73337500D03*
X128860000Y-73337500D03*
%TD*%
D12*
%TO.C,U3*%
X136185000Y-87625000D03*
X136835000Y-87625000D03*
X137485000Y-87625000D03*
X138135000Y-87625000D03*
X138135000Y-83825000D03*
X137485000Y-83825000D03*
X136835000Y-83825000D03*
X136185000Y-83825000D03*
%TD*%
D18*
%TO.C,U1*%
X130515000Y-85365000D03*
X129865000Y-85365000D03*
X129215000Y-85365000D03*
X128565000Y-85365000D03*
X128565000Y-91165000D03*
X129215000Y-91165000D03*
X129865000Y-91165000D03*
X130515000Y-91165000D03*
%TD*%
D11*
%TO.C,C4*%
X133350000Y-84140000D03*
X133350000Y-86040000D03*
%TD*%
D19*
%TO.C,C5*%
X136210000Y-73025000D03*
X138110000Y-73025000D03*
%TD*%
D15*
%TO.C,C1*%
X128270000Y-70800000D03*
X128270000Y-68900000D03*
%TD*%
D10*
%TO.C,R5*%
X131722500Y-93980000D03*
X129897500Y-93980000D03*
%TD*%
M02*
