%TF.GenerationSoftware,KiCad,Pcbnew,(6.0.0)*%
%TF.CreationDate,2022-04-05T22:00:02+02:00*%
%TF.ProjectId,Vectrex Pad miniNeoGeo,56656374-7265-4782-9050-6164206d696e,rev?*%
%TF.SameCoordinates,Original*%
%TF.FileFunction,Soldermask,Bot*%
%TF.FilePolarity,Negative*%
%FSLAX46Y46*%
G04 Gerber Fmt 4.6, Leading zero omitted, Abs format (unit mm)*
G04 Created by KiCad (PCBNEW (6.0.0)) date 2022-04-05 22:00:02*
%MOMM*%
%LPD*%
G01*
G04 APERTURE LIST*
G04 Aperture macros list*
%AMRoundRect*
0 Rectangle with rounded corners*
0 $1 Rounding radius*
0 $2 $3 $4 $5 $6 $7 $8 $9 X,Y pos of 4 corners*
0 Add a 4 corners polygon primitive as box body*
4,1,4,$2,$3,$4,$5,$6,$7,$8,$9,$2,$3,0*
0 Add four circle primitives for the rounded corners*
1,1,$1+$1,$2,$3*
1,1,$1+$1,$4,$5*
1,1,$1+$1,$6,$7*
1,1,$1+$1,$8,$9*
0 Add four rect primitives between the rounded corners*
20,1,$1+$1,$2,$3,$4,$5,0*
20,1,$1+$1,$4,$5,$6,$7,0*
20,1,$1+$1,$6,$7,$8,$9,0*
20,1,$1+$1,$8,$9,$2,$3,0*%
%AMHorizOval*
0 Thick line with rounded ends*
0 $1 width*
0 $2 $3 position (X,Y) of the first rounded end (center of the circle)*
0 $4 $5 position (X,Y) of the second rounded end (center of the circle)*
0 Add line between two ends*
20,1,$1,$2,$3,$4,$5,0*
0 Add two circle primitives to create the rounded ends*
1,1,$1,$2,$3*
1,1,$1,$4,$5*%
G04 Aperture macros list end*
%ADD10RoundRect,0.058333X0.116667X0.491667X-0.116667X0.491667X-0.116667X-0.491667X0.116667X-0.491667X0*%
%ADD11RoundRect,0.050000X0.125000X0.500000X-0.125000X0.500000X-0.125000X-0.500000X0.125000X-0.500000X0*%
%ADD12O,1.778000X2.667000*%
%ADD13O,2.222000X3.429000*%
%ADD14O,2.667000X1.778000*%
%ADD15C,5.200000*%
%ADD16C,4.000000*%
%ADD17C,2.340000*%
%ADD18C,1.700000*%
%ADD19C,2.200000*%
%ADD20HorizOval,2.000000X-0.265699X0.423561X0.265699X-0.423561X0*%
%ADD21C,1.400000*%
%ADD22C,1.524000*%
%ADD23RoundRect,0.250000X-0.450000X0.262500X-0.450000X-0.262500X0.450000X-0.262500X0.450000X0.262500X0*%
%ADD24RoundRect,0.250000X0.450000X-0.262500X0.450000X0.262500X-0.450000X0.262500X-0.450000X-0.262500X0*%
%ADD25RoundRect,0.250000X-0.250000X-0.475000X0.250000X-0.475000X0.250000X0.475000X-0.250000X0.475000X0*%
G04 APERTURE END LIST*
D10*
%TO.C,U3*%
X168615000Y-87625000D03*
X167965000Y-87625000D03*
X167315000Y-87625000D03*
X166665000Y-87625000D03*
X166665000Y-83825000D03*
X167315000Y-83825000D03*
X167965000Y-83825000D03*
D11*
X168615000Y-83825000D03*
%TD*%
D10*
%TO.C,U2*%
X168615000Y-80005000D03*
X167965000Y-80005000D03*
X167315000Y-80005000D03*
X166665000Y-80005000D03*
X166665000Y-76205000D03*
X167315000Y-76205000D03*
X167965000Y-76205000D03*
D11*
X168615000Y-76205000D03*
%TD*%
D12*
%TO.C,VR1*%
X116840000Y-85090000D03*
X114300000Y-85090000D03*
X111760000Y-85090000D03*
D13*
X107950000Y-71120000D03*
X107950000Y-81280000D03*
X120650000Y-81280000D03*
X120650000Y-71120000D03*
D14*
X105410000Y-73660000D03*
X105410000Y-76200000D03*
X105410000Y-78740000D03*
%TD*%
D15*
%TO.C,*%
X214805260Y-89890600D03*
%TD*%
D16*
%TO.C,RV3*%
X139700000Y-92685000D03*
D17*
X134700000Y-95185000D03*
X144700000Y-92685000D03*
X134700000Y-90185000D03*
%TD*%
D15*
%TO.C,*%
X207385920Y-101866700D03*
%TD*%
D16*
%TO.C,RV1*%
X139700000Y-82525000D03*
D17*
X134700000Y-85025000D03*
X144700000Y-82525000D03*
X134700000Y-80025000D03*
%TD*%
D18*
%TO.C,*%
X196941440Y-100185220D03*
%TD*%
D19*
%TO.C,*%
X152189180Y-84754720D03*
%TD*%
D18*
%TO.C,*%
X120192800Y-62908180D03*
%TD*%
%TO.C,*%
X120149620Y-89481660D03*
%TD*%
D16*
%TO.C,RV2*%
X114325000Y-101600000D03*
D17*
X111825000Y-96600000D03*
X114325000Y-106600000D03*
X116825000Y-96600000D03*
%TD*%
D15*
%TO.C,*%
X94193360Y-98193860D03*
%TD*%
D20*
%TO.C,SW6*%
X151485599Y-96492829D03*
X161820487Y-90009767D03*
D21*
X152600307Y-94317990D03*
X154294551Y-93255193D03*
X155988795Y-92192396D03*
X159377282Y-90066801D03*
X153928804Y-96435795D03*
X155623047Y-95372998D03*
X157317291Y-94310200D03*
X160705779Y-92184606D03*
%TD*%
D22*
%TO.C,J1*%
X142748000Y-68072000D03*
X139700000Y-71120000D03*
X139700000Y-68072000D03*
X142748000Y-71120000D03*
X136652000Y-71120000D03*
X136652000Y-68072000D03*
X142748000Y-74168000D03*
X139700000Y-74168000D03*
X136652000Y-74168000D03*
%TD*%
D18*
%TO.C,*%
X108140500Y-62890400D03*
%TD*%
D20*
%TO.C,SW5*%
X151511020Y-79416023D03*
X161845908Y-72932961D03*
D21*
X152625728Y-77241184D03*
X154319972Y-76178387D03*
X156014216Y-75115590D03*
X159402703Y-72989995D03*
X153954225Y-79358989D03*
X155648468Y-78296192D03*
X157342712Y-77233394D03*
X160731200Y-75107800D03*
%TD*%
D16*
%TO.C,RV5*%
X177825000Y-100330000D03*
D17*
X175325000Y-95330000D03*
X177825000Y-105330000D03*
X180325000Y-95330000D03*
%TD*%
D15*
%TO.C,*%
X87276940Y-86525100D03*
%TD*%
D16*
%TO.C,RV4*%
X124485000Y-100330000D03*
D17*
X121985000Y-95330000D03*
X124485000Y-105330000D03*
X126985000Y-95330000D03*
%TD*%
D23*
%TO.C,R2*%
X144780000Y-76557500D03*
X144780000Y-78382500D03*
%TD*%
D24*
%TO.C,R4*%
X127000000Y-86637500D03*
X127000000Y-84812500D03*
%TD*%
%TO.C,R3*%
X130810000Y-86637500D03*
X130810000Y-84812500D03*
%TD*%
D23*
%TO.C,R1*%
X140970000Y-76557500D03*
X140970000Y-78382500D03*
%TD*%
D25*
%TO.C,C4*%
X171196000Y-82042000D03*
X173096000Y-82042000D03*
%TD*%
M02*
