%TF.GenerationSoftware,KiCad,Pcbnew,(6.99.0-1875-gfe1a5267a2)*%
%TF.CreationDate,2022-05-26T15:01:28+02:00*%
%TF.ProjectId,Vectrex Pad miniNeoGeo-rounded,56656374-7265-4782-9050-6164206d696e,1.2*%
%TF.SameCoordinates,Original*%
%TF.FileFunction,Legend,Top*%
%TF.FilePolarity,Positive*%
%FSLAX46Y46*%
G04 Gerber Fmt 4.6, Leading zero omitted, Abs format (unit mm)*
G04 Created by KiCad (PCBNEW (6.99.0-1875-gfe1a5267a2)) date 2022-05-26 15:01:28*
%MOMM*%
%LPD*%
G01*
G04 APERTURE LIST*
%ADD10C,0.800000*%
%ADD11C,0.300000*%
%ADD12C,0.400000*%
%ADD13C,0.150000*%
%ADD14C,0.120000*%
%ADD15C,0.010000*%
%ADD16C,1.000000*%
G04 APERTURE END LIST*
D10*
X135128001Y-78994000D02*
G75*
G03*
X135128001Y-78994000I-1J0D01*
G01*
X131699001Y-86614000D02*
G75*
G03*
X131699001Y-86614000I-1J0D01*
G01*
X127635000Y-77978000D02*
G75*
G03*
X127635000Y-77978000I-1J0D01*
G01*
X135128001Y-86614000D02*
G75*
G03*
X135128001Y-86614000I-1J0D01*
G01*
D11*
X156928858Y-95571071D02*
X157428858Y-97071071D01*
X157428858Y-97071071D02*
X157928858Y-95571071D01*
X159000286Y-96999642D02*
X158857429Y-97071071D01*
X158857429Y-97071071D02*
X158571715Y-97071071D01*
X158571715Y-97071071D02*
X158428857Y-96999642D01*
X158428857Y-96999642D02*
X158357429Y-96856785D01*
X158357429Y-96856785D02*
X158357429Y-96285357D01*
X158357429Y-96285357D02*
X158428857Y-96142500D01*
X158428857Y-96142500D02*
X158571715Y-96071071D01*
X158571715Y-96071071D02*
X158857429Y-96071071D01*
X158857429Y-96071071D02*
X159000286Y-96142500D01*
X159000286Y-96142500D02*
X159071715Y-96285357D01*
X159071715Y-96285357D02*
X159071715Y-96428214D01*
X159071715Y-96428214D02*
X158357429Y-96571071D01*
X159714571Y-97071071D02*
X159714571Y-96071071D01*
X159714571Y-96356785D02*
X159786000Y-96213928D01*
X159786000Y-96213928D02*
X159857429Y-96142500D01*
X159857429Y-96142500D02*
X160000286Y-96071071D01*
X160000286Y-96071071D02*
X160143143Y-96071071D01*
X160428857Y-96071071D02*
X161000285Y-96071071D01*
X160643142Y-95571071D02*
X160643142Y-96856785D01*
X160643142Y-96856785D02*
X160714571Y-96999642D01*
X160714571Y-96999642D02*
X160857428Y-97071071D01*
X160857428Y-97071071D02*
X161000285Y-97071071D01*
X161500285Y-97071071D02*
X161500285Y-96071071D01*
X161500285Y-95571071D02*
X161428857Y-95642500D01*
X161428857Y-95642500D02*
X161500285Y-95713928D01*
X161500285Y-95713928D02*
X161571714Y-95642500D01*
X161571714Y-95642500D02*
X161500285Y-95571071D01*
X161500285Y-95571071D02*
X161500285Y-95713928D01*
X162857429Y-96999642D02*
X162714571Y-97071071D01*
X162714571Y-97071071D02*
X162428857Y-97071071D01*
X162428857Y-97071071D02*
X162286000Y-96999642D01*
X162286000Y-96999642D02*
X162214571Y-96928214D01*
X162214571Y-96928214D02*
X162143143Y-96785357D01*
X162143143Y-96785357D02*
X162143143Y-96356785D01*
X162143143Y-96356785D02*
X162214571Y-96213928D01*
X162214571Y-96213928D02*
X162286000Y-96142500D01*
X162286000Y-96142500D02*
X162428857Y-96071071D01*
X162428857Y-96071071D02*
X162714571Y-96071071D01*
X162714571Y-96071071D02*
X162857429Y-96142500D01*
X164143143Y-97071071D02*
X164143143Y-96285357D01*
X164143143Y-96285357D02*
X164071714Y-96142500D01*
X164071714Y-96142500D02*
X163928857Y-96071071D01*
X163928857Y-96071071D02*
X163643143Y-96071071D01*
X163643143Y-96071071D02*
X163500285Y-96142500D01*
X164143143Y-96999642D02*
X164000285Y-97071071D01*
X164000285Y-97071071D02*
X163643143Y-97071071D01*
X163643143Y-97071071D02*
X163500285Y-96999642D01*
X163500285Y-96999642D02*
X163428857Y-96856785D01*
X163428857Y-96856785D02*
X163428857Y-96713928D01*
X163428857Y-96713928D02*
X163500285Y-96571071D01*
X163500285Y-96571071D02*
X163643143Y-96499642D01*
X163643143Y-96499642D02*
X164000285Y-96499642D01*
X164000285Y-96499642D02*
X164143143Y-96428214D01*
X165071714Y-97071071D02*
X164928857Y-96999642D01*
X164928857Y-96999642D02*
X164857428Y-96856785D01*
X164857428Y-96856785D02*
X164857428Y-95571071D01*
D12*
X101143571Y-93444761D02*
X101143571Y-91444761D01*
X101143571Y-91444761D02*
X101905476Y-91444761D01*
X101905476Y-91444761D02*
X102095952Y-91540000D01*
X102095952Y-91540000D02*
X102191190Y-91635238D01*
X102191190Y-91635238D02*
X102286428Y-91825714D01*
X102286428Y-91825714D02*
X102286428Y-92111428D01*
X102286428Y-92111428D02*
X102191190Y-92301904D01*
X102191190Y-92301904D02*
X102095952Y-92397142D01*
X102095952Y-92397142D02*
X101905476Y-92492380D01*
X101905476Y-92492380D02*
X101143571Y-92492380D01*
X104000714Y-93444761D02*
X104000714Y-92397142D01*
X104000714Y-92397142D02*
X103905476Y-92206666D01*
X103905476Y-92206666D02*
X103715000Y-92111428D01*
X103715000Y-92111428D02*
X103334047Y-92111428D01*
X103334047Y-92111428D02*
X103143571Y-92206666D01*
X104000714Y-93349523D02*
X103810238Y-93444761D01*
X103810238Y-93444761D02*
X103334047Y-93444761D01*
X103334047Y-93444761D02*
X103143571Y-93349523D01*
X103143571Y-93349523D02*
X103048333Y-93159047D01*
X103048333Y-93159047D02*
X103048333Y-92968571D01*
X103048333Y-92968571D02*
X103143571Y-92778095D01*
X103143571Y-92778095D02*
X103334047Y-92682857D01*
X103334047Y-92682857D02*
X103810238Y-92682857D01*
X103810238Y-92682857D02*
X104000714Y-92587619D01*
X105810238Y-93444761D02*
X105810238Y-91444761D01*
X105810238Y-93349523D02*
X105619762Y-93444761D01*
X105619762Y-93444761D02*
X105238809Y-93444761D01*
X105238809Y-93444761D02*
X105048333Y-93349523D01*
X105048333Y-93349523D02*
X104953095Y-93254285D01*
X104953095Y-93254285D02*
X104857857Y-93063809D01*
X104857857Y-93063809D02*
X104857857Y-92492380D01*
X104857857Y-92492380D02*
X104953095Y-92301904D01*
X104953095Y-92301904D02*
X105048333Y-92206666D01*
X105048333Y-92206666D02*
X105238809Y-92111428D01*
X105238809Y-92111428D02*
X105619762Y-92111428D01*
X105619762Y-92111428D02*
X105810238Y-92206666D01*
X107676905Y-91444761D02*
X108343571Y-93444761D01*
X108343571Y-93444761D02*
X109010238Y-91444761D01*
X110724524Y-93444761D02*
X109581667Y-93444761D01*
X110153095Y-93444761D02*
X110153095Y-91444761D01*
X110153095Y-91444761D02*
X109962619Y-91730476D01*
X109962619Y-91730476D02*
X109772143Y-91920952D01*
X109772143Y-91920952D02*
X109581667Y-92016190D01*
X111581667Y-93254285D02*
X111676905Y-93349523D01*
X111676905Y-93349523D02*
X111581667Y-93444761D01*
X111581667Y-93444761D02*
X111486429Y-93349523D01*
X111486429Y-93349523D02*
X111581667Y-93254285D01*
X111581667Y-93254285D02*
X111581667Y-93444761D01*
X112438810Y-91635238D02*
X112534048Y-91540000D01*
X112534048Y-91540000D02*
X112724524Y-91444761D01*
X112724524Y-91444761D02*
X113200715Y-91444761D01*
X113200715Y-91444761D02*
X113391191Y-91540000D01*
X113391191Y-91540000D02*
X113486429Y-91635238D01*
X113486429Y-91635238D02*
X113581667Y-91825714D01*
X113581667Y-91825714D02*
X113581667Y-92016190D01*
X113581667Y-92016190D02*
X113486429Y-92301904D01*
X113486429Y-92301904D02*
X112343572Y-93444761D01*
X112343572Y-93444761D02*
X113581667Y-93444761D01*
X131667619Y-99476523D02*
X131953333Y-99571761D01*
X131953333Y-99571761D02*
X132429524Y-99571761D01*
X132429524Y-99571761D02*
X132620000Y-99476523D01*
X132620000Y-99476523D02*
X132715238Y-99381285D01*
X132715238Y-99381285D02*
X132810476Y-99190809D01*
X132810476Y-99190809D02*
X132810476Y-99000333D01*
X132810476Y-99000333D02*
X132715238Y-98809857D01*
X132715238Y-98809857D02*
X132620000Y-98714619D01*
X132620000Y-98714619D02*
X132429524Y-98619380D01*
X132429524Y-98619380D02*
X132048571Y-98524142D01*
X132048571Y-98524142D02*
X131858095Y-98428904D01*
X131858095Y-98428904D02*
X131762857Y-98333666D01*
X131762857Y-98333666D02*
X131667619Y-98143190D01*
X131667619Y-98143190D02*
X131667619Y-97952714D01*
X131667619Y-97952714D02*
X131762857Y-97762238D01*
X131762857Y-97762238D02*
X131858095Y-97667000D01*
X131858095Y-97667000D02*
X132048571Y-97571761D01*
X132048571Y-97571761D02*
X132524762Y-97571761D01*
X132524762Y-97571761D02*
X132810476Y-97667000D01*
X133667619Y-99571761D02*
X133667619Y-97571761D01*
X134524762Y-99571761D02*
X134524762Y-98524142D01*
X134524762Y-98524142D02*
X134429524Y-98333666D01*
X134429524Y-98333666D02*
X134239048Y-98238428D01*
X134239048Y-98238428D02*
X133953333Y-98238428D01*
X133953333Y-98238428D02*
X133762857Y-98333666D01*
X133762857Y-98333666D02*
X133667619Y-98428904D01*
X135762857Y-99571761D02*
X135572381Y-99476523D01*
X135572381Y-99476523D02*
X135477143Y-99381285D01*
X135477143Y-99381285D02*
X135381905Y-99190809D01*
X135381905Y-99190809D02*
X135381905Y-98619380D01*
X135381905Y-98619380D02*
X135477143Y-98428904D01*
X135477143Y-98428904D02*
X135572381Y-98333666D01*
X135572381Y-98333666D02*
X135762857Y-98238428D01*
X135762857Y-98238428D02*
X136048572Y-98238428D01*
X136048572Y-98238428D02*
X136239048Y-98333666D01*
X136239048Y-98333666D02*
X136334286Y-98428904D01*
X136334286Y-98428904D02*
X136429524Y-98619380D01*
X136429524Y-98619380D02*
X136429524Y-99190809D01*
X136429524Y-99190809D02*
X136334286Y-99381285D01*
X136334286Y-99381285D02*
X136239048Y-99476523D01*
X136239048Y-99476523D02*
X136048572Y-99571761D01*
X136048572Y-99571761D02*
X135762857Y-99571761D01*
X137000953Y-98238428D02*
X137762857Y-98238428D01*
X137286667Y-97571761D02*
X137286667Y-99286047D01*
X137286667Y-99286047D02*
X137381905Y-99476523D01*
X137381905Y-99476523D02*
X137572381Y-99571761D01*
X137572381Y-99571761D02*
X137762857Y-99571761D01*
X130524761Y-102716523D02*
X130810475Y-102811761D01*
X130810475Y-102811761D02*
X131286666Y-102811761D01*
X131286666Y-102811761D02*
X131477142Y-102716523D01*
X131477142Y-102716523D02*
X131572380Y-102621285D01*
X131572380Y-102621285D02*
X131667618Y-102430809D01*
X131667618Y-102430809D02*
X131667618Y-102240333D01*
X131667618Y-102240333D02*
X131572380Y-102049857D01*
X131572380Y-102049857D02*
X131477142Y-101954619D01*
X131477142Y-101954619D02*
X131286666Y-101859380D01*
X131286666Y-101859380D02*
X130905713Y-101764142D01*
X130905713Y-101764142D02*
X130715237Y-101668904D01*
X130715237Y-101668904D02*
X130619999Y-101573666D01*
X130619999Y-101573666D02*
X130524761Y-101383190D01*
X130524761Y-101383190D02*
X130524761Y-101192714D01*
X130524761Y-101192714D02*
X130619999Y-101002238D01*
X130619999Y-101002238D02*
X130715237Y-100907000D01*
X130715237Y-100907000D02*
X130905713Y-100811761D01*
X130905713Y-100811761D02*
X131381904Y-100811761D01*
X131381904Y-100811761D02*
X131667618Y-100907000D01*
X132524761Y-101478428D02*
X132524761Y-103478428D01*
X132524761Y-101573666D02*
X132715237Y-101478428D01*
X132715237Y-101478428D02*
X133096190Y-101478428D01*
X133096190Y-101478428D02*
X133286666Y-101573666D01*
X133286666Y-101573666D02*
X133381904Y-101668904D01*
X133381904Y-101668904D02*
X133477142Y-101859380D01*
X133477142Y-101859380D02*
X133477142Y-102430809D01*
X133477142Y-102430809D02*
X133381904Y-102621285D01*
X133381904Y-102621285D02*
X133286666Y-102716523D01*
X133286666Y-102716523D02*
X133096190Y-102811761D01*
X133096190Y-102811761D02*
X132715237Y-102811761D01*
X132715237Y-102811761D02*
X132524761Y-102716523D01*
X135096190Y-102716523D02*
X134905714Y-102811761D01*
X134905714Y-102811761D02*
X134524761Y-102811761D01*
X134524761Y-102811761D02*
X134334285Y-102716523D01*
X134334285Y-102716523D02*
X134239047Y-102526047D01*
X134239047Y-102526047D02*
X134239047Y-101764142D01*
X134239047Y-101764142D02*
X134334285Y-101573666D01*
X134334285Y-101573666D02*
X134524761Y-101478428D01*
X134524761Y-101478428D02*
X134905714Y-101478428D01*
X134905714Y-101478428D02*
X135096190Y-101573666D01*
X135096190Y-101573666D02*
X135191428Y-101764142D01*
X135191428Y-101764142D02*
X135191428Y-101954619D01*
X135191428Y-101954619D02*
X134239047Y-102145095D01*
X136810476Y-102716523D02*
X136620000Y-102811761D01*
X136620000Y-102811761D02*
X136239047Y-102811761D01*
X136239047Y-102811761D02*
X136048571Y-102716523D01*
X136048571Y-102716523D02*
X135953333Y-102526047D01*
X135953333Y-102526047D02*
X135953333Y-101764142D01*
X135953333Y-101764142D02*
X136048571Y-101573666D01*
X136048571Y-101573666D02*
X136239047Y-101478428D01*
X136239047Y-101478428D02*
X136620000Y-101478428D01*
X136620000Y-101478428D02*
X136810476Y-101573666D01*
X136810476Y-101573666D02*
X136905714Y-101764142D01*
X136905714Y-101764142D02*
X136905714Y-101954619D01*
X136905714Y-101954619D02*
X135953333Y-102145095D01*
X138620000Y-102811761D02*
X138620000Y-100811761D01*
X138620000Y-102716523D02*
X138429524Y-102811761D01*
X138429524Y-102811761D02*
X138048571Y-102811761D01*
X138048571Y-102811761D02*
X137858095Y-102716523D01*
X137858095Y-102716523D02*
X137762857Y-102621285D01*
X137762857Y-102621285D02*
X137667619Y-102430809D01*
X137667619Y-102430809D02*
X137667619Y-101859380D01*
X137667619Y-101859380D02*
X137762857Y-101668904D01*
X137762857Y-101668904D02*
X137858095Y-101573666D01*
X137858095Y-101573666D02*
X138048571Y-101478428D01*
X138048571Y-101478428D02*
X138429524Y-101478428D01*
X138429524Y-101478428D02*
X138620000Y-101573666D01*
X166370095Y-85570857D02*
X167893905Y-85570857D01*
X123952095Y-97762857D02*
X125475905Y-97762857D01*
X124968095Y-104112857D02*
X126491905Y-104112857D01*
X125730000Y-104874761D02*
X125730000Y-103350952D01*
D11*
X154373142Y-86657071D02*
X154373142Y-85157071D01*
X154373142Y-85871357D02*
X155230285Y-85871357D01*
X155230285Y-86657071D02*
X155230285Y-85157071D01*
X156158857Y-86657071D02*
X156016000Y-86585642D01*
X156016000Y-86585642D02*
X155944571Y-86514214D01*
X155944571Y-86514214D02*
X155873143Y-86371357D01*
X155873143Y-86371357D02*
X155873143Y-85942785D01*
X155873143Y-85942785D02*
X155944571Y-85799928D01*
X155944571Y-85799928D02*
X156016000Y-85728500D01*
X156016000Y-85728500D02*
X156158857Y-85657071D01*
X156158857Y-85657071D02*
X156373143Y-85657071D01*
X156373143Y-85657071D02*
X156516000Y-85728500D01*
X156516000Y-85728500D02*
X156587429Y-85799928D01*
X156587429Y-85799928D02*
X156658857Y-85942785D01*
X156658857Y-85942785D02*
X156658857Y-86371357D01*
X156658857Y-86371357D02*
X156587429Y-86514214D01*
X156587429Y-86514214D02*
X156516000Y-86585642D01*
X156516000Y-86585642D02*
X156373143Y-86657071D01*
X156373143Y-86657071D02*
X156158857Y-86657071D01*
X157301714Y-86657071D02*
X157301714Y-85657071D01*
X157301714Y-85942785D02*
X157373143Y-85799928D01*
X157373143Y-85799928D02*
X157444572Y-85728500D01*
X157444572Y-85728500D02*
X157587429Y-85657071D01*
X157587429Y-85657071D02*
X157730286Y-85657071D01*
X158230285Y-86657071D02*
X158230285Y-85657071D01*
X158230285Y-85157071D02*
X158158857Y-85228500D01*
X158158857Y-85228500D02*
X158230285Y-85299928D01*
X158230285Y-85299928D02*
X158301714Y-85228500D01*
X158301714Y-85228500D02*
X158230285Y-85157071D01*
X158230285Y-85157071D02*
X158230285Y-85299928D01*
X158801714Y-85657071D02*
X159587429Y-85657071D01*
X159587429Y-85657071D02*
X158801714Y-86657071D01*
X158801714Y-86657071D02*
X159587429Y-86657071D01*
X160373143Y-86657071D02*
X160230286Y-86585642D01*
X160230286Y-86585642D02*
X160158857Y-86514214D01*
X160158857Y-86514214D02*
X160087429Y-86371357D01*
X160087429Y-86371357D02*
X160087429Y-85942785D01*
X160087429Y-85942785D02*
X160158857Y-85799928D01*
X160158857Y-85799928D02*
X160230286Y-85728500D01*
X160230286Y-85728500D02*
X160373143Y-85657071D01*
X160373143Y-85657071D02*
X160587429Y-85657071D01*
X160587429Y-85657071D02*
X160730286Y-85728500D01*
X160730286Y-85728500D02*
X160801715Y-85799928D01*
X160801715Y-85799928D02*
X160873143Y-85942785D01*
X160873143Y-85942785D02*
X160873143Y-86371357D01*
X160873143Y-86371357D02*
X160801715Y-86514214D01*
X160801715Y-86514214D02*
X160730286Y-86585642D01*
X160730286Y-86585642D02*
X160587429Y-86657071D01*
X160587429Y-86657071D02*
X160373143Y-86657071D01*
X161516000Y-85657071D02*
X161516000Y-86657071D01*
X161516000Y-85799928D02*
X161587429Y-85728500D01*
X161587429Y-85728500D02*
X161730286Y-85657071D01*
X161730286Y-85657071D02*
X161944572Y-85657071D01*
X161944572Y-85657071D02*
X162087429Y-85728500D01*
X162087429Y-85728500D02*
X162158858Y-85871357D01*
X162158858Y-85871357D02*
X162158858Y-86657071D01*
X162658858Y-85657071D02*
X163230286Y-85657071D01*
X162873143Y-85157071D02*
X162873143Y-86442785D01*
X162873143Y-86442785D02*
X162944572Y-86585642D01*
X162944572Y-86585642D02*
X163087429Y-86657071D01*
X163087429Y-86657071D02*
X163230286Y-86657071D01*
X164373144Y-86657071D02*
X164373144Y-85871357D01*
X164373144Y-85871357D02*
X164301715Y-85728500D01*
X164301715Y-85728500D02*
X164158858Y-85657071D01*
X164158858Y-85657071D02*
X163873144Y-85657071D01*
X163873144Y-85657071D02*
X163730286Y-85728500D01*
X164373144Y-86585642D02*
X164230286Y-86657071D01*
X164230286Y-86657071D02*
X163873144Y-86657071D01*
X163873144Y-86657071D02*
X163730286Y-86585642D01*
X163730286Y-86585642D02*
X163658858Y-86442785D01*
X163658858Y-86442785D02*
X163658858Y-86299928D01*
X163658858Y-86299928D02*
X163730286Y-86157071D01*
X163730286Y-86157071D02*
X163873144Y-86085642D01*
X163873144Y-86085642D02*
X164230286Y-86085642D01*
X164230286Y-86085642D02*
X164373144Y-86014214D01*
X165301715Y-86657071D02*
X165158858Y-86585642D01*
X165158858Y-86585642D02*
X165087429Y-86442785D01*
X165087429Y-86442785D02*
X165087429Y-85157071D01*
D12*
X166370095Y-89380857D02*
X167893905Y-89380857D01*
X167132000Y-90142761D02*
X167132000Y-88618952D01*
X166370095Y-79220857D02*
X167893905Y-79220857D01*
X167132000Y-79982761D02*
X167132000Y-78458952D01*
X166370095Y-95730857D02*
X167893905Y-95730857D01*
D13*
%TO.C,R6*%
X132548333Y-80885380D02*
X132215000Y-80409190D01*
X131976905Y-80885380D02*
X131976905Y-79885380D01*
X131976905Y-79885380D02*
X132357857Y-79885380D01*
X132357857Y-79885380D02*
X132453095Y-79933000D01*
X132453095Y-79933000D02*
X132500714Y-79980619D01*
X132500714Y-79980619D02*
X132548333Y-80075857D01*
X132548333Y-80075857D02*
X132548333Y-80218714D01*
X132548333Y-80218714D02*
X132500714Y-80313952D01*
X132500714Y-80313952D02*
X132453095Y-80361571D01*
X132453095Y-80361571D02*
X132357857Y-80409190D01*
X132357857Y-80409190D02*
X131976905Y-80409190D01*
X133405476Y-79885380D02*
X133215000Y-79885380D01*
X133215000Y-79885380D02*
X133119762Y-79933000D01*
X133119762Y-79933000D02*
X133072143Y-79980619D01*
X133072143Y-79980619D02*
X132976905Y-80123476D01*
X132976905Y-80123476D02*
X132929286Y-80313952D01*
X132929286Y-80313952D02*
X132929286Y-80694904D01*
X132929286Y-80694904D02*
X132976905Y-80790142D01*
X132976905Y-80790142D02*
X133024524Y-80837761D01*
X133024524Y-80837761D02*
X133119762Y-80885380D01*
X133119762Y-80885380D02*
X133310238Y-80885380D01*
X133310238Y-80885380D02*
X133405476Y-80837761D01*
X133405476Y-80837761D02*
X133453095Y-80790142D01*
X133453095Y-80790142D02*
X133500714Y-80694904D01*
X133500714Y-80694904D02*
X133500714Y-80456809D01*
X133500714Y-80456809D02*
X133453095Y-80361571D01*
X133453095Y-80361571D02*
X133405476Y-80313952D01*
X133405476Y-80313952D02*
X133310238Y-80266333D01*
X133310238Y-80266333D02*
X133119762Y-80266333D01*
X133119762Y-80266333D02*
X133024524Y-80313952D01*
X133024524Y-80313952D02*
X132976905Y-80361571D01*
X132976905Y-80361571D02*
X132929286Y-80456809D01*
%TO.C,C3*%
X133183333Y-88257742D02*
X133135714Y-88305361D01*
X133135714Y-88305361D02*
X132992857Y-88352980D01*
X132992857Y-88352980D02*
X132897619Y-88352980D01*
X132897619Y-88352980D02*
X132754762Y-88305361D01*
X132754762Y-88305361D02*
X132659524Y-88210123D01*
X132659524Y-88210123D02*
X132611905Y-88114885D01*
X132611905Y-88114885D02*
X132564286Y-87924409D01*
X132564286Y-87924409D02*
X132564286Y-87781552D01*
X132564286Y-87781552D02*
X132611905Y-87591076D01*
X132611905Y-87591076D02*
X132659524Y-87495838D01*
X132659524Y-87495838D02*
X132754762Y-87400600D01*
X132754762Y-87400600D02*
X132897619Y-87352980D01*
X132897619Y-87352980D02*
X132992857Y-87352980D01*
X132992857Y-87352980D02*
X133135714Y-87400600D01*
X133135714Y-87400600D02*
X133183333Y-87448219D01*
X133516667Y-87352980D02*
X134135714Y-87352980D01*
X134135714Y-87352980D02*
X133802381Y-87733933D01*
X133802381Y-87733933D02*
X133945238Y-87733933D01*
X133945238Y-87733933D02*
X134040476Y-87781552D01*
X134040476Y-87781552D02*
X134088095Y-87829171D01*
X134088095Y-87829171D02*
X134135714Y-87924409D01*
X134135714Y-87924409D02*
X134135714Y-88162504D01*
X134135714Y-88162504D02*
X134088095Y-88257742D01*
X134088095Y-88257742D02*
X134040476Y-88305361D01*
X134040476Y-88305361D02*
X133945238Y-88352980D01*
X133945238Y-88352980D02*
X133659524Y-88352980D01*
X133659524Y-88352980D02*
X133564286Y-88305361D01*
X133564286Y-88305361D02*
X133516667Y-88257742D01*
%TO.C,U2*%
X136398095Y-74297380D02*
X136398095Y-75106904D01*
X136398095Y-75106904D02*
X136445714Y-75202142D01*
X136445714Y-75202142D02*
X136493333Y-75249761D01*
X136493333Y-75249761D02*
X136588571Y-75297380D01*
X136588571Y-75297380D02*
X136779047Y-75297380D01*
X136779047Y-75297380D02*
X136874285Y-75249761D01*
X136874285Y-75249761D02*
X136921904Y-75202142D01*
X136921904Y-75202142D02*
X136969523Y-75106904D01*
X136969523Y-75106904D02*
X136969523Y-74297380D01*
X137398095Y-74392619D02*
X137445714Y-74345000D01*
X137445714Y-74345000D02*
X137540952Y-74297380D01*
X137540952Y-74297380D02*
X137779047Y-74297380D01*
X137779047Y-74297380D02*
X137874285Y-74345000D01*
X137874285Y-74345000D02*
X137921904Y-74392619D01*
X137921904Y-74392619D02*
X137969523Y-74487857D01*
X137969523Y-74487857D02*
X137969523Y-74583095D01*
X137969523Y-74583095D02*
X137921904Y-74725952D01*
X137921904Y-74725952D02*
X137350476Y-75297380D01*
X137350476Y-75297380D02*
X137969523Y-75297380D01*
%TO.C,R8*%
X126198333Y-92950380D02*
X125865000Y-92474190D01*
X125626905Y-92950380D02*
X125626905Y-91950380D01*
X125626905Y-91950380D02*
X126007857Y-91950380D01*
X126007857Y-91950380D02*
X126103095Y-91998000D01*
X126103095Y-91998000D02*
X126150714Y-92045619D01*
X126150714Y-92045619D02*
X126198333Y-92140857D01*
X126198333Y-92140857D02*
X126198333Y-92283714D01*
X126198333Y-92283714D02*
X126150714Y-92378952D01*
X126150714Y-92378952D02*
X126103095Y-92426571D01*
X126103095Y-92426571D02*
X126007857Y-92474190D01*
X126007857Y-92474190D02*
X125626905Y-92474190D01*
X126769762Y-92378952D02*
X126674524Y-92331333D01*
X126674524Y-92331333D02*
X126626905Y-92283714D01*
X126626905Y-92283714D02*
X126579286Y-92188476D01*
X126579286Y-92188476D02*
X126579286Y-92140857D01*
X126579286Y-92140857D02*
X126626905Y-92045619D01*
X126626905Y-92045619D02*
X126674524Y-91998000D01*
X126674524Y-91998000D02*
X126769762Y-91950380D01*
X126769762Y-91950380D02*
X126960238Y-91950380D01*
X126960238Y-91950380D02*
X127055476Y-91998000D01*
X127055476Y-91998000D02*
X127103095Y-92045619D01*
X127103095Y-92045619D02*
X127150714Y-92140857D01*
X127150714Y-92140857D02*
X127150714Y-92188476D01*
X127150714Y-92188476D02*
X127103095Y-92283714D01*
X127103095Y-92283714D02*
X127055476Y-92331333D01*
X127055476Y-92331333D02*
X126960238Y-92378952D01*
X126960238Y-92378952D02*
X126769762Y-92378952D01*
X126769762Y-92378952D02*
X126674524Y-92426571D01*
X126674524Y-92426571D02*
X126626905Y-92474190D01*
X126626905Y-92474190D02*
X126579286Y-92569428D01*
X126579286Y-92569428D02*
X126579286Y-92759904D01*
X126579286Y-92759904D02*
X126626905Y-92855142D01*
X126626905Y-92855142D02*
X126674524Y-92902761D01*
X126674524Y-92902761D02*
X126769762Y-92950380D01*
X126769762Y-92950380D02*
X126960238Y-92950380D01*
X126960238Y-92950380D02*
X127055476Y-92902761D01*
X127055476Y-92902761D02*
X127103095Y-92855142D01*
X127103095Y-92855142D02*
X127150714Y-92759904D01*
X127150714Y-92759904D02*
X127150714Y-92569428D01*
X127150714Y-92569428D02*
X127103095Y-92474190D01*
X127103095Y-92474190D02*
X127055476Y-92426571D01*
X127055476Y-92426571D02*
X126960238Y-92378952D01*
%TO.C,R2*%
X159853333Y-76313380D02*
X159520000Y-75837190D01*
X159281905Y-76313380D02*
X159281905Y-75313380D01*
X159281905Y-75313380D02*
X159662857Y-75313380D01*
X159662857Y-75313380D02*
X159758095Y-75361000D01*
X159758095Y-75361000D02*
X159805714Y-75408619D01*
X159805714Y-75408619D02*
X159853333Y-75503857D01*
X159853333Y-75503857D02*
X159853333Y-75646714D01*
X159853333Y-75646714D02*
X159805714Y-75741952D01*
X159805714Y-75741952D02*
X159758095Y-75789571D01*
X159758095Y-75789571D02*
X159662857Y-75837190D01*
X159662857Y-75837190D02*
X159281905Y-75837190D01*
X160234286Y-75408619D02*
X160281905Y-75361000D01*
X160281905Y-75361000D02*
X160377143Y-75313380D01*
X160377143Y-75313380D02*
X160615238Y-75313380D01*
X160615238Y-75313380D02*
X160710476Y-75361000D01*
X160710476Y-75361000D02*
X160758095Y-75408619D01*
X160758095Y-75408619D02*
X160805714Y-75503857D01*
X160805714Y-75503857D02*
X160805714Y-75599095D01*
X160805714Y-75599095D02*
X160758095Y-75741952D01*
X160758095Y-75741952D02*
X160186667Y-76313380D01*
X160186667Y-76313380D02*
X160805714Y-76313380D01*
%TO.C,R10*%
X127627142Y-80885380D02*
X127293809Y-80409190D01*
X127055714Y-80885380D02*
X127055714Y-79885380D01*
X127055714Y-79885380D02*
X127436666Y-79885380D01*
X127436666Y-79885380D02*
X127531904Y-79933000D01*
X127531904Y-79933000D02*
X127579523Y-79980619D01*
X127579523Y-79980619D02*
X127627142Y-80075857D01*
X127627142Y-80075857D02*
X127627142Y-80218714D01*
X127627142Y-80218714D02*
X127579523Y-80313952D01*
X127579523Y-80313952D02*
X127531904Y-80361571D01*
X127531904Y-80361571D02*
X127436666Y-80409190D01*
X127436666Y-80409190D02*
X127055714Y-80409190D01*
X128579523Y-80885380D02*
X128008095Y-80885380D01*
X128293809Y-80885380D02*
X128293809Y-79885380D01*
X128293809Y-79885380D02*
X128198571Y-80028238D01*
X128198571Y-80028238D02*
X128103333Y-80123476D01*
X128103333Y-80123476D02*
X128008095Y-80171095D01*
X129198571Y-79885380D02*
X129293809Y-79885380D01*
X129293809Y-79885380D02*
X129389047Y-79933000D01*
X129389047Y-79933000D02*
X129436666Y-79980619D01*
X129436666Y-79980619D02*
X129484285Y-80075857D01*
X129484285Y-80075857D02*
X129531904Y-80266333D01*
X129531904Y-80266333D02*
X129531904Y-80504428D01*
X129531904Y-80504428D02*
X129484285Y-80694904D01*
X129484285Y-80694904D02*
X129436666Y-80790142D01*
X129436666Y-80790142D02*
X129389047Y-80837761D01*
X129389047Y-80837761D02*
X129293809Y-80885380D01*
X129293809Y-80885380D02*
X129198571Y-80885380D01*
X129198571Y-80885380D02*
X129103333Y-80837761D01*
X129103333Y-80837761D02*
X129055714Y-80790142D01*
X129055714Y-80790142D02*
X129008095Y-80694904D01*
X129008095Y-80694904D02*
X128960476Y-80504428D01*
X128960476Y-80504428D02*
X128960476Y-80266333D01*
X128960476Y-80266333D02*
X129008095Y-80075857D01*
X129008095Y-80075857D02*
X129055714Y-79980619D01*
X129055714Y-79980619D02*
X129103333Y-79933000D01*
X129103333Y-79933000D02*
X129198571Y-79885380D01*
%TO.C,R4*%
X174458333Y-77583380D02*
X174125000Y-77107190D01*
X173886905Y-77583380D02*
X173886905Y-76583380D01*
X173886905Y-76583380D02*
X174267857Y-76583380D01*
X174267857Y-76583380D02*
X174363095Y-76631000D01*
X174363095Y-76631000D02*
X174410714Y-76678619D01*
X174410714Y-76678619D02*
X174458333Y-76773857D01*
X174458333Y-76773857D02*
X174458333Y-76916714D01*
X174458333Y-76916714D02*
X174410714Y-77011952D01*
X174410714Y-77011952D02*
X174363095Y-77059571D01*
X174363095Y-77059571D02*
X174267857Y-77107190D01*
X174267857Y-77107190D02*
X173886905Y-77107190D01*
X175315476Y-76916714D02*
X175315476Y-77583380D01*
X175077381Y-76535761D02*
X174839286Y-77250047D01*
X174839286Y-77250047D02*
X175458333Y-77250047D01*
%TO.C,C2*%
X125563333Y-88257742D02*
X125515714Y-88305361D01*
X125515714Y-88305361D02*
X125372857Y-88352980D01*
X125372857Y-88352980D02*
X125277619Y-88352980D01*
X125277619Y-88352980D02*
X125134762Y-88305361D01*
X125134762Y-88305361D02*
X125039524Y-88210123D01*
X125039524Y-88210123D02*
X124991905Y-88114885D01*
X124991905Y-88114885D02*
X124944286Y-87924409D01*
X124944286Y-87924409D02*
X124944286Y-87781552D01*
X124944286Y-87781552D02*
X124991905Y-87591076D01*
X124991905Y-87591076D02*
X125039524Y-87495838D01*
X125039524Y-87495838D02*
X125134762Y-87400600D01*
X125134762Y-87400600D02*
X125277619Y-87352980D01*
X125277619Y-87352980D02*
X125372857Y-87352980D01*
X125372857Y-87352980D02*
X125515714Y-87400600D01*
X125515714Y-87400600D02*
X125563333Y-87448219D01*
X125944286Y-87448219D02*
X125991905Y-87400600D01*
X125991905Y-87400600D02*
X126087143Y-87352980D01*
X126087143Y-87352980D02*
X126325238Y-87352980D01*
X126325238Y-87352980D02*
X126420476Y-87400600D01*
X126420476Y-87400600D02*
X126468095Y-87448219D01*
X126468095Y-87448219D02*
X126515714Y-87543457D01*
X126515714Y-87543457D02*
X126515714Y-87638695D01*
X126515714Y-87638695D02*
X126468095Y-87781552D01*
X126468095Y-87781552D02*
X125896667Y-88352980D01*
X125896667Y-88352980D02*
X126515714Y-88352980D01*
%TO.C,R3*%
X174458333Y-86473380D02*
X174125000Y-85997190D01*
X173886905Y-86473380D02*
X173886905Y-85473380D01*
X173886905Y-85473380D02*
X174267857Y-85473380D01*
X174267857Y-85473380D02*
X174363095Y-85521000D01*
X174363095Y-85521000D02*
X174410714Y-85568619D01*
X174410714Y-85568619D02*
X174458333Y-85663857D01*
X174458333Y-85663857D02*
X174458333Y-85806714D01*
X174458333Y-85806714D02*
X174410714Y-85901952D01*
X174410714Y-85901952D02*
X174363095Y-85949571D01*
X174363095Y-85949571D02*
X174267857Y-85997190D01*
X174267857Y-85997190D02*
X173886905Y-85997190D01*
X174791667Y-85473380D02*
X175410714Y-85473380D01*
X175410714Y-85473380D02*
X175077381Y-85854333D01*
X175077381Y-85854333D02*
X175220238Y-85854333D01*
X175220238Y-85854333D02*
X175315476Y-85901952D01*
X175315476Y-85901952D02*
X175363095Y-85949571D01*
X175363095Y-85949571D02*
X175410714Y-86044809D01*
X175410714Y-86044809D02*
X175410714Y-86282904D01*
X175410714Y-86282904D02*
X175363095Y-86378142D01*
X175363095Y-86378142D02*
X175315476Y-86425761D01*
X175315476Y-86425761D02*
X175220238Y-86473380D01*
X175220238Y-86473380D02*
X174934524Y-86473380D01*
X174934524Y-86473380D02*
X174839286Y-86425761D01*
X174839286Y-86425761D02*
X174791667Y-86378142D01*
%TO.C,R7*%
X134453333Y-67931380D02*
X134120000Y-67455190D01*
X133881905Y-67931380D02*
X133881905Y-66931380D01*
X133881905Y-66931380D02*
X134262857Y-66931380D01*
X134262857Y-66931380D02*
X134358095Y-66979000D01*
X134358095Y-66979000D02*
X134405714Y-67026619D01*
X134405714Y-67026619D02*
X134453333Y-67121857D01*
X134453333Y-67121857D02*
X134453333Y-67264714D01*
X134453333Y-67264714D02*
X134405714Y-67359952D01*
X134405714Y-67359952D02*
X134358095Y-67407571D01*
X134358095Y-67407571D02*
X134262857Y-67455190D01*
X134262857Y-67455190D02*
X133881905Y-67455190D01*
X134786667Y-66931380D02*
X135453333Y-66931380D01*
X135453333Y-66931380D02*
X135024762Y-67931380D01*
%TO.C,R9*%
X131278333Y-67931380D02*
X130945000Y-67455190D01*
X130706905Y-67931380D02*
X130706905Y-66931380D01*
X130706905Y-66931380D02*
X131087857Y-66931380D01*
X131087857Y-66931380D02*
X131183095Y-66979000D01*
X131183095Y-66979000D02*
X131230714Y-67026619D01*
X131230714Y-67026619D02*
X131278333Y-67121857D01*
X131278333Y-67121857D02*
X131278333Y-67264714D01*
X131278333Y-67264714D02*
X131230714Y-67359952D01*
X131230714Y-67359952D02*
X131183095Y-67407571D01*
X131183095Y-67407571D02*
X131087857Y-67455190D01*
X131087857Y-67455190D02*
X130706905Y-67455190D01*
X131754524Y-67931380D02*
X131945000Y-67931380D01*
X131945000Y-67931380D02*
X132040238Y-67883761D01*
X132040238Y-67883761D02*
X132087857Y-67836142D01*
X132087857Y-67836142D02*
X132183095Y-67693285D01*
X132183095Y-67693285D02*
X132230714Y-67502809D01*
X132230714Y-67502809D02*
X132230714Y-67121857D01*
X132230714Y-67121857D02*
X132183095Y-67026619D01*
X132183095Y-67026619D02*
X132135476Y-66979000D01*
X132135476Y-66979000D02*
X132040238Y-66931380D01*
X132040238Y-66931380D02*
X131849762Y-66931380D01*
X131849762Y-66931380D02*
X131754524Y-66979000D01*
X131754524Y-66979000D02*
X131706905Y-67026619D01*
X131706905Y-67026619D02*
X131659286Y-67121857D01*
X131659286Y-67121857D02*
X131659286Y-67359952D01*
X131659286Y-67359952D02*
X131706905Y-67455190D01*
X131706905Y-67455190D02*
X131754524Y-67502809D01*
X131754524Y-67502809D02*
X131849762Y-67550428D01*
X131849762Y-67550428D02*
X132040238Y-67550428D01*
X132040238Y-67550428D02*
X132135476Y-67502809D01*
X132135476Y-67502809D02*
X132183095Y-67455190D01*
X132183095Y-67455190D02*
X132230714Y-67359952D01*
%TO.C,R1*%
X164298333Y-76313380D02*
X163965000Y-75837190D01*
X163726905Y-76313380D02*
X163726905Y-75313380D01*
X163726905Y-75313380D02*
X164107857Y-75313380D01*
X164107857Y-75313380D02*
X164203095Y-75361000D01*
X164203095Y-75361000D02*
X164250714Y-75408619D01*
X164250714Y-75408619D02*
X164298333Y-75503857D01*
X164298333Y-75503857D02*
X164298333Y-75646714D01*
X164298333Y-75646714D02*
X164250714Y-75741952D01*
X164250714Y-75741952D02*
X164203095Y-75789571D01*
X164203095Y-75789571D02*
X164107857Y-75837190D01*
X164107857Y-75837190D02*
X163726905Y-75837190D01*
X165250714Y-76313380D02*
X164679286Y-76313380D01*
X164965000Y-76313380D02*
X164965000Y-75313380D01*
X164965000Y-75313380D02*
X164869762Y-75456238D01*
X164869762Y-75456238D02*
X164774524Y-75551476D01*
X164774524Y-75551476D02*
X164679286Y-75599095D01*
%TO.C,U4*%
X126238095Y-75567380D02*
X126238095Y-76376904D01*
X126238095Y-76376904D02*
X126285714Y-76472142D01*
X126285714Y-76472142D02*
X126333333Y-76519761D01*
X126333333Y-76519761D02*
X126428571Y-76567380D01*
X126428571Y-76567380D02*
X126619047Y-76567380D01*
X126619047Y-76567380D02*
X126714285Y-76519761D01*
X126714285Y-76519761D02*
X126761904Y-76472142D01*
X126761904Y-76472142D02*
X126809523Y-76376904D01*
X126809523Y-76376904D02*
X126809523Y-75567380D01*
X127714285Y-75900714D02*
X127714285Y-76567380D01*
X127476190Y-75519761D02*
X127238095Y-76234047D01*
X127238095Y-76234047D02*
X127857142Y-76234047D01*
%TO.C,U3*%
X136398095Y-81917380D02*
X136398095Y-82726904D01*
X136398095Y-82726904D02*
X136445714Y-82822142D01*
X136445714Y-82822142D02*
X136493333Y-82869761D01*
X136493333Y-82869761D02*
X136588571Y-82917380D01*
X136588571Y-82917380D02*
X136779047Y-82917380D01*
X136779047Y-82917380D02*
X136874285Y-82869761D01*
X136874285Y-82869761D02*
X136921904Y-82822142D01*
X136921904Y-82822142D02*
X136969523Y-82726904D01*
X136969523Y-82726904D02*
X136969523Y-81917380D01*
X137350476Y-81917380D02*
X137969523Y-81917380D01*
X137969523Y-81917380D02*
X137636190Y-82298333D01*
X137636190Y-82298333D02*
X137779047Y-82298333D01*
X137779047Y-82298333D02*
X137874285Y-82345952D01*
X137874285Y-82345952D02*
X137921904Y-82393571D01*
X137921904Y-82393571D02*
X137969523Y-82488809D01*
X137969523Y-82488809D02*
X137969523Y-82726904D01*
X137969523Y-82726904D02*
X137921904Y-82822142D01*
X137921904Y-82822142D02*
X137874285Y-82869761D01*
X137874285Y-82869761D02*
X137779047Y-82917380D01*
X137779047Y-82917380D02*
X137493333Y-82917380D01*
X137493333Y-82917380D02*
X137398095Y-82869761D01*
X137398095Y-82869761D02*
X137350476Y-82822142D01*
%TO.C,U1*%
X128778095Y-83288980D02*
X128778095Y-84098504D01*
X128778095Y-84098504D02*
X128825714Y-84193742D01*
X128825714Y-84193742D02*
X128873333Y-84241361D01*
X128873333Y-84241361D02*
X128968571Y-84288980D01*
X128968571Y-84288980D02*
X129159047Y-84288980D01*
X129159047Y-84288980D02*
X129254285Y-84241361D01*
X129254285Y-84241361D02*
X129301904Y-84193742D01*
X129301904Y-84193742D02*
X129349523Y-84098504D01*
X129349523Y-84098504D02*
X129349523Y-83288980D01*
X130349523Y-84288980D02*
X129778095Y-84288980D01*
X130063809Y-84288980D02*
X130063809Y-83288980D01*
X130063809Y-83288980D02*
X129968571Y-83431838D01*
X129968571Y-83431838D02*
X129873333Y-83527076D01*
X129873333Y-83527076D02*
X129778095Y-83574695D01*
%TO.C,C4*%
X133183333Y-83457142D02*
X133135714Y-83504761D01*
X133135714Y-83504761D02*
X132992857Y-83552380D01*
X132992857Y-83552380D02*
X132897619Y-83552380D01*
X132897619Y-83552380D02*
X132754762Y-83504761D01*
X132754762Y-83504761D02*
X132659524Y-83409523D01*
X132659524Y-83409523D02*
X132611905Y-83314285D01*
X132611905Y-83314285D02*
X132564286Y-83123809D01*
X132564286Y-83123809D02*
X132564286Y-82980952D01*
X132564286Y-82980952D02*
X132611905Y-82790476D01*
X132611905Y-82790476D02*
X132659524Y-82695238D01*
X132659524Y-82695238D02*
X132754762Y-82600000D01*
X132754762Y-82600000D02*
X132897619Y-82552380D01*
X132897619Y-82552380D02*
X132992857Y-82552380D01*
X132992857Y-82552380D02*
X133135714Y-82600000D01*
X133135714Y-82600000D02*
X133183333Y-82647619D01*
X134040476Y-82885714D02*
X134040476Y-83552380D01*
X133802381Y-82504761D02*
X133564286Y-83219047D01*
X133564286Y-83219047D02*
X134183333Y-83219047D01*
%TO.C,C5*%
X136993333Y-71773142D02*
X136945714Y-71820761D01*
X136945714Y-71820761D02*
X136802857Y-71868380D01*
X136802857Y-71868380D02*
X136707619Y-71868380D01*
X136707619Y-71868380D02*
X136564762Y-71820761D01*
X136564762Y-71820761D02*
X136469524Y-71725523D01*
X136469524Y-71725523D02*
X136421905Y-71630285D01*
X136421905Y-71630285D02*
X136374286Y-71439809D01*
X136374286Y-71439809D02*
X136374286Y-71296952D01*
X136374286Y-71296952D02*
X136421905Y-71106476D01*
X136421905Y-71106476D02*
X136469524Y-71011238D01*
X136469524Y-71011238D02*
X136564762Y-70916000D01*
X136564762Y-70916000D02*
X136707619Y-70868380D01*
X136707619Y-70868380D02*
X136802857Y-70868380D01*
X136802857Y-70868380D02*
X136945714Y-70916000D01*
X136945714Y-70916000D02*
X136993333Y-70963619D01*
X137898095Y-70868380D02*
X137421905Y-70868380D01*
X137421905Y-70868380D02*
X137374286Y-71344571D01*
X137374286Y-71344571D02*
X137421905Y-71296952D01*
X137421905Y-71296952D02*
X137517143Y-71249333D01*
X137517143Y-71249333D02*
X137755238Y-71249333D01*
X137755238Y-71249333D02*
X137850476Y-71296952D01*
X137850476Y-71296952D02*
X137898095Y-71344571D01*
X137898095Y-71344571D02*
X137945714Y-71439809D01*
X137945714Y-71439809D02*
X137945714Y-71677904D01*
X137945714Y-71677904D02*
X137898095Y-71773142D01*
X137898095Y-71773142D02*
X137850476Y-71820761D01*
X137850476Y-71820761D02*
X137755238Y-71868380D01*
X137755238Y-71868380D02*
X137517143Y-71868380D01*
X137517143Y-71868380D02*
X137421905Y-71820761D01*
X137421905Y-71820761D02*
X137374286Y-71773142D01*
%TO.C,C1*%
X128103333Y-67836142D02*
X128055714Y-67883761D01*
X128055714Y-67883761D02*
X127912857Y-67931380D01*
X127912857Y-67931380D02*
X127817619Y-67931380D01*
X127817619Y-67931380D02*
X127674762Y-67883761D01*
X127674762Y-67883761D02*
X127579524Y-67788523D01*
X127579524Y-67788523D02*
X127531905Y-67693285D01*
X127531905Y-67693285D02*
X127484286Y-67502809D01*
X127484286Y-67502809D02*
X127484286Y-67359952D01*
X127484286Y-67359952D02*
X127531905Y-67169476D01*
X127531905Y-67169476D02*
X127579524Y-67074238D01*
X127579524Y-67074238D02*
X127674762Y-66979000D01*
X127674762Y-66979000D02*
X127817619Y-66931380D01*
X127817619Y-66931380D02*
X127912857Y-66931380D01*
X127912857Y-66931380D02*
X128055714Y-66979000D01*
X128055714Y-66979000D02*
X128103333Y-67026619D01*
X129055714Y-67931380D02*
X128484286Y-67931380D01*
X128770000Y-67931380D02*
X128770000Y-66931380D01*
X128770000Y-66931380D02*
X128674762Y-67074238D01*
X128674762Y-67074238D02*
X128579524Y-67169476D01*
X128579524Y-67169476D02*
X128484286Y-67217095D01*
%TO.C,R5*%
X130643333Y-92924980D02*
X130310000Y-92448790D01*
X130071905Y-92924980D02*
X130071905Y-91924980D01*
X130071905Y-91924980D02*
X130452857Y-91924980D01*
X130452857Y-91924980D02*
X130548095Y-91972600D01*
X130548095Y-91972600D02*
X130595714Y-92020219D01*
X130595714Y-92020219D02*
X130643333Y-92115457D01*
X130643333Y-92115457D02*
X130643333Y-92258314D01*
X130643333Y-92258314D02*
X130595714Y-92353552D01*
X130595714Y-92353552D02*
X130548095Y-92401171D01*
X130548095Y-92401171D02*
X130452857Y-92448790D01*
X130452857Y-92448790D02*
X130071905Y-92448790D01*
X131548095Y-91924980D02*
X131071905Y-91924980D01*
X131071905Y-91924980D02*
X131024286Y-92401171D01*
X131024286Y-92401171D02*
X131071905Y-92353552D01*
X131071905Y-92353552D02*
X131167143Y-92305933D01*
X131167143Y-92305933D02*
X131405238Y-92305933D01*
X131405238Y-92305933D02*
X131500476Y-92353552D01*
X131500476Y-92353552D02*
X131548095Y-92401171D01*
X131548095Y-92401171D02*
X131595714Y-92496409D01*
X131595714Y-92496409D02*
X131595714Y-92734504D01*
X131595714Y-92734504D02*
X131548095Y-92829742D01*
X131548095Y-92829742D02*
X131500476Y-92877361D01*
X131500476Y-92877361D02*
X131405238Y-92924980D01*
X131405238Y-92924980D02*
X131167143Y-92924980D01*
X131167143Y-92924980D02*
X131071905Y-92877361D01*
X131071905Y-92877361D02*
X131024286Y-92829742D01*
D14*
%TO.C,R6*%
X132942064Y-82650000D02*
X132487936Y-82650000D01*
X132942064Y-81180000D02*
X132487936Y-81180000D01*
%TO.C,C3*%
X134085000Y-89908748D02*
X134085000Y-90431252D01*
X132615000Y-89908748D02*
X132615000Y-90431252D01*
%TO.C,U2*%
X135660000Y-76605000D02*
X135660000Y-80605000D01*
X138660000Y-76605000D02*
X138660000Y-79605000D01*
%TO.C,R8*%
X126137936Y-93245000D02*
X126592064Y-93245000D01*
X126137936Y-94715000D02*
X126592064Y-94715000D01*
%TO.C,G\u002A\u002A\u002A*%
G36*
X118742251Y-64291495D02*
G01*
X118757401Y-64423610D01*
X118777286Y-64624965D01*
X118800815Y-64883872D01*
X118826900Y-65188645D01*
X118854454Y-65527598D01*
X118863060Y-65636978D01*
X118970056Y-67007537D01*
X117923383Y-68090297D01*
X120712695Y-70879609D01*
X119333644Y-72258661D01*
X114999480Y-67924498D01*
X115803927Y-67120051D01*
X116026781Y-66898867D01*
X116227675Y-66702669D01*
X116397489Y-66540103D01*
X116527108Y-66419812D01*
X116607415Y-66350439D01*
X116629804Y-66337033D01*
X116636083Y-66387460D01*
X116642444Y-66517959D01*
X116648543Y-66715735D01*
X116654038Y-66967994D01*
X116658586Y-67261938D01*
X116661238Y-67509892D01*
X116665951Y-67832428D01*
X116673888Y-68127891D01*
X116684385Y-68382375D01*
X116696779Y-68581978D01*
X116710405Y-68712793D01*
X116720779Y-68756924D01*
X116816877Y-68855214D01*
X116948839Y-68885495D01*
X117086325Y-68844888D01*
X117147336Y-68797423D01*
X117178004Y-68760287D01*
X117202090Y-68710395D01*
X117220139Y-68637602D01*
X117232692Y-68531760D01*
X117240296Y-68382722D01*
X117243495Y-68180341D01*
X117242832Y-67914470D01*
X117238852Y-67574961D01*
X117232940Y-67201427D01*
X117207948Y-65716029D01*
X117958867Y-64965110D01*
X118173942Y-64752087D01*
X118366985Y-64564801D01*
X118528525Y-64412114D01*
X118649096Y-64302897D01*
X118719227Y-64246013D01*
X118732924Y-64240304D01*
X118742251Y-64291495D01*
G37*
D15*
X118742251Y-64291495D02*
X118757401Y-64423610D01*
X118777286Y-64624965D01*
X118800815Y-64883872D01*
X118826900Y-65188645D01*
X118854454Y-65527598D01*
X118863060Y-65636978D01*
X118970056Y-67007537D01*
X117923383Y-68090297D01*
X120712695Y-70879609D01*
X119333644Y-72258661D01*
X114999480Y-67924498D01*
X115803927Y-67120051D01*
X116026781Y-66898867D01*
X116227675Y-66702669D01*
X116397489Y-66540103D01*
X116527108Y-66419812D01*
X116607415Y-66350439D01*
X116629804Y-66337033D01*
X116636083Y-66387460D01*
X116642444Y-66517959D01*
X116648543Y-66715735D01*
X116654038Y-66967994D01*
X116658586Y-67261938D01*
X116661238Y-67509892D01*
X116665951Y-67832428D01*
X116673888Y-68127891D01*
X116684385Y-68382375D01*
X116696779Y-68581978D01*
X116710405Y-68712793D01*
X116720779Y-68756924D01*
X116816877Y-68855214D01*
X116948839Y-68885495D01*
X117086325Y-68844888D01*
X117147336Y-68797423D01*
X117178004Y-68760287D01*
X117202090Y-68710395D01*
X117220139Y-68637602D01*
X117232692Y-68531760D01*
X117240296Y-68382722D01*
X117243495Y-68180341D01*
X117242832Y-67914470D01*
X117238852Y-67574961D01*
X117232940Y-67201427D01*
X117207948Y-65716029D01*
X117958867Y-64965110D01*
X118173942Y-64752087D01*
X118366985Y-64564801D01*
X118528525Y-64412114D01*
X118649096Y-64302897D01*
X118719227Y-64246013D01*
X118732924Y-64240304D01*
X118742251Y-64291495D01*
G36*
X111385234Y-66330391D02*
G01*
X112602555Y-67530483D01*
X113717736Y-66448138D01*
X114832915Y-65365792D01*
X114882800Y-68168998D01*
X114465039Y-68588519D01*
X114047277Y-69008038D01*
X118315772Y-73276533D01*
X116936720Y-74655585D01*
X112818982Y-70537848D01*
X112814759Y-69679926D01*
X112810870Y-69353290D01*
X112802146Y-69108208D01*
X112787523Y-68933439D01*
X112765933Y-68817743D01*
X112736310Y-68749880D01*
X112725308Y-68736776D01*
X112593756Y-68661375D01*
X112450808Y-68672310D01*
X112337369Y-68747873D01*
X112304118Y-68796190D01*
X112277340Y-68874960D01*
X112255623Y-68995787D01*
X112237553Y-69170270D01*
X112221723Y-69410011D01*
X112206720Y-69726609D01*
X112200948Y-69869331D01*
X112160850Y-70894466D01*
X111451390Y-71603926D01*
X111241192Y-71812400D01*
X111052119Y-71996646D01*
X110894238Y-72147124D01*
X110777618Y-72254287D01*
X110712324Y-72308594D01*
X110703011Y-72313386D01*
X110690524Y-72268880D01*
X110673464Y-72142742D01*
X110652861Y-71946039D01*
X110629747Y-71689842D01*
X110605152Y-71385218D01*
X110580106Y-71043237D01*
X110567393Y-70856529D01*
X110533612Y-70349431D01*
X110498401Y-69824230D01*
X110462367Y-69289734D01*
X110426118Y-68754755D01*
X110390258Y-68228101D01*
X110355396Y-67718583D01*
X110322138Y-67235011D01*
X110291092Y-66786191D01*
X110262863Y-66380937D01*
X110238060Y-66028058D01*
X110217288Y-65736362D01*
X110201154Y-65514660D01*
X110190266Y-65371762D01*
X110186624Y-65328789D01*
X110167913Y-65130301D01*
X111385234Y-66330391D01*
G37*
X111385234Y-66330391D02*
X112602555Y-67530483D01*
X113717736Y-66448138D01*
X114832915Y-65365792D01*
X114882800Y-68168998D01*
X114465039Y-68588519D01*
X114047277Y-69008038D01*
X118315772Y-73276533D01*
X116936720Y-74655585D01*
X112818982Y-70537848D01*
X112814759Y-69679926D01*
X112810870Y-69353290D01*
X112802146Y-69108208D01*
X112787523Y-68933439D01*
X112765933Y-68817743D01*
X112736310Y-68749880D01*
X112725308Y-68736776D01*
X112593756Y-68661375D01*
X112450808Y-68672310D01*
X112337369Y-68747873D01*
X112304118Y-68796190D01*
X112277340Y-68874960D01*
X112255623Y-68995787D01*
X112237553Y-69170270D01*
X112221723Y-69410011D01*
X112206720Y-69726609D01*
X112200948Y-69869331D01*
X112160850Y-70894466D01*
X111451390Y-71603926D01*
X111241192Y-71812400D01*
X111052119Y-71996646D01*
X110894238Y-72147124D01*
X110777618Y-72254287D01*
X110712324Y-72308594D01*
X110703011Y-72313386D01*
X110690524Y-72268880D01*
X110673464Y-72142742D01*
X110652861Y-71946039D01*
X110629747Y-71689842D01*
X110605152Y-71385218D01*
X110580106Y-71043237D01*
X110567393Y-70856529D01*
X110533612Y-70349431D01*
X110498401Y-69824230D01*
X110462367Y-69289734D01*
X110426118Y-68754755D01*
X110390258Y-68228101D01*
X110355396Y-67718583D01*
X110322138Y-67235011D01*
X110291092Y-66786191D01*
X110262863Y-66380937D01*
X110238060Y-66028058D01*
X110217288Y-65736362D01*
X110201154Y-65514660D01*
X110190266Y-65371762D01*
X110186624Y-65328789D01*
X110167913Y-65130301D01*
X111385234Y-66330391D01*
G36*
X112157432Y-73153334D02*
G01*
X112160028Y-74233048D01*
X111942468Y-74277330D01*
X111785839Y-74324371D01*
X111642508Y-74407731D01*
X111497535Y-74528345D01*
X111309251Y-74740545D01*
X111206918Y-74965467D01*
X111183937Y-75222390D01*
X111203351Y-75387896D01*
X111238218Y-75538748D01*
X111293750Y-75654672D01*
X111391118Y-75773747D01*
X111453346Y-75837630D01*
X111586043Y-75960381D01*
X111698665Y-76031891D01*
X111829295Y-76073328D01*
X111903081Y-76087625D01*
X112202878Y-76100041D01*
X112469211Y-76026064D01*
X112704417Y-75864994D01*
X112731197Y-75839248D01*
X112916431Y-75598204D01*
X113012558Y-75336904D01*
X113018620Y-75063843D01*
X112933658Y-74787513D01*
X112863965Y-74661989D01*
X112828158Y-74596840D01*
X112800697Y-74519729D01*
X112780497Y-74418083D01*
X112766469Y-74279324D01*
X112757528Y-74090880D01*
X112752586Y-73840174D01*
X112750554Y-73514631D01*
X112750305Y-73347169D01*
X112751833Y-73031704D01*
X112756498Y-72748033D01*
X112763820Y-72509046D01*
X112773318Y-72327631D01*
X112784509Y-72216680D01*
X112793574Y-72187531D01*
X112873169Y-72187452D01*
X113014068Y-72224871D01*
X113196475Y-72292040D01*
X113400591Y-72381209D01*
X113606618Y-72484631D01*
X113727611Y-72553094D01*
X114127817Y-72844248D01*
X114475911Y-73203193D01*
X114764763Y-73616467D01*
X114987241Y-74070611D01*
X115136215Y-74552164D01*
X115204551Y-75047666D01*
X115204209Y-75340222D01*
X115131419Y-75856001D01*
X114974863Y-76352441D01*
X114741479Y-76816194D01*
X114438210Y-77233911D01*
X114071995Y-77592243D01*
X114006022Y-77644720D01*
X113569339Y-77924639D01*
X113095935Y-78124743D01*
X112597770Y-78244305D01*
X112086812Y-78282597D01*
X111575020Y-78238891D01*
X111074359Y-78112459D01*
X110596792Y-77902571D01*
X110516298Y-77857097D01*
X110275500Y-77689595D01*
X110017741Y-77466228D01*
X109769332Y-77213305D01*
X109556581Y-76957138D01*
X109433879Y-76774679D01*
X109205548Y-76295781D01*
X109063424Y-75794745D01*
X109006786Y-75282125D01*
X109034913Y-74768474D01*
X109147086Y-74264346D01*
X109342585Y-73780294D01*
X109620689Y-73326872D01*
X109673910Y-73256447D01*
X110011666Y-72894434D01*
X110411955Y-72588345D01*
X110857934Y-72347093D01*
X111332762Y-72179596D01*
X111819597Y-72094765D01*
X111876372Y-72090665D01*
X112154836Y-72073618D01*
X112157432Y-73153334D01*
G37*
X112157432Y-73153334D02*
X112160028Y-74233048D01*
X111942468Y-74277330D01*
X111785839Y-74324371D01*
X111642508Y-74407731D01*
X111497535Y-74528345D01*
X111309251Y-74740545D01*
X111206918Y-74965467D01*
X111183937Y-75222390D01*
X111203351Y-75387896D01*
X111238218Y-75538748D01*
X111293750Y-75654672D01*
X111391118Y-75773747D01*
X111453346Y-75837630D01*
X111586043Y-75960381D01*
X111698665Y-76031891D01*
X111829295Y-76073328D01*
X111903081Y-76087625D01*
X112202878Y-76100041D01*
X112469211Y-76026064D01*
X112704417Y-75864994D01*
X112731197Y-75839248D01*
X112916431Y-75598204D01*
X113012558Y-75336904D01*
X113018620Y-75063843D01*
X112933658Y-74787513D01*
X112863965Y-74661989D01*
X112828158Y-74596840D01*
X112800697Y-74519729D01*
X112780497Y-74418083D01*
X112766469Y-74279324D01*
X112757528Y-74090880D01*
X112752586Y-73840174D01*
X112750554Y-73514631D01*
X112750305Y-73347169D01*
X112751833Y-73031704D01*
X112756498Y-72748033D01*
X112763820Y-72509046D01*
X112773318Y-72327631D01*
X112784509Y-72216680D01*
X112793574Y-72187531D01*
X112873169Y-72187452D01*
X113014068Y-72224871D01*
X113196475Y-72292040D01*
X113400591Y-72381209D01*
X113606618Y-72484631D01*
X113727611Y-72553094D01*
X114127817Y-72844248D01*
X114475911Y-73203193D01*
X114764763Y-73616467D01*
X114987241Y-74070611D01*
X115136215Y-74552164D01*
X115204551Y-75047666D01*
X115204209Y-75340222D01*
X115131419Y-75856001D01*
X114974863Y-76352441D01*
X114741479Y-76816194D01*
X114438210Y-77233911D01*
X114071995Y-77592243D01*
X114006022Y-77644720D01*
X113569339Y-77924639D01*
X113095935Y-78124743D01*
X112597770Y-78244305D01*
X112086812Y-78282597D01*
X111575020Y-78238891D01*
X111074359Y-78112459D01*
X110596792Y-77902571D01*
X110516298Y-77857097D01*
X110275500Y-77689595D01*
X110017741Y-77466228D01*
X109769332Y-77213305D01*
X109556581Y-76957138D01*
X109433879Y-76774679D01*
X109205548Y-76295781D01*
X109063424Y-75794745D01*
X109006786Y-75282125D01*
X109034913Y-74768474D01*
X109147086Y-74264346D01*
X109342585Y-73780294D01*
X109620689Y-73326872D01*
X109673910Y-73256447D01*
X110011666Y-72894434D01*
X110411955Y-72588345D01*
X110857934Y-72347093D01*
X111332762Y-72179596D01*
X111819597Y-72094765D01*
X111876372Y-72090665D01*
X112154836Y-72073618D01*
X112157432Y-73153334D01*
G36*
X105061069Y-81846484D02*
G01*
X104923198Y-81698742D01*
X104823291Y-81577359D01*
X104746660Y-81463538D01*
X104678619Y-81338483D01*
X104637056Y-81252874D01*
X104481328Y-80873971D01*
X104383677Y-80504184D01*
X104336158Y-80107245D01*
X104332616Y-79986680D01*
X106500250Y-79986680D01*
X106583655Y-80247105D01*
X106755273Y-80495076D01*
X106801203Y-80543341D01*
X106905835Y-80640274D01*
X106983563Y-80698083D01*
X107011996Y-80705830D01*
X107019929Y-80653717D01*
X107026881Y-80524276D01*
X107032378Y-80333046D01*
X107035951Y-80095565D01*
X107037114Y-79877250D01*
X107036048Y-79613358D01*
X107032490Y-79382892D01*
X107026894Y-79201415D01*
X107019711Y-79084489D01*
X107012963Y-79047702D01*
X106970091Y-79064643D01*
X106882966Y-79133625D01*
X106780848Y-79229580D01*
X106598694Y-79468027D01*
X106505213Y-79723690D01*
X106500250Y-79986680D01*
X104332616Y-79986680D01*
X104328414Y-79843620D01*
X104371404Y-79316598D01*
X104500219Y-78816266D01*
X104709693Y-78350726D01*
X104994661Y-77928082D01*
X105349956Y-77556433D01*
X105770413Y-77243885D01*
X106100023Y-77064940D01*
X106592342Y-76881649D01*
X107101105Y-76788707D01*
X107352077Y-76775539D01*
X107693390Y-76771160D01*
X107694379Y-78759571D01*
X107695321Y-79257840D01*
X107697795Y-79670139D01*
X107702087Y-80003359D01*
X107708483Y-80264391D01*
X107717271Y-80460126D01*
X107728734Y-80597455D01*
X107743160Y-80683269D01*
X107760834Y-80724462D01*
X107776161Y-80730270D01*
X107852137Y-80689128D01*
X107962876Y-80601730D01*
X108047565Y-80522955D01*
X108233886Y-80281572D01*
X108329892Y-80021162D01*
X108334811Y-79747317D01*
X108247874Y-79465629D01*
X108204594Y-79381893D01*
X108170613Y-79309939D01*
X108144348Y-79221062D01*
X108124774Y-79102892D01*
X108110860Y-78943063D01*
X108101581Y-78729207D01*
X108095909Y-78448953D01*
X108092817Y-78089938D01*
X108092532Y-78032817D01*
X108091820Y-77714241D01*
X108092663Y-77427492D01*
X108094901Y-77185295D01*
X108098377Y-77000376D01*
X108102930Y-76885458D01*
X108107225Y-76852496D01*
X108161681Y-76855156D01*
X108278893Y-76889791D01*
X108437953Y-76948064D01*
X108617956Y-77021637D01*
X108797992Y-77102171D01*
X108957156Y-77181327D01*
X109020797Y-77216852D01*
X109223714Y-77359021D01*
X109452200Y-77555178D01*
X109681886Y-77781010D01*
X109888408Y-78012202D01*
X110047396Y-78224441D01*
X110075278Y-78269025D01*
X110302085Y-78737553D01*
X110447094Y-79236024D01*
X110509597Y-79750702D01*
X110488890Y-80267853D01*
X110384267Y-80773743D01*
X110225485Y-81191781D01*
X110150453Y-81332852D01*
X110045847Y-81505748D01*
X109925506Y-81690264D01*
X109803263Y-81866188D01*
X109692955Y-82013312D01*
X109608417Y-82111427D01*
X109578473Y-82136843D01*
X109533232Y-82169934D01*
X109436403Y-82243296D01*
X109321900Y-82331088D01*
X108874658Y-82619366D01*
X108394783Y-82820782D01*
X107884010Y-82934753D01*
X107447356Y-82962562D01*
X107017098Y-82941075D01*
X106635546Y-82874175D01*
X106266433Y-82753920D01*
X106038102Y-82653921D01*
X105897812Y-82584107D01*
X105779722Y-82514271D01*
X105665035Y-82429727D01*
X105534953Y-82315785D01*
X105370679Y-82157759D01*
X105278457Y-82066087D01*
X105251592Y-82039383D01*
X105061069Y-81846484D01*
G37*
X105061069Y-81846484D02*
X104923198Y-81698742D01*
X104823291Y-81577359D01*
X104746660Y-81463538D01*
X104678619Y-81338483D01*
X104637056Y-81252874D01*
X104481328Y-80873971D01*
X104383677Y-80504184D01*
X104336158Y-80107245D01*
X104332616Y-79986680D01*
X106500250Y-79986680D01*
X106583655Y-80247105D01*
X106755273Y-80495076D01*
X106801203Y-80543341D01*
X106905835Y-80640274D01*
X106983563Y-80698083D01*
X107011996Y-80705830D01*
X107019929Y-80653717D01*
X107026881Y-80524276D01*
X107032378Y-80333046D01*
X107035951Y-80095565D01*
X107037114Y-79877250D01*
X107036048Y-79613358D01*
X107032490Y-79382892D01*
X107026894Y-79201415D01*
X107019711Y-79084489D01*
X107012963Y-79047702D01*
X106970091Y-79064643D01*
X106882966Y-79133625D01*
X106780848Y-79229580D01*
X106598694Y-79468027D01*
X106505213Y-79723690D01*
X106500250Y-79986680D01*
X104332616Y-79986680D01*
X104328414Y-79843620D01*
X104371404Y-79316598D01*
X104500219Y-78816266D01*
X104709693Y-78350726D01*
X104994661Y-77928082D01*
X105349956Y-77556433D01*
X105770413Y-77243885D01*
X106100023Y-77064940D01*
X106592342Y-76881649D01*
X107101105Y-76788707D01*
X107352077Y-76775539D01*
X107693390Y-76771160D01*
X107694379Y-78759571D01*
X107695321Y-79257840D01*
X107697795Y-79670139D01*
X107702087Y-80003359D01*
X107708483Y-80264391D01*
X107717271Y-80460126D01*
X107728734Y-80597455D01*
X107743160Y-80683269D01*
X107760834Y-80724462D01*
X107776161Y-80730270D01*
X107852137Y-80689128D01*
X107962876Y-80601730D01*
X108047565Y-80522955D01*
X108233886Y-80281572D01*
X108329892Y-80021162D01*
X108334811Y-79747317D01*
X108247874Y-79465629D01*
X108204594Y-79381893D01*
X108170613Y-79309939D01*
X108144348Y-79221062D01*
X108124774Y-79102892D01*
X108110860Y-78943063D01*
X108101581Y-78729207D01*
X108095909Y-78448953D01*
X108092817Y-78089938D01*
X108092532Y-78032817D01*
X108091820Y-77714241D01*
X108092663Y-77427492D01*
X108094901Y-77185295D01*
X108098377Y-77000376D01*
X108102930Y-76885458D01*
X108107225Y-76852496D01*
X108161681Y-76855156D01*
X108278893Y-76889791D01*
X108437953Y-76948064D01*
X108617956Y-77021637D01*
X108797992Y-77102171D01*
X108957156Y-77181327D01*
X109020797Y-77216852D01*
X109223714Y-77359021D01*
X109452200Y-77555178D01*
X109681886Y-77781010D01*
X109888408Y-78012202D01*
X110047396Y-78224441D01*
X110075278Y-78269025D01*
X110302085Y-78737553D01*
X110447094Y-79236024D01*
X110509597Y-79750702D01*
X110488890Y-80267853D01*
X110384267Y-80773743D01*
X110225485Y-81191781D01*
X110150453Y-81332852D01*
X110045847Y-81505748D01*
X109925506Y-81690264D01*
X109803263Y-81866188D01*
X109692955Y-82013312D01*
X109608417Y-82111427D01*
X109578473Y-82136843D01*
X109533232Y-82169934D01*
X109436403Y-82243296D01*
X109321900Y-82331088D01*
X108874658Y-82619366D01*
X108394783Y-82820782D01*
X107884010Y-82934753D01*
X107447356Y-82962562D01*
X107017098Y-82941075D01*
X106635546Y-82874175D01*
X106266433Y-82753920D01*
X106038102Y-82653921D01*
X105897812Y-82584107D01*
X105779722Y-82514271D01*
X105665035Y-82429727D01*
X105534953Y-82315785D01*
X105370679Y-82157759D01*
X105278457Y-82066087D01*
X105251592Y-82039383D01*
X105061069Y-81846484D01*
G36*
X103475556Y-76189283D02*
G01*
X103487856Y-76320301D01*
X103505174Y-76530282D01*
X103527049Y-76812366D01*
X103553019Y-77159695D01*
X103582624Y-77565412D01*
X103615403Y-78022656D01*
X103650895Y-78524568D01*
X103688637Y-79064290D01*
X103728168Y-79634964D01*
X103769030Y-80229730D01*
X103810758Y-80841731D01*
X103852893Y-81464106D01*
X103894973Y-82089997D01*
X103936538Y-82712548D01*
X103977125Y-83324896D01*
X104016274Y-83920184D01*
X104053523Y-84491555D01*
X104088412Y-85032147D01*
X104120480Y-85535104D01*
X104149264Y-85993566D01*
X104174305Y-86400675D01*
X104195140Y-86749571D01*
X104211309Y-87033397D01*
X104222351Y-87245292D01*
X104227803Y-87378399D01*
X104227289Y-87425784D01*
X104179982Y-87425128D01*
X104045658Y-87418746D01*
X103829971Y-87406986D01*
X103538573Y-87390193D01*
X103177120Y-87368716D01*
X102751265Y-87342902D01*
X102266663Y-87313098D01*
X101728967Y-87279652D01*
X101143830Y-87242909D01*
X100516906Y-87203220D01*
X99853852Y-87160930D01*
X99160318Y-87116385D01*
X98594994Y-87079856D01*
X97880795Y-87033455D01*
X97192242Y-86988466D01*
X96535027Y-86945275D01*
X95914837Y-86904265D01*
X95337360Y-86865822D01*
X94808289Y-86830330D01*
X94333311Y-86798173D01*
X93918116Y-86769737D01*
X93568391Y-86745406D01*
X93289828Y-86725566D01*
X93088115Y-86710600D01*
X92968942Y-86700894D01*
X92936933Y-86697216D01*
X92963347Y-86662225D01*
X93052655Y-86564842D01*
X93201852Y-86408121D01*
X93407936Y-86195112D01*
X93667904Y-85928865D01*
X93978752Y-85612431D01*
X94337475Y-85248859D01*
X94741073Y-84841203D01*
X95186539Y-84392511D01*
X95670872Y-83905835D01*
X96191067Y-83384225D01*
X96707886Y-82866965D01*
X97202454Y-82372725D01*
X97678665Y-81897472D01*
X98132415Y-81445267D01*
X98559606Y-81020168D01*
X98956135Y-80626234D01*
X99317902Y-80267525D01*
X99640805Y-79948099D01*
X99920746Y-79672016D01*
X100153621Y-79443336D01*
X100335330Y-79266116D01*
X100461773Y-79144418D01*
X100528850Y-79082300D01*
X100538902Y-79074887D01*
X100542601Y-79123454D01*
X100546773Y-79257124D01*
X100551310Y-79468132D01*
X100556102Y-79748714D01*
X100561040Y-80091104D01*
X100566015Y-80487538D01*
X100570919Y-80930251D01*
X100575641Y-81411478D01*
X100580076Y-81923452D01*
X100581643Y-82121993D01*
X100586382Y-82647503D01*
X100592251Y-83148251D01*
X100599064Y-83616065D01*
X100606642Y-84042772D01*
X100614801Y-84420203D01*
X100623358Y-84740183D01*
X100632129Y-84994545D01*
X100640935Y-85175114D01*
X100649589Y-85273719D01*
X100652419Y-85286993D01*
X100738724Y-85417688D01*
X100869040Y-85485106D01*
X101018587Y-85488353D01*
X101162582Y-85426543D01*
X101270214Y-85309194D01*
X101281263Y-85243528D01*
X101290400Y-85089765D01*
X101297590Y-84852655D01*
X101302799Y-84536953D01*
X101305991Y-84147411D01*
X101307131Y-83688782D01*
X101306186Y-83165819D01*
X101303121Y-82583276D01*
X101297900Y-81945903D01*
X101296099Y-81763305D01*
X101260940Y-78319370D01*
X102345852Y-77231728D01*
X102606744Y-76971290D01*
X102847362Y-76733218D01*
X103059761Y-76525208D01*
X103235993Y-76354956D01*
X103368113Y-76230160D01*
X103448174Y-76158518D01*
X103468735Y-76144086D01*
X103475556Y-76189283D01*
G37*
X103475556Y-76189283D02*
X103487856Y-76320301D01*
X103505174Y-76530282D01*
X103527049Y-76812366D01*
X103553019Y-77159695D01*
X103582624Y-77565412D01*
X103615403Y-78022656D01*
X103650895Y-78524568D01*
X103688637Y-79064290D01*
X103728168Y-79634964D01*
X103769030Y-80229730D01*
X103810758Y-80841731D01*
X103852893Y-81464106D01*
X103894973Y-82089997D01*
X103936538Y-82712548D01*
X103977125Y-83324896D01*
X104016274Y-83920184D01*
X104053523Y-84491555D01*
X104088412Y-85032147D01*
X104120480Y-85535104D01*
X104149264Y-85993566D01*
X104174305Y-86400675D01*
X104195140Y-86749571D01*
X104211309Y-87033397D01*
X104222351Y-87245292D01*
X104227803Y-87378399D01*
X104227289Y-87425784D01*
X104179982Y-87425128D01*
X104045658Y-87418746D01*
X103829971Y-87406986D01*
X103538573Y-87390193D01*
X103177120Y-87368716D01*
X102751265Y-87342902D01*
X102266663Y-87313098D01*
X101728967Y-87279652D01*
X101143830Y-87242909D01*
X100516906Y-87203220D01*
X99853852Y-87160930D01*
X99160318Y-87116385D01*
X98594994Y-87079856D01*
X97880795Y-87033455D01*
X97192242Y-86988466D01*
X96535027Y-86945275D01*
X95914837Y-86904265D01*
X95337360Y-86865822D01*
X94808289Y-86830330D01*
X94333311Y-86798173D01*
X93918116Y-86769737D01*
X93568391Y-86745406D01*
X93289828Y-86725566D01*
X93088115Y-86710600D01*
X92968942Y-86700894D01*
X92936933Y-86697216D01*
X92963347Y-86662225D01*
X93052655Y-86564842D01*
X93201852Y-86408121D01*
X93407936Y-86195112D01*
X93667904Y-85928865D01*
X93978752Y-85612431D01*
X94337475Y-85248859D01*
X94741073Y-84841203D01*
X95186539Y-84392511D01*
X95670872Y-83905835D01*
X96191067Y-83384225D01*
X96707886Y-82866965D01*
X97202454Y-82372725D01*
X97678665Y-81897472D01*
X98132415Y-81445267D01*
X98559606Y-81020168D01*
X98956135Y-80626234D01*
X99317902Y-80267525D01*
X99640805Y-79948099D01*
X99920746Y-79672016D01*
X100153621Y-79443336D01*
X100335330Y-79266116D01*
X100461773Y-79144418D01*
X100528850Y-79082300D01*
X100538902Y-79074887D01*
X100542601Y-79123454D01*
X100546773Y-79257124D01*
X100551310Y-79468132D01*
X100556102Y-79748714D01*
X100561040Y-80091104D01*
X100566015Y-80487538D01*
X100570919Y-80930251D01*
X100575641Y-81411478D01*
X100580076Y-81923452D01*
X100581643Y-82121993D01*
X100586382Y-82647503D01*
X100592251Y-83148251D01*
X100599064Y-83616065D01*
X100606642Y-84042772D01*
X100614801Y-84420203D01*
X100623358Y-84740183D01*
X100632129Y-84994545D01*
X100640935Y-85175114D01*
X100649589Y-85273719D01*
X100652419Y-85286993D01*
X100738724Y-85417688D01*
X100869040Y-85485106D01*
X101018587Y-85488353D01*
X101162582Y-85426543D01*
X101270214Y-85309194D01*
X101281263Y-85243528D01*
X101290400Y-85089765D01*
X101297590Y-84852655D01*
X101302799Y-84536953D01*
X101305991Y-84147411D01*
X101307131Y-83688782D01*
X101306186Y-83165819D01*
X101303121Y-82583276D01*
X101297900Y-81945903D01*
X101296099Y-81763305D01*
X101260940Y-78319370D01*
X102345852Y-77231728D01*
X102606744Y-76971290D01*
X102847362Y-76733218D01*
X103059761Y-76525208D01*
X103235993Y-76354956D01*
X103368113Y-76230160D01*
X103448174Y-76158518D01*
X103468735Y-76144086D01*
X103475556Y-76189283D01*
G36*
X119847951Y-66833179D02*
G01*
X119689516Y-66622150D01*
X119661006Y-66576644D01*
X119469296Y-66185496D01*
X119325368Y-65748997D01*
X119240504Y-65305780D01*
X119224508Y-65094542D01*
X121399416Y-65094542D01*
X121483344Y-65376169D01*
X121521136Y-65451576D01*
X121598710Y-65563752D01*
X121699624Y-65671949D01*
X121802306Y-65757476D01*
X121885182Y-65801646D01*
X121920381Y-65797445D01*
X121927827Y-65745837D01*
X121934358Y-65616862D01*
X121939531Y-65426024D01*
X121942901Y-65188822D01*
X121944011Y-64970353D01*
X121942945Y-64706462D01*
X121939387Y-64475995D01*
X121933790Y-64294518D01*
X121926608Y-64177593D01*
X121919859Y-64140806D01*
X121876807Y-64157438D01*
X121790099Y-64225947D01*
X121696425Y-64314003D01*
X121506676Y-64558793D01*
X121407434Y-64820529D01*
X121399416Y-65094542D01*
X119224508Y-65094542D01*
X119223213Y-65077442D01*
X119251272Y-64546309D01*
X119362657Y-64042626D01*
X119550739Y-63573675D01*
X119808894Y-63146735D01*
X120130494Y-62769090D01*
X120508912Y-62448021D01*
X120937523Y-62190810D01*
X121409698Y-62004737D01*
X121918812Y-61897085D01*
X122135441Y-61877378D01*
X122318057Y-61871557D01*
X122464665Y-61875319D01*
X122550975Y-61887745D01*
X122562062Y-61893566D01*
X122570234Y-61946745D01*
X122577855Y-62082961D01*
X122584732Y-62292379D01*
X122590669Y-62565168D01*
X122595475Y-62891493D01*
X122598957Y-63261522D01*
X122600918Y-63665422D01*
X122601274Y-63886435D01*
X122602230Y-64380049D01*
X122604748Y-64787751D01*
X122609118Y-65116492D01*
X122615636Y-65373223D01*
X122624594Y-65564892D01*
X122636287Y-65698452D01*
X122651008Y-65780852D01*
X122669049Y-65819041D01*
X122683060Y-65823374D01*
X122758128Y-65782429D01*
X122869175Y-65694695D01*
X122963142Y-65607377D01*
X123089822Y-65467391D01*
X123165375Y-65338091D01*
X123214468Y-65176495D01*
X123217105Y-65164860D01*
X123234640Y-64942277D01*
X123199550Y-64713475D01*
X123119862Y-64513384D01*
X123043863Y-64411110D01*
X123017450Y-64355696D01*
X122996832Y-64243409D01*
X122981522Y-64066761D01*
X122971032Y-63818267D01*
X122964873Y-63490441D01*
X122962738Y-63166153D01*
X122963555Y-62846432D01*
X122967566Y-62558348D01*
X122974326Y-62314622D01*
X122983393Y-62127977D01*
X122994319Y-62011136D01*
X123004264Y-61976382D01*
X123090307Y-61973122D01*
X123239044Y-62008296D01*
X123431676Y-62075794D01*
X123649405Y-62169509D01*
X123752202Y-62219433D01*
X123893349Y-62295175D01*
X124017260Y-62375336D01*
X124143428Y-62475538D01*
X124291348Y-62611405D01*
X124480508Y-62798560D01*
X124502777Y-62821034D01*
X124690784Y-63013869D01*
X124826678Y-63162657D01*
X124925768Y-63287226D01*
X125003359Y-63407398D01*
X125074758Y-63543002D01*
X125098905Y-63593118D01*
X125253400Y-63967431D01*
X125351160Y-64333617D01*
X125400007Y-64727285D01*
X125409189Y-65005592D01*
X125366762Y-65521960D01*
X125237327Y-66020757D01*
X125026546Y-66490435D01*
X124740087Y-66919449D01*
X124383614Y-67296254D01*
X124217883Y-67433476D01*
X123783415Y-67710741D01*
X123311434Y-67908934D01*
X122814240Y-68027366D01*
X122304132Y-68065348D01*
X121793410Y-68022187D01*
X121294371Y-67897197D01*
X120819318Y-67689686D01*
X120714332Y-67629971D01*
X120511792Y-67486821D01*
X120283564Y-67289990D01*
X120181820Y-67189753D01*
X120054126Y-67063951D01*
X119847951Y-66833179D01*
G37*
X119847951Y-66833179D02*
X119689516Y-66622150D01*
X119661006Y-66576644D01*
X119469296Y-66185496D01*
X119325368Y-65748997D01*
X119240504Y-65305780D01*
X119224508Y-65094542D01*
X121399416Y-65094542D01*
X121483344Y-65376169D01*
X121521136Y-65451576D01*
X121598710Y-65563752D01*
X121699624Y-65671949D01*
X121802306Y-65757476D01*
X121885182Y-65801646D01*
X121920381Y-65797445D01*
X121927827Y-65745837D01*
X121934358Y-65616862D01*
X121939531Y-65426024D01*
X121942901Y-65188822D01*
X121944011Y-64970353D01*
X121942945Y-64706462D01*
X121939387Y-64475995D01*
X121933790Y-64294518D01*
X121926608Y-64177593D01*
X121919859Y-64140806D01*
X121876807Y-64157438D01*
X121790099Y-64225947D01*
X121696425Y-64314003D01*
X121506676Y-64558793D01*
X121407434Y-64820529D01*
X121399416Y-65094542D01*
X119224508Y-65094542D01*
X119223213Y-65077442D01*
X119251272Y-64546309D01*
X119362657Y-64042626D01*
X119550739Y-63573675D01*
X119808894Y-63146735D01*
X120130494Y-62769090D01*
X120508912Y-62448021D01*
X120937523Y-62190810D01*
X121409698Y-62004737D01*
X121918812Y-61897085D01*
X122135441Y-61877378D01*
X122318057Y-61871557D01*
X122464665Y-61875319D01*
X122550975Y-61887745D01*
X122562062Y-61893566D01*
X122570234Y-61946745D01*
X122577855Y-62082961D01*
X122584732Y-62292379D01*
X122590669Y-62565168D01*
X122595475Y-62891493D01*
X122598957Y-63261522D01*
X122600918Y-63665422D01*
X122601274Y-63886435D01*
X122602230Y-64380049D01*
X122604748Y-64787751D01*
X122609118Y-65116492D01*
X122615636Y-65373223D01*
X122624594Y-65564892D01*
X122636287Y-65698452D01*
X122651008Y-65780852D01*
X122669049Y-65819041D01*
X122683060Y-65823374D01*
X122758128Y-65782429D01*
X122869175Y-65694695D01*
X122963142Y-65607377D01*
X123089822Y-65467391D01*
X123165375Y-65338091D01*
X123214468Y-65176495D01*
X123217105Y-65164860D01*
X123234640Y-64942277D01*
X123199550Y-64713475D01*
X123119862Y-64513384D01*
X123043863Y-64411110D01*
X123017450Y-64355696D01*
X122996832Y-64243409D01*
X122981522Y-64066761D01*
X122971032Y-63818267D01*
X122964873Y-63490441D01*
X122962738Y-63166153D01*
X122963555Y-62846432D01*
X122967566Y-62558348D01*
X122974326Y-62314622D01*
X122983393Y-62127977D01*
X122994319Y-62011136D01*
X123004264Y-61976382D01*
X123090307Y-61973122D01*
X123239044Y-62008296D01*
X123431676Y-62075794D01*
X123649405Y-62169509D01*
X123752202Y-62219433D01*
X123893349Y-62295175D01*
X124017260Y-62375336D01*
X124143428Y-62475538D01*
X124291348Y-62611405D01*
X124480508Y-62798560D01*
X124502777Y-62821034D01*
X124690784Y-63013869D01*
X124826678Y-63162657D01*
X124925768Y-63287226D01*
X125003359Y-63407398D01*
X125074758Y-63543002D01*
X125098905Y-63593118D01*
X125253400Y-63967431D01*
X125351160Y-64333617D01*
X125400007Y-64727285D01*
X125409189Y-65005592D01*
X125366762Y-65521960D01*
X125237327Y-66020757D01*
X125026546Y-66490435D01*
X124740087Y-66919449D01*
X124383614Y-67296254D01*
X124217883Y-67433476D01*
X123783415Y-67710741D01*
X123311434Y-67908934D01*
X122814240Y-68027366D01*
X122304132Y-68065348D01*
X121793410Y-68022187D01*
X121294371Y-67897197D01*
X120819318Y-67689686D01*
X120714332Y-67629971D01*
X120511792Y-67486821D01*
X120283564Y-67289990D01*
X120181820Y-67189753D01*
X120054126Y-67063951D01*
X119847951Y-66833179D01*
G36*
X127116474Y-55916443D02*
G01*
X127131773Y-56049484D01*
X127152547Y-56255776D01*
X127177905Y-56525652D01*
X127206950Y-56849446D01*
X127238786Y-57217490D01*
X127272519Y-57620117D01*
X127292073Y-57859171D01*
X127451652Y-59827076D01*
X127614831Y-59834194D01*
X127764320Y-59842707D01*
X127979065Y-59857699D01*
X128247362Y-59878134D01*
X128557499Y-59902976D01*
X128897770Y-59931187D01*
X129256468Y-59961730D01*
X129621883Y-59993569D01*
X129982308Y-60025667D01*
X130326036Y-60056988D01*
X130641356Y-60086493D01*
X130916564Y-60113148D01*
X131139949Y-60135916D01*
X131299805Y-60153758D01*
X131384423Y-60165639D01*
X131394878Y-60168921D01*
X131362844Y-60206377D01*
X131270861Y-60302814D01*
X131125112Y-60452006D01*
X130931773Y-60647728D01*
X130697026Y-60883751D01*
X130427051Y-61153851D01*
X130128027Y-61451802D01*
X129806134Y-61771377D01*
X129698425Y-61878065D01*
X128001972Y-63557499D01*
X127990197Y-62347263D01*
X127985567Y-62020367D01*
X127978597Y-61723909D01*
X127969812Y-61470607D01*
X127959734Y-61273173D01*
X127948888Y-61144324D01*
X127938787Y-61097391D01*
X127848374Y-61045358D01*
X127722526Y-61007857D01*
X127619961Y-61001820D01*
X127568197Y-61019276D01*
X127526514Y-61054969D01*
X127493845Y-61118057D01*
X127469122Y-61217699D01*
X127451279Y-61363054D01*
X127439248Y-61563278D01*
X127431962Y-61827531D01*
X127428354Y-62164969D01*
X127427357Y-62584752D01*
X127427367Y-62654548D01*
X127427902Y-64164403D01*
X126678710Y-64913595D01*
X126413047Y-65176974D01*
X126207563Y-65375405D01*
X126059041Y-65511808D01*
X125964266Y-65589100D01*
X125920022Y-65610201D01*
X125916040Y-65605693D01*
X125909523Y-65548446D01*
X125896500Y-65408623D01*
X125877822Y-65196226D01*
X125854338Y-64921256D01*
X125826898Y-64593716D01*
X125796352Y-64223609D01*
X125763549Y-63820936D01*
X125747863Y-63626606D01*
X125713927Y-63214162D01*
X125681001Y-62831312D01*
X125650027Y-62487780D01*
X125621947Y-62193289D01*
X125597702Y-61957562D01*
X125578235Y-61790323D01*
X125564487Y-61701295D01*
X125560200Y-61689199D01*
X125508303Y-61682316D01*
X125373599Y-61668994D01*
X125165866Y-61650082D01*
X124894882Y-61626426D01*
X124570424Y-61598872D01*
X124202269Y-61568269D01*
X123800196Y-61535460D01*
X123581847Y-61517881D01*
X123166703Y-61484217D01*
X122780975Y-61452178D01*
X122434344Y-61422625D01*
X122136492Y-61396417D01*
X121897106Y-61374415D01*
X121725868Y-61357482D01*
X121632460Y-61346474D01*
X121617844Y-61343363D01*
X121646069Y-61307959D01*
X121734070Y-61213235D01*
X121875794Y-61065377D01*
X122065188Y-60870576D01*
X122296197Y-60635017D01*
X122562769Y-60364888D01*
X122858851Y-60066378D01*
X123178388Y-59745674D01*
X123292947Y-59631031D01*
X123699517Y-59225675D01*
X124055241Y-58873545D01*
X124357984Y-58576693D01*
X124605614Y-58337174D01*
X124795997Y-58157041D01*
X124927002Y-58038349D01*
X124996494Y-57983148D01*
X125007560Y-57980101D01*
X125014196Y-58036579D01*
X125021840Y-58172834D01*
X125030011Y-58375786D01*
X125038232Y-58632354D01*
X125046023Y-58929456D01*
X125051450Y-59178674D01*
X125060517Y-59565013D01*
X125072016Y-59868356D01*
X125088122Y-60098579D01*
X125111010Y-60265558D01*
X125142857Y-60379166D01*
X125185837Y-60449277D01*
X125242126Y-60485769D01*
X125313899Y-60498515D01*
X125342371Y-60499193D01*
X125416670Y-60494438D01*
X125476724Y-60474280D01*
X125523989Y-60429881D01*
X125559917Y-60352405D01*
X125585962Y-60233013D01*
X125603576Y-60062868D01*
X125614215Y-59833131D01*
X125619330Y-59534967D01*
X125620374Y-59159536D01*
X125619332Y-58815035D01*
X125612886Y-57311091D01*
X126347745Y-56576233D01*
X126560548Y-56365554D01*
X126751380Y-56180672D01*
X126910636Y-56030566D01*
X127028705Y-55924210D01*
X127095983Y-55870581D01*
X127107549Y-55866320D01*
X127116474Y-55916443D01*
G37*
X127116474Y-55916443D02*
X127131773Y-56049484D01*
X127152547Y-56255776D01*
X127177905Y-56525652D01*
X127206950Y-56849446D01*
X127238786Y-57217490D01*
X127272519Y-57620117D01*
X127292073Y-57859171D01*
X127451652Y-59827076D01*
X127614831Y-59834194D01*
X127764320Y-59842707D01*
X127979065Y-59857699D01*
X128247362Y-59878134D01*
X128557499Y-59902976D01*
X128897770Y-59931187D01*
X129256468Y-59961730D01*
X129621883Y-59993569D01*
X129982308Y-60025667D01*
X130326036Y-60056988D01*
X130641356Y-60086493D01*
X130916564Y-60113148D01*
X131139949Y-60135916D01*
X131299805Y-60153758D01*
X131384423Y-60165639D01*
X131394878Y-60168921D01*
X131362844Y-60206377D01*
X131270861Y-60302814D01*
X131125112Y-60452006D01*
X130931773Y-60647728D01*
X130697026Y-60883751D01*
X130427051Y-61153851D01*
X130128027Y-61451802D01*
X129806134Y-61771377D01*
X129698425Y-61878065D01*
X128001972Y-63557499D01*
X127990197Y-62347263D01*
X127985567Y-62020367D01*
X127978597Y-61723909D01*
X127969812Y-61470607D01*
X127959734Y-61273173D01*
X127948888Y-61144324D01*
X127938787Y-61097391D01*
X127848374Y-61045358D01*
X127722526Y-61007857D01*
X127619961Y-61001820D01*
X127568197Y-61019276D01*
X127526514Y-61054969D01*
X127493845Y-61118057D01*
X127469122Y-61217699D01*
X127451279Y-61363054D01*
X127439248Y-61563278D01*
X127431962Y-61827531D01*
X127428354Y-62164969D01*
X127427357Y-62584752D01*
X127427367Y-62654548D01*
X127427902Y-64164403D01*
X126678710Y-64913595D01*
X126413047Y-65176974D01*
X126207563Y-65375405D01*
X126059041Y-65511808D01*
X125964266Y-65589100D01*
X125920022Y-65610201D01*
X125916040Y-65605693D01*
X125909523Y-65548446D01*
X125896500Y-65408623D01*
X125877822Y-65196226D01*
X125854338Y-64921256D01*
X125826898Y-64593716D01*
X125796352Y-64223609D01*
X125763549Y-63820936D01*
X125747863Y-63626606D01*
X125713927Y-63214162D01*
X125681001Y-62831312D01*
X125650027Y-62487780D01*
X125621947Y-62193289D01*
X125597702Y-61957562D01*
X125578235Y-61790323D01*
X125564487Y-61701295D01*
X125560200Y-61689199D01*
X125508303Y-61682316D01*
X125373599Y-61668994D01*
X125165866Y-61650082D01*
X124894882Y-61626426D01*
X124570424Y-61598872D01*
X124202269Y-61568269D01*
X123800196Y-61535460D01*
X123581847Y-61517881D01*
X123166703Y-61484217D01*
X122780975Y-61452178D01*
X122434344Y-61422625D01*
X122136492Y-61396417D01*
X121897106Y-61374415D01*
X121725868Y-61357482D01*
X121632460Y-61346474D01*
X121617844Y-61343363D01*
X121646069Y-61307959D01*
X121734070Y-61213235D01*
X121875794Y-61065377D01*
X122065188Y-60870576D01*
X122296197Y-60635017D01*
X122562769Y-60364888D01*
X122858851Y-60066378D01*
X123178388Y-59745674D01*
X123292947Y-59631031D01*
X123699517Y-59225675D01*
X124055241Y-58873545D01*
X124357984Y-58576693D01*
X124605614Y-58337174D01*
X124795997Y-58157041D01*
X124927002Y-58038349D01*
X124996494Y-57983148D01*
X125007560Y-57980101D01*
X125014196Y-58036579D01*
X125021840Y-58172834D01*
X125030011Y-58375786D01*
X125038232Y-58632354D01*
X125046023Y-58929456D01*
X125051450Y-59178674D01*
X125060517Y-59565013D01*
X125072016Y-59868356D01*
X125088122Y-60098579D01*
X125111010Y-60265558D01*
X125142857Y-60379166D01*
X125185837Y-60449277D01*
X125242126Y-60485769D01*
X125313899Y-60498515D01*
X125342371Y-60499193D01*
X125416670Y-60494438D01*
X125476724Y-60474280D01*
X125523989Y-60429881D01*
X125559917Y-60352405D01*
X125585962Y-60233013D01*
X125603576Y-60062868D01*
X125614215Y-59833131D01*
X125619330Y-59534967D01*
X125620374Y-59159536D01*
X125619332Y-58815035D01*
X125612886Y-57311091D01*
X126347745Y-56576233D01*
X126560548Y-56365554D01*
X126751380Y-56180672D01*
X126910636Y-56030566D01*
X127028705Y-55924210D01*
X127095983Y-55870581D01*
X127107549Y-55866320D01*
X127116474Y-55916443D01*
D14*
%TO.C,R2*%
X160247064Y-78205000D02*
X159792936Y-78205000D01*
X160247064Y-76735000D02*
X159792936Y-76735000D01*
%TO.C,R10*%
X128042936Y-81180000D02*
X128497064Y-81180000D01*
X128042936Y-82650000D02*
X128497064Y-82650000D01*
%TO.C,R4*%
X174852064Y-79475000D02*
X174397936Y-79475000D01*
X174852064Y-78005000D02*
X174397936Y-78005000D01*
%TO.C,C2*%
X124995000Y-90431252D02*
X124995000Y-89908748D01*
X126465000Y-90431252D02*
X126465000Y-89908748D01*
%TO.C,R3*%
X174852064Y-88365000D02*
X174397936Y-88365000D01*
X174852064Y-86895000D02*
X174397936Y-86895000D01*
%TO.C,R7*%
X135355000Y-69622936D02*
X135355000Y-70077064D01*
X133885000Y-69622936D02*
X133885000Y-70077064D01*
%TO.C,R9*%
X132180000Y-69622936D02*
X132180000Y-70077064D01*
X130710000Y-69622936D02*
X130710000Y-70077064D01*
%TO.C,R1*%
X164237936Y-76735000D02*
X164692064Y-76735000D01*
X164237936Y-78205000D02*
X164692064Y-78205000D01*
%TO.C,U4*%
X128200000Y-76200000D02*
X128200000Y-79800000D01*
X128200000Y-76200000D02*
X128200000Y-74000000D01*
X133420000Y-76200000D02*
X133420000Y-78400000D01*
X133420000Y-76200000D02*
X133420000Y-74000000D01*
%TO.C,U3*%
X135660000Y-84225000D02*
X135660000Y-88225000D01*
X138660000Y-84225000D02*
X138660000Y-87225000D01*
%TO.C,U1*%
X131150000Y-88265000D02*
X131150000Y-84665000D01*
X131150000Y-88265000D02*
X131150000Y-90465000D01*
X127930000Y-88265000D02*
X127930000Y-86065000D01*
X127930000Y-88265000D02*
X127930000Y-90465000D01*
%TO.C,C4*%
X134085000Y-84828748D02*
X134085000Y-85351252D01*
X132615000Y-84828748D02*
X132615000Y-85351252D01*
%TO.C,C5*%
X136898748Y-72290000D02*
X137421252Y-72290000D01*
X136898748Y-73760000D02*
X137421252Y-73760000D01*
%TO.C,C1*%
X127535000Y-70111252D02*
X127535000Y-69588748D01*
X129005000Y-70111252D02*
X129005000Y-69588748D01*
%TO.C,R5*%
X131037064Y-94715000D02*
X130582936Y-94715000D01*
X131037064Y-93245000D02*
X130582936Y-93245000D01*
D16*
%TO.C,VR1*%
X194150000Y-76200000D02*
G75*
G03*
X194150000Y-76200000I-3650000J0D01*
G01*
%TD*%
M02*
