%TF.GenerationSoftware,KiCad,Pcbnew,(6.0.0)*%
%TF.CreationDate,2022-05-12T16:51:59+02:00*%
%TF.ProjectId,Vectrex Pad miniNeoGeo-rounded,56656374-7265-4782-9050-6164206d696e,1.2*%
%TF.SameCoordinates,Original*%
%TF.FileFunction,Legend,Top*%
%TF.FilePolarity,Positive*%
%FSLAX46Y46*%
G04 Gerber Fmt 4.6, Leading zero omitted, Abs format (unit mm)*
G04 Created by KiCad (PCBNEW (6.0.0)) date 2022-05-12 16:51:59*
%MOMM*%
%LPD*%
G01*
G04 APERTURE LIST*
%ADD10C,0.600000*%
%ADD11C,0.400000*%
%ADD12C,0.150000*%
%ADD13C,0.120000*%
%ADD14C,0.010000*%
%ADD15C,1.000000*%
G04 APERTURE END LIST*
D10*
X131699001Y-86614000D02*
G75*
G03*
X131699001Y-86614000I-1J0D01*
G01*
X135128001Y-86614000D02*
G75*
G03*
X135128001Y-86614000I-1J0D01*
G01*
X135128001Y-78994000D02*
G75*
G03*
X135128001Y-78994000I-1J0D01*
G01*
X127635000Y-77978000D02*
G75*
G03*
X127635000Y-77978000I-1J0D01*
G01*
D11*
X161179047Y-98059761D02*
X160226666Y-98059761D01*
X160226666Y-96059761D01*
X162607619Y-97964523D02*
X162417142Y-98059761D01*
X162036190Y-98059761D01*
X161845714Y-97964523D01*
X161750476Y-97774047D01*
X161750476Y-97012142D01*
X161845714Y-96821666D01*
X162036190Y-96726428D01*
X162417142Y-96726428D01*
X162607619Y-96821666D01*
X162702857Y-97012142D01*
X162702857Y-97202619D01*
X161750476Y-97393095D01*
X163274285Y-96726428D02*
X164036190Y-96726428D01*
X163560000Y-98059761D02*
X163560000Y-96345476D01*
X163655238Y-96155000D01*
X163845714Y-96059761D01*
X164036190Y-96059761D01*
X164417142Y-96726428D02*
X165179047Y-96726428D01*
X164702857Y-96059761D02*
X164702857Y-97774047D01*
X164798095Y-97964523D01*
X164988571Y-98059761D01*
X165179047Y-98059761D01*
X166624095Y-95900857D02*
X168147904Y-95900857D01*
X160321904Y-87899761D02*
X159655238Y-86947380D01*
X159179047Y-87899761D02*
X159179047Y-85899761D01*
X159940952Y-85899761D01*
X160131428Y-85995000D01*
X160226666Y-86090238D01*
X160321904Y-86280714D01*
X160321904Y-86566428D01*
X160226666Y-86756904D01*
X160131428Y-86852142D01*
X159940952Y-86947380D01*
X159179047Y-86947380D01*
X161179047Y-87899761D02*
X161179047Y-86566428D01*
X161179047Y-85899761D02*
X161083809Y-85995000D01*
X161179047Y-86090238D01*
X161274285Y-85995000D01*
X161179047Y-85899761D01*
X161179047Y-86090238D01*
X162988571Y-86566428D02*
X162988571Y-88185476D01*
X162893333Y-88375952D01*
X162798095Y-88471190D01*
X162607619Y-88566428D01*
X162321904Y-88566428D01*
X162131428Y-88471190D01*
X162988571Y-87804523D02*
X162798095Y-87899761D01*
X162417142Y-87899761D01*
X162226666Y-87804523D01*
X162131428Y-87709285D01*
X162036190Y-87518809D01*
X162036190Y-86947380D01*
X162131428Y-86756904D01*
X162226666Y-86661666D01*
X162417142Y-86566428D01*
X162798095Y-86566428D01*
X162988571Y-86661666D01*
X163940952Y-87899761D02*
X163940952Y-85899761D01*
X164798095Y-87899761D02*
X164798095Y-86852142D01*
X164702857Y-86661666D01*
X164512380Y-86566428D01*
X164226666Y-86566428D01*
X164036190Y-86661666D01*
X163940952Y-86756904D01*
X165464761Y-86566428D02*
X166226666Y-86566428D01*
X165750476Y-85899761D02*
X165750476Y-87614047D01*
X165845714Y-87804523D01*
X166036190Y-87899761D01*
X166226666Y-87899761D01*
X194103809Y-100504761D02*
X194103809Y-102123809D01*
X194199047Y-102314285D01*
X194294285Y-102409523D01*
X194484761Y-102504761D01*
X194865714Y-102504761D01*
X195056190Y-102409523D01*
X195151428Y-102314285D01*
X195246666Y-102123809D01*
X195246666Y-100504761D01*
X196199047Y-101171428D02*
X196199047Y-103171428D01*
X196199047Y-101266666D02*
X196389523Y-101171428D01*
X196770476Y-101171428D01*
X196960952Y-101266666D01*
X197056190Y-101361904D01*
X197151428Y-101552380D01*
X197151428Y-102123809D01*
X197056190Y-102314285D01*
X196960952Y-102409523D01*
X196770476Y-102504761D01*
X196389523Y-102504761D01*
X196199047Y-102409523D01*
X192913095Y-99202857D02*
X194436904Y-99202857D01*
X193675000Y-99964761D02*
X193675000Y-98440952D01*
X186563095Y-99202857D02*
X188086904Y-99202857D01*
X100981666Y-93614761D02*
X100981666Y-91614761D01*
X101743571Y-91614761D01*
X101934047Y-91710000D01*
X102029285Y-91805238D01*
X102124523Y-91995714D01*
X102124523Y-92281428D01*
X102029285Y-92471904D01*
X101934047Y-92567142D01*
X101743571Y-92662380D01*
X100981666Y-92662380D01*
X103838809Y-93614761D02*
X103838809Y-92567142D01*
X103743571Y-92376666D01*
X103553095Y-92281428D01*
X103172142Y-92281428D01*
X102981666Y-92376666D01*
X103838809Y-93519523D02*
X103648333Y-93614761D01*
X103172142Y-93614761D01*
X102981666Y-93519523D01*
X102886428Y-93329047D01*
X102886428Y-93138571D01*
X102981666Y-92948095D01*
X103172142Y-92852857D01*
X103648333Y-92852857D01*
X103838809Y-92757619D01*
X105648333Y-93614761D02*
X105648333Y-91614761D01*
X105648333Y-93519523D02*
X105457857Y-93614761D01*
X105076904Y-93614761D01*
X104886428Y-93519523D01*
X104791190Y-93424285D01*
X104695952Y-93233809D01*
X104695952Y-92662380D01*
X104791190Y-92471904D01*
X104886428Y-92376666D01*
X105076904Y-92281428D01*
X105457857Y-92281428D01*
X105648333Y-92376666D01*
X107838809Y-91614761D02*
X108505476Y-93614761D01*
X109172142Y-91614761D01*
X110886428Y-93614761D02*
X109743571Y-93614761D01*
X110315000Y-93614761D02*
X110315000Y-91614761D01*
X110124523Y-91900476D01*
X109934047Y-92090952D01*
X109743571Y-92186190D01*
X111743571Y-93424285D02*
X111838809Y-93519523D01*
X111743571Y-93614761D01*
X111648333Y-93519523D01*
X111743571Y-93424285D01*
X111743571Y-93614761D01*
X112600714Y-91805238D02*
X112695952Y-91710000D01*
X112886428Y-91614761D01*
X113362619Y-91614761D01*
X113553095Y-91710000D01*
X113648333Y-91805238D01*
X113743571Y-91995714D01*
X113743571Y-92186190D01*
X113648333Y-92471904D01*
X112505476Y-93614761D01*
X113743571Y-93614761D01*
X129889761Y-99529523D02*
X130175476Y-99624761D01*
X130651666Y-99624761D01*
X130842142Y-99529523D01*
X130937380Y-99434285D01*
X131032619Y-99243809D01*
X131032619Y-99053333D01*
X130937380Y-98862857D01*
X130842142Y-98767619D01*
X130651666Y-98672380D01*
X130270714Y-98577142D01*
X130080238Y-98481904D01*
X129985000Y-98386666D01*
X129889761Y-98196190D01*
X129889761Y-98005714D01*
X129985000Y-97815238D01*
X130080238Y-97720000D01*
X130270714Y-97624761D01*
X130746904Y-97624761D01*
X131032619Y-97720000D01*
X131889761Y-98291428D02*
X131889761Y-100291428D01*
X131889761Y-98386666D02*
X132080238Y-98291428D01*
X132461190Y-98291428D01*
X132651666Y-98386666D01*
X132746904Y-98481904D01*
X132842142Y-98672380D01*
X132842142Y-99243809D01*
X132746904Y-99434285D01*
X132651666Y-99529523D01*
X132461190Y-99624761D01*
X132080238Y-99624761D01*
X131889761Y-99529523D01*
X134461190Y-99529523D02*
X134270714Y-99624761D01*
X133889761Y-99624761D01*
X133699285Y-99529523D01*
X133604047Y-99339047D01*
X133604047Y-98577142D01*
X133699285Y-98386666D01*
X133889761Y-98291428D01*
X134270714Y-98291428D01*
X134461190Y-98386666D01*
X134556428Y-98577142D01*
X134556428Y-98767619D01*
X133604047Y-98958095D01*
X136175476Y-99529523D02*
X135985000Y-99624761D01*
X135604047Y-99624761D01*
X135413571Y-99529523D01*
X135318333Y-99339047D01*
X135318333Y-98577142D01*
X135413571Y-98386666D01*
X135604047Y-98291428D01*
X135985000Y-98291428D01*
X136175476Y-98386666D01*
X136270714Y-98577142D01*
X136270714Y-98767619D01*
X135318333Y-98958095D01*
X137985000Y-99624761D02*
X137985000Y-97624761D01*
X137985000Y-99529523D02*
X137794523Y-99624761D01*
X137413571Y-99624761D01*
X137223095Y-99529523D01*
X137127857Y-99434285D01*
X137032619Y-99243809D01*
X137032619Y-98672380D01*
X137127857Y-98481904D01*
X137223095Y-98386666D01*
X137413571Y-98291428D01*
X137794523Y-98291428D01*
X137985000Y-98386666D01*
X131032619Y-102749523D02*
X131318333Y-102844761D01*
X131794523Y-102844761D01*
X131985000Y-102749523D01*
X132080238Y-102654285D01*
X132175476Y-102463809D01*
X132175476Y-102273333D01*
X132080238Y-102082857D01*
X131985000Y-101987619D01*
X131794523Y-101892380D01*
X131413571Y-101797142D01*
X131223095Y-101701904D01*
X131127857Y-101606666D01*
X131032619Y-101416190D01*
X131032619Y-101225714D01*
X131127857Y-101035238D01*
X131223095Y-100940000D01*
X131413571Y-100844761D01*
X131889761Y-100844761D01*
X132175476Y-100940000D01*
X133032619Y-102844761D02*
X133032619Y-100844761D01*
X133889761Y-102844761D02*
X133889761Y-101797142D01*
X133794523Y-101606666D01*
X133604047Y-101511428D01*
X133318333Y-101511428D01*
X133127857Y-101606666D01*
X133032619Y-101701904D01*
X135127857Y-102844761D02*
X134937380Y-102749523D01*
X134842142Y-102654285D01*
X134746904Y-102463809D01*
X134746904Y-101892380D01*
X134842142Y-101701904D01*
X134937380Y-101606666D01*
X135127857Y-101511428D01*
X135413571Y-101511428D01*
X135604047Y-101606666D01*
X135699285Y-101701904D01*
X135794523Y-101892380D01*
X135794523Y-102463809D01*
X135699285Y-102654285D01*
X135604047Y-102749523D01*
X135413571Y-102844761D01*
X135127857Y-102844761D01*
X136365952Y-101511428D02*
X137127857Y-101511428D01*
X136651666Y-100844761D02*
X136651666Y-102559047D01*
X136746904Y-102749523D01*
X136937380Y-102844761D01*
X137127857Y-102844761D01*
X166624095Y-89677857D02*
X168147904Y-89677857D01*
X167386000Y-90439761D02*
X167386000Y-88915952D01*
X176403095Y-97932857D02*
X177926904Y-97932857D01*
X182753095Y-97932857D02*
X184276904Y-97932857D01*
X183515000Y-98694761D02*
X183515000Y-97170952D01*
X166624095Y-85740857D02*
X168147904Y-85740857D01*
X123952095Y-97932857D02*
X125475904Y-97932857D01*
X124968095Y-104282857D02*
X126491904Y-104282857D01*
X125730000Y-105044761D02*
X125730000Y-103520952D01*
X166624095Y-79517857D02*
X168147904Y-79517857D01*
X167386000Y-80279761D02*
X167386000Y-78755952D01*
X169974047Y-101234761D02*
X169974047Y-99234761D01*
X170450238Y-99234761D01*
X170735952Y-99330000D01*
X170926428Y-99520476D01*
X171021666Y-99710952D01*
X171116904Y-100091904D01*
X171116904Y-100377619D01*
X171021666Y-100758571D01*
X170926428Y-100949047D01*
X170735952Y-101139523D01*
X170450238Y-101234761D01*
X169974047Y-101234761D01*
X172259761Y-101234761D02*
X172069285Y-101139523D01*
X171974047Y-101044285D01*
X171878809Y-100853809D01*
X171878809Y-100282380D01*
X171974047Y-100091904D01*
X172069285Y-99996666D01*
X172259761Y-99901428D01*
X172545476Y-99901428D01*
X172735952Y-99996666D01*
X172831190Y-100091904D01*
X172926428Y-100282380D01*
X172926428Y-100853809D01*
X172831190Y-101044285D01*
X172735952Y-101139523D01*
X172545476Y-101234761D01*
X172259761Y-101234761D01*
X173593095Y-99901428D02*
X173974047Y-101234761D01*
X174355000Y-100282380D01*
X174735952Y-101234761D01*
X175116904Y-99901428D01*
X175878809Y-99901428D02*
X175878809Y-101234761D01*
X175878809Y-100091904D02*
X175974047Y-99996666D01*
X176164523Y-99901428D01*
X176450238Y-99901428D01*
X176640714Y-99996666D01*
X176735952Y-100187142D01*
X176735952Y-101234761D01*
D12*
%TO.C,R6*%
X132548333Y-80970380D02*
X132215000Y-80494190D01*
X131976904Y-80970380D02*
X131976904Y-79970380D01*
X132357857Y-79970380D01*
X132453095Y-80018000D01*
X132500714Y-80065619D01*
X132548333Y-80160857D01*
X132548333Y-80303714D01*
X132500714Y-80398952D01*
X132453095Y-80446571D01*
X132357857Y-80494190D01*
X131976904Y-80494190D01*
X133405476Y-79970380D02*
X133215000Y-79970380D01*
X133119761Y-80018000D01*
X133072142Y-80065619D01*
X132976904Y-80208476D01*
X132929285Y-80398952D01*
X132929285Y-80779904D01*
X132976904Y-80875142D01*
X133024523Y-80922761D01*
X133119761Y-80970380D01*
X133310238Y-80970380D01*
X133405476Y-80922761D01*
X133453095Y-80875142D01*
X133500714Y-80779904D01*
X133500714Y-80541809D01*
X133453095Y-80446571D01*
X133405476Y-80398952D01*
X133310238Y-80351333D01*
X133119761Y-80351333D01*
X133024523Y-80398952D01*
X132976904Y-80446571D01*
X132929285Y-80541809D01*
%TO.C,C3*%
X133183333Y-88342742D02*
X133135714Y-88390361D01*
X132992857Y-88437980D01*
X132897619Y-88437980D01*
X132754761Y-88390361D01*
X132659523Y-88295123D01*
X132611904Y-88199885D01*
X132564285Y-88009409D01*
X132564285Y-87866552D01*
X132611904Y-87676076D01*
X132659523Y-87580838D01*
X132754761Y-87485600D01*
X132897619Y-87437980D01*
X132992857Y-87437980D01*
X133135714Y-87485600D01*
X133183333Y-87533219D01*
X133516666Y-87437980D02*
X134135714Y-87437980D01*
X133802380Y-87818933D01*
X133945238Y-87818933D01*
X134040476Y-87866552D01*
X134088095Y-87914171D01*
X134135714Y-88009409D01*
X134135714Y-88247504D01*
X134088095Y-88342742D01*
X134040476Y-88390361D01*
X133945238Y-88437980D01*
X133659523Y-88437980D01*
X133564285Y-88390361D01*
X133516666Y-88342742D01*
%TO.C,U2*%
X136398095Y-74382380D02*
X136398095Y-75191904D01*
X136445714Y-75287142D01*
X136493333Y-75334761D01*
X136588571Y-75382380D01*
X136779047Y-75382380D01*
X136874285Y-75334761D01*
X136921904Y-75287142D01*
X136969523Y-75191904D01*
X136969523Y-74382380D01*
X137398095Y-74477619D02*
X137445714Y-74430000D01*
X137540952Y-74382380D01*
X137779047Y-74382380D01*
X137874285Y-74430000D01*
X137921904Y-74477619D01*
X137969523Y-74572857D01*
X137969523Y-74668095D01*
X137921904Y-74810952D01*
X137350476Y-75382380D01*
X137969523Y-75382380D01*
%TO.C,R8*%
X126198333Y-92782380D02*
X125865000Y-92306190D01*
X125626904Y-92782380D02*
X125626904Y-91782380D01*
X126007857Y-91782380D01*
X126103095Y-91830000D01*
X126150714Y-91877619D01*
X126198333Y-91972857D01*
X126198333Y-92115714D01*
X126150714Y-92210952D01*
X126103095Y-92258571D01*
X126007857Y-92306190D01*
X125626904Y-92306190D01*
X126769761Y-92210952D02*
X126674523Y-92163333D01*
X126626904Y-92115714D01*
X126579285Y-92020476D01*
X126579285Y-91972857D01*
X126626904Y-91877619D01*
X126674523Y-91830000D01*
X126769761Y-91782380D01*
X126960238Y-91782380D01*
X127055476Y-91830000D01*
X127103095Y-91877619D01*
X127150714Y-91972857D01*
X127150714Y-92020476D01*
X127103095Y-92115714D01*
X127055476Y-92163333D01*
X126960238Y-92210952D01*
X126769761Y-92210952D01*
X126674523Y-92258571D01*
X126626904Y-92306190D01*
X126579285Y-92401428D01*
X126579285Y-92591904D01*
X126626904Y-92687142D01*
X126674523Y-92734761D01*
X126769761Y-92782380D01*
X126960238Y-92782380D01*
X127055476Y-92734761D01*
X127103095Y-92687142D01*
X127150714Y-92591904D01*
X127150714Y-92401428D01*
X127103095Y-92306190D01*
X127055476Y-92258571D01*
X126960238Y-92210952D01*
%TO.C,R2*%
X159853333Y-76398380D02*
X159520000Y-75922190D01*
X159281904Y-76398380D02*
X159281904Y-75398380D01*
X159662857Y-75398380D01*
X159758095Y-75446000D01*
X159805714Y-75493619D01*
X159853333Y-75588857D01*
X159853333Y-75731714D01*
X159805714Y-75826952D01*
X159758095Y-75874571D01*
X159662857Y-75922190D01*
X159281904Y-75922190D01*
X160234285Y-75493619D02*
X160281904Y-75446000D01*
X160377142Y-75398380D01*
X160615238Y-75398380D01*
X160710476Y-75446000D01*
X160758095Y-75493619D01*
X160805714Y-75588857D01*
X160805714Y-75684095D01*
X160758095Y-75826952D01*
X160186666Y-76398380D01*
X160805714Y-76398380D01*
%TO.C,R10*%
X127627142Y-80970380D02*
X127293809Y-80494190D01*
X127055714Y-80970380D02*
X127055714Y-79970380D01*
X127436666Y-79970380D01*
X127531904Y-80018000D01*
X127579523Y-80065619D01*
X127627142Y-80160857D01*
X127627142Y-80303714D01*
X127579523Y-80398952D01*
X127531904Y-80446571D01*
X127436666Y-80494190D01*
X127055714Y-80494190D01*
X128579523Y-80970380D02*
X128008095Y-80970380D01*
X128293809Y-80970380D02*
X128293809Y-79970380D01*
X128198571Y-80113238D01*
X128103333Y-80208476D01*
X128008095Y-80256095D01*
X129198571Y-79970380D02*
X129293809Y-79970380D01*
X129389047Y-80018000D01*
X129436666Y-80065619D01*
X129484285Y-80160857D01*
X129531904Y-80351333D01*
X129531904Y-80589428D01*
X129484285Y-80779904D01*
X129436666Y-80875142D01*
X129389047Y-80922761D01*
X129293809Y-80970380D01*
X129198571Y-80970380D01*
X129103333Y-80922761D01*
X129055714Y-80875142D01*
X129008095Y-80779904D01*
X128960476Y-80589428D01*
X128960476Y-80351333D01*
X129008095Y-80160857D01*
X129055714Y-80065619D01*
X129103333Y-80018000D01*
X129198571Y-79970380D01*
%TO.C,R4*%
X177633333Y-84018380D02*
X177300000Y-83542190D01*
X177061904Y-84018380D02*
X177061904Y-83018380D01*
X177442857Y-83018380D01*
X177538095Y-83066000D01*
X177585714Y-83113619D01*
X177633333Y-83208857D01*
X177633333Y-83351714D01*
X177585714Y-83446952D01*
X177538095Y-83494571D01*
X177442857Y-83542190D01*
X177061904Y-83542190D01*
X178490476Y-83351714D02*
X178490476Y-84018380D01*
X178252380Y-82970761D02*
X178014285Y-83685047D01*
X178633333Y-83685047D01*
%TO.C,C2*%
X125563333Y-88342742D02*
X125515714Y-88390361D01*
X125372857Y-88437980D01*
X125277619Y-88437980D01*
X125134761Y-88390361D01*
X125039523Y-88295123D01*
X124991904Y-88199885D01*
X124944285Y-88009409D01*
X124944285Y-87866552D01*
X124991904Y-87676076D01*
X125039523Y-87580838D01*
X125134761Y-87485600D01*
X125277619Y-87437980D01*
X125372857Y-87437980D01*
X125515714Y-87485600D01*
X125563333Y-87533219D01*
X125944285Y-87533219D02*
X125991904Y-87485600D01*
X126087142Y-87437980D01*
X126325238Y-87437980D01*
X126420476Y-87485600D01*
X126468095Y-87533219D01*
X126515714Y-87628457D01*
X126515714Y-87723695D01*
X126468095Y-87866552D01*
X125896666Y-88437980D01*
X126515714Y-88437980D01*
%TO.C,R3*%
X173823333Y-84018380D02*
X173490000Y-83542190D01*
X173251904Y-84018380D02*
X173251904Y-83018380D01*
X173632857Y-83018380D01*
X173728095Y-83066000D01*
X173775714Y-83113619D01*
X173823333Y-83208857D01*
X173823333Y-83351714D01*
X173775714Y-83446952D01*
X173728095Y-83494571D01*
X173632857Y-83542190D01*
X173251904Y-83542190D01*
X174156666Y-83018380D02*
X174775714Y-83018380D01*
X174442380Y-83399333D01*
X174585238Y-83399333D01*
X174680476Y-83446952D01*
X174728095Y-83494571D01*
X174775714Y-83589809D01*
X174775714Y-83827904D01*
X174728095Y-83923142D01*
X174680476Y-83970761D01*
X174585238Y-84018380D01*
X174299523Y-84018380D01*
X174204285Y-83970761D01*
X174156666Y-83923142D01*
%TO.C,R7*%
X134453333Y-68016380D02*
X134120000Y-67540190D01*
X133881904Y-68016380D02*
X133881904Y-67016380D01*
X134262857Y-67016380D01*
X134358095Y-67064000D01*
X134405714Y-67111619D01*
X134453333Y-67206857D01*
X134453333Y-67349714D01*
X134405714Y-67444952D01*
X134358095Y-67492571D01*
X134262857Y-67540190D01*
X133881904Y-67540190D01*
X134786666Y-67016380D02*
X135453333Y-67016380D01*
X135024761Y-68016380D01*
%TO.C,R9*%
X131278333Y-68016380D02*
X130945000Y-67540190D01*
X130706904Y-68016380D02*
X130706904Y-67016380D01*
X131087857Y-67016380D01*
X131183095Y-67064000D01*
X131230714Y-67111619D01*
X131278333Y-67206857D01*
X131278333Y-67349714D01*
X131230714Y-67444952D01*
X131183095Y-67492571D01*
X131087857Y-67540190D01*
X130706904Y-67540190D01*
X131754523Y-68016380D02*
X131945000Y-68016380D01*
X132040238Y-67968761D01*
X132087857Y-67921142D01*
X132183095Y-67778285D01*
X132230714Y-67587809D01*
X132230714Y-67206857D01*
X132183095Y-67111619D01*
X132135476Y-67064000D01*
X132040238Y-67016380D01*
X131849761Y-67016380D01*
X131754523Y-67064000D01*
X131706904Y-67111619D01*
X131659285Y-67206857D01*
X131659285Y-67444952D01*
X131706904Y-67540190D01*
X131754523Y-67587809D01*
X131849761Y-67635428D01*
X132040238Y-67635428D01*
X132135476Y-67587809D01*
X132183095Y-67540190D01*
X132230714Y-67444952D01*
%TO.C,R1*%
X164298333Y-76398380D02*
X163965000Y-75922190D01*
X163726904Y-76398380D02*
X163726904Y-75398380D01*
X164107857Y-75398380D01*
X164203095Y-75446000D01*
X164250714Y-75493619D01*
X164298333Y-75588857D01*
X164298333Y-75731714D01*
X164250714Y-75826952D01*
X164203095Y-75874571D01*
X164107857Y-75922190D01*
X163726904Y-75922190D01*
X165250714Y-76398380D02*
X164679285Y-76398380D01*
X164965000Y-76398380D02*
X164965000Y-75398380D01*
X164869761Y-75541238D01*
X164774523Y-75636476D01*
X164679285Y-75684095D01*
%TO.C,U4*%
X126238095Y-75652380D02*
X126238095Y-76461904D01*
X126285714Y-76557142D01*
X126333333Y-76604761D01*
X126428571Y-76652380D01*
X126619047Y-76652380D01*
X126714285Y-76604761D01*
X126761904Y-76557142D01*
X126809523Y-76461904D01*
X126809523Y-75652380D01*
X127714285Y-75985714D02*
X127714285Y-76652380D01*
X127476190Y-75604761D02*
X127238095Y-76319047D01*
X127857142Y-76319047D01*
%TO.C,U3*%
X136398095Y-82002380D02*
X136398095Y-82811904D01*
X136445714Y-82907142D01*
X136493333Y-82954761D01*
X136588571Y-83002380D01*
X136779047Y-83002380D01*
X136874285Y-82954761D01*
X136921904Y-82907142D01*
X136969523Y-82811904D01*
X136969523Y-82002380D01*
X137350476Y-82002380D02*
X137969523Y-82002380D01*
X137636190Y-82383333D01*
X137779047Y-82383333D01*
X137874285Y-82430952D01*
X137921904Y-82478571D01*
X137969523Y-82573809D01*
X137969523Y-82811904D01*
X137921904Y-82907142D01*
X137874285Y-82954761D01*
X137779047Y-83002380D01*
X137493333Y-83002380D01*
X137398095Y-82954761D01*
X137350476Y-82907142D01*
%TO.C,U1*%
X128778095Y-83373980D02*
X128778095Y-84183504D01*
X128825714Y-84278742D01*
X128873333Y-84326361D01*
X128968571Y-84373980D01*
X129159047Y-84373980D01*
X129254285Y-84326361D01*
X129301904Y-84278742D01*
X129349523Y-84183504D01*
X129349523Y-83373980D01*
X130349523Y-84373980D02*
X129778095Y-84373980D01*
X130063809Y-84373980D02*
X130063809Y-83373980D01*
X129968571Y-83516838D01*
X129873333Y-83612076D01*
X129778095Y-83659695D01*
%TO.C,C4*%
X133183333Y-83542142D02*
X133135714Y-83589761D01*
X132992857Y-83637380D01*
X132897619Y-83637380D01*
X132754761Y-83589761D01*
X132659523Y-83494523D01*
X132611904Y-83399285D01*
X132564285Y-83208809D01*
X132564285Y-83065952D01*
X132611904Y-82875476D01*
X132659523Y-82780238D01*
X132754761Y-82685000D01*
X132897619Y-82637380D01*
X132992857Y-82637380D01*
X133135714Y-82685000D01*
X133183333Y-82732619D01*
X134040476Y-82970714D02*
X134040476Y-83637380D01*
X133802380Y-82589761D02*
X133564285Y-83304047D01*
X134183333Y-83304047D01*
%TO.C,C5*%
X136993333Y-71731142D02*
X136945714Y-71778761D01*
X136802857Y-71826380D01*
X136707619Y-71826380D01*
X136564761Y-71778761D01*
X136469523Y-71683523D01*
X136421904Y-71588285D01*
X136374285Y-71397809D01*
X136374285Y-71254952D01*
X136421904Y-71064476D01*
X136469523Y-70969238D01*
X136564761Y-70874000D01*
X136707619Y-70826380D01*
X136802857Y-70826380D01*
X136945714Y-70874000D01*
X136993333Y-70921619D01*
X137898095Y-70826380D02*
X137421904Y-70826380D01*
X137374285Y-71302571D01*
X137421904Y-71254952D01*
X137517142Y-71207333D01*
X137755238Y-71207333D01*
X137850476Y-71254952D01*
X137898095Y-71302571D01*
X137945714Y-71397809D01*
X137945714Y-71635904D01*
X137898095Y-71731142D01*
X137850476Y-71778761D01*
X137755238Y-71826380D01*
X137517142Y-71826380D01*
X137421904Y-71778761D01*
X137374285Y-71731142D01*
%TO.C,C1*%
X128103333Y-67921142D02*
X128055714Y-67968761D01*
X127912857Y-68016380D01*
X127817619Y-68016380D01*
X127674761Y-67968761D01*
X127579523Y-67873523D01*
X127531904Y-67778285D01*
X127484285Y-67587809D01*
X127484285Y-67444952D01*
X127531904Y-67254476D01*
X127579523Y-67159238D01*
X127674761Y-67064000D01*
X127817619Y-67016380D01*
X127912857Y-67016380D01*
X128055714Y-67064000D01*
X128103333Y-67111619D01*
X129055714Y-68016380D02*
X128484285Y-68016380D01*
X128770000Y-68016380D02*
X128770000Y-67016380D01*
X128674761Y-67159238D01*
X128579523Y-67254476D01*
X128484285Y-67302095D01*
%TO.C,R5*%
X130643333Y-93009980D02*
X130310000Y-92533790D01*
X130071904Y-93009980D02*
X130071904Y-92009980D01*
X130452857Y-92009980D01*
X130548095Y-92057600D01*
X130595714Y-92105219D01*
X130643333Y-92200457D01*
X130643333Y-92343314D01*
X130595714Y-92438552D01*
X130548095Y-92486171D01*
X130452857Y-92533790D01*
X130071904Y-92533790D01*
X131548095Y-92009980D02*
X131071904Y-92009980D01*
X131024285Y-92486171D01*
X131071904Y-92438552D01*
X131167142Y-92390933D01*
X131405238Y-92390933D01*
X131500476Y-92438552D01*
X131548095Y-92486171D01*
X131595714Y-92581409D01*
X131595714Y-92819504D01*
X131548095Y-92914742D01*
X131500476Y-92962361D01*
X131405238Y-93009980D01*
X131167142Y-93009980D01*
X131071904Y-92962361D01*
X131024285Y-92914742D01*
D13*
%TO.C,R6*%
X132942064Y-81180000D02*
X132487936Y-81180000D01*
X132942064Y-82650000D02*
X132487936Y-82650000D01*
%TO.C,C3*%
X134085000Y-89908748D02*
X134085000Y-90431252D01*
X132615000Y-89908748D02*
X132615000Y-90431252D01*
%TO.C,U2*%
X135660000Y-76605000D02*
X135660000Y-80605000D01*
X138660000Y-76605000D02*
X138660000Y-79605000D01*
%TO.C,R8*%
X126137936Y-94715000D02*
X126592064Y-94715000D01*
X126137936Y-93245000D02*
X126592064Y-93245000D01*
D14*
%TO.C,G\u002A\u002A\u002A*%
X120508912Y-62448021D02*
X120937523Y-62190810D01*
X120937523Y-62190810D02*
X121409698Y-62004737D01*
X121409698Y-62004737D02*
X121918812Y-61897085D01*
X121918812Y-61897085D02*
X122135441Y-61877378D01*
X122135441Y-61877378D02*
X122318057Y-61871557D01*
X122318057Y-61871557D02*
X122464665Y-61875319D01*
X122464665Y-61875319D02*
X122550975Y-61887745D01*
X122550975Y-61887745D02*
X122562062Y-61893566D01*
X122562062Y-61893566D02*
X122570234Y-61946745D01*
X122570234Y-61946745D02*
X122577855Y-62082961D01*
X122577855Y-62082961D02*
X122584732Y-62292379D01*
X122584732Y-62292379D02*
X122590669Y-62565168D01*
X122590669Y-62565168D02*
X122595475Y-62891493D01*
X122595475Y-62891493D02*
X122598957Y-63261522D01*
X122598957Y-63261522D02*
X122600918Y-63665422D01*
X122600918Y-63665422D02*
X122601274Y-63886435D01*
X122601274Y-63886435D02*
X122602230Y-64380049D01*
X122602230Y-64380049D02*
X122604748Y-64787751D01*
X122604748Y-64787751D02*
X122609118Y-65116492D01*
X122609118Y-65116492D02*
X122615636Y-65373223D01*
X122615636Y-65373223D02*
X122624594Y-65564892D01*
X122624594Y-65564892D02*
X122636287Y-65698452D01*
X122636287Y-65698452D02*
X122651008Y-65780852D01*
X122651008Y-65780852D02*
X122669049Y-65819041D01*
X122669049Y-65819041D02*
X122683060Y-65823374D01*
X122683060Y-65823374D02*
X122758128Y-65782429D01*
X122758128Y-65782429D02*
X122869175Y-65694695D01*
X122869175Y-65694695D02*
X122963142Y-65607377D01*
X122963142Y-65607377D02*
X123089822Y-65467391D01*
X123089822Y-65467391D02*
X123165375Y-65338091D01*
X123165375Y-65338091D02*
X123214468Y-65176495D01*
X123214468Y-65176495D02*
X123217105Y-65164860D01*
X123217105Y-65164860D02*
X123234640Y-64942277D01*
X123234640Y-64942277D02*
X123199550Y-64713475D01*
X123199550Y-64713475D02*
X123119862Y-64513384D01*
X123119862Y-64513384D02*
X123043863Y-64411110D01*
X123043863Y-64411110D02*
X123017450Y-64355696D01*
X123017450Y-64355696D02*
X122996832Y-64243409D01*
X122996832Y-64243409D02*
X122981522Y-64066761D01*
X122981522Y-64066761D02*
X122971032Y-63818267D01*
X122971032Y-63818267D02*
X122964873Y-63490441D01*
X122964873Y-63490441D02*
X122962738Y-63166153D01*
X122962738Y-63166153D02*
X122963555Y-62846432D01*
X122963555Y-62846432D02*
X122967566Y-62558348D01*
X122967566Y-62558348D02*
X122974326Y-62314622D01*
X122974326Y-62314622D02*
X122983393Y-62127977D01*
X122983393Y-62127977D02*
X122994319Y-62011136D01*
X122994319Y-62011136D02*
X123004264Y-61976382D01*
X123004264Y-61976382D02*
X123090307Y-61973122D01*
X123090307Y-61973122D02*
X123239044Y-62008296D01*
X123239044Y-62008296D02*
X123431676Y-62075794D01*
X123431676Y-62075794D02*
X123649405Y-62169509D01*
X123649405Y-62169509D02*
X123752202Y-62219433D01*
X123752202Y-62219433D02*
X123893349Y-62295175D01*
X123893349Y-62295175D02*
X124017260Y-62375336D01*
X124017260Y-62375336D02*
X124143428Y-62475538D01*
X124143428Y-62475538D02*
X124291348Y-62611405D01*
X124291348Y-62611405D02*
X124480508Y-62798560D01*
X124480508Y-62798560D02*
X124502777Y-62821034D01*
X124502777Y-62821034D02*
X124690784Y-63013869D01*
X124690784Y-63013869D02*
X124826678Y-63162657D01*
X124826678Y-63162657D02*
X124925768Y-63287226D01*
X124925768Y-63287226D02*
X125003359Y-63407398D01*
X125003359Y-63407398D02*
X125074758Y-63543002D01*
X125074758Y-63543002D02*
X125098905Y-63593118D01*
X125098905Y-63593118D02*
X125253400Y-63967431D01*
X125253400Y-63967431D02*
X125351160Y-64333617D01*
X125351160Y-64333617D02*
X125400007Y-64727285D01*
X125400007Y-64727285D02*
X125409189Y-65005592D01*
X125409189Y-65005592D02*
X125366762Y-65521960D01*
X125366762Y-65521960D02*
X125237327Y-66020757D01*
X125237327Y-66020757D02*
X125026546Y-66490435D01*
X125026546Y-66490435D02*
X124740087Y-66919449D01*
X124740087Y-66919449D02*
X124383614Y-67296254D01*
X124383614Y-67296254D02*
X124217883Y-67433476D01*
X124217883Y-67433476D02*
X123783415Y-67710741D01*
X123783415Y-67710741D02*
X123311434Y-67908934D01*
X123311434Y-67908934D02*
X122814240Y-68027366D01*
X122814240Y-68027366D02*
X122304132Y-68065348D01*
X122304132Y-68065348D02*
X121793410Y-68022187D01*
X121793410Y-68022187D02*
X121294371Y-67897197D01*
X121294371Y-67897197D02*
X120819318Y-67689686D01*
X120819318Y-67689686D02*
X120714332Y-67629971D01*
X120714332Y-67629971D02*
X120511792Y-67486821D01*
X120511792Y-67486821D02*
X120283564Y-67289990D01*
X120283564Y-67289990D02*
X120181820Y-67189753D01*
X120181820Y-67189753D02*
X121699624Y-65671949D01*
X121699624Y-65671949D02*
X121802306Y-65757476D01*
X121802306Y-65757476D02*
X121885182Y-65801646D01*
X121885182Y-65801646D02*
X121920381Y-65797445D01*
X121920381Y-65797445D02*
X121927827Y-65745837D01*
X121927827Y-65745837D02*
X121934358Y-65616862D01*
X121934358Y-65616862D02*
X121939531Y-65426024D01*
X121939531Y-65426024D02*
X121942901Y-65188822D01*
X121942901Y-65188822D02*
X121944011Y-64970353D01*
X121944011Y-64970353D02*
X121942945Y-64706462D01*
X121942945Y-64706462D02*
X121939387Y-64475995D01*
X121939387Y-64475995D02*
X121933790Y-64294518D01*
X121933790Y-64294518D02*
X121926608Y-64177593D01*
X121926608Y-64177593D02*
X121919859Y-64140806D01*
X121919859Y-64140806D02*
X121876807Y-64157438D01*
X121876807Y-64157438D02*
X121790099Y-64225947D01*
X121790099Y-64225947D02*
X121696425Y-64314003D01*
X121696425Y-64314003D02*
X121506676Y-64558793D01*
X121506676Y-64558793D02*
X121407434Y-64820529D01*
X121407434Y-64820529D02*
X121399416Y-65094542D01*
X121399416Y-65094542D02*
X121483344Y-65376169D01*
X121483344Y-65376169D02*
X121521136Y-65451576D01*
X121521136Y-65451576D02*
X121598710Y-65563752D01*
X121598710Y-65563752D02*
X121699624Y-65671949D01*
X121699624Y-65671949D02*
X120181820Y-67189753D01*
X120181820Y-67189753D02*
X120054126Y-67063951D01*
X120054126Y-67063951D02*
X119847951Y-66833179D01*
X119847951Y-66833179D02*
X119689516Y-66622150D01*
X119689516Y-66622150D02*
X119661006Y-66576644D01*
X119661006Y-66576644D02*
X119469296Y-66185496D01*
X119469296Y-66185496D02*
X119325368Y-65748997D01*
X119325368Y-65748997D02*
X119240504Y-65305780D01*
X119240504Y-65305780D02*
X119223213Y-65077442D01*
X119223213Y-65077442D02*
X119251272Y-64546309D01*
X119251272Y-64546309D02*
X119362657Y-64042626D01*
X119362657Y-64042626D02*
X119550739Y-63573675D01*
X119550739Y-63573675D02*
X119808894Y-63146735D01*
X119808894Y-63146735D02*
X120130494Y-62769090D01*
X120130494Y-62769090D02*
X120508912Y-62448021D01*
X120508912Y-62448021D02*
X120508912Y-62448021D01*
G36*
X119847951Y-66833179D02*
G01*
X119689516Y-66622150D01*
X119661006Y-66576644D01*
X119469296Y-66185496D01*
X119325368Y-65748997D01*
X119240504Y-65305780D01*
X119224508Y-65094542D01*
X121399416Y-65094542D01*
X121483344Y-65376169D01*
X121521136Y-65451576D01*
X121598710Y-65563752D01*
X121699624Y-65671949D01*
X121802306Y-65757476D01*
X121885182Y-65801646D01*
X121920381Y-65797445D01*
X121927827Y-65745837D01*
X121934358Y-65616862D01*
X121939531Y-65426024D01*
X121942901Y-65188822D01*
X121944011Y-64970353D01*
X121942945Y-64706462D01*
X121939387Y-64475995D01*
X121933790Y-64294518D01*
X121926608Y-64177593D01*
X121919859Y-64140806D01*
X121876807Y-64157438D01*
X121790099Y-64225947D01*
X121696425Y-64314003D01*
X121506676Y-64558793D01*
X121407434Y-64820529D01*
X121399416Y-65094542D01*
X119224508Y-65094542D01*
X119223213Y-65077442D01*
X119251272Y-64546309D01*
X119362657Y-64042626D01*
X119550739Y-63573675D01*
X119808894Y-63146735D01*
X120130494Y-62769090D01*
X120508912Y-62448021D01*
X120937523Y-62190810D01*
X121409698Y-62004737D01*
X121918812Y-61897085D01*
X122135441Y-61877378D01*
X122318057Y-61871557D01*
X122464665Y-61875319D01*
X122550975Y-61887745D01*
X122562062Y-61893566D01*
X122570234Y-61946745D01*
X122577855Y-62082961D01*
X122584732Y-62292379D01*
X122590669Y-62565168D01*
X122595475Y-62891493D01*
X122598957Y-63261522D01*
X122600918Y-63665422D01*
X122601274Y-63886435D01*
X122602230Y-64380049D01*
X122604748Y-64787751D01*
X122609118Y-65116492D01*
X122615636Y-65373223D01*
X122624594Y-65564892D01*
X122636287Y-65698452D01*
X122651008Y-65780852D01*
X122669049Y-65819041D01*
X122683060Y-65823374D01*
X122758128Y-65782429D01*
X122869175Y-65694695D01*
X122963142Y-65607377D01*
X123089822Y-65467391D01*
X123165375Y-65338091D01*
X123214468Y-65176495D01*
X123217105Y-65164860D01*
X123234640Y-64942277D01*
X123199550Y-64713475D01*
X123119862Y-64513384D01*
X123043863Y-64411110D01*
X123017450Y-64355696D01*
X122996832Y-64243409D01*
X122981522Y-64066761D01*
X122971032Y-63818267D01*
X122964873Y-63490441D01*
X122962738Y-63166153D01*
X122963555Y-62846432D01*
X122967566Y-62558348D01*
X122974326Y-62314622D01*
X122983393Y-62127977D01*
X122994319Y-62011136D01*
X123004264Y-61976382D01*
X123090307Y-61973122D01*
X123239044Y-62008296D01*
X123431676Y-62075794D01*
X123649405Y-62169509D01*
X123752202Y-62219433D01*
X123893349Y-62295175D01*
X124017260Y-62375336D01*
X124143428Y-62475538D01*
X124291348Y-62611405D01*
X124480508Y-62798560D01*
X124502777Y-62821034D01*
X124690784Y-63013869D01*
X124826678Y-63162657D01*
X124925768Y-63287226D01*
X125003359Y-63407398D01*
X125074758Y-63543002D01*
X125098905Y-63593118D01*
X125253400Y-63967431D01*
X125351160Y-64333617D01*
X125400007Y-64727285D01*
X125409189Y-65005592D01*
X125366762Y-65521960D01*
X125237327Y-66020757D01*
X125026546Y-66490435D01*
X124740087Y-66919449D01*
X124383614Y-67296254D01*
X124217883Y-67433476D01*
X123783415Y-67710741D01*
X123311434Y-67908934D01*
X122814240Y-68027366D01*
X122304132Y-68065348D01*
X121793410Y-68022187D01*
X121294371Y-67897197D01*
X120819318Y-67689686D01*
X120714332Y-67629971D01*
X120511792Y-67486821D01*
X120283564Y-67289990D01*
X120181820Y-67189753D01*
X120054126Y-67063951D01*
X119847951Y-66833179D01*
G37*
X119847951Y-66833179D02*
X119689516Y-66622150D01*
X119661006Y-66576644D01*
X119469296Y-66185496D01*
X119325368Y-65748997D01*
X119240504Y-65305780D01*
X119224508Y-65094542D01*
X121399416Y-65094542D01*
X121483344Y-65376169D01*
X121521136Y-65451576D01*
X121598710Y-65563752D01*
X121699624Y-65671949D01*
X121802306Y-65757476D01*
X121885182Y-65801646D01*
X121920381Y-65797445D01*
X121927827Y-65745837D01*
X121934358Y-65616862D01*
X121939531Y-65426024D01*
X121942901Y-65188822D01*
X121944011Y-64970353D01*
X121942945Y-64706462D01*
X121939387Y-64475995D01*
X121933790Y-64294518D01*
X121926608Y-64177593D01*
X121919859Y-64140806D01*
X121876807Y-64157438D01*
X121790099Y-64225947D01*
X121696425Y-64314003D01*
X121506676Y-64558793D01*
X121407434Y-64820529D01*
X121399416Y-65094542D01*
X119224508Y-65094542D01*
X119223213Y-65077442D01*
X119251272Y-64546309D01*
X119362657Y-64042626D01*
X119550739Y-63573675D01*
X119808894Y-63146735D01*
X120130494Y-62769090D01*
X120508912Y-62448021D01*
X120937523Y-62190810D01*
X121409698Y-62004737D01*
X121918812Y-61897085D01*
X122135441Y-61877378D01*
X122318057Y-61871557D01*
X122464665Y-61875319D01*
X122550975Y-61887745D01*
X122562062Y-61893566D01*
X122570234Y-61946745D01*
X122577855Y-62082961D01*
X122584732Y-62292379D01*
X122590669Y-62565168D01*
X122595475Y-62891493D01*
X122598957Y-63261522D01*
X122600918Y-63665422D01*
X122601274Y-63886435D01*
X122602230Y-64380049D01*
X122604748Y-64787751D01*
X122609118Y-65116492D01*
X122615636Y-65373223D01*
X122624594Y-65564892D01*
X122636287Y-65698452D01*
X122651008Y-65780852D01*
X122669049Y-65819041D01*
X122683060Y-65823374D01*
X122758128Y-65782429D01*
X122869175Y-65694695D01*
X122963142Y-65607377D01*
X123089822Y-65467391D01*
X123165375Y-65338091D01*
X123214468Y-65176495D01*
X123217105Y-65164860D01*
X123234640Y-64942277D01*
X123199550Y-64713475D01*
X123119862Y-64513384D01*
X123043863Y-64411110D01*
X123017450Y-64355696D01*
X122996832Y-64243409D01*
X122981522Y-64066761D01*
X122971032Y-63818267D01*
X122964873Y-63490441D01*
X122962738Y-63166153D01*
X122963555Y-62846432D01*
X122967566Y-62558348D01*
X122974326Y-62314622D01*
X122983393Y-62127977D01*
X122994319Y-62011136D01*
X123004264Y-61976382D01*
X123090307Y-61973122D01*
X123239044Y-62008296D01*
X123431676Y-62075794D01*
X123649405Y-62169509D01*
X123752202Y-62219433D01*
X123893349Y-62295175D01*
X124017260Y-62375336D01*
X124143428Y-62475538D01*
X124291348Y-62611405D01*
X124480508Y-62798560D01*
X124502777Y-62821034D01*
X124690784Y-63013869D01*
X124826678Y-63162657D01*
X124925768Y-63287226D01*
X125003359Y-63407398D01*
X125074758Y-63543002D01*
X125098905Y-63593118D01*
X125253400Y-63967431D01*
X125351160Y-64333617D01*
X125400007Y-64727285D01*
X125409189Y-65005592D01*
X125366762Y-65521960D01*
X125237327Y-66020757D01*
X125026546Y-66490435D01*
X124740087Y-66919449D01*
X124383614Y-67296254D01*
X124217883Y-67433476D01*
X123783415Y-67710741D01*
X123311434Y-67908934D01*
X122814240Y-68027366D01*
X122304132Y-68065348D01*
X121793410Y-68022187D01*
X121294371Y-67897197D01*
X120819318Y-67689686D01*
X120714332Y-67629971D01*
X120511792Y-67486821D01*
X120283564Y-67289990D01*
X120181820Y-67189753D01*
X120054126Y-67063951D01*
X119847951Y-66833179D01*
X126560548Y-56365554D02*
X126751380Y-56180672D01*
X126751380Y-56180672D02*
X126910636Y-56030566D01*
X126910636Y-56030566D02*
X127028705Y-55924210D01*
X127028705Y-55924210D02*
X127095983Y-55870581D01*
X127095983Y-55870581D02*
X127107549Y-55866320D01*
X127107549Y-55866320D02*
X127116474Y-55916443D01*
X127116474Y-55916443D02*
X127131773Y-56049484D01*
X127131773Y-56049484D02*
X127152547Y-56255776D01*
X127152547Y-56255776D02*
X127177905Y-56525652D01*
X127177905Y-56525652D02*
X127206950Y-56849446D01*
X127206950Y-56849446D02*
X127238786Y-57217490D01*
X127238786Y-57217490D02*
X127272519Y-57620117D01*
X127272519Y-57620117D02*
X127292073Y-57859171D01*
X127292073Y-57859171D02*
X127451652Y-59827076D01*
X127451652Y-59827076D02*
X127614831Y-59834194D01*
X127614831Y-59834194D02*
X127764320Y-59842707D01*
X127764320Y-59842707D02*
X127979065Y-59857699D01*
X127979065Y-59857699D02*
X128247362Y-59878134D01*
X128247362Y-59878134D02*
X128557499Y-59902976D01*
X128557499Y-59902976D02*
X128897770Y-59931187D01*
X128897770Y-59931187D02*
X129256468Y-59961730D01*
X129256468Y-59961730D02*
X129621883Y-59993569D01*
X129621883Y-59993569D02*
X129982308Y-60025667D01*
X129982308Y-60025667D02*
X130326036Y-60056988D01*
X130326036Y-60056988D02*
X130641356Y-60086493D01*
X130641356Y-60086493D02*
X130916564Y-60113148D01*
X130916564Y-60113148D02*
X131139949Y-60135916D01*
X131139949Y-60135916D02*
X131299805Y-60153758D01*
X131299805Y-60153758D02*
X131384423Y-60165639D01*
X131384423Y-60165639D02*
X131394878Y-60168921D01*
X131394878Y-60168921D02*
X131362844Y-60206377D01*
X131362844Y-60206377D02*
X131270861Y-60302814D01*
X131270861Y-60302814D02*
X131125112Y-60452006D01*
X131125112Y-60452006D02*
X130931773Y-60647728D01*
X130931773Y-60647728D02*
X130697026Y-60883751D01*
X130697026Y-60883751D02*
X130427051Y-61153851D01*
X130427051Y-61153851D02*
X130128027Y-61451802D01*
X130128027Y-61451802D02*
X129806134Y-61771377D01*
X129806134Y-61771377D02*
X129698425Y-61878065D01*
X129698425Y-61878065D02*
X128001972Y-63557499D01*
X128001972Y-63557499D02*
X127990197Y-62347263D01*
X127990197Y-62347263D02*
X127985567Y-62020367D01*
X127985567Y-62020367D02*
X127978597Y-61723909D01*
X127978597Y-61723909D02*
X127969812Y-61470607D01*
X127969812Y-61470607D02*
X127959734Y-61273173D01*
X127959734Y-61273173D02*
X127948888Y-61144324D01*
X127948888Y-61144324D02*
X127938787Y-61097391D01*
X127938787Y-61097391D02*
X127848374Y-61045358D01*
X127848374Y-61045358D02*
X127722526Y-61007857D01*
X127722526Y-61007857D02*
X127619961Y-61001820D01*
X127619961Y-61001820D02*
X127568197Y-61019276D01*
X127568197Y-61019276D02*
X127526514Y-61054969D01*
X127526514Y-61054969D02*
X127493845Y-61118057D01*
X127493845Y-61118057D02*
X127469122Y-61217699D01*
X127469122Y-61217699D02*
X127451279Y-61363054D01*
X127451279Y-61363054D02*
X127439248Y-61563278D01*
X127439248Y-61563278D02*
X127431962Y-61827531D01*
X127431962Y-61827531D02*
X127428354Y-62164969D01*
X127428354Y-62164969D02*
X127427357Y-62584752D01*
X127427357Y-62584752D02*
X127427367Y-62654548D01*
X127427367Y-62654548D02*
X127427902Y-64164403D01*
X127427902Y-64164403D02*
X126678710Y-64913595D01*
X126678710Y-64913595D02*
X126413047Y-65176974D01*
X126413047Y-65176974D02*
X126207563Y-65375405D01*
X126207563Y-65375405D02*
X126059041Y-65511808D01*
X126059041Y-65511808D02*
X125964266Y-65589100D01*
X125964266Y-65589100D02*
X125920022Y-65610201D01*
X125920022Y-65610201D02*
X125916040Y-65605693D01*
X125916040Y-65605693D02*
X125909523Y-65548446D01*
X125909523Y-65548446D02*
X125896500Y-65408623D01*
X125896500Y-65408623D02*
X125877822Y-65196226D01*
X125877822Y-65196226D02*
X125854338Y-64921256D01*
X125854338Y-64921256D02*
X125826898Y-64593716D01*
X125826898Y-64593716D02*
X125796352Y-64223609D01*
X125796352Y-64223609D02*
X125763549Y-63820936D01*
X125763549Y-63820936D02*
X125747863Y-63626606D01*
X125747863Y-63626606D02*
X125713927Y-63214162D01*
X125713927Y-63214162D02*
X125681001Y-62831312D01*
X125681001Y-62831312D02*
X125650027Y-62487780D01*
X125650027Y-62487780D02*
X125621947Y-62193289D01*
X125621947Y-62193289D02*
X125597702Y-61957562D01*
X125597702Y-61957562D02*
X125578235Y-61790323D01*
X125578235Y-61790323D02*
X125564487Y-61701295D01*
X125564487Y-61701295D02*
X125560200Y-61689199D01*
X125560200Y-61689199D02*
X125508303Y-61682316D01*
X125508303Y-61682316D02*
X125373599Y-61668994D01*
X125373599Y-61668994D02*
X125165866Y-61650082D01*
X125165866Y-61650082D02*
X124894882Y-61626426D01*
X124894882Y-61626426D02*
X124570424Y-61598872D01*
X124570424Y-61598872D02*
X124202269Y-61568269D01*
X124202269Y-61568269D02*
X123800196Y-61535460D01*
X123800196Y-61535460D02*
X123581847Y-61517881D01*
X123581847Y-61517881D02*
X123166703Y-61484217D01*
X123166703Y-61484217D02*
X122780975Y-61452178D01*
X122780975Y-61452178D02*
X122434344Y-61422625D01*
X122434344Y-61422625D02*
X122136492Y-61396417D01*
X122136492Y-61396417D02*
X121897106Y-61374415D01*
X121897106Y-61374415D02*
X121725868Y-61357482D01*
X121725868Y-61357482D02*
X121632460Y-61346474D01*
X121632460Y-61346474D02*
X121617844Y-61343363D01*
X121617844Y-61343363D02*
X121646069Y-61307959D01*
X121646069Y-61307959D02*
X121734070Y-61213235D01*
X121734070Y-61213235D02*
X121875794Y-61065377D01*
X121875794Y-61065377D02*
X122065188Y-60870576D01*
X122065188Y-60870576D02*
X122296197Y-60635017D01*
X122296197Y-60635017D02*
X122562769Y-60364888D01*
X122562769Y-60364888D02*
X122858851Y-60066378D01*
X122858851Y-60066378D02*
X123178388Y-59745674D01*
X123178388Y-59745674D02*
X123292947Y-59631031D01*
X123292947Y-59631031D02*
X123699517Y-59225675D01*
X123699517Y-59225675D02*
X124055241Y-58873545D01*
X124055241Y-58873545D02*
X124357984Y-58576693D01*
X124357984Y-58576693D02*
X124605614Y-58337174D01*
X124605614Y-58337174D02*
X124795997Y-58157041D01*
X124795997Y-58157041D02*
X124927002Y-58038349D01*
X124927002Y-58038349D02*
X124996494Y-57983148D01*
X124996494Y-57983148D02*
X125007560Y-57980101D01*
X125007560Y-57980101D02*
X125014196Y-58036579D01*
X125014196Y-58036579D02*
X125021840Y-58172834D01*
X125021840Y-58172834D02*
X125030011Y-58375786D01*
X125030011Y-58375786D02*
X125038232Y-58632354D01*
X125038232Y-58632354D02*
X125046023Y-58929456D01*
X125046023Y-58929456D02*
X125051450Y-59178674D01*
X125051450Y-59178674D02*
X125060517Y-59565013D01*
X125060517Y-59565013D02*
X125072016Y-59868356D01*
X125072016Y-59868356D02*
X125088122Y-60098579D01*
X125088122Y-60098579D02*
X125111010Y-60265558D01*
X125111010Y-60265558D02*
X125142857Y-60379166D01*
X125142857Y-60379166D02*
X125185837Y-60449277D01*
X125185837Y-60449277D02*
X125242126Y-60485769D01*
X125242126Y-60485769D02*
X125313899Y-60498515D01*
X125313899Y-60498515D02*
X125342371Y-60499193D01*
X125342371Y-60499193D02*
X125416670Y-60494438D01*
X125416670Y-60494438D02*
X125476724Y-60474280D01*
X125476724Y-60474280D02*
X125523989Y-60429881D01*
X125523989Y-60429881D02*
X125559917Y-60352405D01*
X125559917Y-60352405D02*
X125585962Y-60233013D01*
X125585962Y-60233013D02*
X125603576Y-60062868D01*
X125603576Y-60062868D02*
X125614215Y-59833131D01*
X125614215Y-59833131D02*
X125619330Y-59534967D01*
X125619330Y-59534967D02*
X125620374Y-59159536D01*
X125620374Y-59159536D02*
X125619332Y-58815035D01*
X125619332Y-58815035D02*
X125612886Y-57311091D01*
X125612886Y-57311091D02*
X126347745Y-56576233D01*
X126347745Y-56576233D02*
X126560548Y-56365554D01*
X126560548Y-56365554D02*
X126560548Y-56365554D01*
G36*
X127116474Y-55916443D02*
G01*
X127131773Y-56049484D01*
X127152547Y-56255776D01*
X127177905Y-56525652D01*
X127206950Y-56849446D01*
X127238786Y-57217490D01*
X127272519Y-57620117D01*
X127292073Y-57859171D01*
X127451652Y-59827076D01*
X127614831Y-59834194D01*
X127764320Y-59842707D01*
X127979065Y-59857699D01*
X128247362Y-59878134D01*
X128557499Y-59902976D01*
X128897770Y-59931187D01*
X129256468Y-59961730D01*
X129621883Y-59993569D01*
X129982308Y-60025667D01*
X130326036Y-60056988D01*
X130641356Y-60086493D01*
X130916564Y-60113148D01*
X131139949Y-60135916D01*
X131299805Y-60153758D01*
X131384423Y-60165639D01*
X131394878Y-60168921D01*
X131362844Y-60206377D01*
X131270861Y-60302814D01*
X131125112Y-60452006D01*
X130931773Y-60647728D01*
X130697026Y-60883751D01*
X130427051Y-61153851D01*
X130128027Y-61451802D01*
X129806134Y-61771377D01*
X129698425Y-61878065D01*
X128001972Y-63557499D01*
X127990197Y-62347263D01*
X127985567Y-62020367D01*
X127978597Y-61723909D01*
X127969812Y-61470607D01*
X127959734Y-61273173D01*
X127948888Y-61144324D01*
X127938787Y-61097391D01*
X127848374Y-61045358D01*
X127722526Y-61007857D01*
X127619961Y-61001820D01*
X127568197Y-61019276D01*
X127526514Y-61054969D01*
X127493845Y-61118057D01*
X127469122Y-61217699D01*
X127451279Y-61363054D01*
X127439248Y-61563278D01*
X127431962Y-61827531D01*
X127428354Y-62164969D01*
X127427357Y-62584752D01*
X127427367Y-62654548D01*
X127427902Y-64164403D01*
X126678710Y-64913595D01*
X126413047Y-65176974D01*
X126207563Y-65375405D01*
X126059041Y-65511808D01*
X125964266Y-65589100D01*
X125920022Y-65610201D01*
X125916040Y-65605693D01*
X125909523Y-65548446D01*
X125896500Y-65408623D01*
X125877822Y-65196226D01*
X125854338Y-64921256D01*
X125826898Y-64593716D01*
X125796352Y-64223609D01*
X125763549Y-63820936D01*
X125747863Y-63626606D01*
X125713927Y-63214162D01*
X125681001Y-62831312D01*
X125650027Y-62487780D01*
X125621947Y-62193289D01*
X125597702Y-61957562D01*
X125578235Y-61790323D01*
X125564487Y-61701295D01*
X125560200Y-61689199D01*
X125508303Y-61682316D01*
X125373599Y-61668994D01*
X125165866Y-61650082D01*
X124894882Y-61626426D01*
X124570424Y-61598872D01*
X124202269Y-61568269D01*
X123800196Y-61535460D01*
X123581847Y-61517881D01*
X123166703Y-61484217D01*
X122780975Y-61452178D01*
X122434344Y-61422625D01*
X122136492Y-61396417D01*
X121897106Y-61374415D01*
X121725868Y-61357482D01*
X121632460Y-61346474D01*
X121617844Y-61343363D01*
X121646069Y-61307959D01*
X121734070Y-61213235D01*
X121875794Y-61065377D01*
X122065188Y-60870576D01*
X122296197Y-60635017D01*
X122562769Y-60364888D01*
X122858851Y-60066378D01*
X123178388Y-59745674D01*
X123292947Y-59631031D01*
X123699517Y-59225675D01*
X124055241Y-58873545D01*
X124357984Y-58576693D01*
X124605614Y-58337174D01*
X124795997Y-58157041D01*
X124927002Y-58038349D01*
X124996494Y-57983148D01*
X125007560Y-57980101D01*
X125014196Y-58036579D01*
X125021840Y-58172834D01*
X125030011Y-58375786D01*
X125038232Y-58632354D01*
X125046023Y-58929456D01*
X125051450Y-59178674D01*
X125060517Y-59565013D01*
X125072016Y-59868356D01*
X125088122Y-60098579D01*
X125111010Y-60265558D01*
X125142857Y-60379166D01*
X125185837Y-60449277D01*
X125242126Y-60485769D01*
X125313899Y-60498515D01*
X125342371Y-60499193D01*
X125416670Y-60494438D01*
X125476724Y-60474280D01*
X125523989Y-60429881D01*
X125559917Y-60352405D01*
X125585962Y-60233013D01*
X125603576Y-60062868D01*
X125614215Y-59833131D01*
X125619330Y-59534967D01*
X125620374Y-59159536D01*
X125619332Y-58815035D01*
X125612886Y-57311091D01*
X126347745Y-56576233D01*
X126560548Y-56365554D01*
X126751380Y-56180672D01*
X126910636Y-56030566D01*
X127028705Y-55924210D01*
X127095983Y-55870581D01*
X127107549Y-55866320D01*
X127116474Y-55916443D01*
G37*
X127116474Y-55916443D02*
X127131773Y-56049484D01*
X127152547Y-56255776D01*
X127177905Y-56525652D01*
X127206950Y-56849446D01*
X127238786Y-57217490D01*
X127272519Y-57620117D01*
X127292073Y-57859171D01*
X127451652Y-59827076D01*
X127614831Y-59834194D01*
X127764320Y-59842707D01*
X127979065Y-59857699D01*
X128247362Y-59878134D01*
X128557499Y-59902976D01*
X128897770Y-59931187D01*
X129256468Y-59961730D01*
X129621883Y-59993569D01*
X129982308Y-60025667D01*
X130326036Y-60056988D01*
X130641356Y-60086493D01*
X130916564Y-60113148D01*
X131139949Y-60135916D01*
X131299805Y-60153758D01*
X131384423Y-60165639D01*
X131394878Y-60168921D01*
X131362844Y-60206377D01*
X131270861Y-60302814D01*
X131125112Y-60452006D01*
X130931773Y-60647728D01*
X130697026Y-60883751D01*
X130427051Y-61153851D01*
X130128027Y-61451802D01*
X129806134Y-61771377D01*
X129698425Y-61878065D01*
X128001972Y-63557499D01*
X127990197Y-62347263D01*
X127985567Y-62020367D01*
X127978597Y-61723909D01*
X127969812Y-61470607D01*
X127959734Y-61273173D01*
X127948888Y-61144324D01*
X127938787Y-61097391D01*
X127848374Y-61045358D01*
X127722526Y-61007857D01*
X127619961Y-61001820D01*
X127568197Y-61019276D01*
X127526514Y-61054969D01*
X127493845Y-61118057D01*
X127469122Y-61217699D01*
X127451279Y-61363054D01*
X127439248Y-61563278D01*
X127431962Y-61827531D01*
X127428354Y-62164969D01*
X127427357Y-62584752D01*
X127427367Y-62654548D01*
X127427902Y-64164403D01*
X126678710Y-64913595D01*
X126413047Y-65176974D01*
X126207563Y-65375405D01*
X126059041Y-65511808D01*
X125964266Y-65589100D01*
X125920022Y-65610201D01*
X125916040Y-65605693D01*
X125909523Y-65548446D01*
X125896500Y-65408623D01*
X125877822Y-65196226D01*
X125854338Y-64921256D01*
X125826898Y-64593716D01*
X125796352Y-64223609D01*
X125763549Y-63820936D01*
X125747863Y-63626606D01*
X125713927Y-63214162D01*
X125681001Y-62831312D01*
X125650027Y-62487780D01*
X125621947Y-62193289D01*
X125597702Y-61957562D01*
X125578235Y-61790323D01*
X125564487Y-61701295D01*
X125560200Y-61689199D01*
X125508303Y-61682316D01*
X125373599Y-61668994D01*
X125165866Y-61650082D01*
X124894882Y-61626426D01*
X124570424Y-61598872D01*
X124202269Y-61568269D01*
X123800196Y-61535460D01*
X123581847Y-61517881D01*
X123166703Y-61484217D01*
X122780975Y-61452178D01*
X122434344Y-61422625D01*
X122136492Y-61396417D01*
X121897106Y-61374415D01*
X121725868Y-61357482D01*
X121632460Y-61346474D01*
X121617844Y-61343363D01*
X121646069Y-61307959D01*
X121734070Y-61213235D01*
X121875794Y-61065377D01*
X122065188Y-60870576D01*
X122296197Y-60635017D01*
X122562769Y-60364888D01*
X122858851Y-60066378D01*
X123178388Y-59745674D01*
X123292947Y-59631031D01*
X123699517Y-59225675D01*
X124055241Y-58873545D01*
X124357984Y-58576693D01*
X124605614Y-58337174D01*
X124795997Y-58157041D01*
X124927002Y-58038349D01*
X124996494Y-57983148D01*
X125007560Y-57980101D01*
X125014196Y-58036579D01*
X125021840Y-58172834D01*
X125030011Y-58375786D01*
X125038232Y-58632354D01*
X125046023Y-58929456D01*
X125051450Y-59178674D01*
X125060517Y-59565013D01*
X125072016Y-59868356D01*
X125088122Y-60098579D01*
X125111010Y-60265558D01*
X125142857Y-60379166D01*
X125185837Y-60449277D01*
X125242126Y-60485769D01*
X125313899Y-60498515D01*
X125342371Y-60499193D01*
X125416670Y-60494438D01*
X125476724Y-60474280D01*
X125523989Y-60429881D01*
X125559917Y-60352405D01*
X125585962Y-60233013D01*
X125603576Y-60062868D01*
X125614215Y-59833131D01*
X125619330Y-59534967D01*
X125620374Y-59159536D01*
X125619332Y-58815035D01*
X125612886Y-57311091D01*
X126347745Y-56576233D01*
X126560548Y-56365554D01*
X126751380Y-56180672D01*
X126910636Y-56030566D01*
X127028705Y-55924210D01*
X127095983Y-55870581D01*
X127107549Y-55866320D01*
X127116474Y-55916443D01*
X97202454Y-82372725D02*
X97678665Y-81897472D01*
X97678665Y-81897472D02*
X98132415Y-81445267D01*
X98132415Y-81445267D02*
X98559606Y-81020168D01*
X98559606Y-81020168D02*
X98956135Y-80626234D01*
X98956135Y-80626234D02*
X99317902Y-80267525D01*
X99317902Y-80267525D02*
X99640805Y-79948099D01*
X99640805Y-79948099D02*
X99920746Y-79672016D01*
X99920746Y-79672016D02*
X100153621Y-79443336D01*
X100153621Y-79443336D02*
X100335330Y-79266116D01*
X100335330Y-79266116D02*
X100461773Y-79144418D01*
X100461773Y-79144418D02*
X100528850Y-79082300D01*
X100528850Y-79082300D02*
X100538902Y-79074887D01*
X100538902Y-79074887D02*
X100542601Y-79123454D01*
X100542601Y-79123454D02*
X100546773Y-79257124D01*
X100546773Y-79257124D02*
X100551310Y-79468132D01*
X100551310Y-79468132D02*
X100556102Y-79748714D01*
X100556102Y-79748714D02*
X100561040Y-80091104D01*
X100561040Y-80091104D02*
X100566015Y-80487538D01*
X100566015Y-80487538D02*
X100570919Y-80930251D01*
X100570919Y-80930251D02*
X100575641Y-81411478D01*
X100575641Y-81411478D02*
X100580076Y-81923452D01*
X100580076Y-81923452D02*
X100581643Y-82121993D01*
X100581643Y-82121993D02*
X100586382Y-82647503D01*
X100586382Y-82647503D02*
X100592251Y-83148251D01*
X100592251Y-83148251D02*
X100599064Y-83616065D01*
X100599064Y-83616065D02*
X100606642Y-84042772D01*
X100606642Y-84042772D02*
X100614801Y-84420203D01*
X100614801Y-84420203D02*
X100623358Y-84740183D01*
X100623358Y-84740183D02*
X100632129Y-84994545D01*
X100632129Y-84994545D02*
X100640935Y-85175114D01*
X100640935Y-85175114D02*
X100649589Y-85273719D01*
X100649589Y-85273719D02*
X100652419Y-85286993D01*
X100652419Y-85286993D02*
X100738724Y-85417688D01*
X100738724Y-85417688D02*
X100869040Y-85485106D01*
X100869040Y-85485106D02*
X101018587Y-85488353D01*
X101018587Y-85488353D02*
X101162582Y-85426543D01*
X101162582Y-85426543D02*
X101270214Y-85309194D01*
X101270214Y-85309194D02*
X101281263Y-85243528D01*
X101281263Y-85243528D02*
X101290400Y-85089765D01*
X101290400Y-85089765D02*
X101297590Y-84852655D01*
X101297590Y-84852655D02*
X101302799Y-84536953D01*
X101302799Y-84536953D02*
X101305991Y-84147411D01*
X101305991Y-84147411D02*
X101307131Y-83688782D01*
X101307131Y-83688782D02*
X101306186Y-83165819D01*
X101306186Y-83165819D02*
X101303121Y-82583276D01*
X101303121Y-82583276D02*
X101297900Y-81945903D01*
X101297900Y-81945903D02*
X101296099Y-81763305D01*
X101296099Y-81763305D02*
X101260940Y-78319370D01*
X101260940Y-78319370D02*
X102345852Y-77231728D01*
X102345852Y-77231728D02*
X102606744Y-76971290D01*
X102606744Y-76971290D02*
X102847362Y-76733218D01*
X102847362Y-76733218D02*
X103059761Y-76525208D01*
X103059761Y-76525208D02*
X103235993Y-76354956D01*
X103235993Y-76354956D02*
X103368113Y-76230160D01*
X103368113Y-76230160D02*
X103448174Y-76158518D01*
X103448174Y-76158518D02*
X103468735Y-76144086D01*
X103468735Y-76144086D02*
X103475556Y-76189283D01*
X103475556Y-76189283D02*
X103487856Y-76320301D01*
X103487856Y-76320301D02*
X103505174Y-76530282D01*
X103505174Y-76530282D02*
X103527049Y-76812366D01*
X103527049Y-76812366D02*
X103553019Y-77159695D01*
X103553019Y-77159695D02*
X103582624Y-77565412D01*
X103582624Y-77565412D02*
X103615403Y-78022656D01*
X103615403Y-78022656D02*
X103650895Y-78524568D01*
X103650895Y-78524568D02*
X103688637Y-79064290D01*
X103688637Y-79064290D02*
X103728168Y-79634964D01*
X103728168Y-79634964D02*
X103769030Y-80229730D01*
X103769030Y-80229730D02*
X103810758Y-80841731D01*
X103810758Y-80841731D02*
X103852893Y-81464106D01*
X103852893Y-81464106D02*
X103894973Y-82089997D01*
X103894973Y-82089997D02*
X103936538Y-82712548D01*
X103936538Y-82712548D02*
X103977125Y-83324896D01*
X103977125Y-83324896D02*
X104016274Y-83920184D01*
X104016274Y-83920184D02*
X104053523Y-84491555D01*
X104053523Y-84491555D02*
X104088412Y-85032147D01*
X104088412Y-85032147D02*
X104120480Y-85535104D01*
X104120480Y-85535104D02*
X104149264Y-85993566D01*
X104149264Y-85993566D02*
X104174305Y-86400675D01*
X104174305Y-86400675D02*
X104195140Y-86749571D01*
X104195140Y-86749571D02*
X104211309Y-87033397D01*
X104211309Y-87033397D02*
X104222351Y-87245292D01*
X104222351Y-87245292D02*
X104227803Y-87378399D01*
X104227803Y-87378399D02*
X104227289Y-87425784D01*
X104227289Y-87425784D02*
X104179982Y-87425128D01*
X104179982Y-87425128D02*
X104045658Y-87418746D01*
X104045658Y-87418746D02*
X103829971Y-87406986D01*
X103829971Y-87406986D02*
X103538573Y-87390193D01*
X103538573Y-87390193D02*
X103177120Y-87368716D01*
X103177120Y-87368716D02*
X102751265Y-87342902D01*
X102751265Y-87342902D02*
X102266663Y-87313098D01*
X102266663Y-87313098D02*
X101728967Y-87279652D01*
X101728967Y-87279652D02*
X101143830Y-87242909D01*
X101143830Y-87242909D02*
X100516906Y-87203220D01*
X100516906Y-87203220D02*
X99853852Y-87160930D01*
X99853852Y-87160930D02*
X99160318Y-87116385D01*
X99160318Y-87116385D02*
X98594994Y-87079856D01*
X98594994Y-87079856D02*
X97880795Y-87033455D01*
X97880795Y-87033455D02*
X97192242Y-86988466D01*
X97192242Y-86988466D02*
X96535027Y-86945275D01*
X96535027Y-86945275D02*
X95914837Y-86904265D01*
X95914837Y-86904265D02*
X95337360Y-86865822D01*
X95337360Y-86865822D02*
X94808289Y-86830330D01*
X94808289Y-86830330D02*
X94333311Y-86798173D01*
X94333311Y-86798173D02*
X93918116Y-86769737D01*
X93918116Y-86769737D02*
X93568391Y-86745406D01*
X93568391Y-86745406D02*
X93289828Y-86725566D01*
X93289828Y-86725566D02*
X93088115Y-86710600D01*
X93088115Y-86710600D02*
X92968942Y-86700894D01*
X92968942Y-86700894D02*
X92936933Y-86697216D01*
X92936933Y-86697216D02*
X92963347Y-86662225D01*
X92963347Y-86662225D02*
X93052655Y-86564842D01*
X93052655Y-86564842D02*
X93201852Y-86408121D01*
X93201852Y-86408121D02*
X93407936Y-86195112D01*
X93407936Y-86195112D02*
X93667904Y-85928865D01*
X93667904Y-85928865D02*
X93978752Y-85612431D01*
X93978752Y-85612431D02*
X94337475Y-85248859D01*
X94337475Y-85248859D02*
X94741073Y-84841203D01*
X94741073Y-84841203D02*
X95186539Y-84392511D01*
X95186539Y-84392511D02*
X95670872Y-83905835D01*
X95670872Y-83905835D02*
X96191067Y-83384225D01*
X96191067Y-83384225D02*
X96707886Y-82866965D01*
X96707886Y-82866965D02*
X97202454Y-82372725D01*
X97202454Y-82372725D02*
X97202454Y-82372725D01*
G36*
X103475556Y-76189283D02*
G01*
X103487856Y-76320301D01*
X103505174Y-76530282D01*
X103527049Y-76812366D01*
X103553019Y-77159695D01*
X103582624Y-77565412D01*
X103615403Y-78022656D01*
X103650895Y-78524568D01*
X103688637Y-79064290D01*
X103728168Y-79634964D01*
X103769030Y-80229730D01*
X103810758Y-80841731D01*
X103852893Y-81464106D01*
X103894973Y-82089997D01*
X103936538Y-82712548D01*
X103977125Y-83324896D01*
X104016274Y-83920184D01*
X104053523Y-84491555D01*
X104088412Y-85032147D01*
X104120480Y-85535104D01*
X104149264Y-85993566D01*
X104174305Y-86400675D01*
X104195140Y-86749571D01*
X104211309Y-87033397D01*
X104222351Y-87245292D01*
X104227803Y-87378399D01*
X104227289Y-87425784D01*
X104179982Y-87425128D01*
X104045658Y-87418746D01*
X103829971Y-87406986D01*
X103538573Y-87390193D01*
X103177120Y-87368716D01*
X102751265Y-87342902D01*
X102266663Y-87313098D01*
X101728967Y-87279652D01*
X101143830Y-87242909D01*
X100516906Y-87203220D01*
X99853852Y-87160930D01*
X99160318Y-87116385D01*
X98594994Y-87079856D01*
X97880795Y-87033455D01*
X97192242Y-86988466D01*
X96535027Y-86945275D01*
X95914837Y-86904265D01*
X95337360Y-86865822D01*
X94808289Y-86830330D01*
X94333311Y-86798173D01*
X93918116Y-86769737D01*
X93568391Y-86745406D01*
X93289828Y-86725566D01*
X93088115Y-86710600D01*
X92968942Y-86700894D01*
X92936933Y-86697216D01*
X92963347Y-86662225D01*
X93052655Y-86564842D01*
X93201852Y-86408121D01*
X93407936Y-86195112D01*
X93667904Y-85928865D01*
X93978752Y-85612431D01*
X94337475Y-85248859D01*
X94741073Y-84841203D01*
X95186539Y-84392511D01*
X95670872Y-83905835D01*
X96191067Y-83384225D01*
X96707886Y-82866965D01*
X97202454Y-82372725D01*
X97678665Y-81897472D01*
X98132415Y-81445267D01*
X98559606Y-81020168D01*
X98956135Y-80626234D01*
X99317902Y-80267525D01*
X99640805Y-79948099D01*
X99920746Y-79672016D01*
X100153621Y-79443336D01*
X100335330Y-79266116D01*
X100461773Y-79144418D01*
X100528850Y-79082300D01*
X100538902Y-79074887D01*
X100542601Y-79123454D01*
X100546773Y-79257124D01*
X100551310Y-79468132D01*
X100556102Y-79748714D01*
X100561040Y-80091104D01*
X100566015Y-80487538D01*
X100570919Y-80930251D01*
X100575641Y-81411478D01*
X100580076Y-81923452D01*
X100581643Y-82121993D01*
X100586382Y-82647503D01*
X100592251Y-83148251D01*
X100599064Y-83616065D01*
X100606642Y-84042772D01*
X100614801Y-84420203D01*
X100623358Y-84740183D01*
X100632129Y-84994545D01*
X100640935Y-85175114D01*
X100649589Y-85273719D01*
X100652419Y-85286993D01*
X100738724Y-85417688D01*
X100869040Y-85485106D01*
X101018587Y-85488353D01*
X101162582Y-85426543D01*
X101270214Y-85309194D01*
X101281263Y-85243528D01*
X101290400Y-85089765D01*
X101297590Y-84852655D01*
X101302799Y-84536953D01*
X101305991Y-84147411D01*
X101307131Y-83688782D01*
X101306186Y-83165819D01*
X101303121Y-82583276D01*
X101297900Y-81945903D01*
X101296099Y-81763305D01*
X101260940Y-78319370D01*
X102345852Y-77231728D01*
X102606744Y-76971290D01*
X102847362Y-76733218D01*
X103059761Y-76525208D01*
X103235993Y-76354956D01*
X103368113Y-76230160D01*
X103448174Y-76158518D01*
X103468735Y-76144086D01*
X103475556Y-76189283D01*
G37*
X103475556Y-76189283D02*
X103487856Y-76320301D01*
X103505174Y-76530282D01*
X103527049Y-76812366D01*
X103553019Y-77159695D01*
X103582624Y-77565412D01*
X103615403Y-78022656D01*
X103650895Y-78524568D01*
X103688637Y-79064290D01*
X103728168Y-79634964D01*
X103769030Y-80229730D01*
X103810758Y-80841731D01*
X103852893Y-81464106D01*
X103894973Y-82089997D01*
X103936538Y-82712548D01*
X103977125Y-83324896D01*
X104016274Y-83920184D01*
X104053523Y-84491555D01*
X104088412Y-85032147D01*
X104120480Y-85535104D01*
X104149264Y-85993566D01*
X104174305Y-86400675D01*
X104195140Y-86749571D01*
X104211309Y-87033397D01*
X104222351Y-87245292D01*
X104227803Y-87378399D01*
X104227289Y-87425784D01*
X104179982Y-87425128D01*
X104045658Y-87418746D01*
X103829971Y-87406986D01*
X103538573Y-87390193D01*
X103177120Y-87368716D01*
X102751265Y-87342902D01*
X102266663Y-87313098D01*
X101728967Y-87279652D01*
X101143830Y-87242909D01*
X100516906Y-87203220D01*
X99853852Y-87160930D01*
X99160318Y-87116385D01*
X98594994Y-87079856D01*
X97880795Y-87033455D01*
X97192242Y-86988466D01*
X96535027Y-86945275D01*
X95914837Y-86904265D01*
X95337360Y-86865822D01*
X94808289Y-86830330D01*
X94333311Y-86798173D01*
X93918116Y-86769737D01*
X93568391Y-86745406D01*
X93289828Y-86725566D01*
X93088115Y-86710600D01*
X92968942Y-86700894D01*
X92936933Y-86697216D01*
X92963347Y-86662225D01*
X93052655Y-86564842D01*
X93201852Y-86408121D01*
X93407936Y-86195112D01*
X93667904Y-85928865D01*
X93978752Y-85612431D01*
X94337475Y-85248859D01*
X94741073Y-84841203D01*
X95186539Y-84392511D01*
X95670872Y-83905835D01*
X96191067Y-83384225D01*
X96707886Y-82866965D01*
X97202454Y-82372725D01*
X97678665Y-81897472D01*
X98132415Y-81445267D01*
X98559606Y-81020168D01*
X98956135Y-80626234D01*
X99317902Y-80267525D01*
X99640805Y-79948099D01*
X99920746Y-79672016D01*
X100153621Y-79443336D01*
X100335330Y-79266116D01*
X100461773Y-79144418D01*
X100528850Y-79082300D01*
X100538902Y-79074887D01*
X100542601Y-79123454D01*
X100546773Y-79257124D01*
X100551310Y-79468132D01*
X100556102Y-79748714D01*
X100561040Y-80091104D01*
X100566015Y-80487538D01*
X100570919Y-80930251D01*
X100575641Y-81411478D01*
X100580076Y-81923452D01*
X100581643Y-82121993D01*
X100586382Y-82647503D01*
X100592251Y-83148251D01*
X100599064Y-83616065D01*
X100606642Y-84042772D01*
X100614801Y-84420203D01*
X100623358Y-84740183D01*
X100632129Y-84994545D01*
X100640935Y-85175114D01*
X100649589Y-85273719D01*
X100652419Y-85286993D01*
X100738724Y-85417688D01*
X100869040Y-85485106D01*
X101018587Y-85488353D01*
X101162582Y-85426543D01*
X101270214Y-85309194D01*
X101281263Y-85243528D01*
X101290400Y-85089765D01*
X101297590Y-84852655D01*
X101302799Y-84536953D01*
X101305991Y-84147411D01*
X101307131Y-83688782D01*
X101306186Y-83165819D01*
X101303121Y-82583276D01*
X101297900Y-81945903D01*
X101296099Y-81763305D01*
X101260940Y-78319370D01*
X102345852Y-77231728D01*
X102606744Y-76971290D01*
X102847362Y-76733218D01*
X103059761Y-76525208D01*
X103235993Y-76354956D01*
X103368113Y-76230160D01*
X103448174Y-76158518D01*
X103468735Y-76144086D01*
X103475556Y-76189283D01*
X110411955Y-72588345D02*
X110857934Y-72347093D01*
X110857934Y-72347093D02*
X111332762Y-72179596D01*
X111332762Y-72179596D02*
X111819597Y-72094765D01*
X111819597Y-72094765D02*
X111876372Y-72090665D01*
X111876372Y-72090665D02*
X112154836Y-72073618D01*
X112154836Y-72073618D02*
X112157432Y-73153334D01*
X112157432Y-73153334D02*
X112160028Y-74233048D01*
X112160028Y-74233048D02*
X111942468Y-74277330D01*
X111942468Y-74277330D02*
X111785839Y-74324371D01*
X111785839Y-74324371D02*
X111642508Y-74407731D01*
X111642508Y-74407731D02*
X111497535Y-74528345D01*
X111497535Y-74528345D02*
X111309251Y-74740545D01*
X111309251Y-74740545D02*
X111206918Y-74965467D01*
X111206918Y-74965467D02*
X111183937Y-75222390D01*
X111183937Y-75222390D02*
X111203351Y-75387896D01*
X111203351Y-75387896D02*
X111238218Y-75538748D01*
X111238218Y-75538748D02*
X111293750Y-75654672D01*
X111293750Y-75654672D02*
X111391118Y-75773747D01*
X111391118Y-75773747D02*
X111453346Y-75837630D01*
X111453346Y-75837630D02*
X111586043Y-75960381D01*
X111586043Y-75960381D02*
X111698665Y-76031891D01*
X111698665Y-76031891D02*
X111829295Y-76073328D01*
X111829295Y-76073328D02*
X111903081Y-76087625D01*
X111903081Y-76087625D02*
X112202878Y-76100041D01*
X112202878Y-76100041D02*
X112469211Y-76026064D01*
X112469211Y-76026064D02*
X112704417Y-75864994D01*
X112704417Y-75864994D02*
X112731197Y-75839248D01*
X112731197Y-75839248D02*
X112916431Y-75598204D01*
X112916431Y-75598204D02*
X113012558Y-75336904D01*
X113012558Y-75336904D02*
X113018620Y-75063843D01*
X113018620Y-75063843D02*
X112933658Y-74787513D01*
X112933658Y-74787513D02*
X112863965Y-74661989D01*
X112863965Y-74661989D02*
X112828158Y-74596840D01*
X112828158Y-74596840D02*
X112800697Y-74519729D01*
X112800697Y-74519729D02*
X112780497Y-74418083D01*
X112780497Y-74418083D02*
X112766469Y-74279324D01*
X112766469Y-74279324D02*
X112757528Y-74090880D01*
X112757528Y-74090880D02*
X112752586Y-73840174D01*
X112752586Y-73840174D02*
X112750554Y-73514631D01*
X112750554Y-73514631D02*
X112750305Y-73347169D01*
X112750305Y-73347169D02*
X112751833Y-73031704D01*
X112751833Y-73031704D02*
X112756498Y-72748033D01*
X112756498Y-72748033D02*
X112763820Y-72509046D01*
X112763820Y-72509046D02*
X112773318Y-72327631D01*
X112773318Y-72327631D02*
X112784509Y-72216680D01*
X112784509Y-72216680D02*
X112793574Y-72187531D01*
X112793574Y-72187531D02*
X112873169Y-72187452D01*
X112873169Y-72187452D02*
X113014068Y-72224871D01*
X113014068Y-72224871D02*
X113196475Y-72292040D01*
X113196475Y-72292040D02*
X113400591Y-72381209D01*
X113400591Y-72381209D02*
X113606618Y-72484631D01*
X113606618Y-72484631D02*
X113727611Y-72553094D01*
X113727611Y-72553094D02*
X114127817Y-72844248D01*
X114127817Y-72844248D02*
X114475911Y-73203193D01*
X114475911Y-73203193D02*
X114764763Y-73616467D01*
X114764763Y-73616467D02*
X114987241Y-74070611D01*
X114987241Y-74070611D02*
X115136215Y-74552164D01*
X115136215Y-74552164D02*
X115204551Y-75047666D01*
X115204551Y-75047666D02*
X115204209Y-75340222D01*
X115204209Y-75340222D02*
X115131419Y-75856001D01*
X115131419Y-75856001D02*
X114974863Y-76352441D01*
X114974863Y-76352441D02*
X114741479Y-76816194D01*
X114741479Y-76816194D02*
X114438210Y-77233911D01*
X114438210Y-77233911D02*
X114071995Y-77592243D01*
X114071995Y-77592243D02*
X114006022Y-77644720D01*
X114006022Y-77644720D02*
X113569339Y-77924639D01*
X113569339Y-77924639D02*
X113095935Y-78124743D01*
X113095935Y-78124743D02*
X112597770Y-78244305D01*
X112597770Y-78244305D02*
X112086812Y-78282597D01*
X112086812Y-78282597D02*
X111575020Y-78238891D01*
X111575020Y-78238891D02*
X111074359Y-78112459D01*
X111074359Y-78112459D02*
X110596792Y-77902571D01*
X110596792Y-77902571D02*
X110516298Y-77857097D01*
X110516298Y-77857097D02*
X110275500Y-77689595D01*
X110275500Y-77689595D02*
X110017741Y-77466228D01*
X110017741Y-77466228D02*
X109769332Y-77213305D01*
X109769332Y-77213305D02*
X109556581Y-76957138D01*
X109556581Y-76957138D02*
X109433879Y-76774679D01*
X109433879Y-76774679D02*
X109205548Y-76295781D01*
X109205548Y-76295781D02*
X109063424Y-75794745D01*
X109063424Y-75794745D02*
X109006786Y-75282125D01*
X109006786Y-75282125D02*
X109034913Y-74768474D01*
X109034913Y-74768474D02*
X109147086Y-74264346D01*
X109147086Y-74264346D02*
X109342585Y-73780294D01*
X109342585Y-73780294D02*
X109620689Y-73326872D01*
X109620689Y-73326872D02*
X109673910Y-73256447D01*
X109673910Y-73256447D02*
X110011666Y-72894434D01*
X110011666Y-72894434D02*
X110411955Y-72588345D01*
X110411955Y-72588345D02*
X110411955Y-72588345D01*
G36*
X112157432Y-73153334D02*
G01*
X112160028Y-74233048D01*
X111942468Y-74277330D01*
X111785839Y-74324371D01*
X111642508Y-74407731D01*
X111497535Y-74528345D01*
X111309251Y-74740545D01*
X111206918Y-74965467D01*
X111183937Y-75222390D01*
X111203351Y-75387896D01*
X111238218Y-75538748D01*
X111293750Y-75654672D01*
X111391118Y-75773747D01*
X111453346Y-75837630D01*
X111586043Y-75960381D01*
X111698665Y-76031891D01*
X111829295Y-76073328D01*
X111903081Y-76087625D01*
X112202878Y-76100041D01*
X112469211Y-76026064D01*
X112704417Y-75864994D01*
X112731197Y-75839248D01*
X112916431Y-75598204D01*
X113012558Y-75336904D01*
X113018620Y-75063843D01*
X112933658Y-74787513D01*
X112863965Y-74661989D01*
X112828158Y-74596840D01*
X112800697Y-74519729D01*
X112780497Y-74418083D01*
X112766469Y-74279324D01*
X112757528Y-74090880D01*
X112752586Y-73840174D01*
X112750554Y-73514631D01*
X112750305Y-73347169D01*
X112751833Y-73031704D01*
X112756498Y-72748033D01*
X112763820Y-72509046D01*
X112773318Y-72327631D01*
X112784509Y-72216680D01*
X112793574Y-72187531D01*
X112873169Y-72187452D01*
X113014068Y-72224871D01*
X113196475Y-72292040D01*
X113400591Y-72381209D01*
X113606618Y-72484631D01*
X113727611Y-72553094D01*
X114127817Y-72844248D01*
X114475911Y-73203193D01*
X114764763Y-73616467D01*
X114987241Y-74070611D01*
X115136215Y-74552164D01*
X115204551Y-75047666D01*
X115204209Y-75340222D01*
X115131419Y-75856001D01*
X114974863Y-76352441D01*
X114741479Y-76816194D01*
X114438210Y-77233911D01*
X114071995Y-77592243D01*
X114006022Y-77644720D01*
X113569339Y-77924639D01*
X113095935Y-78124743D01*
X112597770Y-78244305D01*
X112086812Y-78282597D01*
X111575020Y-78238891D01*
X111074359Y-78112459D01*
X110596792Y-77902571D01*
X110516298Y-77857097D01*
X110275500Y-77689595D01*
X110017741Y-77466228D01*
X109769332Y-77213305D01*
X109556581Y-76957138D01*
X109433879Y-76774679D01*
X109205548Y-76295781D01*
X109063424Y-75794745D01*
X109006786Y-75282125D01*
X109034913Y-74768474D01*
X109147086Y-74264346D01*
X109342585Y-73780294D01*
X109620689Y-73326872D01*
X109673910Y-73256447D01*
X110011666Y-72894434D01*
X110411955Y-72588345D01*
X110857934Y-72347093D01*
X111332762Y-72179596D01*
X111819597Y-72094765D01*
X111876372Y-72090665D01*
X112154836Y-72073618D01*
X112157432Y-73153334D01*
G37*
X112157432Y-73153334D02*
X112160028Y-74233048D01*
X111942468Y-74277330D01*
X111785839Y-74324371D01*
X111642508Y-74407731D01*
X111497535Y-74528345D01*
X111309251Y-74740545D01*
X111206918Y-74965467D01*
X111183937Y-75222390D01*
X111203351Y-75387896D01*
X111238218Y-75538748D01*
X111293750Y-75654672D01*
X111391118Y-75773747D01*
X111453346Y-75837630D01*
X111586043Y-75960381D01*
X111698665Y-76031891D01*
X111829295Y-76073328D01*
X111903081Y-76087625D01*
X112202878Y-76100041D01*
X112469211Y-76026064D01*
X112704417Y-75864994D01*
X112731197Y-75839248D01*
X112916431Y-75598204D01*
X113012558Y-75336904D01*
X113018620Y-75063843D01*
X112933658Y-74787513D01*
X112863965Y-74661989D01*
X112828158Y-74596840D01*
X112800697Y-74519729D01*
X112780497Y-74418083D01*
X112766469Y-74279324D01*
X112757528Y-74090880D01*
X112752586Y-73840174D01*
X112750554Y-73514631D01*
X112750305Y-73347169D01*
X112751833Y-73031704D01*
X112756498Y-72748033D01*
X112763820Y-72509046D01*
X112773318Y-72327631D01*
X112784509Y-72216680D01*
X112793574Y-72187531D01*
X112873169Y-72187452D01*
X113014068Y-72224871D01*
X113196475Y-72292040D01*
X113400591Y-72381209D01*
X113606618Y-72484631D01*
X113727611Y-72553094D01*
X114127817Y-72844248D01*
X114475911Y-73203193D01*
X114764763Y-73616467D01*
X114987241Y-74070611D01*
X115136215Y-74552164D01*
X115204551Y-75047666D01*
X115204209Y-75340222D01*
X115131419Y-75856001D01*
X114974863Y-76352441D01*
X114741479Y-76816194D01*
X114438210Y-77233911D01*
X114071995Y-77592243D01*
X114006022Y-77644720D01*
X113569339Y-77924639D01*
X113095935Y-78124743D01*
X112597770Y-78244305D01*
X112086812Y-78282597D01*
X111575020Y-78238891D01*
X111074359Y-78112459D01*
X110596792Y-77902571D01*
X110516298Y-77857097D01*
X110275500Y-77689595D01*
X110017741Y-77466228D01*
X109769332Y-77213305D01*
X109556581Y-76957138D01*
X109433879Y-76774679D01*
X109205548Y-76295781D01*
X109063424Y-75794745D01*
X109006786Y-75282125D01*
X109034913Y-74768474D01*
X109147086Y-74264346D01*
X109342585Y-73780294D01*
X109620689Y-73326872D01*
X109673910Y-73256447D01*
X110011666Y-72894434D01*
X110411955Y-72588345D01*
X110857934Y-72347093D01*
X111332762Y-72179596D01*
X111819597Y-72094765D01*
X111876372Y-72090665D01*
X112154836Y-72073618D01*
X112157432Y-73153334D01*
X105770413Y-77243885D02*
X106100023Y-77064940D01*
X106100023Y-77064940D02*
X106592342Y-76881649D01*
X106592342Y-76881649D02*
X107101105Y-76788707D01*
X107101105Y-76788707D02*
X107352077Y-76775539D01*
X107352077Y-76775539D02*
X107693390Y-76771160D01*
X107693390Y-76771160D02*
X107694379Y-78759571D01*
X107694379Y-78759571D02*
X107695321Y-79257840D01*
X107695321Y-79257840D02*
X107697795Y-79670139D01*
X107697795Y-79670139D02*
X107702087Y-80003359D01*
X107702087Y-80003359D02*
X107708483Y-80264391D01*
X107708483Y-80264391D02*
X107717271Y-80460126D01*
X107717271Y-80460126D02*
X107728734Y-80597455D01*
X107728734Y-80597455D02*
X107743160Y-80683269D01*
X107743160Y-80683269D02*
X107760834Y-80724462D01*
X107760834Y-80724462D02*
X107776161Y-80730270D01*
X107776161Y-80730270D02*
X107852137Y-80689128D01*
X107852137Y-80689128D02*
X107962876Y-80601730D01*
X107962876Y-80601730D02*
X108047565Y-80522955D01*
X108047565Y-80522955D02*
X108233886Y-80281572D01*
X108233886Y-80281572D02*
X108329892Y-80021162D01*
X108329892Y-80021162D02*
X108334811Y-79747317D01*
X108334811Y-79747317D02*
X108247874Y-79465629D01*
X108247874Y-79465629D02*
X108204594Y-79381893D01*
X108204594Y-79381893D02*
X108170613Y-79309939D01*
X108170613Y-79309939D02*
X108144348Y-79221062D01*
X108144348Y-79221062D02*
X108124774Y-79102892D01*
X108124774Y-79102892D02*
X108110860Y-78943063D01*
X108110860Y-78943063D02*
X108101581Y-78729207D01*
X108101581Y-78729207D02*
X108095909Y-78448953D01*
X108095909Y-78448953D02*
X108092817Y-78089938D01*
X108092817Y-78089938D02*
X108092532Y-78032817D01*
X108092532Y-78032817D02*
X108091820Y-77714241D01*
X108091820Y-77714241D02*
X108092663Y-77427492D01*
X108092663Y-77427492D02*
X108094901Y-77185295D01*
X108094901Y-77185295D02*
X108098377Y-77000376D01*
X108098377Y-77000376D02*
X108102930Y-76885458D01*
X108102930Y-76885458D02*
X108107225Y-76852496D01*
X108107225Y-76852496D02*
X108161681Y-76855156D01*
X108161681Y-76855156D02*
X108278893Y-76889791D01*
X108278893Y-76889791D02*
X108437953Y-76948064D01*
X108437953Y-76948064D02*
X108617956Y-77021637D01*
X108617956Y-77021637D02*
X108797992Y-77102171D01*
X108797992Y-77102171D02*
X108957156Y-77181327D01*
X108957156Y-77181327D02*
X109020797Y-77216852D01*
X109020797Y-77216852D02*
X109223714Y-77359021D01*
X109223714Y-77359021D02*
X109452200Y-77555178D01*
X109452200Y-77555178D02*
X109681886Y-77781010D01*
X109681886Y-77781010D02*
X109888408Y-78012202D01*
X109888408Y-78012202D02*
X110047396Y-78224441D01*
X110047396Y-78224441D02*
X110075278Y-78269025D01*
X110075278Y-78269025D02*
X110302085Y-78737553D01*
X110302085Y-78737553D02*
X110447094Y-79236024D01*
X110447094Y-79236024D02*
X110509597Y-79750702D01*
X110509597Y-79750702D02*
X110488890Y-80267853D01*
X110488890Y-80267853D02*
X110384267Y-80773743D01*
X110384267Y-80773743D02*
X110225485Y-81191781D01*
X110225485Y-81191781D02*
X110150453Y-81332852D01*
X110150453Y-81332852D02*
X110045847Y-81505748D01*
X110045847Y-81505748D02*
X109925506Y-81690264D01*
X109925506Y-81690264D02*
X109803263Y-81866188D01*
X109803263Y-81866188D02*
X109692955Y-82013312D01*
X109692955Y-82013312D02*
X109608417Y-82111427D01*
X109608417Y-82111427D02*
X109578473Y-82136843D01*
X109578473Y-82136843D02*
X109533232Y-82169934D01*
X109533232Y-82169934D02*
X109436403Y-82243296D01*
X109436403Y-82243296D02*
X109321900Y-82331088D01*
X109321900Y-82331088D02*
X108874658Y-82619366D01*
X108874658Y-82619366D02*
X108394783Y-82820782D01*
X108394783Y-82820782D02*
X107884010Y-82934753D01*
X107884010Y-82934753D02*
X107447356Y-82962562D01*
X107447356Y-82962562D02*
X107017098Y-82941075D01*
X107017098Y-82941075D02*
X106635546Y-82874175D01*
X106635546Y-82874175D02*
X106266433Y-82753920D01*
X106266433Y-82753920D02*
X106038102Y-82653921D01*
X106038102Y-82653921D02*
X105897812Y-82584107D01*
X105897812Y-82584107D02*
X105779722Y-82514271D01*
X105779722Y-82514271D02*
X105665035Y-82429727D01*
X105665035Y-82429727D02*
X105534953Y-82315785D01*
X105534953Y-82315785D02*
X105370679Y-82157759D01*
X105370679Y-82157759D02*
X105278457Y-82066087D01*
X105278457Y-82066087D02*
X106801203Y-80543341D01*
X106801203Y-80543341D02*
X106905835Y-80640274D01*
X106905835Y-80640274D02*
X106983563Y-80698083D01*
X106983563Y-80698083D02*
X107011996Y-80705830D01*
X107011996Y-80705830D02*
X107019929Y-80653717D01*
X107019929Y-80653717D02*
X107026881Y-80524276D01*
X107026881Y-80524276D02*
X107032378Y-80333046D01*
X107032378Y-80333046D02*
X107035951Y-80095565D01*
X107035951Y-80095565D02*
X107037114Y-79877250D01*
X107037114Y-79877250D02*
X107036048Y-79613358D01*
X107036048Y-79613358D02*
X107032490Y-79382892D01*
X107032490Y-79382892D02*
X107026894Y-79201415D01*
X107026894Y-79201415D02*
X107019711Y-79084489D01*
X107019711Y-79084489D02*
X107012963Y-79047702D01*
X107012963Y-79047702D02*
X106970091Y-79064643D01*
X106970091Y-79064643D02*
X106882966Y-79133625D01*
X106882966Y-79133625D02*
X106780848Y-79229580D01*
X106780848Y-79229580D02*
X106598694Y-79468027D01*
X106598694Y-79468027D02*
X106505213Y-79723690D01*
X106505213Y-79723690D02*
X106500250Y-79986680D01*
X106500250Y-79986680D02*
X106583655Y-80247105D01*
X106583655Y-80247105D02*
X106755273Y-80495076D01*
X106755273Y-80495076D02*
X106801203Y-80543341D01*
X106801203Y-80543341D02*
X105278457Y-82066087D01*
X105278457Y-82066087D02*
X105251592Y-82039383D01*
X105251592Y-82039383D02*
X105061069Y-81846484D01*
X105061069Y-81846484D02*
X104923198Y-81698742D01*
X104923198Y-81698742D02*
X104823291Y-81577359D01*
X104823291Y-81577359D02*
X104746660Y-81463538D01*
X104746660Y-81463538D02*
X104678619Y-81338483D01*
X104678619Y-81338483D02*
X104637056Y-81252874D01*
X104637056Y-81252874D02*
X104481328Y-80873971D01*
X104481328Y-80873971D02*
X104383677Y-80504184D01*
X104383677Y-80504184D02*
X104336158Y-80107245D01*
X104336158Y-80107245D02*
X104328414Y-79843620D01*
X104328414Y-79843620D02*
X104371404Y-79316598D01*
X104371404Y-79316598D02*
X104500219Y-78816266D01*
X104500219Y-78816266D02*
X104709693Y-78350726D01*
X104709693Y-78350726D02*
X104994661Y-77928082D01*
X104994661Y-77928082D02*
X105349956Y-77556433D01*
X105349956Y-77556433D02*
X105770413Y-77243885D01*
X105770413Y-77243885D02*
X105770413Y-77243885D01*
G36*
X105061069Y-81846484D02*
G01*
X104923198Y-81698742D01*
X104823291Y-81577359D01*
X104746660Y-81463538D01*
X104678619Y-81338483D01*
X104637056Y-81252874D01*
X104481328Y-80873971D01*
X104383677Y-80504184D01*
X104336158Y-80107245D01*
X104332616Y-79986680D01*
X106500250Y-79986680D01*
X106583655Y-80247105D01*
X106755273Y-80495076D01*
X106801203Y-80543341D01*
X106905835Y-80640274D01*
X106983563Y-80698083D01*
X107011996Y-80705830D01*
X107019929Y-80653717D01*
X107026881Y-80524276D01*
X107032378Y-80333046D01*
X107035951Y-80095565D01*
X107037114Y-79877250D01*
X107036048Y-79613358D01*
X107032490Y-79382892D01*
X107026894Y-79201415D01*
X107019711Y-79084489D01*
X107012963Y-79047702D01*
X106970091Y-79064643D01*
X106882966Y-79133625D01*
X106780848Y-79229580D01*
X106598694Y-79468027D01*
X106505213Y-79723690D01*
X106500250Y-79986680D01*
X104332616Y-79986680D01*
X104328414Y-79843620D01*
X104371404Y-79316598D01*
X104500219Y-78816266D01*
X104709693Y-78350726D01*
X104994661Y-77928082D01*
X105349956Y-77556433D01*
X105770413Y-77243885D01*
X106100023Y-77064940D01*
X106592342Y-76881649D01*
X107101105Y-76788707D01*
X107352077Y-76775539D01*
X107693390Y-76771160D01*
X107694379Y-78759571D01*
X107695321Y-79257840D01*
X107697795Y-79670139D01*
X107702087Y-80003359D01*
X107708483Y-80264391D01*
X107717271Y-80460126D01*
X107728734Y-80597455D01*
X107743160Y-80683269D01*
X107760834Y-80724462D01*
X107776161Y-80730270D01*
X107852137Y-80689128D01*
X107962876Y-80601730D01*
X108047565Y-80522955D01*
X108233886Y-80281572D01*
X108329892Y-80021162D01*
X108334811Y-79747317D01*
X108247874Y-79465629D01*
X108204594Y-79381893D01*
X108170613Y-79309939D01*
X108144348Y-79221062D01*
X108124774Y-79102892D01*
X108110860Y-78943063D01*
X108101581Y-78729207D01*
X108095909Y-78448953D01*
X108092817Y-78089938D01*
X108092532Y-78032817D01*
X108091820Y-77714241D01*
X108092663Y-77427492D01*
X108094901Y-77185295D01*
X108098377Y-77000376D01*
X108102930Y-76885458D01*
X108107225Y-76852496D01*
X108161681Y-76855156D01*
X108278893Y-76889791D01*
X108437953Y-76948064D01*
X108617956Y-77021637D01*
X108797992Y-77102171D01*
X108957156Y-77181327D01*
X109020797Y-77216852D01*
X109223714Y-77359021D01*
X109452200Y-77555178D01*
X109681886Y-77781010D01*
X109888408Y-78012202D01*
X110047396Y-78224441D01*
X110075278Y-78269025D01*
X110302085Y-78737553D01*
X110447094Y-79236024D01*
X110509597Y-79750702D01*
X110488890Y-80267853D01*
X110384267Y-80773743D01*
X110225485Y-81191781D01*
X110150453Y-81332852D01*
X110045847Y-81505748D01*
X109925506Y-81690264D01*
X109803263Y-81866188D01*
X109692955Y-82013312D01*
X109608417Y-82111427D01*
X109578473Y-82136843D01*
X109533232Y-82169934D01*
X109436403Y-82243296D01*
X109321900Y-82331088D01*
X108874658Y-82619366D01*
X108394783Y-82820782D01*
X107884010Y-82934753D01*
X107447356Y-82962562D01*
X107017098Y-82941075D01*
X106635546Y-82874175D01*
X106266433Y-82753920D01*
X106038102Y-82653921D01*
X105897812Y-82584107D01*
X105779722Y-82514271D01*
X105665035Y-82429727D01*
X105534953Y-82315785D01*
X105370679Y-82157759D01*
X105278457Y-82066087D01*
X105251592Y-82039383D01*
X105061069Y-81846484D01*
G37*
X105061069Y-81846484D02*
X104923198Y-81698742D01*
X104823291Y-81577359D01*
X104746660Y-81463538D01*
X104678619Y-81338483D01*
X104637056Y-81252874D01*
X104481328Y-80873971D01*
X104383677Y-80504184D01*
X104336158Y-80107245D01*
X104332616Y-79986680D01*
X106500250Y-79986680D01*
X106583655Y-80247105D01*
X106755273Y-80495076D01*
X106801203Y-80543341D01*
X106905835Y-80640274D01*
X106983563Y-80698083D01*
X107011996Y-80705830D01*
X107019929Y-80653717D01*
X107026881Y-80524276D01*
X107032378Y-80333046D01*
X107035951Y-80095565D01*
X107037114Y-79877250D01*
X107036048Y-79613358D01*
X107032490Y-79382892D01*
X107026894Y-79201415D01*
X107019711Y-79084489D01*
X107012963Y-79047702D01*
X106970091Y-79064643D01*
X106882966Y-79133625D01*
X106780848Y-79229580D01*
X106598694Y-79468027D01*
X106505213Y-79723690D01*
X106500250Y-79986680D01*
X104332616Y-79986680D01*
X104328414Y-79843620D01*
X104371404Y-79316598D01*
X104500219Y-78816266D01*
X104709693Y-78350726D01*
X104994661Y-77928082D01*
X105349956Y-77556433D01*
X105770413Y-77243885D01*
X106100023Y-77064940D01*
X106592342Y-76881649D01*
X107101105Y-76788707D01*
X107352077Y-76775539D01*
X107693390Y-76771160D01*
X107694379Y-78759571D01*
X107695321Y-79257840D01*
X107697795Y-79670139D01*
X107702087Y-80003359D01*
X107708483Y-80264391D01*
X107717271Y-80460126D01*
X107728734Y-80597455D01*
X107743160Y-80683269D01*
X107760834Y-80724462D01*
X107776161Y-80730270D01*
X107852137Y-80689128D01*
X107962876Y-80601730D01*
X108047565Y-80522955D01*
X108233886Y-80281572D01*
X108329892Y-80021162D01*
X108334811Y-79747317D01*
X108247874Y-79465629D01*
X108204594Y-79381893D01*
X108170613Y-79309939D01*
X108144348Y-79221062D01*
X108124774Y-79102892D01*
X108110860Y-78943063D01*
X108101581Y-78729207D01*
X108095909Y-78448953D01*
X108092817Y-78089938D01*
X108092532Y-78032817D01*
X108091820Y-77714241D01*
X108092663Y-77427492D01*
X108094901Y-77185295D01*
X108098377Y-77000376D01*
X108102930Y-76885458D01*
X108107225Y-76852496D01*
X108161681Y-76855156D01*
X108278893Y-76889791D01*
X108437953Y-76948064D01*
X108617956Y-77021637D01*
X108797992Y-77102171D01*
X108957156Y-77181327D01*
X109020797Y-77216852D01*
X109223714Y-77359021D01*
X109452200Y-77555178D01*
X109681886Y-77781010D01*
X109888408Y-78012202D01*
X110047396Y-78224441D01*
X110075278Y-78269025D01*
X110302085Y-78737553D01*
X110447094Y-79236024D01*
X110509597Y-79750702D01*
X110488890Y-80267853D01*
X110384267Y-80773743D01*
X110225485Y-81191781D01*
X110150453Y-81332852D01*
X110045847Y-81505748D01*
X109925506Y-81690264D01*
X109803263Y-81866188D01*
X109692955Y-82013312D01*
X109608417Y-82111427D01*
X109578473Y-82136843D01*
X109533232Y-82169934D01*
X109436403Y-82243296D01*
X109321900Y-82331088D01*
X108874658Y-82619366D01*
X108394783Y-82820782D01*
X107884010Y-82934753D01*
X107447356Y-82962562D01*
X107017098Y-82941075D01*
X106635546Y-82874175D01*
X106266433Y-82753920D01*
X106038102Y-82653921D01*
X105897812Y-82584107D01*
X105779722Y-82514271D01*
X105665035Y-82429727D01*
X105534953Y-82315785D01*
X105370679Y-82157759D01*
X105278457Y-82066087D01*
X105251592Y-82039383D01*
X105061069Y-81846484D01*
X111385234Y-66330391D02*
X112602555Y-67530483D01*
X112602555Y-67530483D02*
X113717736Y-66448138D01*
X113717736Y-66448138D02*
X114832915Y-65365792D01*
X114832915Y-65365792D02*
X114882800Y-68168998D01*
X114882800Y-68168998D02*
X114465039Y-68588519D01*
X114465039Y-68588519D02*
X114047277Y-69008038D01*
X114047277Y-69008038D02*
X118315772Y-73276533D01*
X118315772Y-73276533D02*
X116936720Y-74655585D01*
X116936720Y-74655585D02*
X112818982Y-70537848D01*
X112818982Y-70537848D02*
X112814759Y-69679926D01*
X112814759Y-69679926D02*
X112810870Y-69353290D01*
X112810870Y-69353290D02*
X112802146Y-69108208D01*
X112802146Y-69108208D02*
X112787523Y-68933439D01*
X112787523Y-68933439D02*
X112765933Y-68817743D01*
X112765933Y-68817743D02*
X112736310Y-68749880D01*
X112736310Y-68749880D02*
X112725308Y-68736776D01*
X112725308Y-68736776D02*
X112593756Y-68661375D01*
X112593756Y-68661375D02*
X112450808Y-68672310D01*
X112450808Y-68672310D02*
X112337369Y-68747873D01*
X112337369Y-68747873D02*
X112304118Y-68796190D01*
X112304118Y-68796190D02*
X112277340Y-68874960D01*
X112277340Y-68874960D02*
X112255623Y-68995787D01*
X112255623Y-68995787D02*
X112237553Y-69170270D01*
X112237553Y-69170270D02*
X112221723Y-69410011D01*
X112221723Y-69410011D02*
X112206720Y-69726609D01*
X112206720Y-69726609D02*
X112200948Y-69869331D01*
X112200948Y-69869331D02*
X112160850Y-70894466D01*
X112160850Y-70894466D02*
X111451390Y-71603926D01*
X111451390Y-71603926D02*
X111241192Y-71812400D01*
X111241192Y-71812400D02*
X111052119Y-71996646D01*
X111052119Y-71996646D02*
X110894238Y-72147124D01*
X110894238Y-72147124D02*
X110777618Y-72254287D01*
X110777618Y-72254287D02*
X110712324Y-72308594D01*
X110712324Y-72308594D02*
X110703011Y-72313386D01*
X110703011Y-72313386D02*
X110690524Y-72268880D01*
X110690524Y-72268880D02*
X110673464Y-72142742D01*
X110673464Y-72142742D02*
X110652861Y-71946039D01*
X110652861Y-71946039D02*
X110629747Y-71689842D01*
X110629747Y-71689842D02*
X110605152Y-71385218D01*
X110605152Y-71385218D02*
X110580106Y-71043237D01*
X110580106Y-71043237D02*
X110567393Y-70856529D01*
X110567393Y-70856529D02*
X110533612Y-70349431D01*
X110533612Y-70349431D02*
X110498401Y-69824230D01*
X110498401Y-69824230D02*
X110462367Y-69289734D01*
X110462367Y-69289734D02*
X110426118Y-68754755D01*
X110426118Y-68754755D02*
X110390258Y-68228101D01*
X110390258Y-68228101D02*
X110355396Y-67718583D01*
X110355396Y-67718583D02*
X110322138Y-67235011D01*
X110322138Y-67235011D02*
X110291092Y-66786191D01*
X110291092Y-66786191D02*
X110262863Y-66380937D01*
X110262863Y-66380937D02*
X110238060Y-66028058D01*
X110238060Y-66028058D02*
X110217288Y-65736362D01*
X110217288Y-65736362D02*
X110201154Y-65514660D01*
X110201154Y-65514660D02*
X110190266Y-65371762D01*
X110190266Y-65371762D02*
X110186624Y-65328789D01*
X110186624Y-65328789D02*
X110167913Y-65130301D01*
X110167913Y-65130301D02*
X111385234Y-66330391D01*
X111385234Y-66330391D02*
X111385234Y-66330391D01*
G36*
X111385234Y-66330391D02*
G01*
X112602555Y-67530483D01*
X113717736Y-66448138D01*
X114832915Y-65365792D01*
X114882800Y-68168998D01*
X114465039Y-68588519D01*
X114047277Y-69008038D01*
X118315772Y-73276533D01*
X116936720Y-74655585D01*
X112818982Y-70537848D01*
X112814759Y-69679926D01*
X112810870Y-69353290D01*
X112802146Y-69108208D01*
X112787523Y-68933439D01*
X112765933Y-68817743D01*
X112736310Y-68749880D01*
X112725308Y-68736776D01*
X112593756Y-68661375D01*
X112450808Y-68672310D01*
X112337369Y-68747873D01*
X112304118Y-68796190D01*
X112277340Y-68874960D01*
X112255623Y-68995787D01*
X112237553Y-69170270D01*
X112221723Y-69410011D01*
X112206720Y-69726609D01*
X112200948Y-69869331D01*
X112160850Y-70894466D01*
X111451390Y-71603926D01*
X111241192Y-71812400D01*
X111052119Y-71996646D01*
X110894238Y-72147124D01*
X110777618Y-72254287D01*
X110712324Y-72308594D01*
X110703011Y-72313386D01*
X110690524Y-72268880D01*
X110673464Y-72142742D01*
X110652861Y-71946039D01*
X110629747Y-71689842D01*
X110605152Y-71385218D01*
X110580106Y-71043237D01*
X110567393Y-70856529D01*
X110533612Y-70349431D01*
X110498401Y-69824230D01*
X110462367Y-69289734D01*
X110426118Y-68754755D01*
X110390258Y-68228101D01*
X110355396Y-67718583D01*
X110322138Y-67235011D01*
X110291092Y-66786191D01*
X110262863Y-66380937D01*
X110238060Y-66028058D01*
X110217288Y-65736362D01*
X110201154Y-65514660D01*
X110190266Y-65371762D01*
X110186624Y-65328789D01*
X110167913Y-65130301D01*
X111385234Y-66330391D01*
G37*
X111385234Y-66330391D02*
X112602555Y-67530483D01*
X113717736Y-66448138D01*
X114832915Y-65365792D01*
X114882800Y-68168998D01*
X114465039Y-68588519D01*
X114047277Y-69008038D01*
X118315772Y-73276533D01*
X116936720Y-74655585D01*
X112818982Y-70537848D01*
X112814759Y-69679926D01*
X112810870Y-69353290D01*
X112802146Y-69108208D01*
X112787523Y-68933439D01*
X112765933Y-68817743D01*
X112736310Y-68749880D01*
X112725308Y-68736776D01*
X112593756Y-68661375D01*
X112450808Y-68672310D01*
X112337369Y-68747873D01*
X112304118Y-68796190D01*
X112277340Y-68874960D01*
X112255623Y-68995787D01*
X112237553Y-69170270D01*
X112221723Y-69410011D01*
X112206720Y-69726609D01*
X112200948Y-69869331D01*
X112160850Y-70894466D01*
X111451390Y-71603926D01*
X111241192Y-71812400D01*
X111052119Y-71996646D01*
X110894238Y-72147124D01*
X110777618Y-72254287D01*
X110712324Y-72308594D01*
X110703011Y-72313386D01*
X110690524Y-72268880D01*
X110673464Y-72142742D01*
X110652861Y-71946039D01*
X110629747Y-71689842D01*
X110605152Y-71385218D01*
X110580106Y-71043237D01*
X110567393Y-70856529D01*
X110533612Y-70349431D01*
X110498401Y-69824230D01*
X110462367Y-69289734D01*
X110426118Y-68754755D01*
X110390258Y-68228101D01*
X110355396Y-67718583D01*
X110322138Y-67235011D01*
X110291092Y-66786191D01*
X110262863Y-66380937D01*
X110238060Y-66028058D01*
X110217288Y-65736362D01*
X110201154Y-65514660D01*
X110190266Y-65371762D01*
X110186624Y-65328789D01*
X110167913Y-65130301D01*
X111385234Y-66330391D01*
X116026781Y-66898867D02*
X116227675Y-66702669D01*
X116227675Y-66702669D02*
X116397489Y-66540103D01*
X116397489Y-66540103D02*
X116527108Y-66419812D01*
X116527108Y-66419812D02*
X116607415Y-66350439D01*
X116607415Y-66350439D02*
X116629804Y-66337033D01*
X116629804Y-66337033D02*
X116636083Y-66387460D01*
X116636083Y-66387460D02*
X116642444Y-66517959D01*
X116642444Y-66517959D02*
X116648543Y-66715735D01*
X116648543Y-66715735D02*
X116654038Y-66967994D01*
X116654038Y-66967994D02*
X116658586Y-67261938D01*
X116658586Y-67261938D02*
X116661238Y-67509892D01*
X116661238Y-67509892D02*
X116665951Y-67832428D01*
X116665951Y-67832428D02*
X116673888Y-68127891D01*
X116673888Y-68127891D02*
X116684385Y-68382375D01*
X116684385Y-68382375D02*
X116696779Y-68581978D01*
X116696779Y-68581978D02*
X116710405Y-68712793D01*
X116710405Y-68712793D02*
X116720779Y-68756924D01*
X116720779Y-68756924D02*
X116816877Y-68855214D01*
X116816877Y-68855214D02*
X116948839Y-68885495D01*
X116948839Y-68885495D02*
X117086325Y-68844888D01*
X117086325Y-68844888D02*
X117147336Y-68797423D01*
X117147336Y-68797423D02*
X117178004Y-68760287D01*
X117178004Y-68760287D02*
X117202090Y-68710395D01*
X117202090Y-68710395D02*
X117220139Y-68637602D01*
X117220139Y-68637602D02*
X117232692Y-68531760D01*
X117232692Y-68531760D02*
X117240296Y-68382722D01*
X117240296Y-68382722D02*
X117243495Y-68180341D01*
X117243495Y-68180341D02*
X117242832Y-67914470D01*
X117242832Y-67914470D02*
X117238852Y-67574961D01*
X117238852Y-67574961D02*
X117232940Y-67201427D01*
X117232940Y-67201427D02*
X117207948Y-65716029D01*
X117207948Y-65716029D02*
X117958867Y-64965110D01*
X117958867Y-64965110D02*
X118173942Y-64752087D01*
X118173942Y-64752087D02*
X118366985Y-64564801D01*
X118366985Y-64564801D02*
X118528525Y-64412114D01*
X118528525Y-64412114D02*
X118649096Y-64302897D01*
X118649096Y-64302897D02*
X118719227Y-64246013D01*
X118719227Y-64246013D02*
X118732924Y-64240304D01*
X118732924Y-64240304D02*
X118742251Y-64291495D01*
X118742251Y-64291495D02*
X118757401Y-64423610D01*
X118757401Y-64423610D02*
X118777286Y-64624965D01*
X118777286Y-64624965D02*
X118800815Y-64883872D01*
X118800815Y-64883872D02*
X118826900Y-65188645D01*
X118826900Y-65188645D02*
X118854454Y-65527598D01*
X118854454Y-65527598D02*
X118863060Y-65636978D01*
X118863060Y-65636978D02*
X118970056Y-67007537D01*
X118970056Y-67007537D02*
X117923383Y-68090297D01*
X117923383Y-68090297D02*
X120712695Y-70879609D01*
X120712695Y-70879609D02*
X119333644Y-72258661D01*
X119333644Y-72258661D02*
X114999480Y-67924498D01*
X114999480Y-67924498D02*
X115803927Y-67120051D01*
X115803927Y-67120051D02*
X116026781Y-66898867D01*
X116026781Y-66898867D02*
X116026781Y-66898867D01*
G36*
X118742251Y-64291495D02*
G01*
X118757401Y-64423610D01*
X118777286Y-64624965D01*
X118800815Y-64883872D01*
X118826900Y-65188645D01*
X118854454Y-65527598D01*
X118863060Y-65636978D01*
X118970056Y-67007537D01*
X117923383Y-68090297D01*
X120712695Y-70879609D01*
X119333644Y-72258661D01*
X114999480Y-67924498D01*
X115803927Y-67120051D01*
X116026781Y-66898867D01*
X116227675Y-66702669D01*
X116397489Y-66540103D01*
X116527108Y-66419812D01*
X116607415Y-66350439D01*
X116629804Y-66337033D01*
X116636083Y-66387460D01*
X116642444Y-66517959D01*
X116648543Y-66715735D01*
X116654038Y-66967994D01*
X116658586Y-67261938D01*
X116661238Y-67509892D01*
X116665951Y-67832428D01*
X116673888Y-68127891D01*
X116684385Y-68382375D01*
X116696779Y-68581978D01*
X116710405Y-68712793D01*
X116720779Y-68756924D01*
X116816877Y-68855214D01*
X116948839Y-68885495D01*
X117086325Y-68844888D01*
X117147336Y-68797423D01*
X117178004Y-68760287D01*
X117202090Y-68710395D01*
X117220139Y-68637602D01*
X117232692Y-68531760D01*
X117240296Y-68382722D01*
X117243495Y-68180341D01*
X117242832Y-67914470D01*
X117238852Y-67574961D01*
X117232940Y-67201427D01*
X117207948Y-65716029D01*
X117958867Y-64965110D01*
X118173942Y-64752087D01*
X118366985Y-64564801D01*
X118528525Y-64412114D01*
X118649096Y-64302897D01*
X118719227Y-64246013D01*
X118732924Y-64240304D01*
X118742251Y-64291495D01*
G37*
X118742251Y-64291495D02*
X118757401Y-64423610D01*
X118777286Y-64624965D01*
X118800815Y-64883872D01*
X118826900Y-65188645D01*
X118854454Y-65527598D01*
X118863060Y-65636978D01*
X118970056Y-67007537D01*
X117923383Y-68090297D01*
X120712695Y-70879609D01*
X119333644Y-72258661D01*
X114999480Y-67924498D01*
X115803927Y-67120051D01*
X116026781Y-66898867D01*
X116227675Y-66702669D01*
X116397489Y-66540103D01*
X116527108Y-66419812D01*
X116607415Y-66350439D01*
X116629804Y-66337033D01*
X116636083Y-66387460D01*
X116642444Y-66517959D01*
X116648543Y-66715735D01*
X116654038Y-66967994D01*
X116658586Y-67261938D01*
X116661238Y-67509892D01*
X116665951Y-67832428D01*
X116673888Y-68127891D01*
X116684385Y-68382375D01*
X116696779Y-68581978D01*
X116710405Y-68712793D01*
X116720779Y-68756924D01*
X116816877Y-68855214D01*
X116948839Y-68885495D01*
X117086325Y-68844888D01*
X117147336Y-68797423D01*
X117178004Y-68760287D01*
X117202090Y-68710395D01*
X117220139Y-68637602D01*
X117232692Y-68531760D01*
X117240296Y-68382722D01*
X117243495Y-68180341D01*
X117242832Y-67914470D01*
X117238852Y-67574961D01*
X117232940Y-67201427D01*
X117207948Y-65716029D01*
X117958867Y-64965110D01*
X118173942Y-64752087D01*
X118366985Y-64564801D01*
X118528525Y-64412114D01*
X118649096Y-64302897D01*
X118719227Y-64246013D01*
X118732924Y-64240304D01*
X118742251Y-64291495D01*
D13*
%TO.C,R2*%
X160247064Y-78205000D02*
X159792936Y-78205000D01*
X160247064Y-76735000D02*
X159792936Y-76735000D01*
%TO.C,R10*%
X128042936Y-81180000D02*
X128497064Y-81180000D01*
X128042936Y-82650000D02*
X128497064Y-82650000D01*
%TO.C,R4*%
X178535000Y-85952064D02*
X178535000Y-85497936D01*
X177065000Y-85952064D02*
X177065000Y-85497936D01*
%TO.C,C2*%
X126465000Y-90431252D02*
X126465000Y-89908748D01*
X124995000Y-90431252D02*
X124995000Y-89908748D01*
%TO.C,R3*%
X173255000Y-85952064D02*
X173255000Y-85497936D01*
X174725000Y-85952064D02*
X174725000Y-85497936D01*
%TO.C,R7*%
X135355000Y-69622936D02*
X135355000Y-70077064D01*
X133885000Y-69622936D02*
X133885000Y-70077064D01*
%TO.C,R9*%
X130710000Y-69622936D02*
X130710000Y-70077064D01*
X132180000Y-69622936D02*
X132180000Y-70077064D01*
%TO.C,R1*%
X164237936Y-76735000D02*
X164692064Y-76735000D01*
X164237936Y-78205000D02*
X164692064Y-78205000D01*
%TO.C,U4*%
X133420000Y-76200000D02*
X133420000Y-78400000D01*
X128200000Y-76200000D02*
X128200000Y-74000000D01*
X133420000Y-76200000D02*
X133420000Y-74000000D01*
X128200000Y-76200000D02*
X128200000Y-79800000D01*
%TO.C,U3*%
X135660000Y-84225000D02*
X135660000Y-88225000D01*
X138660000Y-84225000D02*
X138660000Y-87225000D01*
%TO.C,U1*%
X127930000Y-88265000D02*
X127930000Y-90465000D01*
X131150000Y-88265000D02*
X131150000Y-90465000D01*
X131150000Y-88265000D02*
X131150000Y-84665000D01*
X127930000Y-88265000D02*
X127930000Y-86065000D01*
%TO.C,C4*%
X132615000Y-84828748D02*
X132615000Y-85351252D01*
X134085000Y-84828748D02*
X134085000Y-85351252D01*
%TO.C,C5*%
X136898748Y-73760000D02*
X137421252Y-73760000D01*
X136898748Y-72290000D02*
X137421252Y-72290000D01*
%TO.C,C1*%
X129005000Y-70111252D02*
X129005000Y-69588748D01*
X127535000Y-70111252D02*
X127535000Y-69588748D01*
%TO.C,R5*%
X131037064Y-93245000D02*
X130582936Y-93245000D01*
X131037064Y-94715000D02*
X130582936Y-94715000D01*
D15*
%TO.C,VR1*%
X194150000Y-76200000D02*
G75*
G03*
X194150000Y-76200000I-3650000J0D01*
G01*
%TD*%
M02*
