%TF.GenerationSoftware,KiCad,Pcbnew,(6.0.0)*%
%TF.CreationDate,2022-05-01T02:25:44+02:00*%
%TF.ProjectId,Vectrex Pad miniNeoGeo,56656374-7265-4782-9050-6164206d696e,1.1*%
%TF.SameCoordinates,Original*%
%TF.FileFunction,Paste,Top*%
%TF.FilePolarity,Positive*%
%FSLAX46Y46*%
G04 Gerber Fmt 4.6, Leading zero omitted, Abs format (unit mm)*
G04 Created by KiCad (PCBNEW (6.0.0)) date 2022-05-01 02:25:44*
%MOMM*%
%LPD*%
G01*
G04 APERTURE LIST*
G04 Aperture macros list*
%AMRoundRect*
0 Rectangle with rounded corners*
0 $1 Rounding radius*
0 $2 $3 $4 $5 $6 $7 $8 $9 X,Y pos of 4 corners*
0 Add a 4 corners polygon primitive as box body*
4,1,4,$2,$3,$4,$5,$6,$7,$8,$9,$2,$3,0*
0 Add four circle primitives for the rounded corners*
1,1,$1+$1,$2,$3*
1,1,$1+$1,$4,$5*
1,1,$1+$1,$6,$7*
1,1,$1+$1,$8,$9*
0 Add four rect primitives between the rounded corners*
20,1,$1+$1,$2,$3,$4,$5,0*
20,1,$1+$1,$4,$5,$6,$7,0*
20,1,$1+$1,$6,$7,$8,$9,0*
20,1,$1+$1,$8,$9,$2,$3,0*%
G04 Aperture macros list end*
%ADD10RoundRect,0.250000X-0.450000X0.262500X-0.450000X-0.262500X0.450000X-0.262500X0.450000X0.262500X0*%
%ADD11RoundRect,0.250000X-0.475000X0.250000X-0.475000X-0.250000X0.475000X-0.250000X0.475000X0.250000X0*%
%ADD12RoundRect,0.100000X-0.100000X-0.450000X0.100000X-0.450000X0.100000X0.450000X-0.100000X0.450000X0*%
%ADD13RoundRect,0.250000X-0.262500X-0.450000X0.262500X-0.450000X0.262500X0.450000X-0.262500X0.450000X0*%
%ADD14RoundRect,0.250000X0.262500X0.450000X-0.262500X0.450000X-0.262500X-0.450000X0.262500X-0.450000X0*%
%ADD15RoundRect,0.250000X0.450000X-0.262500X0.450000X0.262500X-0.450000X0.262500X-0.450000X-0.262500X0*%
%ADD16RoundRect,0.250000X0.475000X-0.250000X0.475000X0.250000X-0.475000X0.250000X-0.475000X-0.250000X0*%
%ADD17RoundRect,0.100000X-0.100000X0.637500X-0.100000X-0.637500X0.100000X-0.637500X0.100000X0.637500X0*%
G04 APERTURE END LIST*
D10*
%TO.C,R6*%
X130175000Y-76557500D03*
X130175000Y-78382500D03*
%TD*%
D11*
%TO.C,C3*%
X133350000Y-89220000D03*
X133350000Y-91120000D03*
%TD*%
D12*
%TO.C,U2*%
X136185000Y-80005000D03*
X136835000Y-80005000D03*
X137485000Y-80005000D03*
X138135000Y-80005000D03*
X138135000Y-76205000D03*
X137485000Y-76205000D03*
X136835000Y-76205000D03*
X136185000Y-76205000D03*
%TD*%
D13*
%TO.C,R8*%
X125452500Y-93980000D03*
X127277500Y-93980000D03*
%TD*%
D14*
%TO.C,R2*%
X160932500Y-77470000D03*
X159107500Y-77470000D03*
%TD*%
D15*
%TO.C,R4*%
X177800000Y-86637500D03*
X177800000Y-84812500D03*
%TD*%
D16*
%TO.C,C2*%
X125730000Y-91120000D03*
X125730000Y-89220000D03*
%TD*%
D15*
%TO.C,R3*%
X173990000Y-86637500D03*
X173990000Y-84812500D03*
%TD*%
D13*
%TO.C,R7*%
X134977500Y-93980000D03*
X136802500Y-93980000D03*
%TD*%
%TO.C,R1*%
X163552500Y-77470000D03*
X165377500Y-77470000D03*
%TD*%
D12*
%TO.C,U3*%
X136185000Y-87625000D03*
X136835000Y-87625000D03*
X137485000Y-87625000D03*
X138135000Y-87625000D03*
X138135000Y-83825000D03*
X137485000Y-83825000D03*
X136835000Y-83825000D03*
X136185000Y-83825000D03*
%TD*%
D17*
%TO.C,U1*%
X130515000Y-85365000D03*
X129865000Y-85365000D03*
X129215000Y-85365000D03*
X128565000Y-85365000D03*
X128565000Y-91165000D03*
X129215000Y-91165000D03*
X129865000Y-91165000D03*
X130515000Y-91165000D03*
%TD*%
D11*
%TO.C,C4*%
X133350000Y-83505000D03*
X133350000Y-85405000D03*
%TD*%
%TO.C,C5*%
X133350000Y-76520000D03*
X133350000Y-78420000D03*
%TD*%
D14*
%TO.C,R5*%
X131722500Y-93980000D03*
X129897500Y-93980000D03*
%TD*%
M02*
