M48
; DRILL file {KiCad (6.0.0)} date Tue Apr  5 21:44:30 2022
; FORMAT={-:-/ absolute / inch / decimal}
; #@! TF.CreationDate,2022-04-05T21:44:30+02:00
; #@! TF.GenerationSoftware,Kicad,Pcbnew,(6.0.0)
; #@! TF.FileFunction,Plated,1,2,PTH
FMAT,2
INCH
; #@! TA.AperFunction,Plated,PTH,ViaDrill
T1C0.0118
; #@! TA.AperFunction,Plated,PTH,ViaDrill
T2C0.0157
; #@! TA.AperFunction,Plated,PTH,ComponentDrill
T3C0.0300
; #@! TA.AperFunction,Plated,PTH,ComponentDrill
T4C0.0315
; #@! TA.AperFunction,Plated,PTH,ComponentDrill
T5C0.0350
; #@! TA.AperFunction,Plated,PTH,ComponentDrill
T6C0.0512
; #@! TA.AperFunction,Plated,PTH,ComponentDrill
T7C0.0591
%
G90
G05
T1
X6.15Y-3.45
X6.44Y-3.45
X6.64Y-3.24
X6.7Y-3.15
X6.7Y-3.35
T2
X3.6Y-2.825
X3.6Y-3.175
X3.75Y-2.425
X3.75Y-3.55
X4.05Y-3.825
X4.375Y-2.075
X4.625Y-3.475
X4.825Y-2.2
X5.075Y-3.05
X5.1Y-3.525
X5.15Y-3.74
X5.225Y-2.6
X5.25Y-3.25
X5.25Y-3.45
X5.35Y-4.0
X5.625Y-3.75
X5.7Y-3.16
X5.7Y-3.45
X5.825Y-2.85
X6.025Y-4.0
X6.07Y-3.41
X6.15Y-3.55
X6.3Y-3.175
X6.44Y-3.23
X6.5Y-2.325
X6.5Y-3.0
X6.51Y-3.14
X6.516Y-3.451
X6.64Y-2.92
X6.65Y-4.0
X6.8Y-3.31
X6.8Y-3.475
X6.85Y-2.9
X7.025Y-2.175
X7.05Y-3.225
X7.07Y-2.46
X7.225Y-3.475
X7.2541Y-3.6459
X7.255Y-3.85
X7.26Y-4.0
X7.26Y-4.05
X7.325Y-3.85
X7.35Y-2.7
X7.53Y-4.2
X7.6Y-4.02
X7.625Y-2.075
X7.65Y-3.825
X7.725Y-3.225
X7.95Y-3.525
X7.95Y-3.825
X8.125Y-2.45
X8.3Y-2.825
X8.35Y-3.825
X8.45Y-3.225
T3
X5.38Y-2.68
X5.38Y-2.8
X5.38Y-2.92
X5.5Y-2.68
X5.5Y-2.8
X5.5Y-2.92
X5.62Y-2.68
X5.62Y-2.8
X5.62Y-2.92
T4
X6.0079Y-3.7133
X6.0089Y-3.041
X6.0602Y-3.7967
X6.0612Y-3.1244
X6.0746Y-3.6715
X6.0756Y-2.9991
X6.1269Y-3.7548
X6.1279Y-3.0825
X6.1413Y-3.6296
X6.1423Y-2.9573
X6.1936Y-3.713
X6.1946Y-3.0407
X6.2747Y-3.5459
X6.2757Y-2.8736
X6.327Y-3.6293
X6.328Y-2.957
T5
X4.15Y-2.9
X4.15Y-3.0
X4.15Y-3.1
X4.4Y-3.35
X4.5Y-3.35
X4.6Y-3.35
T6
X4.4026Y-3.8031
X4.501Y-4.1969
X4.5994Y-3.8031
X4.8026Y-3.7531
X4.901Y-4.1469
X4.9994Y-3.7531
X5.3031Y-3.1506
X5.3031Y-3.3474
X5.3031Y-3.5506
X5.3031Y-3.7474
X5.6969Y-3.249
X5.6969Y-3.649
X6.9026Y-3.7531
X7.001Y-4.1469
X7.0994Y-3.7531
T7
X5.964Y-3.7989
X5.965Y-3.1266
X6.3709Y-3.5437
X6.3719Y-2.8714
T5
G00X4.25Y-2.7762
M15
G01X4.25Y-2.8238
M16
G05
G00X4.25Y-3.1762
M15
G01X4.25Y-3.2238
M16
G05
G00X4.75Y-2.7762
M15
G01X4.75Y-2.8238
M16
G05
G00X4.75Y-3.1762
M15
G01X4.75Y-3.2238
M16
G05
T0
M30
