%TF.GenerationSoftware,KiCad,Pcbnew,(6.0.5-71-gf89d5f9949)*%
%TF.CreationDate,2022-05-26T15:02:21+02:00*%
%TF.ProjectId,Vectrex Pad miniNeoGeo,56656374-7265-4782-9050-6164206d696e,1.2*%
%TF.SameCoordinates,Original*%
%TF.FileFunction,Legend,Bot*%
%TF.FilePolarity,Positive*%
%FSLAX46Y46*%
G04 Gerber Fmt 4.6, Leading zero omitted, Abs format (unit mm)*
G04 Created by KiCad (PCBNEW (6.0.5-71-gf89d5f9949)) date 2022-05-26 15:02:21*
%MOMM*%
%LPD*%
G01*
G04 APERTURE LIST*
%ADD10C,0.400000*%
%ADD11C,0.250000*%
%ADD12C,0.150000*%
%ADD13C,0.120000*%
%ADD14C,0.200000*%
G04 APERTURE END LIST*
D10*
X149758400Y-81191100D02*
X149999700Y-81305400D01*
X149771100Y-98298000D02*
X149961600Y-98399600D01*
X113332260Y-95443040D02*
X113959640Y-95605600D01*
X115491260Y-52240180D02*
X116029740Y-52758340D01*
X158323280Y-99316540D02*
X158417260Y-99049840D01*
X143027400Y-77089000D02*
X149758400Y-81191100D01*
X153162000Y-97878900D02*
X153517600Y-97612200D01*
X197213220Y-93629480D02*
X201353420Y-103179880D01*
X91417140Y-72138540D02*
X91013280Y-73332340D01*
X141732000Y-91300300D02*
X141744700Y-91846400D01*
X137550822Y-97795080D02*
G75*
G03*
X137550822Y-97795080I-2491402J0D01*
G01*
X104935020Y-103256080D02*
X106382820Y-100766880D01*
X100799900Y-86365080D02*
X101528880Y-86283800D01*
X139806680Y-67637660D02*
X139479020Y-67741800D01*
X138043920Y-69034660D02*
X137916920Y-69306440D01*
X104569260Y-85824060D02*
X104846120Y-85877400D01*
X142735300Y-76860400D02*
X143027400Y-77089000D01*
X154266900Y-67543680D02*
X153662380Y-67520820D01*
X108884720Y-50289460D02*
X109519720Y-50271680D01*
X97683320Y-86055200D02*
X98122740Y-86174580D01*
X141782800Y-90805000D02*
X141732000Y-91300300D01*
X154203400Y-76619100D02*
X154076400Y-76377800D01*
X99537520Y-86370160D02*
X100241100Y-86390480D01*
X143466820Y-64267080D02*
X143949420Y-65079880D01*
X151955500Y-98463100D02*
X152387300Y-98298000D01*
X150164800Y-98450400D02*
X150583900Y-98526600D01*
X151188420Y-64673480D02*
X152763220Y-65867280D01*
X102567740Y-53235860D02*
X102923340Y-52920900D01*
X143294100Y-88544400D02*
X143040100Y-88709500D01*
X146875500Y-71297800D02*
X146608800Y-71170800D01*
X154012900Y-96926400D02*
X154241500Y-96570800D01*
X144335500Y-70942200D02*
X144106900Y-71005700D01*
X105534460Y-51125120D02*
X106349800Y-50779680D01*
X209202020Y-75112880D02*
X219895420Y-76052680D01*
X154508200Y-95554800D02*
X154546300Y-95148400D01*
X198051420Y-62946280D02*
X200007220Y-63809880D01*
X152763220Y-65867280D02*
X153398220Y-65130680D01*
X138744960Y-68148200D02*
X138480800Y-68389500D01*
X153492200Y-75615800D02*
X153263600Y-75438000D01*
X117701060Y-54668420D02*
X118160800Y-55435500D01*
X141947900Y-72974200D02*
X141833600Y-73329800D01*
X181389020Y-63784480D02*
X183268620Y-62946280D01*
X106634280Y-87208360D02*
X106809540Y-87591900D01*
X95303340Y-85062060D02*
X96111060Y-85465920D01*
X156852620Y-68224400D02*
X156400500Y-67945000D01*
X156801820Y-101224080D02*
X157076140Y-101031040D01*
X158440120Y-70957440D02*
X158419800Y-70787260D01*
X123903740Y-59977020D02*
X124653040Y-59852560D01*
X154381200Y-94081600D02*
X154241500Y-93713300D01*
X138958320Y-100980240D02*
X139329160Y-101267260D01*
X101528880Y-86283800D02*
X101920040Y-86235540D01*
X147027900Y-88519000D02*
X146710400Y-88315800D01*
X151066500Y-98539300D02*
X151536400Y-98526600D01*
X181823154Y-87304880D02*
G75*
G03*
X181823154Y-87304880I-2212134J0D01*
G01*
X155806140Y-101648260D02*
X156032200Y-101566980D01*
X107094020Y-88833960D02*
X107424220Y-89844880D01*
X119915940Y-95295720D02*
X120474740Y-95051880D01*
X119618760Y-95415100D02*
X119915940Y-95295720D01*
X147078700Y-71437500D02*
X146875500Y-71297800D01*
X98803460Y-86276180D02*
X99537520Y-86370160D01*
X125361700Y-59786520D02*
X126083060Y-59786520D01*
X124653040Y-59852560D02*
X125361700Y-59786520D01*
X153822400Y-80137000D02*
X154038300Y-79819500D01*
X157855920Y-69265800D02*
X157619700Y-68920360D01*
X135580120Y-67726560D02*
X135684260Y-68437760D01*
X112880140Y-50838100D02*
X113619280Y-51173380D01*
X154495500Y-94500700D02*
X154381200Y-94081600D01*
X100241100Y-86390480D02*
X100799900Y-86365080D01*
X203156846Y-76128880D02*
G75*
G03*
X203156846Y-76128880I-12623826J0D01*
G01*
X110825280Y-50365660D02*
X111554260Y-50482500D01*
X153504900Y-92684600D02*
X153238200Y-92468700D01*
X154330400Y-79197200D02*
X154419300Y-78892400D01*
X121282460Y-60276740D02*
X121790460Y-60391040D01*
X154228800Y-79476600D02*
X154330400Y-79197200D01*
X154495500Y-78562200D02*
X154520900Y-78206600D01*
X109519720Y-50271680D02*
X110220760Y-50299620D01*
X94576900Y-62626240D02*
X91417140Y-72138540D01*
X110634780Y-94013020D02*
X111340900Y-94505780D01*
X140756640Y-101790500D02*
X141069060Y-101820980D01*
X132651500Y-62456060D02*
X133352540Y-63195200D01*
X126083060Y-59786520D02*
X126784100Y-59824620D01*
X122664220Y-60314840D02*
X123096020Y-60170060D01*
X130134360Y-60764420D02*
X131018280Y-61236860D01*
X153187400Y-80759300D02*
X153530300Y-80479900D01*
X135656320Y-70977760D02*
X135587740Y-71338440D01*
X107185460Y-50530760D02*
X107886500Y-50396140D01*
X143522700Y-71247000D02*
X143230600Y-71437500D01*
X158511240Y-98356420D02*
X158440120Y-70967600D01*
X158417260Y-99049840D02*
X158470600Y-98861880D01*
X112237520Y-50673000D02*
X112880140Y-50838100D01*
X157345380Y-100850700D02*
X157581600Y-100606860D01*
X137792460Y-69715380D02*
X137774680Y-70104000D01*
X111340900Y-94505780D02*
X111927640Y-94828360D01*
X145986500Y-70954900D02*
X145630900Y-70891400D01*
X94183200Y-84300060D02*
X94736920Y-84711540D01*
X120474740Y-95051880D02*
X121135140Y-94726760D01*
X113619280Y-51173380D02*
X114368580Y-51518820D01*
X142481300Y-72123300D02*
X142265400Y-72402700D01*
X146710400Y-88315800D02*
X146177000Y-88112600D01*
X120167400Y-59690000D02*
X120733820Y-60083700D01*
X90528140Y-77670660D02*
X90622120Y-78437740D01*
X203946700Y-65181480D02*
G75*
G03*
X203946700Y-65181480I-2212280J0D01*
G01*
X157299660Y-68580000D02*
X156852620Y-68224400D01*
X118910100Y-95618300D02*
X119618760Y-95415100D01*
X181820820Y-87711280D02*
X183675020Y-88473280D01*
X128818640Y-60246260D02*
X129463800Y-60495180D01*
X153822400Y-93027500D02*
X153504900Y-92684600D01*
X99118420Y-57210960D02*
X94698820Y-62311280D01*
X140451840Y-101739700D02*
X140756640Y-101790500D01*
X163376919Y-100817680D02*
G75*
G03*
X163376919Y-100817680I-2485699J0D01*
G01*
X106809540Y-87591900D02*
X106923840Y-87990680D01*
X114924840Y-51874420D02*
X115491260Y-52240180D01*
X150583900Y-98526600D02*
X151066500Y-98539300D01*
X146278600Y-71043800D02*
X145986500Y-70954900D01*
X144526000Y-88036400D02*
X144030700Y-88176100D01*
X119044720Y-57779920D02*
X119265700Y-58519060D01*
X142290800Y-89535000D02*
X142049500Y-89979500D01*
X155227020Y-101760020D02*
X155508960Y-101719380D01*
X138341100Y-100233480D02*
X138582400Y-100591620D01*
X104274620Y-85783420D02*
X104569260Y-85824060D01*
X122555000Y-93771720D02*
X131384040Y-83830160D01*
X98122740Y-86174580D02*
X98803460Y-86276180D01*
X154076400Y-76377800D02*
X153885900Y-76060300D01*
X104002840Y-85763100D02*
X104274620Y-85783420D01*
X143230600Y-71437500D02*
X143014700Y-71602600D01*
X126784100Y-59824620D02*
X127302260Y-59883040D01*
X139479020Y-67741800D02*
X139138660Y-67906900D01*
X154861260Y-101782880D02*
X155227020Y-101760020D01*
X118140480Y-95801180D02*
X118910100Y-95618300D01*
X90838020Y-73893680D02*
X90647520Y-74660760D01*
X154241500Y-93713300D02*
X154051000Y-93357700D01*
X142201900Y-93218000D02*
X142557500Y-93687900D01*
X103268780Y-85864700D02*
X103652320Y-85783420D01*
X158135320Y-99755960D02*
X158244540Y-99532440D01*
X106349800Y-50779680D02*
X107185460Y-50530760D01*
X142379700Y-76428600D02*
X142735300Y-76860400D01*
X109230160Y-92745560D02*
X110007400Y-93512640D01*
X135470900Y-71716900D02*
X131518660Y-83439000D01*
X145834100Y-88023700D02*
X145440400Y-87998300D01*
X139745720Y-101485700D02*
X140012420Y-101602540D01*
X131018280Y-61236860D02*
X131919980Y-61851540D01*
X139329160Y-101267260D02*
X139745720Y-101485700D01*
X121716800Y-94371160D02*
X122161300Y-94073980D01*
X157076140Y-101031040D02*
X157345380Y-100850700D01*
X115902740Y-95915480D02*
X116763800Y-95940880D01*
X92422980Y-82471260D02*
X93050360Y-83248500D01*
X153695400Y-75831700D02*
X153492200Y-75615800D01*
X135722360Y-69166740D02*
X135732520Y-69850000D01*
X153398220Y-65130680D02*
X151899620Y-64013080D01*
X203915899Y-87203280D02*
G75*
G03*
X203915899Y-87203280I-2206879J0D01*
G01*
X154444700Y-95910400D02*
X154508200Y-95554800D01*
X107424220Y-89844880D02*
X107835700Y-90708480D01*
X102694740Y-86060280D02*
X103268780Y-85864700D01*
X103977440Y-52026820D02*
X104833420Y-51498500D01*
X158498540Y-98640900D02*
X158511240Y-98356420D01*
X154520900Y-77863700D02*
X154482800Y-77508100D01*
X91848940Y-81602580D02*
X92422980Y-82471260D01*
X154482800Y-77508100D02*
X154419300Y-77203300D01*
X153238200Y-92468700D02*
X147027900Y-88519000D01*
X110220760Y-50299620D02*
X110825280Y-50365660D01*
X155963620Y-67749420D02*
X155425140Y-67602100D01*
X142875000Y-88823800D02*
X142570200Y-89141300D01*
X158470600Y-98861880D02*
X158498540Y-98640900D01*
X138148060Y-99888040D02*
X138341100Y-100233480D01*
X154038300Y-79819500D02*
X154228800Y-79476600D01*
X107886500Y-50396140D02*
X108884720Y-50289460D01*
X117152420Y-53891180D02*
X117701060Y-54668420D01*
X118872000Y-57116980D02*
X119044720Y-57779920D01*
X153885900Y-76060300D02*
X153695400Y-75831700D01*
X135684260Y-68437760D02*
X135722360Y-69166740D01*
X107835700Y-90708480D02*
X108198920Y-91368880D01*
X181389020Y-88625680D02*
X183268620Y-89489280D01*
X129463800Y-60495180D02*
X130134360Y-60764420D01*
X152781000Y-81051400D02*
X153187400Y-80759300D01*
X91160600Y-80205580D02*
X91518740Y-81008220D01*
X149999700Y-81305400D02*
X150304500Y-81381600D01*
X115051840Y-95846900D02*
X115902740Y-95915480D01*
D11*
X142275560Y-89575640D02*
X154043380Y-96944180D01*
D10*
X122161300Y-94073980D02*
X122555000Y-93771720D01*
X181786945Y-65206880D02*
G75*
G03*
X181786945Y-65206880I-2205563J0D01*
G01*
X106222800Y-86700360D02*
X106446320Y-86944200D01*
X146177000Y-88112600D02*
X145834100Y-88023700D01*
X90622120Y-78437740D02*
X90817700Y-79240380D01*
X116606320Y-53286660D02*
X117152420Y-53891180D01*
X149961600Y-98399600D02*
X150164800Y-98450400D01*
X158244540Y-99532440D02*
X158323280Y-99316540D01*
X123096020Y-60170060D02*
X123903740Y-59977020D01*
X151053800Y-81470500D02*
X151574500Y-81432400D01*
X143243300Y-94322900D02*
X149771100Y-98298000D01*
X143040100Y-88709500D02*
X142875000Y-88823800D01*
X128127760Y-60073540D02*
X128818640Y-60246260D01*
X105958640Y-86451440D02*
X106222800Y-86700360D01*
X143662400Y-88328500D02*
X143294100Y-88544400D01*
X121135140Y-94726760D02*
X121716800Y-94371160D01*
X157792420Y-100327460D02*
X157998160Y-99997260D01*
X134792720Y-65432940D02*
X135234680Y-66545460D01*
X119628920Y-59171840D02*
X120167400Y-59690000D01*
X120733820Y-60083700D02*
X121282460Y-60276740D01*
X158054040Y-69623940D02*
X157855920Y-69265800D01*
X157998160Y-99997260D02*
X158135320Y-99755960D01*
X105643680Y-86194900D02*
X105958640Y-86451440D01*
X118160800Y-55435500D02*
X118582440Y-56357520D01*
X134388860Y-64635380D02*
X134792720Y-65432940D01*
X133352540Y-63195200D02*
X133967220Y-63982600D01*
X145651220Y-63124080D02*
X143466820Y-64267080D01*
X143014700Y-71602600D02*
X142709900Y-71843900D01*
X144030700Y-88176100D02*
X143662400Y-88328500D01*
X146608800Y-71170800D02*
X146278600Y-71043800D01*
X141719300Y-73787000D02*
X141693900Y-74218800D01*
X138480800Y-68389500D02*
X138244580Y-68704460D01*
X153517600Y-97612200D02*
X153784300Y-97307400D01*
X153784300Y-97307400D02*
X154012900Y-96926400D01*
X97063560Y-85859620D02*
X97683320Y-86055200D01*
X137774680Y-70104000D02*
X137797540Y-98582480D01*
X152387300Y-98298000D02*
X152793700Y-98120200D01*
X133967220Y-63982600D02*
X134388860Y-64635380D01*
X152438100Y-81178400D02*
X152781000Y-81051400D01*
X102229920Y-86182200D02*
X102694740Y-86060280D01*
X141833600Y-73329800D02*
X141719300Y-73787000D01*
X101920040Y-86235540D02*
X102229920Y-86182200D01*
X131518660Y-83439000D02*
X131384040Y-83830160D01*
X151536400Y-98526600D02*
X151955500Y-98463100D01*
X142100300Y-75933300D02*
X142379700Y-76428600D01*
X135587740Y-71338440D02*
X135470900Y-71716900D01*
X154241500Y-96570800D02*
X154368500Y-96266000D01*
D11*
X142214600Y-72456040D02*
X153984960Y-79860140D01*
D10*
X93050360Y-83248500D02*
X93609160Y-83807300D01*
X155508960Y-101719380D02*
X155806140Y-101648260D01*
X116029740Y-52758340D02*
X116606320Y-53286660D01*
X90451940Y-76880720D02*
X90528140Y-77670660D01*
X139138660Y-67906900D02*
X138744960Y-68148200D01*
X150660100Y-81445100D02*
X151053800Y-81470500D01*
X110007400Y-93512640D02*
X110634780Y-94013020D01*
X142557500Y-93687900D02*
X142824200Y-93980000D01*
X137820400Y-98930460D02*
X137949940Y-99405440D01*
X154051000Y-93357700D02*
X153822400Y-93027500D01*
X106446320Y-86944200D02*
X106634280Y-87208360D01*
X112590580Y-95145860D02*
X113332260Y-95443040D01*
X116763800Y-95940880D02*
X117703600Y-95841820D01*
X154419300Y-77203300D02*
X154317700Y-76898500D01*
X156032200Y-101566980D02*
X156436060Y-101414580D01*
X143827500Y-71120000D02*
X143522700Y-71247000D01*
X152095200Y-81305400D02*
X152438100Y-81178400D01*
X113959640Y-95605600D02*
X115051840Y-95846900D01*
X91013280Y-73332340D02*
X90838020Y-73893680D01*
X153530300Y-80479900D02*
X153822400Y-80137000D01*
X153662380Y-67520820D02*
X153220420Y-67508120D01*
X209137974Y-76255880D02*
G75*
G03*
X209137974Y-76255880I-18477954J0D01*
G01*
X137797540Y-98582480D02*
X137820400Y-98930460D01*
X135732520Y-69850000D02*
X135694420Y-70545960D01*
X142709900Y-71843900D02*
X142481300Y-72123300D01*
X91518740Y-81008220D02*
X91848940Y-81602580D01*
X103652320Y-85783420D02*
X104002840Y-85763100D01*
X142824200Y-93980000D02*
X143243300Y-94322900D01*
X156436060Y-101414580D02*
X156801820Y-101224080D01*
X199575420Y-64724280D02*
X197568820Y-63860680D01*
X142265400Y-72402700D02*
X142100300Y-72682100D01*
X105407460Y-86088220D02*
X105643680Y-86194900D01*
X140319760Y-67581780D02*
X140083540Y-67589400D01*
X144106900Y-71005700D02*
X143827500Y-71120000D01*
X106923840Y-87990680D02*
X107017820Y-88468200D01*
X117703600Y-95841820D02*
X118140480Y-95801180D01*
X102268020Y-53581300D02*
X102567740Y-53235860D01*
X90472260Y-76050140D02*
X90451940Y-76880720D01*
X131919980Y-61851540D02*
X132651500Y-62456060D01*
X138582400Y-100591620D02*
X138958320Y-100980240D01*
X105163620Y-85994240D02*
X105407460Y-86088220D01*
X155021280Y-67556380D02*
X154266900Y-67543680D01*
X93609160Y-83807300D02*
X94183200Y-84300060D01*
X156400500Y-67945000D02*
X155963620Y-67749420D01*
X140012420Y-101602540D02*
X140451840Y-101739700D01*
X103372920Y-52451000D02*
X103977440Y-52026820D01*
X155425140Y-67602100D02*
X155021280Y-67556380D01*
X135694420Y-70545960D02*
X135656320Y-70977760D01*
X152793700Y-98120200D02*
X153162000Y-97878900D01*
X116137406Y-73570000D02*
G75*
G03*
X116137406Y-73570000I-2507406J0D01*
G01*
X145440400Y-87998300D02*
X145008600Y-87985600D01*
X102923340Y-52920900D02*
X103372920Y-52451000D01*
X138244580Y-68704460D02*
X138043920Y-69034660D01*
X135387080Y-67063620D02*
X135580120Y-67726560D01*
X142570200Y-89141300D02*
X142290800Y-89535000D01*
X122290840Y-60363100D02*
X122664220Y-60314840D01*
X154533600Y-94881700D02*
X154495500Y-94500700D01*
X141871700Y-75501500D02*
X142100300Y-75933300D01*
X90401140Y-77071220D02*
X86080600Y-78709520D01*
X154317700Y-76898500D02*
X154203400Y-76619100D01*
X137949940Y-99405440D02*
X138148060Y-99888040D01*
X94698820Y-62311280D02*
X94576900Y-62626240D01*
X154520900Y-78206600D02*
X154520900Y-77863700D01*
X143949420Y-65079880D02*
X145905220Y-64063880D01*
X150304500Y-81381600D02*
X150660100Y-81445100D01*
X141770100Y-75057000D02*
X141871700Y-75501500D01*
X154368500Y-96266000D02*
X154444700Y-95910400D01*
X108198920Y-91368880D02*
X108699300Y-92090240D01*
X104833420Y-51498500D02*
X105534460Y-51125120D01*
X141693900Y-74676000D02*
X141770100Y-75057000D01*
X105773220Y-103637080D02*
X107195620Y-101351080D01*
X158361380Y-70482460D02*
X158234380Y-70027800D01*
X142100300Y-72682100D02*
X141947900Y-72974200D01*
X90647520Y-74660760D02*
X90548460Y-75430380D01*
X137916920Y-69306440D02*
X137792460Y-69715380D01*
X96111060Y-85465920D02*
X97063560Y-85859620D01*
X94736920Y-84711540D02*
X95303340Y-85062060D01*
X145630900Y-70891400D02*
X145389600Y-70853300D01*
X135234680Y-66545460D02*
X135387080Y-67063620D01*
X119265700Y-58519060D02*
X119628920Y-59171840D01*
X90548460Y-75430380D02*
X90472260Y-76050140D01*
X140083540Y-67589400D02*
X139806680Y-67637660D01*
X111927640Y-94828360D02*
X112590580Y-95145860D01*
X121790460Y-60391040D02*
X122290840Y-60363100D01*
X181846220Y-64724280D02*
X183598820Y-63936880D01*
X111554260Y-50482500D02*
X112237520Y-50673000D01*
X141897100Y-90385900D02*
X141782800Y-90805000D01*
X145389600Y-70853300D02*
X145110200Y-70840600D01*
X141069060Y-101820980D02*
X154861260Y-101782880D01*
X145008600Y-87985600D02*
X144526000Y-88036400D01*
X157619700Y-68920360D02*
X157299660Y-68580000D01*
X157581600Y-100606860D02*
X157792420Y-100327460D01*
X153263600Y-75438000D02*
X147078700Y-71437500D01*
X141693900Y-74218800D02*
X141693900Y-74676000D01*
X141986000Y-92786200D02*
X142201900Y-93218000D01*
X144729200Y-70878700D02*
X144335500Y-70942200D01*
X154546300Y-95148400D02*
X154533600Y-94881700D01*
X141833600Y-92341700D02*
X141986000Y-92786200D01*
X142049500Y-89979500D02*
X141897100Y-90385900D01*
X108699300Y-92090240D02*
X109230160Y-92745560D01*
X145110200Y-70840600D02*
X144729200Y-70878700D01*
X90817700Y-79240380D02*
X91160600Y-80205580D01*
X154419300Y-78892400D02*
X154495500Y-78562200D01*
X153220420Y-67508120D02*
X140319760Y-67581780D01*
X151574500Y-81432400D02*
X152095200Y-81305400D01*
X104846120Y-85877400D02*
X105163620Y-85994240D01*
X114368580Y-51518820D02*
X114924840Y-51874420D01*
X127302260Y-59883040D02*
X128127760Y-60073540D01*
X158419800Y-70787260D02*
X158361380Y-70482460D01*
X158234380Y-70027800D02*
X158054040Y-69623940D01*
X107017820Y-88468200D02*
X107094020Y-88833960D01*
X141744700Y-91846400D02*
X141833600Y-92341700D01*
X118582440Y-56357520D02*
X118872000Y-57116980D01*
D12*
%TO.C,*%
%TO.C,VR1*%
X191842543Y-64857380D02*
X191509210Y-65857380D01*
X191175877Y-64857380D01*
X190271115Y-65857380D02*
X190604448Y-65381190D01*
X190842543Y-65857380D02*
X190842543Y-64857380D01*
X190461591Y-64857380D01*
X190366353Y-64905000D01*
X190318734Y-64952619D01*
X190271115Y-65047857D01*
X190271115Y-65190714D01*
X190318734Y-65285952D01*
X190366353Y-65333571D01*
X190461591Y-65381190D01*
X190842543Y-65381190D01*
X189318734Y-65857380D02*
X189890162Y-65857380D01*
X189604448Y-65857380D02*
X189604448Y-64857380D01*
X189699686Y-65000238D01*
X189794924Y-65095476D01*
X189890162Y-65143095D01*
%TO.C,SW2*%
X118630533Y-82319761D02*
X118487676Y-82367380D01*
X118249580Y-82367380D01*
X118154342Y-82319761D01*
X118106723Y-82272142D01*
X118059104Y-82176904D01*
X118059104Y-82081666D01*
X118106723Y-81986428D01*
X118154342Y-81938809D01*
X118249580Y-81891190D01*
X118440057Y-81843571D01*
X118535295Y-81795952D01*
X118582914Y-81748333D01*
X118630533Y-81653095D01*
X118630533Y-81557857D01*
X118582914Y-81462619D01*
X118535295Y-81415000D01*
X118440057Y-81367380D01*
X118201961Y-81367380D01*
X118059104Y-81415000D01*
X117725771Y-81367380D02*
X117487676Y-82367380D01*
X117297200Y-81653095D01*
X117106723Y-82367380D01*
X116868628Y-81367380D01*
X116535295Y-81462619D02*
X116487676Y-81415000D01*
X116392438Y-81367380D01*
X116154342Y-81367380D01*
X116059104Y-81415000D01*
X116011485Y-81462619D01*
X115963866Y-81557857D01*
X115963866Y-81653095D01*
X116011485Y-81795952D01*
X116582914Y-82367380D01*
X115963866Y-82367380D01*
%TO.C,SW3*%
X111493133Y-56437161D02*
X111350276Y-56484780D01*
X111112180Y-56484780D01*
X111016942Y-56437161D01*
X110969323Y-56389542D01*
X110921704Y-56294304D01*
X110921704Y-56199066D01*
X110969323Y-56103828D01*
X111016942Y-56056209D01*
X111112180Y-56008590D01*
X111302657Y-55960971D01*
X111397895Y-55913352D01*
X111445514Y-55865733D01*
X111493133Y-55770495D01*
X111493133Y-55675257D01*
X111445514Y-55580019D01*
X111397895Y-55532400D01*
X111302657Y-55484780D01*
X111064561Y-55484780D01*
X110921704Y-55532400D01*
X110588371Y-55484780D02*
X110350276Y-56484780D01*
X110159800Y-55770495D01*
X109969323Y-56484780D01*
X109731228Y-55484780D01*
X109445514Y-55484780D02*
X108826466Y-55484780D01*
X109159800Y-55865733D01*
X109016942Y-55865733D01*
X108921704Y-55913352D01*
X108874085Y-55960971D01*
X108826466Y-56056209D01*
X108826466Y-56294304D01*
X108874085Y-56389542D01*
X108921704Y-56437161D01*
X109016942Y-56484780D01*
X109302657Y-56484780D01*
X109397895Y-56437161D01*
X109445514Y-56389542D01*
%TO.C,RV1*%
X173315238Y-83002380D02*
X173648571Y-82526190D01*
X173886666Y-83002380D02*
X173886666Y-82002380D01*
X173505714Y-82002380D01*
X173410476Y-82050000D01*
X173362857Y-82097619D01*
X173315238Y-82192857D01*
X173315238Y-82335714D01*
X173362857Y-82430952D01*
X173410476Y-82478571D01*
X173505714Y-82526190D01*
X173886666Y-82526190D01*
X173029523Y-82002380D02*
X172696190Y-83002380D01*
X172362857Y-82002380D01*
X171505714Y-83002380D02*
X172077142Y-83002380D01*
X171791428Y-83002380D02*
X171791428Y-82002380D01*
X171886666Y-82145238D01*
X171981904Y-82240476D01*
X172077142Y-82288095D01*
%TO.C,RV2*%
X173172380Y-92114761D02*
X172696190Y-91781428D01*
X173172380Y-91543333D02*
X172172380Y-91543333D01*
X172172380Y-91924285D01*
X172220000Y-92019523D01*
X172267619Y-92067142D01*
X172362857Y-92114761D01*
X172505714Y-92114761D01*
X172600952Y-92067142D01*
X172648571Y-92019523D01*
X172696190Y-91924285D01*
X172696190Y-91543333D01*
X172172380Y-92400476D02*
X173172380Y-92733809D01*
X172172380Y-93067142D01*
X172267619Y-93352857D02*
X172220000Y-93400476D01*
X172172380Y-93495714D01*
X172172380Y-93733809D01*
X172220000Y-93829047D01*
X172267619Y-93876666D01*
X172362857Y-93924285D01*
X172458095Y-93924285D01*
X172600952Y-93876666D01*
X173172380Y-93305238D01*
X173172380Y-93924285D01*
%TO.C,SW1*%
X127749133Y-65936761D02*
X127606276Y-65984380D01*
X127368180Y-65984380D01*
X127272942Y-65936761D01*
X127225323Y-65889142D01*
X127177704Y-65793904D01*
X127177704Y-65698666D01*
X127225323Y-65603428D01*
X127272942Y-65555809D01*
X127368180Y-65508190D01*
X127558657Y-65460571D01*
X127653895Y-65412952D01*
X127701514Y-65365333D01*
X127749133Y-65270095D01*
X127749133Y-65174857D01*
X127701514Y-65079619D01*
X127653895Y-65032000D01*
X127558657Y-64984380D01*
X127320561Y-64984380D01*
X127177704Y-65032000D01*
X126844371Y-64984380D02*
X126606276Y-65984380D01*
X126415800Y-65270095D01*
X126225323Y-65984380D01*
X125987228Y-64984380D01*
X125082466Y-65984380D02*
X125653895Y-65984380D01*
X125368180Y-65984380D02*
X125368180Y-64984380D01*
X125463419Y-65127238D01*
X125558657Y-65222476D01*
X125653895Y-65270095D01*
%TO.C,J1*%
X165433333Y-65238380D02*
X165433333Y-65952666D01*
X165480952Y-66095523D01*
X165576190Y-66190761D01*
X165719047Y-66238380D01*
X165814285Y-66238380D01*
X164433333Y-66238380D02*
X165004761Y-66238380D01*
X164719047Y-66238380D02*
X164719047Y-65238380D01*
X164814285Y-65381238D01*
X164909523Y-65476476D01*
X165004761Y-65524095D01*
X161700595Y-69096000D02*
X161795833Y-69048380D01*
X161938690Y-69048380D01*
X162081547Y-69096000D01*
X162176785Y-69191238D01*
X162224404Y-69286476D01*
X162272023Y-69476952D01*
X162272023Y-69619809D01*
X162224404Y-69810285D01*
X162176785Y-69905523D01*
X162081547Y-70000761D01*
X161938690Y-70048380D01*
X161843452Y-70048380D01*
X161700595Y-70000761D01*
X161652976Y-69953142D01*
X161652976Y-69619809D01*
X161843452Y-69619809D01*
X161224404Y-70048380D02*
X161224404Y-69381714D01*
X161224404Y-69572190D02*
X161176785Y-69476952D01*
X161129166Y-69429333D01*
X161033928Y-69381714D01*
X160938690Y-69381714D01*
X160224404Y-70000761D02*
X160319642Y-70048380D01*
X160510119Y-70048380D01*
X160605357Y-70000761D01*
X160652976Y-69905523D01*
X160652976Y-69524571D01*
X160605357Y-69429333D01*
X160510119Y-69381714D01*
X160319642Y-69381714D01*
X160224404Y-69429333D01*
X160176785Y-69524571D01*
X160176785Y-69619809D01*
X160652976Y-69715047D01*
X159843452Y-69381714D02*
X159605357Y-70048380D01*
X159367261Y-69381714D02*
X159605357Y-70048380D01*
X159700595Y-70286476D01*
X159748214Y-70334095D01*
X159843452Y-70381714D01*
X166576190Y-69524571D02*
X166433333Y-69572190D01*
X166385714Y-69619809D01*
X166338095Y-69715047D01*
X166338095Y-69857904D01*
X166385714Y-69953142D01*
X166433333Y-70000761D01*
X166528571Y-70048380D01*
X166909523Y-70048380D01*
X166909523Y-69048380D01*
X166576190Y-69048380D01*
X166480952Y-69096000D01*
X166433333Y-69143619D01*
X166385714Y-69238857D01*
X166385714Y-69334095D01*
X166433333Y-69429333D01*
X166480952Y-69476952D01*
X166576190Y-69524571D01*
X166909523Y-69524571D01*
X165766666Y-70048380D02*
X165861904Y-70000761D01*
X165909523Y-69905523D01*
X165909523Y-69048380D01*
X164957142Y-70048380D02*
X164957142Y-69524571D01*
X165004761Y-69429333D01*
X165100000Y-69381714D01*
X165290476Y-69381714D01*
X165385714Y-69429333D01*
X164957142Y-70000761D02*
X165052380Y-70048380D01*
X165290476Y-70048380D01*
X165385714Y-70000761D01*
X165433333Y-69905523D01*
X165433333Y-69810285D01*
X165385714Y-69715047D01*
X165290476Y-69667428D01*
X165052380Y-69667428D01*
X164957142Y-69619809D01*
X164052380Y-70000761D02*
X164147619Y-70048380D01*
X164338095Y-70048380D01*
X164433333Y-70000761D01*
X164480952Y-69953142D01*
X164528571Y-69857904D01*
X164528571Y-69572190D01*
X164480952Y-69476952D01*
X164433333Y-69429333D01*
X164338095Y-69381714D01*
X164147619Y-69381714D01*
X164052380Y-69429333D01*
X163623809Y-70048380D02*
X163623809Y-69048380D01*
X163528571Y-69667428D02*
X163242857Y-70048380D01*
X163242857Y-69381714D02*
X163623809Y-69762666D01*
X167290476Y-72096380D02*
X167100000Y-72096380D01*
X167004761Y-72144000D01*
X166909523Y-72239238D01*
X166861904Y-72429714D01*
X166861904Y-72763047D01*
X166909523Y-72953523D01*
X167004761Y-73048761D01*
X167100000Y-73096380D01*
X167290476Y-73096380D01*
X167385714Y-73048761D01*
X167480952Y-72953523D01*
X167528571Y-72763047D01*
X167528571Y-72429714D01*
X167480952Y-72239238D01*
X167385714Y-72144000D01*
X167290476Y-72096380D01*
X166433333Y-73096380D02*
X166433333Y-72429714D01*
X166433333Y-72620190D02*
X166385714Y-72524952D01*
X166338095Y-72477333D01*
X166242857Y-72429714D01*
X166147619Y-72429714D01*
X165385714Y-73096380D02*
X165385714Y-72572571D01*
X165433333Y-72477333D01*
X165528571Y-72429714D01*
X165719047Y-72429714D01*
X165814285Y-72477333D01*
X165385714Y-73048761D02*
X165480952Y-73096380D01*
X165719047Y-73096380D01*
X165814285Y-73048761D01*
X165861904Y-72953523D01*
X165861904Y-72858285D01*
X165814285Y-72763047D01*
X165719047Y-72715428D01*
X165480952Y-72715428D01*
X165385714Y-72667809D01*
X164909523Y-72429714D02*
X164909523Y-73096380D01*
X164909523Y-72524952D02*
X164861904Y-72477333D01*
X164766666Y-72429714D01*
X164623809Y-72429714D01*
X164528571Y-72477333D01*
X164480952Y-72572571D01*
X164480952Y-73096380D01*
X163576190Y-72429714D02*
X163576190Y-73239238D01*
X163623809Y-73334476D01*
X163671428Y-73382095D01*
X163766666Y-73429714D01*
X163909523Y-73429714D01*
X164004761Y-73382095D01*
X163576190Y-73048761D02*
X163671428Y-73096380D01*
X163861904Y-73096380D01*
X163957142Y-73048761D01*
X164004761Y-73001142D01*
X164052380Y-72905904D01*
X164052380Y-72620190D01*
X164004761Y-72524952D01*
X163957142Y-72477333D01*
X163861904Y-72429714D01*
X163671428Y-72429714D01*
X163576190Y-72477333D01*
X162719047Y-73048761D02*
X162814285Y-73096380D01*
X163004761Y-73096380D01*
X163100000Y-73048761D01*
X163147619Y-72953523D01*
X163147619Y-72572571D01*
X163100000Y-72477333D01*
X163004761Y-72429714D01*
X162814285Y-72429714D01*
X162719047Y-72477333D01*
X162671428Y-72572571D01*
X162671428Y-72667809D01*
X163147619Y-72763047D01*
X172023214Y-75541190D02*
X172023214Y-76017380D01*
X172356547Y-75017380D02*
X172023214Y-75541190D01*
X171689880Y-75017380D01*
X170975595Y-75969761D02*
X171070833Y-76017380D01*
X171261309Y-76017380D01*
X171356547Y-75969761D01*
X171404166Y-75874523D01*
X171404166Y-75493571D01*
X171356547Y-75398333D01*
X171261309Y-75350714D01*
X171070833Y-75350714D01*
X170975595Y-75398333D01*
X170927976Y-75493571D01*
X170927976Y-75588809D01*
X171404166Y-75684047D01*
X170356547Y-76017380D02*
X170451785Y-75969761D01*
X170499404Y-75874523D01*
X170499404Y-75017380D01*
X169832738Y-76017380D02*
X169927976Y-75969761D01*
X169975595Y-75874523D01*
X169975595Y-75017380D01*
X169308928Y-76017380D02*
X169404166Y-75969761D01*
X169451785Y-75922142D01*
X169499404Y-75826904D01*
X169499404Y-75541190D01*
X169451785Y-75445952D01*
X169404166Y-75398333D01*
X169308928Y-75350714D01*
X169166071Y-75350714D01*
X169070833Y-75398333D01*
X169023214Y-75445952D01*
X168975595Y-75541190D01*
X168975595Y-75826904D01*
X169023214Y-75922142D01*
X169070833Y-75969761D01*
X169166071Y-76017380D01*
X169308928Y-76017380D01*
X168642261Y-75350714D02*
X168451785Y-76017380D01*
X168261309Y-75541190D01*
X168070833Y-76017380D01*
X167880357Y-75350714D01*
X171213690Y-69096000D02*
X171308928Y-69048380D01*
X171451785Y-69048380D01*
X171594642Y-69096000D01*
X171689880Y-69191238D01*
X171737500Y-69286476D01*
X171785119Y-69476952D01*
X171785119Y-69619809D01*
X171737500Y-69810285D01*
X171689880Y-69905523D01*
X171594642Y-70000761D01*
X171451785Y-70048380D01*
X171356547Y-70048380D01*
X171213690Y-70000761D01*
X171166071Y-69953142D01*
X171166071Y-69619809D01*
X171356547Y-69619809D01*
X170737500Y-70048380D02*
X170737500Y-69381714D01*
X170737500Y-69572190D02*
X170689880Y-69476952D01*
X170642261Y-69429333D01*
X170547023Y-69381714D01*
X170451785Y-69381714D01*
X169737500Y-70000761D02*
X169832738Y-70048380D01*
X170023214Y-70048380D01*
X170118452Y-70000761D01*
X170166071Y-69905523D01*
X170166071Y-69524571D01*
X170118452Y-69429333D01*
X170023214Y-69381714D01*
X169832738Y-69381714D01*
X169737500Y-69429333D01*
X169689880Y-69524571D01*
X169689880Y-69619809D01*
X170166071Y-69715047D01*
X168880357Y-70000761D02*
X168975595Y-70048380D01*
X169166071Y-70048380D01*
X169261309Y-70000761D01*
X169308928Y-69905523D01*
X169308928Y-69524571D01*
X169261309Y-69429333D01*
X169166071Y-69381714D01*
X168975595Y-69381714D01*
X168880357Y-69429333D01*
X168832738Y-69524571D01*
X168832738Y-69619809D01*
X169308928Y-69715047D01*
X168404166Y-69381714D02*
X168404166Y-70048380D01*
X168404166Y-69476952D02*
X168356547Y-69429333D01*
X168261309Y-69381714D01*
X168118452Y-69381714D01*
X168023214Y-69429333D01*
X167975595Y-69524571D01*
X167975595Y-70048380D01*
X166171428Y-75620571D02*
X166028571Y-75668190D01*
X165980952Y-75715809D01*
X165933333Y-75811047D01*
X165933333Y-75953904D01*
X165980952Y-76049142D01*
X166028571Y-76096761D01*
X166123809Y-76144380D01*
X166504761Y-76144380D01*
X166504761Y-75144380D01*
X166171428Y-75144380D01*
X166076190Y-75192000D01*
X166028571Y-75239619D01*
X165980952Y-75334857D01*
X165980952Y-75430095D01*
X166028571Y-75525333D01*
X166076190Y-75572952D01*
X166171428Y-75620571D01*
X166504761Y-75620571D01*
X165361904Y-76144380D02*
X165457142Y-76096761D01*
X165504761Y-76001523D01*
X165504761Y-75144380D01*
X164552380Y-75477714D02*
X164552380Y-76144380D01*
X164980952Y-75477714D02*
X164980952Y-76001523D01*
X164933333Y-76096761D01*
X164838095Y-76144380D01*
X164695238Y-76144380D01*
X164600000Y-76096761D01*
X164552380Y-76049142D01*
X163695238Y-76096761D02*
X163790476Y-76144380D01*
X163980952Y-76144380D01*
X164076190Y-76096761D01*
X164123809Y-76001523D01*
X164123809Y-75620571D01*
X164076190Y-75525333D01*
X163980952Y-75477714D01*
X163790476Y-75477714D01*
X163695238Y-75525333D01*
X163647619Y-75620571D01*
X163647619Y-75715809D01*
X164123809Y-75811047D01*
X161652976Y-73096380D02*
X161986309Y-72620190D01*
X162224404Y-73096380D02*
X162224404Y-72096380D01*
X161843452Y-72096380D01*
X161748214Y-72144000D01*
X161700595Y-72191619D01*
X161652976Y-72286857D01*
X161652976Y-72429714D01*
X161700595Y-72524952D01*
X161748214Y-72572571D01*
X161843452Y-72620190D01*
X162224404Y-72620190D01*
X160843452Y-73048761D02*
X160938690Y-73096380D01*
X161129166Y-73096380D01*
X161224404Y-73048761D01*
X161272023Y-72953523D01*
X161272023Y-72572571D01*
X161224404Y-72477333D01*
X161129166Y-72429714D01*
X160938690Y-72429714D01*
X160843452Y-72477333D01*
X160795833Y-72572571D01*
X160795833Y-72667809D01*
X161272023Y-72763047D01*
X159938690Y-73096380D02*
X159938690Y-72096380D01*
X159938690Y-73048761D02*
X160033928Y-73096380D01*
X160224404Y-73096380D01*
X160319642Y-73048761D01*
X160367261Y-73001142D01*
X160414880Y-72905904D01*
X160414880Y-72620190D01*
X160367261Y-72524952D01*
X160319642Y-72477333D01*
X160224404Y-72429714D01*
X160033928Y-72429714D01*
X159938690Y-72477333D01*
X162319642Y-75144380D02*
X162081547Y-76144380D01*
X161891071Y-75430095D01*
X161700595Y-76144380D01*
X161462500Y-75144380D01*
X161081547Y-76144380D02*
X161081547Y-75144380D01*
X160652976Y-76144380D02*
X160652976Y-75620571D01*
X160700595Y-75525333D01*
X160795833Y-75477714D01*
X160938690Y-75477714D01*
X161033928Y-75525333D01*
X161081547Y-75572952D01*
X160176785Y-76144380D02*
X160176785Y-75477714D01*
X160176785Y-75144380D02*
X160224404Y-75192000D01*
X160176785Y-75239619D01*
X160129166Y-75192000D01*
X160176785Y-75144380D01*
X160176785Y-75239619D01*
X159843452Y-75477714D02*
X159462500Y-75477714D01*
X159700595Y-75144380D02*
X159700595Y-76001523D01*
X159652976Y-76096761D01*
X159557738Y-76144380D01*
X159462500Y-76144380D01*
X158748214Y-76096761D02*
X158843452Y-76144380D01*
X159033928Y-76144380D01*
X159129166Y-76096761D01*
X159176785Y-76001523D01*
X159176785Y-75620571D01*
X159129166Y-75525333D01*
X159033928Y-75477714D01*
X158843452Y-75477714D01*
X158748214Y-75525333D01*
X158700595Y-75620571D01*
X158700595Y-75715809D01*
X159176785Y-75811047D01*
X170594642Y-72572571D02*
X170451785Y-72620190D01*
X170404166Y-72667809D01*
X170356547Y-72763047D01*
X170356547Y-72905904D01*
X170404166Y-73001142D01*
X170451785Y-73048761D01*
X170547023Y-73096380D01*
X170927976Y-73096380D01*
X170927976Y-72096380D01*
X170594642Y-72096380D01*
X170499404Y-72144000D01*
X170451785Y-72191619D01*
X170404166Y-72286857D01*
X170404166Y-72382095D01*
X170451785Y-72477333D01*
X170499404Y-72524952D01*
X170594642Y-72572571D01*
X170927976Y-72572571D01*
X169927976Y-73096380D02*
X169927976Y-72429714D01*
X169927976Y-72620190D02*
X169880357Y-72524952D01*
X169832738Y-72477333D01*
X169737500Y-72429714D01*
X169642261Y-72429714D01*
X168880357Y-72429714D02*
X168880357Y-73096380D01*
X169308928Y-72429714D02*
X169308928Y-72953523D01*
X169261309Y-73048761D01*
X169166071Y-73096380D01*
X169023214Y-73096380D01*
X168927976Y-73048761D01*
X168880357Y-73001142D01*
X168404166Y-72429714D02*
X168404166Y-73096380D01*
X168404166Y-72524952D02*
X168356547Y-72477333D01*
X168261309Y-72429714D01*
X168118452Y-72429714D01*
X168023214Y-72477333D01*
X167975595Y-72572571D01*
X167975595Y-73096380D01*
%TO.C,SW4*%
X102120533Y-72921761D02*
X101977676Y-72969380D01*
X101739580Y-72969380D01*
X101644342Y-72921761D01*
X101596723Y-72874142D01*
X101549104Y-72778904D01*
X101549104Y-72683666D01*
X101596723Y-72588428D01*
X101644342Y-72540809D01*
X101739580Y-72493190D01*
X101930057Y-72445571D01*
X102025295Y-72397952D01*
X102072914Y-72350333D01*
X102120533Y-72255095D01*
X102120533Y-72159857D01*
X102072914Y-72064619D01*
X102025295Y-72017000D01*
X101930057Y-71969380D01*
X101691961Y-71969380D01*
X101549104Y-72017000D01*
X101215771Y-71969380D02*
X100977676Y-72969380D01*
X100787200Y-72255095D01*
X100596723Y-72969380D01*
X100358628Y-71969380D01*
X99549104Y-72302714D02*
X99549104Y-72969380D01*
X99787200Y-71921761D02*
X100025295Y-72636047D01*
X99406247Y-72636047D01*
%TO.C,RV5*%
X122953404Y-96123137D02*
X123217220Y-95605190D01*
X123519272Y-96043609D02*
X123380098Y-95053341D01*
X123002853Y-95106360D01*
X122915169Y-95166770D01*
X122874641Y-95220553D01*
X122840740Y-95321491D01*
X122860622Y-95462958D01*
X122921032Y-95550642D01*
X122974815Y-95591170D01*
X123075754Y-95625071D01*
X123452999Y-95572053D01*
X122531297Y-95172632D02*
X122340381Y-96209292D01*
X121871118Y-95265415D01*
X121069473Y-95378078D02*
X121541029Y-95311806D01*
X121654458Y-95776734D01*
X121600675Y-95736206D01*
X121499736Y-95702305D01*
X121263958Y-95735442D01*
X121176274Y-95795852D01*
X121135746Y-95849635D01*
X121101845Y-95950573D01*
X121134981Y-96186351D01*
X121195391Y-96274035D01*
X121249174Y-96314564D01*
X121350113Y-96348465D01*
X121585891Y-96315328D01*
X121673575Y-96254918D01*
X121714103Y-96201135D01*
D13*
%TO.C,VR1*%
X182245000Y-73025000D02*
X182245000Y-79375000D01*
X184150000Y-73025000D02*
X182245000Y-73025000D01*
X192024000Y-85725000D02*
X191516000Y-85725000D01*
X200025000Y-75184000D02*
X200025000Y-74676000D01*
X189484000Y-85725000D02*
X188976000Y-85725000D01*
X200025000Y-71120000D02*
X198120000Y-71120000D01*
X195580000Y-85725000D02*
X194056000Y-85725000D01*
X184150000Y-73025000D02*
X184150000Y-79375000D01*
X196850000Y-79375000D02*
X196850000Y-73025000D01*
X186690000Y-66675000D02*
X186690000Y-69215000D01*
X184150000Y-83185000D02*
X196850000Y-83185000D01*
X196850000Y-69215000D02*
X184150000Y-69215000D01*
X195580000Y-85725000D02*
X195580000Y-83185000D01*
X194310000Y-66675000D02*
X186690000Y-66675000D01*
X182245000Y-79375000D02*
X184150000Y-79375000D01*
X200025000Y-77724000D02*
X200025000Y-77216000D01*
X194310000Y-69215000D02*
X194310000Y-66675000D01*
X200025000Y-72644000D02*
X200025000Y-71120000D01*
X186944000Y-85725000D02*
X185420000Y-85725000D01*
X198120000Y-81280000D02*
X200025000Y-81280000D01*
X200025000Y-81280000D02*
X200025000Y-79756000D01*
X185420000Y-85725000D02*
X185420000Y-83185000D01*
D14*
X195680000Y-67945000D02*
G75*
G03*
X195680000Y-67945000I-100000J0D01*
G01*
D13*
%TO.C,RV1*%
X170220000Y-77504000D02*
X170220000Y-78599000D01*
X170220000Y-81451000D02*
X170220000Y-83600000D01*
X159980000Y-77504000D02*
X159980000Y-81100000D01*
X170220000Y-87545000D02*
X159980000Y-87545000D01*
X159980000Y-83950000D02*
X159980000Y-87545000D01*
X170220000Y-77504000D02*
X159980000Y-77504000D01*
X170220000Y-86450000D02*
X170220000Y-87545000D01*
%TO.C,RV2*%
X170220000Y-91611000D02*
X170220000Y-93760000D01*
X170220000Y-96610000D02*
X170220000Y-97705000D01*
X170220000Y-87664000D02*
X159980000Y-87664000D01*
X170220000Y-97705000D02*
X159980000Y-97705000D01*
X170220000Y-87664000D02*
X170220000Y-88759000D01*
X159980000Y-94110000D02*
X159980000Y-97705000D01*
X159980000Y-87664000D02*
X159980000Y-91260000D01*
%TO.C,RV5*%
X127342111Y-95761093D02*
X127494506Y-96845437D01*
X127891428Y-99669681D02*
X128190510Y-101797767D01*
X128739548Y-105704375D02*
X118599203Y-107129507D01*
X118098876Y-103569494D02*
X118599203Y-107129507D01*
X128587154Y-104620031D02*
X128739548Y-105704375D01*
X117201766Y-97186226D02*
X117702233Y-100747230D01*
X127342111Y-95761093D02*
X117201766Y-97186226D01*
%TD*%
M02*
