%TF.GenerationSoftware,KiCad,Pcbnew,(6.99.0-2899-g66b8ecb467)*%
%TF.CreationDate,2022-08-21T04:15:40+02:00*%
%TF.ProjectId,Vectrex Pad miniNeoGeo-rounded-jlcpcb,56656374-7265-4782-9050-6164206d696e,1.3*%
%TF.SameCoordinates,Original*%
%TF.FileFunction,Legend,Top*%
%TF.FilePolarity,Positive*%
%FSLAX46Y46*%
G04 Gerber Fmt 4.6, Leading zero omitted, Abs format (unit mm)*
G04 Created by KiCad (PCBNEW (6.99.0-2899-g66b8ecb467)) date 2022-08-21 04:15:40*
%MOMM*%
%LPD*%
G01*
G04 APERTURE LIST*
%ADD10C,0.000400*%
%ADD11C,0.800000*%
%ADD12C,1.000000*%
%ADD13C,1.100000*%
%ADD14C,0.300000*%
%ADD15C,0.400000*%
%ADD16C,0.150000*%
%ADD17C,0.120000*%
G04 APERTURE END LIST*
D10*
G36*
X200179671Y-86566738D02*
G01*
X202103691Y-84642718D01*
X202261505Y-87169998D01*
X202260844Y-87170659D01*
X202261593Y-87171408D01*
X201516982Y-87916019D01*
X205365768Y-91764807D01*
X204022472Y-93108104D01*
X200251513Y-89337145D01*
X200241786Y-89191216D01*
X200151983Y-87839687D01*
X200150839Y-87827436D01*
X200149101Y-87815388D01*
X200146785Y-87803555D01*
X200143906Y-87791954D01*
X200140480Y-87780596D01*
X200136523Y-87769498D01*
X200132049Y-87758671D01*
X200127076Y-87748131D01*
X200121618Y-87737892D01*
X200115692Y-87727966D01*
X200109312Y-87718369D01*
X200102494Y-87709115D01*
X200095255Y-87700216D01*
X200087608Y-87691688D01*
X200079572Y-87683544D01*
X200071160Y-87675798D01*
X200062388Y-87668465D01*
X200053272Y-87661557D01*
X200043828Y-87655090D01*
X200034072Y-87649077D01*
X200024018Y-87643532D01*
X200013683Y-87638469D01*
X200003082Y-87633901D01*
X199992231Y-87629844D01*
X199981145Y-87626311D01*
X199969841Y-87623316D01*
X199958333Y-87620873D01*
X199946637Y-87618996D01*
X199934769Y-87617699D01*
X199922745Y-87616995D01*
X199910579Y-87616899D01*
X199898289Y-87617426D01*
X199886038Y-87618570D01*
X199873989Y-87620308D01*
X199862157Y-87622624D01*
X199850555Y-87625503D01*
X199839198Y-87628929D01*
X199828099Y-87632887D01*
X199817272Y-87637360D01*
X199806732Y-87642333D01*
X199796492Y-87647791D01*
X199786567Y-87653717D01*
X199776970Y-87660097D01*
X199767715Y-87666915D01*
X199758817Y-87674154D01*
X199750289Y-87681801D01*
X199742145Y-87689837D01*
X199734399Y-87698249D01*
X199727066Y-87707021D01*
X199720158Y-87716136D01*
X199713691Y-87725580D01*
X199707678Y-87735337D01*
X199702133Y-87745390D01*
X199697070Y-87755725D01*
X199692503Y-87766326D01*
X199688446Y-87777177D01*
X199684913Y-87788263D01*
X199681918Y-87799568D01*
X199679475Y-87811076D01*
X199677598Y-87822771D01*
X199676301Y-87834639D01*
X199675597Y-87846664D01*
X199675502Y-87858829D01*
X199676028Y-87871119D01*
X199793520Y-89639481D01*
X198628331Y-90804670D01*
X198701638Y-90773187D01*
X198775603Y-90743844D01*
X198850179Y-90716644D01*
X198925321Y-90691586D01*
X199000986Y-90668673D01*
X199077128Y-90647905D01*
X199153701Y-90629284D01*
X199230662Y-90612810D01*
X199307965Y-90598485D01*
X199385564Y-90586309D01*
X199463416Y-90576284D01*
X199541475Y-90568411D01*
X199619696Y-90562691D01*
X199698035Y-90559126D01*
X199776446Y-90557715D01*
X199854884Y-90558461D01*
X199996324Y-92695013D01*
X199949530Y-92682709D01*
X199902152Y-92673579D01*
X199854359Y-92667620D01*
X199806322Y-92664834D01*
X199758211Y-92665217D01*
X199710195Y-92668770D01*
X199662444Y-92675491D01*
X199615129Y-92685378D01*
X199568419Y-92698432D01*
X199522484Y-92714650D01*
X199477494Y-92734033D01*
X199433618Y-92756577D01*
X199391028Y-92782284D01*
X199349892Y-92811150D01*
X199310381Y-92843176D01*
X199272664Y-92878361D01*
X199246769Y-92905600D01*
X199222545Y-92933813D01*
X199199991Y-92962936D01*
X199179108Y-92992903D01*
X199159896Y-93023649D01*
X199142354Y-93055110D01*
X199126483Y-93087220D01*
X199112282Y-93119915D01*
X199099752Y-93153130D01*
X199088893Y-93186799D01*
X199079705Y-93220858D01*
X199072187Y-93255242D01*
X199066339Y-93289885D01*
X199062163Y-93324724D01*
X199059657Y-93359692D01*
X199058822Y-93394725D01*
X199059657Y-93429759D01*
X199062163Y-93464727D01*
X199066339Y-93499565D01*
X199072187Y-93534209D01*
X199079705Y-93568592D01*
X199088893Y-93602651D01*
X199099752Y-93636321D01*
X199112282Y-93669535D01*
X199126483Y-93702230D01*
X199142354Y-93734341D01*
X199159896Y-93765801D01*
X199179108Y-93796548D01*
X199199991Y-93826515D01*
X199222545Y-93855638D01*
X199246769Y-93883851D01*
X199272664Y-93911090D01*
X199299903Y-93936985D01*
X199328116Y-93961209D01*
X199357239Y-93983763D01*
X199387206Y-94004646D01*
X199417953Y-94023859D01*
X199449414Y-94041400D01*
X199481524Y-94057271D01*
X199514219Y-94071472D01*
X199547434Y-94084002D01*
X199581103Y-94094861D01*
X199615162Y-94104049D01*
X199649545Y-94111567D01*
X199684189Y-94117415D01*
X199719027Y-94121591D01*
X199753995Y-94124097D01*
X199789029Y-94124932D01*
X199824062Y-94124097D01*
X199859030Y-94121591D01*
X199893868Y-94117414D01*
X199928512Y-94111567D01*
X199962895Y-94104049D01*
X199996954Y-94094861D01*
X200030624Y-94084001D01*
X200063838Y-94071471D01*
X200096533Y-94057271D01*
X200128643Y-94041400D01*
X200160104Y-94023858D01*
X200190851Y-94004645D01*
X200220818Y-93983762D01*
X200249940Y-93961208D01*
X200278153Y-93936984D01*
X200305392Y-93911089D01*
X200332403Y-93882600D01*
X200357589Y-93853029D01*
X200380948Y-93822452D01*
X200402480Y-93790944D01*
X200422183Y-93758580D01*
X200440057Y-93725438D01*
X200456100Y-93691591D01*
X200470311Y-93657117D01*
X200482690Y-93622090D01*
X200493234Y-93586585D01*
X200501943Y-93550680D01*
X200508816Y-93514449D01*
X200513852Y-93477969D01*
X200517049Y-93441314D01*
X200518407Y-93404560D01*
X200517924Y-93367783D01*
X200518300Y-93367410D01*
X200518674Y-93367037D01*
X200508197Y-93214371D01*
X200336076Y-90610096D01*
X200435972Y-90631556D01*
X200535215Y-90656645D01*
X200633698Y-90685363D01*
X200731312Y-90717708D01*
X200827948Y-90753679D01*
X200923497Y-90793276D01*
X201017852Y-90836496D01*
X201110903Y-90883340D01*
X201202543Y-90933806D01*
X201292661Y-90987892D01*
X201381151Y-91045598D01*
X201467904Y-91106923D01*
X201552810Y-91171865D01*
X201635762Y-91240424D01*
X201716651Y-91312598D01*
X201795368Y-91388386D01*
X201896025Y-91494264D01*
X201990189Y-91603919D01*
X202077858Y-91717100D01*
X202159033Y-91833555D01*
X202233714Y-91953033D01*
X202301902Y-92075281D01*
X202363595Y-92200047D01*
X202418794Y-92327080D01*
X202467499Y-92456129D01*
X202509710Y-92586940D01*
X202545427Y-92719262D01*
X202574650Y-92852843D01*
X202597379Y-92987432D01*
X202613614Y-93122777D01*
X202623355Y-93258625D01*
X202626602Y-93394725D01*
X202623355Y-93530825D01*
X202613614Y-93666673D01*
X202597379Y-93802018D01*
X202574650Y-93936606D01*
X202545427Y-94070188D01*
X202509709Y-94202510D01*
X202467498Y-94333321D01*
X202418793Y-94462369D01*
X202363594Y-94589402D01*
X202301900Y-94714169D01*
X202233713Y-94836416D01*
X202159031Y-94955894D01*
X202077856Y-95072349D01*
X201990187Y-95185530D01*
X201896023Y-95295185D01*
X201795365Y-95401062D01*
X201689488Y-95501720D01*
X201579834Y-95595883D01*
X201466653Y-95683553D01*
X201350198Y-95764728D01*
X201230720Y-95839409D01*
X201108473Y-95907597D01*
X200983706Y-95969290D01*
X200856673Y-96024489D01*
X200727625Y-96073195D01*
X200596814Y-96115406D01*
X200464492Y-96151123D01*
X200330910Y-96180346D01*
X200196322Y-96203076D01*
X200060977Y-96219311D01*
X199925129Y-96229052D01*
X199789029Y-96232299D01*
X199652929Y-96229052D01*
X199517081Y-96219311D01*
X199381736Y-96203076D01*
X199247147Y-96180347D01*
X199113566Y-96151124D01*
X198981243Y-96115407D01*
X198850432Y-96073196D01*
X198721384Y-96024490D01*
X198594351Y-95969291D01*
X198469584Y-95907598D01*
X198347336Y-95839411D01*
X198227859Y-95764730D01*
X198111403Y-95683554D01*
X197998222Y-95595885D01*
X197888567Y-95501722D01*
X197782690Y-95401064D01*
X197682032Y-95295187D01*
X197587869Y-95185532D01*
X197500200Y-95072351D01*
X197419024Y-94955895D01*
X197344343Y-94836418D01*
X197276156Y-94714170D01*
X197214463Y-94589403D01*
X197159264Y-94462370D01*
X197110558Y-94333322D01*
X197068347Y-94202511D01*
X197032630Y-94070189D01*
X197003407Y-93936607D01*
X196980678Y-93802018D01*
X196964443Y-93666674D01*
X196954702Y-93530825D01*
X196951455Y-93394725D01*
X196954702Y-93258625D01*
X196964443Y-93122777D01*
X196980678Y-92987432D01*
X197003407Y-92852844D01*
X197032630Y-92719262D01*
X197068347Y-92586940D01*
X197110558Y-92456129D01*
X197159264Y-92327081D01*
X197214463Y-92200047D01*
X197276156Y-92075281D01*
X197344343Y-91953033D01*
X197419024Y-91833555D01*
X197500200Y-91717100D01*
X197587869Y-91603919D01*
X197682032Y-91494264D01*
X197782690Y-91388386D01*
X197820134Y-91351623D01*
X197858091Y-91315701D01*
X197896545Y-91280619D01*
X197935483Y-91246375D01*
X197974890Y-91212968D01*
X198014751Y-91180398D01*
X198055054Y-91148664D01*
X198095782Y-91117763D01*
X198178462Y-91058460D01*
X198262677Y-91002481D01*
X198348312Y-90949818D01*
X198435254Y-90900460D01*
X197994474Y-84381542D01*
X200179671Y-86566738D01*
G37*
X200179671Y-86566738D02*
X202103691Y-84642718D01*
X202261505Y-87169998D01*
X202260844Y-87170659D01*
X202261593Y-87171408D01*
X201516982Y-87916019D01*
X205365768Y-91764807D01*
X204022472Y-93108104D01*
X200251513Y-89337145D01*
X200241786Y-89191216D01*
X200151983Y-87839687D01*
X200150839Y-87827436D01*
X200149101Y-87815388D01*
X200146785Y-87803555D01*
X200143906Y-87791954D01*
X200140480Y-87780596D01*
X200136523Y-87769498D01*
X200132049Y-87758671D01*
X200127076Y-87748131D01*
X200121618Y-87737892D01*
X200115692Y-87727966D01*
X200109312Y-87718369D01*
X200102494Y-87709115D01*
X200095255Y-87700216D01*
X200087608Y-87691688D01*
X200079572Y-87683544D01*
X200071160Y-87675798D01*
X200062388Y-87668465D01*
X200053272Y-87661557D01*
X200043828Y-87655090D01*
X200034072Y-87649077D01*
X200024018Y-87643532D01*
X200013683Y-87638469D01*
X200003082Y-87633901D01*
X199992231Y-87629844D01*
X199981145Y-87626311D01*
X199969841Y-87623316D01*
X199958333Y-87620873D01*
X199946637Y-87618996D01*
X199934769Y-87617699D01*
X199922745Y-87616995D01*
X199910579Y-87616899D01*
X199898289Y-87617426D01*
X199886038Y-87618570D01*
X199873989Y-87620308D01*
X199862157Y-87622624D01*
X199850555Y-87625503D01*
X199839198Y-87628929D01*
X199828099Y-87632887D01*
X199817272Y-87637360D01*
X199806732Y-87642333D01*
X199796492Y-87647791D01*
X199786567Y-87653717D01*
X199776970Y-87660097D01*
X199767715Y-87666915D01*
X199758817Y-87674154D01*
X199750289Y-87681801D01*
X199742145Y-87689837D01*
X199734399Y-87698249D01*
X199727066Y-87707021D01*
X199720158Y-87716136D01*
X199713691Y-87725580D01*
X199707678Y-87735337D01*
X199702133Y-87745390D01*
X199697070Y-87755725D01*
X199692503Y-87766326D01*
X199688446Y-87777177D01*
X199684913Y-87788263D01*
X199681918Y-87799568D01*
X199679475Y-87811076D01*
X199677598Y-87822771D01*
X199676301Y-87834639D01*
X199675597Y-87846664D01*
X199675502Y-87858829D01*
X199676028Y-87871119D01*
X199793520Y-89639481D01*
X198628331Y-90804670D01*
X198701638Y-90773187D01*
X198775603Y-90743844D01*
X198850179Y-90716644D01*
X198925321Y-90691586D01*
X199000986Y-90668673D01*
X199077128Y-90647905D01*
X199153701Y-90629284D01*
X199230662Y-90612810D01*
X199307965Y-90598485D01*
X199385564Y-90586309D01*
X199463416Y-90576284D01*
X199541475Y-90568411D01*
X199619696Y-90562691D01*
X199698035Y-90559126D01*
X199776446Y-90557715D01*
X199854884Y-90558461D01*
X199996324Y-92695013D01*
X199949530Y-92682709D01*
X199902152Y-92673579D01*
X199854359Y-92667620D01*
X199806322Y-92664834D01*
X199758211Y-92665217D01*
X199710195Y-92668770D01*
X199662444Y-92675491D01*
X199615129Y-92685378D01*
X199568419Y-92698432D01*
X199522484Y-92714650D01*
X199477494Y-92734033D01*
X199433618Y-92756577D01*
X199391028Y-92782284D01*
X199349892Y-92811150D01*
X199310381Y-92843176D01*
X199272664Y-92878361D01*
X199246769Y-92905600D01*
X199222545Y-92933813D01*
X199199991Y-92962936D01*
X199179108Y-92992903D01*
X199159896Y-93023649D01*
X199142354Y-93055110D01*
X199126483Y-93087220D01*
X199112282Y-93119915D01*
X199099752Y-93153130D01*
X199088893Y-93186799D01*
X199079705Y-93220858D01*
X199072187Y-93255242D01*
X199066339Y-93289885D01*
X199062163Y-93324724D01*
X199059657Y-93359692D01*
X199058822Y-93394725D01*
X199059657Y-93429759D01*
X199062163Y-93464727D01*
X199066339Y-93499565D01*
X199072187Y-93534209D01*
X199079705Y-93568592D01*
X199088893Y-93602651D01*
X199099752Y-93636321D01*
X199112282Y-93669535D01*
X199126483Y-93702230D01*
X199142354Y-93734341D01*
X199159896Y-93765801D01*
X199179108Y-93796548D01*
X199199991Y-93826515D01*
X199222545Y-93855638D01*
X199246769Y-93883851D01*
X199272664Y-93911090D01*
X199299903Y-93936985D01*
X199328116Y-93961209D01*
X199357239Y-93983763D01*
X199387206Y-94004646D01*
X199417953Y-94023859D01*
X199449414Y-94041400D01*
X199481524Y-94057271D01*
X199514219Y-94071472D01*
X199547434Y-94084002D01*
X199581103Y-94094861D01*
X199615162Y-94104049D01*
X199649545Y-94111567D01*
X199684189Y-94117415D01*
X199719027Y-94121591D01*
X199753995Y-94124097D01*
X199789029Y-94124932D01*
X199824062Y-94124097D01*
X199859030Y-94121591D01*
X199893868Y-94117414D01*
X199928512Y-94111567D01*
X199962895Y-94104049D01*
X199996954Y-94094861D01*
X200030624Y-94084001D01*
X200063838Y-94071471D01*
X200096533Y-94057271D01*
X200128643Y-94041400D01*
X200160104Y-94023858D01*
X200190851Y-94004645D01*
X200220818Y-93983762D01*
X200249940Y-93961208D01*
X200278153Y-93936984D01*
X200305392Y-93911089D01*
X200332403Y-93882600D01*
X200357589Y-93853029D01*
X200380948Y-93822452D01*
X200402480Y-93790944D01*
X200422183Y-93758580D01*
X200440057Y-93725438D01*
X200456100Y-93691591D01*
X200470311Y-93657117D01*
X200482690Y-93622090D01*
X200493234Y-93586585D01*
X200501943Y-93550680D01*
X200508816Y-93514449D01*
X200513852Y-93477969D01*
X200517049Y-93441314D01*
X200518407Y-93404560D01*
X200517924Y-93367783D01*
X200518300Y-93367410D01*
X200518674Y-93367037D01*
X200508197Y-93214371D01*
X200336076Y-90610096D01*
X200435972Y-90631556D01*
X200535215Y-90656645D01*
X200633698Y-90685363D01*
X200731312Y-90717708D01*
X200827948Y-90753679D01*
X200923497Y-90793276D01*
X201017852Y-90836496D01*
X201110903Y-90883340D01*
X201202543Y-90933806D01*
X201292661Y-90987892D01*
X201381151Y-91045598D01*
X201467904Y-91106923D01*
X201552810Y-91171865D01*
X201635762Y-91240424D01*
X201716651Y-91312598D01*
X201795368Y-91388386D01*
X201896025Y-91494264D01*
X201990189Y-91603919D01*
X202077858Y-91717100D01*
X202159033Y-91833555D01*
X202233714Y-91953033D01*
X202301902Y-92075281D01*
X202363595Y-92200047D01*
X202418794Y-92327080D01*
X202467499Y-92456129D01*
X202509710Y-92586940D01*
X202545427Y-92719262D01*
X202574650Y-92852843D01*
X202597379Y-92987432D01*
X202613614Y-93122777D01*
X202623355Y-93258625D01*
X202626602Y-93394725D01*
X202623355Y-93530825D01*
X202613614Y-93666673D01*
X202597379Y-93802018D01*
X202574650Y-93936606D01*
X202545427Y-94070188D01*
X202509709Y-94202510D01*
X202467498Y-94333321D01*
X202418793Y-94462369D01*
X202363594Y-94589402D01*
X202301900Y-94714169D01*
X202233713Y-94836416D01*
X202159031Y-94955894D01*
X202077856Y-95072349D01*
X201990187Y-95185530D01*
X201896023Y-95295185D01*
X201795365Y-95401062D01*
X201689488Y-95501720D01*
X201579834Y-95595883D01*
X201466653Y-95683553D01*
X201350198Y-95764728D01*
X201230720Y-95839409D01*
X201108473Y-95907597D01*
X200983706Y-95969290D01*
X200856673Y-96024489D01*
X200727625Y-96073195D01*
X200596814Y-96115406D01*
X200464492Y-96151123D01*
X200330910Y-96180346D01*
X200196322Y-96203076D01*
X200060977Y-96219311D01*
X199925129Y-96229052D01*
X199789029Y-96232299D01*
X199652929Y-96229052D01*
X199517081Y-96219311D01*
X199381736Y-96203076D01*
X199247147Y-96180347D01*
X199113566Y-96151124D01*
X198981243Y-96115407D01*
X198850432Y-96073196D01*
X198721384Y-96024490D01*
X198594351Y-95969291D01*
X198469584Y-95907598D01*
X198347336Y-95839411D01*
X198227859Y-95764730D01*
X198111403Y-95683554D01*
X197998222Y-95595885D01*
X197888567Y-95501722D01*
X197782690Y-95401064D01*
X197682032Y-95295187D01*
X197587869Y-95185532D01*
X197500200Y-95072351D01*
X197419024Y-94955895D01*
X197344343Y-94836418D01*
X197276156Y-94714170D01*
X197214463Y-94589403D01*
X197159264Y-94462370D01*
X197110558Y-94333322D01*
X197068347Y-94202511D01*
X197032630Y-94070189D01*
X197003407Y-93936607D01*
X196980678Y-93802018D01*
X196964443Y-93666674D01*
X196954702Y-93530825D01*
X196951455Y-93394725D01*
X196954702Y-93258625D01*
X196964443Y-93122777D01*
X196980678Y-92987432D01*
X197003407Y-92852844D01*
X197032630Y-92719262D01*
X197068347Y-92586940D01*
X197110558Y-92456129D01*
X197159264Y-92327081D01*
X197214463Y-92200047D01*
X197276156Y-92075281D01*
X197344343Y-91953033D01*
X197419024Y-91833555D01*
X197500200Y-91717100D01*
X197587869Y-91603919D01*
X197682032Y-91494264D01*
X197782690Y-91388386D01*
X197820134Y-91351623D01*
X197858091Y-91315701D01*
X197896545Y-91280619D01*
X197935483Y-91246375D01*
X197974890Y-91212968D01*
X198014751Y-91180398D01*
X198055054Y-91148664D01*
X198095782Y-91117763D01*
X198178462Y-91058460D01*
X198262677Y-91002481D01*
X198348312Y-90949818D01*
X198435254Y-90900460D01*
X197994474Y-84381542D01*
X200179671Y-86566738D01*
G36*
X205776611Y-86342981D02*
G01*
X204948183Y-87171409D01*
X207453676Y-89676901D01*
X206110380Y-91020195D01*
X202261593Y-87171408D01*
X202261593Y-87171407D01*
X202261505Y-87169998D01*
X203604140Y-85827363D01*
X203669997Y-85761508D01*
X203800207Y-87719204D01*
X203801351Y-87731455D01*
X203803089Y-87743504D01*
X203805405Y-87755336D01*
X203808284Y-87766938D01*
X203811710Y-87778295D01*
X203815668Y-87789394D01*
X203820141Y-87800220D01*
X203825114Y-87810760D01*
X203830572Y-87821000D01*
X203836499Y-87830925D01*
X203842879Y-87840522D01*
X203849696Y-87849777D01*
X203856936Y-87858675D01*
X203864582Y-87867203D01*
X203872619Y-87875347D01*
X203881031Y-87883093D01*
X203889803Y-87890427D01*
X203898918Y-87897334D01*
X203908362Y-87903801D01*
X203918119Y-87909814D01*
X203928172Y-87915360D01*
X203938507Y-87920423D01*
X203949108Y-87924990D01*
X203959959Y-87929047D01*
X203971045Y-87932580D01*
X203982350Y-87935575D01*
X203993858Y-87938018D01*
X204005553Y-87939895D01*
X204017421Y-87941192D01*
X204029445Y-87941896D01*
X204041610Y-87941991D01*
X204053901Y-87941465D01*
X204066152Y-87940321D01*
X204078201Y-87938583D01*
X204090033Y-87936267D01*
X204101635Y-87933388D01*
X204112992Y-87929962D01*
X204124091Y-87926005D01*
X204134918Y-87921532D01*
X204145458Y-87916558D01*
X204155697Y-87911101D01*
X204165623Y-87905174D01*
X204175220Y-87898794D01*
X204184475Y-87891977D01*
X204193373Y-87884737D01*
X204201901Y-87877091D01*
X204210045Y-87869054D01*
X204217791Y-87860642D01*
X204225125Y-87851870D01*
X204232032Y-87842755D01*
X204238500Y-87833311D01*
X204244513Y-87823555D01*
X204250058Y-87813501D01*
X204255121Y-87803166D01*
X204259688Y-87792565D01*
X204263745Y-87781714D01*
X204267278Y-87770628D01*
X204270273Y-87759324D01*
X204272717Y-87747816D01*
X204274594Y-87736120D01*
X204275891Y-87724252D01*
X204276594Y-87712228D01*
X204276690Y-87700063D01*
X204276164Y-87687772D01*
X204118261Y-85314741D01*
X205618708Y-83814291D01*
X205776611Y-86342981D01*
G37*
X205776611Y-86342981D02*
X204948183Y-87171409D01*
X207453676Y-89676901D01*
X206110380Y-91020195D01*
X202261593Y-87171408D01*
X202261593Y-87171407D01*
X202261505Y-87169998D01*
X203604140Y-85827363D01*
X203669997Y-85761508D01*
X203800207Y-87719204D01*
X203801351Y-87731455D01*
X203803089Y-87743504D01*
X203805405Y-87755336D01*
X203808284Y-87766938D01*
X203811710Y-87778295D01*
X203815668Y-87789394D01*
X203820141Y-87800220D01*
X203825114Y-87810760D01*
X203830572Y-87821000D01*
X203836499Y-87830925D01*
X203842879Y-87840522D01*
X203849696Y-87849777D01*
X203856936Y-87858675D01*
X203864582Y-87867203D01*
X203872619Y-87875347D01*
X203881031Y-87883093D01*
X203889803Y-87890427D01*
X203898918Y-87897334D01*
X203908362Y-87903801D01*
X203918119Y-87909814D01*
X203928172Y-87915360D01*
X203938507Y-87920423D01*
X203949108Y-87924990D01*
X203959959Y-87929047D01*
X203971045Y-87932580D01*
X203982350Y-87935575D01*
X203993858Y-87938018D01*
X204005553Y-87939895D01*
X204017421Y-87941192D01*
X204029445Y-87941896D01*
X204041610Y-87941991D01*
X204053901Y-87941465D01*
X204066152Y-87940321D01*
X204078201Y-87938583D01*
X204090033Y-87936267D01*
X204101635Y-87933388D01*
X204112992Y-87929962D01*
X204124091Y-87926005D01*
X204134918Y-87921532D01*
X204145458Y-87916558D01*
X204155697Y-87911101D01*
X204165623Y-87905174D01*
X204175220Y-87898794D01*
X204184475Y-87891977D01*
X204193373Y-87884737D01*
X204201901Y-87877091D01*
X204210045Y-87869054D01*
X204217791Y-87860642D01*
X204225125Y-87851870D01*
X204232032Y-87842755D01*
X204238500Y-87833311D01*
X204244513Y-87823555D01*
X204250058Y-87813501D01*
X204255121Y-87803166D01*
X204259688Y-87792565D01*
X204263745Y-87781714D01*
X204267278Y-87770628D01*
X204270273Y-87759324D01*
X204272717Y-87747816D01*
X204274594Y-87736120D01*
X204275891Y-87724252D01*
X204276594Y-87712228D01*
X204276690Y-87700063D01*
X204276164Y-87687772D01*
X204118261Y-85314741D01*
X205618708Y-83814291D01*
X205776611Y-86342981D01*
G36*
X205893061Y-84195655D02*
G01*
X205909296Y-84060310D01*
X205932025Y-83925722D01*
X205961248Y-83792140D01*
X205996965Y-83659818D01*
X206039177Y-83529007D01*
X206087882Y-83399958D01*
X206143081Y-83272925D01*
X206204774Y-83148159D01*
X206272961Y-83025911D01*
X206347643Y-82906433D01*
X206428818Y-82789978D01*
X206516487Y-82676797D01*
X206610651Y-82567141D01*
X206711308Y-82461264D01*
X206820463Y-82357658D01*
X206933622Y-82260960D01*
X207050507Y-82171168D01*
X207170844Y-82088280D01*
X207294355Y-82012294D01*
X207420765Y-81943207D01*
X207549797Y-81881018D01*
X207681175Y-81825724D01*
X207814623Y-81777324D01*
X207949864Y-81735814D01*
X208086622Y-81701192D01*
X208224621Y-81673458D01*
X208363585Y-81652607D01*
X208503238Y-81638639D01*
X208643302Y-81631550D01*
X208783503Y-81631339D01*
X208924941Y-83767892D01*
X209015490Y-85133640D01*
X209030293Y-85126746D01*
X209044952Y-85119533D01*
X209059465Y-85111998D01*
X209073827Y-85104137D01*
X209088036Y-85095948D01*
X209102088Y-85087426D01*
X209115980Y-85078569D01*
X209129709Y-85069373D01*
X209143271Y-85059835D01*
X209156663Y-85049952D01*
X209169882Y-85039720D01*
X209182924Y-85029137D01*
X209195787Y-85018198D01*
X209208467Y-85006901D01*
X209220960Y-84995242D01*
X209233263Y-84983218D01*
X209260274Y-84954729D01*
X209285459Y-84925158D01*
X209308818Y-84894581D01*
X209330350Y-84863073D01*
X209350053Y-84830710D01*
X209367927Y-84797567D01*
X209383970Y-84763721D01*
X209398181Y-84729246D01*
X209410559Y-84694220D01*
X209421103Y-84658716D01*
X209429813Y-84622811D01*
X209436686Y-84586580D01*
X209441722Y-84550100D01*
X209444919Y-84513445D01*
X209446278Y-84476692D01*
X209445795Y-84439916D01*
X209446545Y-84439166D01*
X209436066Y-84286501D01*
X209263947Y-81682227D01*
X209363843Y-81703687D01*
X209463086Y-81728776D01*
X209561569Y-81757494D01*
X209659183Y-81789839D01*
X209755818Y-81825810D01*
X209851368Y-81865407D01*
X209945722Y-81908627D01*
X210038773Y-81955471D01*
X210130412Y-82005936D01*
X210220531Y-82060023D01*
X210309021Y-82117729D01*
X210395773Y-82179054D01*
X210480679Y-82243996D01*
X210563631Y-82312555D01*
X210644520Y-82384729D01*
X210723237Y-82460517D01*
X210823826Y-82566326D01*
X210917926Y-82675918D01*
X211005537Y-82789040D01*
X211086658Y-82905442D01*
X211161290Y-83024870D01*
X211229434Y-83147074D01*
X211291088Y-83271802D01*
X211346254Y-83398802D01*
X211394931Y-83527822D01*
X211437120Y-83658611D01*
X211472821Y-83790917D01*
X211502033Y-83924487D01*
X211524758Y-84059072D01*
X211540994Y-84194418D01*
X211550743Y-84330274D01*
X211554005Y-84466388D01*
X211550779Y-84602509D01*
X211541065Y-84738385D01*
X211524864Y-84873764D01*
X211502177Y-85008394D01*
X211473002Y-85142024D01*
X211437341Y-85274402D01*
X211395193Y-85405276D01*
X211346559Y-85534395D01*
X211291438Y-85661507D01*
X211229831Y-85786359D01*
X211161738Y-85908701D01*
X211087159Y-86028281D01*
X211006094Y-86144846D01*
X210918543Y-86258146D01*
X210824507Y-86367929D01*
X210723986Y-86473942D01*
X210618109Y-86574599D01*
X210508453Y-86668762D01*
X210395272Y-86756432D01*
X210278817Y-86837607D01*
X210159339Y-86912289D01*
X210037091Y-86980476D01*
X209912324Y-87042169D01*
X209785291Y-87097368D01*
X209656243Y-87146074D01*
X209525432Y-87188285D01*
X209393109Y-87224002D01*
X209259528Y-87253225D01*
X209124939Y-87275954D01*
X208989594Y-87292189D01*
X208853746Y-87301930D01*
X208717646Y-87305177D01*
X208581546Y-87301930D01*
X208445697Y-87292189D01*
X208310353Y-87275954D01*
X208175764Y-87253225D01*
X208042182Y-87224002D01*
X207909860Y-87188285D01*
X207779049Y-87146074D01*
X207650000Y-87097369D01*
X207522967Y-87042170D01*
X207398201Y-86980476D01*
X207275952Y-86912289D01*
X207156475Y-86837608D01*
X207040019Y-86756433D01*
X206926838Y-86668763D01*
X206817183Y-86574600D01*
X206711305Y-86473943D01*
X206610648Y-86368065D01*
X206516485Y-86258410D01*
X206428816Y-86145229D01*
X206347641Y-86028774D01*
X206272960Y-85909296D01*
X206204773Y-85787048D01*
X206143080Y-85662282D01*
X206087881Y-85535248D01*
X206039176Y-85406200D01*
X205996965Y-85275389D01*
X205961248Y-85143067D01*
X205932025Y-85009485D01*
X205909296Y-84874896D01*
X205893061Y-84739552D01*
X205883320Y-84603704D01*
X205880073Y-84467603D01*
X205880109Y-84466106D01*
X207987440Y-84466106D01*
X207988275Y-84501140D01*
X207990782Y-84536108D01*
X207994958Y-84570946D01*
X208000806Y-84605590D01*
X208008324Y-84639974D01*
X208017512Y-84674033D01*
X208028372Y-84707702D01*
X208040902Y-84740917D01*
X208055102Y-84773612D01*
X208070973Y-84805722D01*
X208088515Y-84837183D01*
X208107728Y-84867930D01*
X208128611Y-84897897D01*
X208151164Y-84927019D01*
X208175389Y-84955233D01*
X208201283Y-84982472D01*
X208219758Y-85000318D01*
X208238688Y-85017377D01*
X208258053Y-85033648D01*
X208277837Y-85049133D01*
X208298020Y-85063834D01*
X208318582Y-85077750D01*
X208339507Y-85090884D01*
X208360775Y-85103237D01*
X208382367Y-85114809D01*
X208404266Y-85125601D01*
X208426451Y-85135616D01*
X208448905Y-85144853D01*
X208471609Y-85153314D01*
X208494544Y-85161000D01*
X208517692Y-85167912D01*
X208541034Y-85174051D01*
X208448989Y-83787349D01*
X208432081Y-83794172D01*
X208415323Y-83801448D01*
X208398723Y-83809176D01*
X208382290Y-83817353D01*
X208366032Y-83825978D01*
X208349958Y-83835048D01*
X208334077Y-83844560D01*
X208318399Y-83854513D01*
X208302930Y-83864905D01*
X208287681Y-83875733D01*
X208272660Y-83886995D01*
X208257876Y-83898689D01*
X208243338Y-83910812D01*
X208229054Y-83923364D01*
X208215033Y-83936340D01*
X208201283Y-83949740D01*
X208175388Y-83976979D01*
X208151164Y-84005193D01*
X208128610Y-84034315D01*
X208107726Y-84064283D01*
X208088514Y-84095029D01*
X208070972Y-84126490D01*
X208055101Y-84158601D01*
X208040900Y-84191296D01*
X208028370Y-84224510D01*
X208017511Y-84258180D01*
X208008323Y-84292239D01*
X208000805Y-84326623D01*
X207994958Y-84361266D01*
X207990781Y-84396105D01*
X207988275Y-84431073D01*
X207987440Y-84466106D01*
X205880109Y-84466106D01*
X205883320Y-84331503D01*
X205893061Y-84195655D01*
G37*
X205893061Y-84195655D02*
X205909296Y-84060310D01*
X205932025Y-83925722D01*
X205961248Y-83792140D01*
X205996965Y-83659818D01*
X206039177Y-83529007D01*
X206087882Y-83399958D01*
X206143081Y-83272925D01*
X206204774Y-83148159D01*
X206272961Y-83025911D01*
X206347643Y-82906433D01*
X206428818Y-82789978D01*
X206516487Y-82676797D01*
X206610651Y-82567141D01*
X206711308Y-82461264D01*
X206820463Y-82357658D01*
X206933622Y-82260960D01*
X207050507Y-82171168D01*
X207170844Y-82088280D01*
X207294355Y-82012294D01*
X207420765Y-81943207D01*
X207549797Y-81881018D01*
X207681175Y-81825724D01*
X207814623Y-81777324D01*
X207949864Y-81735814D01*
X208086622Y-81701192D01*
X208224621Y-81673458D01*
X208363585Y-81652607D01*
X208503238Y-81638639D01*
X208643302Y-81631550D01*
X208783503Y-81631339D01*
X208924941Y-83767892D01*
X209015490Y-85133640D01*
X209030293Y-85126746D01*
X209044952Y-85119533D01*
X209059465Y-85111998D01*
X209073827Y-85104137D01*
X209088036Y-85095948D01*
X209102088Y-85087426D01*
X209115980Y-85078569D01*
X209129709Y-85069373D01*
X209143271Y-85059835D01*
X209156663Y-85049952D01*
X209169882Y-85039720D01*
X209182924Y-85029137D01*
X209195787Y-85018198D01*
X209208467Y-85006901D01*
X209220960Y-84995242D01*
X209233263Y-84983218D01*
X209260274Y-84954729D01*
X209285459Y-84925158D01*
X209308818Y-84894581D01*
X209330350Y-84863073D01*
X209350053Y-84830710D01*
X209367927Y-84797567D01*
X209383970Y-84763721D01*
X209398181Y-84729246D01*
X209410559Y-84694220D01*
X209421103Y-84658716D01*
X209429813Y-84622811D01*
X209436686Y-84586580D01*
X209441722Y-84550100D01*
X209444919Y-84513445D01*
X209446278Y-84476692D01*
X209445795Y-84439916D01*
X209446545Y-84439166D01*
X209436066Y-84286501D01*
X209263947Y-81682227D01*
X209363843Y-81703687D01*
X209463086Y-81728776D01*
X209561569Y-81757494D01*
X209659183Y-81789839D01*
X209755818Y-81825810D01*
X209851368Y-81865407D01*
X209945722Y-81908627D01*
X210038773Y-81955471D01*
X210130412Y-82005936D01*
X210220531Y-82060023D01*
X210309021Y-82117729D01*
X210395773Y-82179054D01*
X210480679Y-82243996D01*
X210563631Y-82312555D01*
X210644520Y-82384729D01*
X210723237Y-82460517D01*
X210823826Y-82566326D01*
X210917926Y-82675918D01*
X211005537Y-82789040D01*
X211086658Y-82905442D01*
X211161290Y-83024870D01*
X211229434Y-83147074D01*
X211291088Y-83271802D01*
X211346254Y-83398802D01*
X211394931Y-83527822D01*
X211437120Y-83658611D01*
X211472821Y-83790917D01*
X211502033Y-83924487D01*
X211524758Y-84059072D01*
X211540994Y-84194418D01*
X211550743Y-84330274D01*
X211554005Y-84466388D01*
X211550779Y-84602509D01*
X211541065Y-84738385D01*
X211524864Y-84873764D01*
X211502177Y-85008394D01*
X211473002Y-85142024D01*
X211437341Y-85274402D01*
X211395193Y-85405276D01*
X211346559Y-85534395D01*
X211291438Y-85661507D01*
X211229831Y-85786359D01*
X211161738Y-85908701D01*
X211087159Y-86028281D01*
X211006094Y-86144846D01*
X210918543Y-86258146D01*
X210824507Y-86367929D01*
X210723986Y-86473942D01*
X210618109Y-86574599D01*
X210508453Y-86668762D01*
X210395272Y-86756432D01*
X210278817Y-86837607D01*
X210159339Y-86912289D01*
X210037091Y-86980476D01*
X209912324Y-87042169D01*
X209785291Y-87097368D01*
X209656243Y-87146074D01*
X209525432Y-87188285D01*
X209393109Y-87224002D01*
X209259528Y-87253225D01*
X209124939Y-87275954D01*
X208989594Y-87292189D01*
X208853746Y-87301930D01*
X208717646Y-87305177D01*
X208581546Y-87301930D01*
X208445697Y-87292189D01*
X208310353Y-87275954D01*
X208175764Y-87253225D01*
X208042182Y-87224002D01*
X207909860Y-87188285D01*
X207779049Y-87146074D01*
X207650000Y-87097369D01*
X207522967Y-87042170D01*
X207398201Y-86980476D01*
X207275952Y-86912289D01*
X207156475Y-86837608D01*
X207040019Y-86756433D01*
X206926838Y-86668763D01*
X206817183Y-86574600D01*
X206711305Y-86473943D01*
X206610648Y-86368065D01*
X206516485Y-86258410D01*
X206428816Y-86145229D01*
X206347641Y-86028774D01*
X206272960Y-85909296D01*
X206204773Y-85787048D01*
X206143080Y-85662282D01*
X206087881Y-85535248D01*
X206039176Y-85406200D01*
X205996965Y-85275389D01*
X205961248Y-85143067D01*
X205932025Y-85009485D01*
X205909296Y-84874896D01*
X205893061Y-84739552D01*
X205883320Y-84603704D01*
X205880073Y-84467603D01*
X205880109Y-84466106D01*
X207987440Y-84466106D01*
X207988275Y-84501140D01*
X207990782Y-84536108D01*
X207994958Y-84570946D01*
X208000806Y-84605590D01*
X208008324Y-84639974D01*
X208017512Y-84674033D01*
X208028372Y-84707702D01*
X208040902Y-84740917D01*
X208055102Y-84773612D01*
X208070973Y-84805722D01*
X208088515Y-84837183D01*
X208107728Y-84867930D01*
X208128611Y-84897897D01*
X208151164Y-84927019D01*
X208175389Y-84955233D01*
X208201283Y-84982472D01*
X208219758Y-85000318D01*
X208238688Y-85017377D01*
X208258053Y-85033648D01*
X208277837Y-85049133D01*
X208298020Y-85063834D01*
X208318582Y-85077750D01*
X208339507Y-85090884D01*
X208360775Y-85103237D01*
X208382367Y-85114809D01*
X208404266Y-85125601D01*
X208426451Y-85135616D01*
X208448905Y-85144853D01*
X208471609Y-85153314D01*
X208494544Y-85161000D01*
X208517692Y-85167912D01*
X208541034Y-85174051D01*
X208448989Y-83787349D01*
X208432081Y-83794172D01*
X208415323Y-83801448D01*
X208398723Y-83809176D01*
X208382290Y-83817353D01*
X208366032Y-83825978D01*
X208349958Y-83835048D01*
X208334077Y-83844560D01*
X208318399Y-83854513D01*
X208302930Y-83864905D01*
X208287681Y-83875733D01*
X208272660Y-83886995D01*
X208257876Y-83898689D01*
X208243338Y-83910812D01*
X208229054Y-83923364D01*
X208215033Y-83936340D01*
X208201283Y-83949740D01*
X208175388Y-83976979D01*
X208151164Y-84005193D01*
X208128610Y-84034315D01*
X208107726Y-84064283D01*
X208088514Y-84095029D01*
X208070972Y-84126490D01*
X208055101Y-84158601D01*
X208040900Y-84191296D01*
X208028370Y-84224510D01*
X208017511Y-84258180D01*
X208008323Y-84292239D01*
X208000805Y-84326623D01*
X207994958Y-84361266D01*
X207990781Y-84396105D01*
X207988275Y-84431073D01*
X207987440Y-84466106D01*
X205880109Y-84466106D01*
X205883320Y-84331503D01*
X205893061Y-84195655D01*
G36*
X192975260Y-104373838D02*
G01*
X183033368Y-103713037D01*
X189437787Y-97308621D01*
X189766316Y-102267966D01*
X189768015Y-102285649D01*
X189770574Y-102303044D01*
X189773968Y-102320131D01*
X189778177Y-102336889D01*
X189783176Y-102353298D01*
X189788943Y-102369337D01*
X189795456Y-102384987D01*
X189802692Y-102400226D01*
X189810629Y-102415034D01*
X189819243Y-102429391D01*
X189828513Y-102443276D01*
X189838416Y-102456669D01*
X189848928Y-102469550D01*
X189860028Y-102481898D01*
X189871693Y-102493692D01*
X189883900Y-102504913D01*
X189896627Y-102515540D01*
X189909850Y-102525552D01*
X189923548Y-102534929D01*
X189937698Y-102543651D01*
X189952277Y-102551697D01*
X189967263Y-102559047D01*
X189982632Y-102565680D01*
X189998363Y-102571576D01*
X190014433Y-102576714D01*
X190030818Y-102581074D01*
X190047497Y-102584637D01*
X190064448Y-102587380D01*
X190081646Y-102589284D01*
X190099070Y-102590329D01*
X190116697Y-102590494D01*
X190134505Y-102589758D01*
X190152188Y-102588059D01*
X190169583Y-102585500D01*
X190186670Y-102582106D01*
X190203428Y-102577898D01*
X190219837Y-102572898D01*
X190235877Y-102567131D01*
X190251526Y-102560618D01*
X190266765Y-102553382D01*
X190281573Y-102545445D01*
X190295930Y-102536831D01*
X190309816Y-102527561D01*
X190323209Y-102517658D01*
X190336090Y-102507146D01*
X190348438Y-102496046D01*
X190360232Y-102484381D01*
X190371453Y-102472174D01*
X190382080Y-102459447D01*
X190392092Y-102446224D01*
X190401469Y-102432526D01*
X190410190Y-102418376D01*
X190418236Y-102403797D01*
X190425586Y-102388811D01*
X190432219Y-102373441D01*
X190438115Y-102357711D01*
X190443253Y-102341641D01*
X190447614Y-102325255D01*
X190451176Y-102308576D01*
X190453920Y-102291625D01*
X190455824Y-102274427D01*
X190456869Y-102257003D01*
X190457034Y-102239375D01*
X190456298Y-102221567D01*
X190087359Y-96659048D01*
X192315212Y-94431196D01*
X192975260Y-104373838D01*
G37*
X192975260Y-104373838D02*
X183033368Y-103713037D01*
X189437787Y-97308621D01*
X189766316Y-102267966D01*
X189768015Y-102285649D01*
X189770574Y-102303044D01*
X189773968Y-102320131D01*
X189778177Y-102336889D01*
X189783176Y-102353298D01*
X189788943Y-102369337D01*
X189795456Y-102384987D01*
X189802692Y-102400226D01*
X189810629Y-102415034D01*
X189819243Y-102429391D01*
X189828513Y-102443276D01*
X189838416Y-102456669D01*
X189848928Y-102469550D01*
X189860028Y-102481898D01*
X189871693Y-102493692D01*
X189883900Y-102504913D01*
X189896627Y-102515540D01*
X189909850Y-102525552D01*
X189923548Y-102534929D01*
X189937698Y-102543651D01*
X189952277Y-102551697D01*
X189967263Y-102559047D01*
X189982632Y-102565680D01*
X189998363Y-102571576D01*
X190014433Y-102576714D01*
X190030818Y-102581074D01*
X190047497Y-102584637D01*
X190064448Y-102587380D01*
X190081646Y-102589284D01*
X190099070Y-102590329D01*
X190116697Y-102590494D01*
X190134505Y-102589758D01*
X190152188Y-102588059D01*
X190169583Y-102585500D01*
X190186670Y-102582106D01*
X190203428Y-102577898D01*
X190219837Y-102572898D01*
X190235877Y-102567131D01*
X190251526Y-102560618D01*
X190266765Y-102553382D01*
X190281573Y-102545445D01*
X190295930Y-102536831D01*
X190309816Y-102527561D01*
X190323209Y-102517658D01*
X190336090Y-102507146D01*
X190348438Y-102496046D01*
X190360232Y-102484381D01*
X190371453Y-102472174D01*
X190382080Y-102459447D01*
X190392092Y-102446224D01*
X190401469Y-102432526D01*
X190410190Y-102418376D01*
X190418236Y-102403797D01*
X190425586Y-102388811D01*
X190432219Y-102373441D01*
X190438115Y-102357711D01*
X190443253Y-102341641D01*
X190447614Y-102325255D01*
X190451176Y-102308576D01*
X190453920Y-102291625D01*
X190455824Y-102274427D01*
X190456869Y-102257003D01*
X190457034Y-102239375D01*
X190456298Y-102221567D01*
X190087359Y-96659048D01*
X192315212Y-94431196D01*
X192975260Y-104373838D01*
D11*
X135509001Y-78867000D02*
G75*
G03*
X135509001Y-78867000I-1J0D01*
G01*
D12*
X151646957Y-93251298D02*
G75*
G03*
X151646957Y-93251298I-3500000J0D01*
G01*
D13*
X125630000Y-73570000D02*
G75*
G03*
X125630000Y-73570000I-12000000J0D01*
G01*
D11*
X131699001Y-86614000D02*
G75*
G03*
X131699001Y-86614000I-1J0D01*
G01*
D12*
X151621536Y-76174492D02*
G75*
G03*
X151621536Y-76174492I-3500000J0D01*
G01*
D10*
G36*
X213346222Y-79955773D02*
G01*
X216937575Y-80194496D01*
X214033959Y-83098113D01*
X213906740Y-81179332D01*
X213905596Y-81167080D01*
X213903858Y-81155032D01*
X213901542Y-81143199D01*
X213898663Y-81131598D01*
X213895237Y-81120240D01*
X213891280Y-81109142D01*
X213886807Y-81098315D01*
X213881834Y-81087775D01*
X213876376Y-81077536D01*
X213870450Y-81067610D01*
X213864070Y-81058013D01*
X213857252Y-81048758D01*
X213850013Y-81039860D01*
X213842367Y-81031332D01*
X213834330Y-81023188D01*
X213825918Y-81015442D01*
X213817146Y-81008108D01*
X213808031Y-81001201D01*
X213798587Y-80994733D01*
X213788830Y-80988720D01*
X213778777Y-80983175D01*
X213768442Y-80978112D01*
X213757841Y-80973545D01*
X213746990Y-80969488D01*
X213735904Y-80965955D01*
X213724600Y-80962960D01*
X213713092Y-80960517D01*
X213701396Y-80958639D01*
X213689528Y-80957342D01*
X213677504Y-80956638D01*
X213665339Y-80956543D01*
X213653049Y-80957069D01*
X213640797Y-80958213D01*
X213628748Y-80959951D01*
X213616916Y-80962268D01*
X213605314Y-80965147D01*
X213593956Y-80968573D01*
X213582857Y-80972530D01*
X213572031Y-80977003D01*
X213561490Y-80981976D01*
X213551251Y-80987434D01*
X213541325Y-80993361D01*
X213531728Y-80999740D01*
X213522474Y-81006558D01*
X213513575Y-81013798D01*
X213505047Y-81021444D01*
X213496903Y-81029480D01*
X213489157Y-81037892D01*
X213481824Y-81046664D01*
X213474916Y-81055779D01*
X213468449Y-81065223D01*
X213462436Y-81074980D01*
X213456891Y-81085033D01*
X213451828Y-81095368D01*
X213447261Y-81105969D01*
X213443205Y-81116820D01*
X213439672Y-81127906D01*
X213436677Y-81139211D01*
X213434234Y-81150719D01*
X213432357Y-81162415D01*
X213431060Y-81174283D01*
X213430357Y-81186307D01*
X213430261Y-81198472D01*
X213430788Y-81210763D01*
X213585695Y-83544882D01*
X212015646Y-85114932D01*
X211776921Y-81525073D01*
X208147402Y-81284100D01*
X211086938Y-78344564D01*
X211217150Y-80302261D01*
X211218294Y-80314513D01*
X211220032Y-80326561D01*
X211222349Y-80338394D01*
X211225228Y-80349995D01*
X211228654Y-80361353D01*
X211232611Y-80372452D01*
X211237084Y-80383278D01*
X211242057Y-80393818D01*
X211247515Y-80404058D01*
X211253441Y-80413983D01*
X211259821Y-80423580D01*
X211266639Y-80432835D01*
X211273878Y-80441734D01*
X211281524Y-80450262D01*
X211289561Y-80458406D01*
X211297973Y-80466152D01*
X211306745Y-80473485D01*
X211315860Y-80480393D01*
X211325304Y-80486860D01*
X211335060Y-80492873D01*
X211345114Y-80498418D01*
X211355449Y-80503481D01*
X211366050Y-80508048D01*
X211376901Y-80512105D01*
X211387986Y-80515639D01*
X211399291Y-80518634D01*
X211410799Y-80521077D01*
X211422494Y-80522954D01*
X211434362Y-80524251D01*
X211446386Y-80524955D01*
X211458551Y-80525051D01*
X211470842Y-80524524D01*
X211483093Y-80523380D01*
X211495142Y-80521642D01*
X211506975Y-80519326D01*
X211518576Y-80516447D01*
X211529934Y-80513021D01*
X211541033Y-80509063D01*
X211551860Y-80504590D01*
X211562400Y-80499617D01*
X211572639Y-80494159D01*
X211582565Y-80488233D01*
X211592162Y-80481853D01*
X211601417Y-80475035D01*
X211610315Y-80467795D01*
X211618843Y-80460149D01*
X211626987Y-80452113D01*
X211634733Y-80443701D01*
X211642067Y-80434929D01*
X211648974Y-80425814D01*
X211655441Y-80416370D01*
X211661455Y-80406613D01*
X211667000Y-80396560D01*
X211672063Y-80386225D01*
X211676630Y-80375624D01*
X211680687Y-80364773D01*
X211684220Y-80353687D01*
X211687215Y-80342382D01*
X211689658Y-80330874D01*
X211691535Y-80319179D01*
X211692832Y-80307311D01*
X211693535Y-80295286D01*
X211693631Y-80283121D01*
X211693105Y-80270831D01*
X211535951Y-77897049D01*
X213106000Y-76327000D01*
X213346222Y-79955773D01*
G37*
X213346222Y-79955773D02*
X216937575Y-80194496D01*
X214033959Y-83098113D01*
X213906740Y-81179332D01*
X213905596Y-81167080D01*
X213903858Y-81155032D01*
X213901542Y-81143199D01*
X213898663Y-81131598D01*
X213895237Y-81120240D01*
X213891280Y-81109142D01*
X213886807Y-81098315D01*
X213881834Y-81087775D01*
X213876376Y-81077536D01*
X213870450Y-81067610D01*
X213864070Y-81058013D01*
X213857252Y-81048758D01*
X213850013Y-81039860D01*
X213842367Y-81031332D01*
X213834330Y-81023188D01*
X213825918Y-81015442D01*
X213817146Y-81008108D01*
X213808031Y-81001201D01*
X213798587Y-80994733D01*
X213788830Y-80988720D01*
X213778777Y-80983175D01*
X213768442Y-80978112D01*
X213757841Y-80973545D01*
X213746990Y-80969488D01*
X213735904Y-80965955D01*
X213724600Y-80962960D01*
X213713092Y-80960517D01*
X213701396Y-80958639D01*
X213689528Y-80957342D01*
X213677504Y-80956638D01*
X213665339Y-80956543D01*
X213653049Y-80957069D01*
X213640797Y-80958213D01*
X213628748Y-80959951D01*
X213616916Y-80962268D01*
X213605314Y-80965147D01*
X213593956Y-80968573D01*
X213582857Y-80972530D01*
X213572031Y-80977003D01*
X213561490Y-80981976D01*
X213551251Y-80987434D01*
X213541325Y-80993361D01*
X213531728Y-80999740D01*
X213522474Y-81006558D01*
X213513575Y-81013798D01*
X213505047Y-81021444D01*
X213496903Y-81029480D01*
X213489157Y-81037892D01*
X213481824Y-81046664D01*
X213474916Y-81055779D01*
X213468449Y-81065223D01*
X213462436Y-81074980D01*
X213456891Y-81085033D01*
X213451828Y-81095368D01*
X213447261Y-81105969D01*
X213443205Y-81116820D01*
X213439672Y-81127906D01*
X213436677Y-81139211D01*
X213434234Y-81150719D01*
X213432357Y-81162415D01*
X213431060Y-81174283D01*
X213430357Y-81186307D01*
X213430261Y-81198472D01*
X213430788Y-81210763D01*
X213585695Y-83544882D01*
X212015646Y-85114932D01*
X211776921Y-81525073D01*
X208147402Y-81284100D01*
X211086938Y-78344564D01*
X211217150Y-80302261D01*
X211218294Y-80314513D01*
X211220032Y-80326561D01*
X211222349Y-80338394D01*
X211225228Y-80349995D01*
X211228654Y-80361353D01*
X211232611Y-80372452D01*
X211237084Y-80383278D01*
X211242057Y-80393818D01*
X211247515Y-80404058D01*
X211253441Y-80413983D01*
X211259821Y-80423580D01*
X211266639Y-80432835D01*
X211273878Y-80441734D01*
X211281524Y-80450262D01*
X211289561Y-80458406D01*
X211297973Y-80466152D01*
X211306745Y-80473485D01*
X211315860Y-80480393D01*
X211325304Y-80486860D01*
X211335060Y-80492873D01*
X211345114Y-80498418D01*
X211355449Y-80503481D01*
X211366050Y-80508048D01*
X211376901Y-80512105D01*
X211387986Y-80515639D01*
X211399291Y-80518634D01*
X211410799Y-80521077D01*
X211422494Y-80522954D01*
X211434362Y-80524251D01*
X211446386Y-80524955D01*
X211458551Y-80525051D01*
X211470842Y-80524524D01*
X211483093Y-80523380D01*
X211495142Y-80521642D01*
X211506975Y-80519326D01*
X211518576Y-80516447D01*
X211529934Y-80513021D01*
X211541033Y-80509063D01*
X211551860Y-80504590D01*
X211562400Y-80499617D01*
X211572639Y-80494159D01*
X211582565Y-80488233D01*
X211592162Y-80481853D01*
X211601417Y-80475035D01*
X211610315Y-80467795D01*
X211618843Y-80460149D01*
X211626987Y-80452113D01*
X211634733Y-80443701D01*
X211642067Y-80434929D01*
X211648974Y-80425814D01*
X211655441Y-80416370D01*
X211661455Y-80406613D01*
X211667000Y-80396560D01*
X211672063Y-80386225D01*
X211676630Y-80375624D01*
X211680687Y-80364773D01*
X211684220Y-80353687D01*
X211687215Y-80342382D01*
X211689658Y-80330874D01*
X211691535Y-80319179D01*
X211692832Y-80307311D01*
X211693535Y-80295286D01*
X211693631Y-80283121D01*
X211693105Y-80270831D01*
X211535951Y-77897049D01*
X213106000Y-76327000D01*
X213346222Y-79955773D01*
D11*
X127635000Y-77978000D02*
G75*
G03*
X127635000Y-77978000I-1J0D01*
G01*
X135128001Y-86614000D02*
G75*
G03*
X135128001Y-86614000I-1J0D01*
G01*
D10*
G36*
X192792366Y-97296350D02*
G01*
X192808601Y-97161005D01*
X192831330Y-97026416D01*
X192860554Y-96892835D01*
X192896271Y-96760512D01*
X192938482Y-96629701D01*
X192987187Y-96500653D01*
X193042386Y-96373620D01*
X193104079Y-96248854D01*
X193172267Y-96126606D01*
X193246948Y-96007128D01*
X193328123Y-95890673D01*
X193415793Y-95777492D01*
X193509956Y-95667837D01*
X193610613Y-95561960D01*
X193719769Y-95458354D01*
X193832927Y-95361655D01*
X193949813Y-95271863D01*
X194070150Y-95188975D01*
X194193661Y-95112989D01*
X194320071Y-95043902D01*
X194449103Y-94981713D01*
X194580481Y-94926419D01*
X194713928Y-94878018D01*
X194849169Y-94836508D01*
X194985927Y-94801887D01*
X195123926Y-94774152D01*
X195262890Y-94753302D01*
X195402542Y-94739333D01*
X195542607Y-94732245D01*
X195682807Y-94732034D01*
X195824245Y-96868589D01*
X195914797Y-98234333D01*
X195929600Y-98227440D01*
X195944259Y-98220227D01*
X195958771Y-98212693D01*
X195973133Y-98204832D01*
X195987342Y-98196643D01*
X196001394Y-98188121D01*
X196015286Y-98179264D01*
X196029015Y-98170069D01*
X196042576Y-98160531D01*
X196055968Y-98150648D01*
X196069187Y-98140416D01*
X196082229Y-98129833D01*
X196095092Y-98118894D01*
X196107771Y-98107597D01*
X196120264Y-98095938D01*
X196132568Y-98083914D01*
X196159578Y-98055425D01*
X196184764Y-98025854D01*
X196208123Y-97995276D01*
X196229655Y-97963768D01*
X196249359Y-97931405D01*
X196267232Y-97898262D01*
X196283276Y-97864416D01*
X196297487Y-97829941D01*
X196309865Y-97794914D01*
X196320409Y-97759410D01*
X196329119Y-97723505D01*
X196335991Y-97687274D01*
X196341027Y-97650793D01*
X196344224Y-97614138D01*
X196345582Y-97577385D01*
X196345099Y-97540608D01*
X196345288Y-97540422D01*
X196345475Y-97540235D01*
X196345849Y-97539858D01*
X196335372Y-97387197D01*
X196163999Y-94783672D01*
X196263895Y-94805131D01*
X196363139Y-94830220D01*
X196461622Y-94858937D01*
X196559235Y-94891282D01*
X196655871Y-94927253D01*
X196751420Y-94966850D01*
X196845775Y-95010070D01*
X196938826Y-95056914D01*
X197030465Y-95107380D01*
X197120584Y-95161466D01*
X197209074Y-95219172D01*
X197295826Y-95280497D01*
X197380733Y-95345439D01*
X197463685Y-95413998D01*
X197544573Y-95486172D01*
X197623290Y-95561960D01*
X197723947Y-95667837D01*
X197818111Y-95777492D01*
X197905780Y-95890673D01*
X197986955Y-96007128D01*
X198061636Y-96126606D01*
X198129823Y-96248854D01*
X198191517Y-96373620D01*
X198246716Y-96500653D01*
X198295421Y-96629701D01*
X198337632Y-96760512D01*
X198373349Y-96892835D01*
X198402572Y-97026416D01*
X198425301Y-97161005D01*
X198441536Y-97296350D01*
X198451277Y-97432198D01*
X198454524Y-97568298D01*
X198451277Y-97704398D01*
X198441536Y-97840247D01*
X198425301Y-97975591D01*
X198402572Y-98110180D01*
X198373349Y-98243762D01*
X198337632Y-98376084D01*
X198295421Y-98506895D01*
X198246716Y-98635943D01*
X198191517Y-98762976D01*
X198129823Y-98887743D01*
X198061636Y-99009991D01*
X197986955Y-99129468D01*
X197905780Y-99245923D01*
X197818111Y-99359104D01*
X197723947Y-99468759D01*
X197623290Y-99574636D01*
X197517413Y-99675294D01*
X197407758Y-99769457D01*
X197294577Y-99857126D01*
X197178122Y-99938301D01*
X197058644Y-100012983D01*
X196936397Y-100081170D01*
X196811630Y-100142863D01*
X196684597Y-100198062D01*
X196555549Y-100246767D01*
X196424738Y-100288979D01*
X196292415Y-100324696D01*
X196158834Y-100353919D01*
X196024245Y-100376648D01*
X195888900Y-100392883D01*
X195753052Y-100402624D01*
X195616952Y-100405871D01*
X195480852Y-100402624D01*
X195345003Y-100392883D01*
X195209659Y-100376648D01*
X195075070Y-100353919D01*
X194941488Y-100324696D01*
X194809166Y-100288979D01*
X194678355Y-100246767D01*
X194549307Y-100198062D01*
X194422273Y-100142863D01*
X194297507Y-100081170D01*
X194175259Y-100012983D01*
X194055782Y-99938301D01*
X193939326Y-99857126D01*
X193826145Y-99769457D01*
X193716490Y-99675294D01*
X193610613Y-99574636D01*
X193509956Y-99468759D01*
X193415792Y-99359104D01*
X193328123Y-99245923D01*
X193246948Y-99129468D01*
X193172266Y-99009991D01*
X193104079Y-98887743D01*
X193042386Y-98762976D01*
X192987187Y-98635943D01*
X192938482Y-98506895D01*
X192896270Y-98376084D01*
X192860553Y-98243762D01*
X192831330Y-98110180D01*
X192808601Y-97975591D01*
X192792366Y-97840247D01*
X192782625Y-97704398D01*
X192779378Y-97568298D01*
X192779396Y-97567550D01*
X194885996Y-97567550D01*
X194886831Y-97602583D01*
X194889337Y-97637551D01*
X194893514Y-97672390D01*
X194899361Y-97707033D01*
X194906879Y-97741417D01*
X194916068Y-97775476D01*
X194926927Y-97809145D01*
X194939457Y-97842359D01*
X194953657Y-97875054D01*
X194969528Y-97907165D01*
X194987070Y-97938625D01*
X195006282Y-97969372D01*
X195027165Y-97999339D01*
X195049719Y-98028461D01*
X195073943Y-98056675D01*
X195099838Y-98083914D01*
X195118313Y-98101760D01*
X195137243Y-98118819D01*
X195156609Y-98135091D01*
X195176393Y-98150576D01*
X195196576Y-98165277D01*
X195217139Y-98179194D01*
X195238064Y-98192328D01*
X195259332Y-98204681D01*
X195280924Y-98216253D01*
X195302823Y-98227045D01*
X195325008Y-98237059D01*
X195347462Y-98246296D01*
X195370166Y-98254757D01*
X195393101Y-98262443D01*
X195416249Y-98269354D01*
X195439592Y-98275493D01*
X195347544Y-96888794D01*
X195330638Y-96895616D01*
X195313880Y-96902892D01*
X195297280Y-96910620D01*
X195280847Y-96918797D01*
X195264589Y-96927422D01*
X195248515Y-96936492D01*
X195232635Y-96946005D01*
X195216956Y-96955958D01*
X195201487Y-96966350D01*
X195186238Y-96977178D01*
X195171217Y-96988440D01*
X195156432Y-97000135D01*
X195141894Y-97012258D01*
X195127609Y-97024810D01*
X195113588Y-97037787D01*
X195099838Y-97051186D01*
X195073943Y-97078425D01*
X195049719Y-97106639D01*
X195027165Y-97135761D01*
X195006282Y-97165728D01*
X194987070Y-97196475D01*
X194969528Y-97227935D01*
X194953657Y-97260046D01*
X194939456Y-97292741D01*
X194926927Y-97325955D01*
X194916068Y-97359624D01*
X194906879Y-97393683D01*
X194899361Y-97428067D01*
X194893514Y-97462710D01*
X194889337Y-97497549D01*
X194886831Y-97532517D01*
X194885996Y-97567550D01*
X192779396Y-97567550D01*
X192782625Y-97432198D01*
X192792366Y-97296350D01*
G37*
X192792366Y-97296350D02*
X192808601Y-97161005D01*
X192831330Y-97026416D01*
X192860554Y-96892835D01*
X192896271Y-96760512D01*
X192938482Y-96629701D01*
X192987187Y-96500653D01*
X193042386Y-96373620D01*
X193104079Y-96248854D01*
X193172267Y-96126606D01*
X193246948Y-96007128D01*
X193328123Y-95890673D01*
X193415793Y-95777492D01*
X193509956Y-95667837D01*
X193610613Y-95561960D01*
X193719769Y-95458354D01*
X193832927Y-95361655D01*
X193949813Y-95271863D01*
X194070150Y-95188975D01*
X194193661Y-95112989D01*
X194320071Y-95043902D01*
X194449103Y-94981713D01*
X194580481Y-94926419D01*
X194713928Y-94878018D01*
X194849169Y-94836508D01*
X194985927Y-94801887D01*
X195123926Y-94774152D01*
X195262890Y-94753302D01*
X195402542Y-94739333D01*
X195542607Y-94732245D01*
X195682807Y-94732034D01*
X195824245Y-96868589D01*
X195914797Y-98234333D01*
X195929600Y-98227440D01*
X195944259Y-98220227D01*
X195958771Y-98212693D01*
X195973133Y-98204832D01*
X195987342Y-98196643D01*
X196001394Y-98188121D01*
X196015286Y-98179264D01*
X196029015Y-98170069D01*
X196042576Y-98160531D01*
X196055968Y-98150648D01*
X196069187Y-98140416D01*
X196082229Y-98129833D01*
X196095092Y-98118894D01*
X196107771Y-98107597D01*
X196120264Y-98095938D01*
X196132568Y-98083914D01*
X196159578Y-98055425D01*
X196184764Y-98025854D01*
X196208123Y-97995276D01*
X196229655Y-97963768D01*
X196249359Y-97931405D01*
X196267232Y-97898262D01*
X196283276Y-97864416D01*
X196297487Y-97829941D01*
X196309865Y-97794914D01*
X196320409Y-97759410D01*
X196329119Y-97723505D01*
X196335991Y-97687274D01*
X196341027Y-97650793D01*
X196344224Y-97614138D01*
X196345582Y-97577385D01*
X196345099Y-97540608D01*
X196345288Y-97540422D01*
X196345475Y-97540235D01*
X196345849Y-97539858D01*
X196335372Y-97387197D01*
X196163999Y-94783672D01*
X196263895Y-94805131D01*
X196363139Y-94830220D01*
X196461622Y-94858937D01*
X196559235Y-94891282D01*
X196655871Y-94927253D01*
X196751420Y-94966850D01*
X196845775Y-95010070D01*
X196938826Y-95056914D01*
X197030465Y-95107380D01*
X197120584Y-95161466D01*
X197209074Y-95219172D01*
X197295826Y-95280497D01*
X197380733Y-95345439D01*
X197463685Y-95413998D01*
X197544573Y-95486172D01*
X197623290Y-95561960D01*
X197723947Y-95667837D01*
X197818111Y-95777492D01*
X197905780Y-95890673D01*
X197986955Y-96007128D01*
X198061636Y-96126606D01*
X198129823Y-96248854D01*
X198191517Y-96373620D01*
X198246716Y-96500653D01*
X198295421Y-96629701D01*
X198337632Y-96760512D01*
X198373349Y-96892835D01*
X198402572Y-97026416D01*
X198425301Y-97161005D01*
X198441536Y-97296350D01*
X198451277Y-97432198D01*
X198454524Y-97568298D01*
X198451277Y-97704398D01*
X198441536Y-97840247D01*
X198425301Y-97975591D01*
X198402572Y-98110180D01*
X198373349Y-98243762D01*
X198337632Y-98376084D01*
X198295421Y-98506895D01*
X198246716Y-98635943D01*
X198191517Y-98762976D01*
X198129823Y-98887743D01*
X198061636Y-99009991D01*
X197986955Y-99129468D01*
X197905780Y-99245923D01*
X197818111Y-99359104D01*
X197723947Y-99468759D01*
X197623290Y-99574636D01*
X197517413Y-99675294D01*
X197407758Y-99769457D01*
X197294577Y-99857126D01*
X197178122Y-99938301D01*
X197058644Y-100012983D01*
X196936397Y-100081170D01*
X196811630Y-100142863D01*
X196684597Y-100198062D01*
X196555549Y-100246767D01*
X196424738Y-100288979D01*
X196292415Y-100324696D01*
X196158834Y-100353919D01*
X196024245Y-100376648D01*
X195888900Y-100392883D01*
X195753052Y-100402624D01*
X195616952Y-100405871D01*
X195480852Y-100402624D01*
X195345003Y-100392883D01*
X195209659Y-100376648D01*
X195075070Y-100353919D01*
X194941488Y-100324696D01*
X194809166Y-100288979D01*
X194678355Y-100246767D01*
X194549307Y-100198062D01*
X194422273Y-100142863D01*
X194297507Y-100081170D01*
X194175259Y-100012983D01*
X194055782Y-99938301D01*
X193939326Y-99857126D01*
X193826145Y-99769457D01*
X193716490Y-99675294D01*
X193610613Y-99574636D01*
X193509956Y-99468759D01*
X193415792Y-99359104D01*
X193328123Y-99245923D01*
X193246948Y-99129468D01*
X193172266Y-99009991D01*
X193104079Y-98887743D01*
X193042386Y-98762976D01*
X192987187Y-98635943D01*
X192938482Y-98506895D01*
X192896270Y-98376084D01*
X192860553Y-98243762D01*
X192831330Y-98110180D01*
X192808601Y-97975591D01*
X192792366Y-97840247D01*
X192782625Y-97704398D01*
X192779378Y-97568298D01*
X192779396Y-97567550D01*
X194885996Y-97567550D01*
X194886831Y-97602583D01*
X194889337Y-97637551D01*
X194893514Y-97672390D01*
X194899361Y-97707033D01*
X194906879Y-97741417D01*
X194916068Y-97775476D01*
X194926927Y-97809145D01*
X194939457Y-97842359D01*
X194953657Y-97875054D01*
X194969528Y-97907165D01*
X194987070Y-97938625D01*
X195006282Y-97969372D01*
X195027165Y-97999339D01*
X195049719Y-98028461D01*
X195073943Y-98056675D01*
X195099838Y-98083914D01*
X195118313Y-98101760D01*
X195137243Y-98118819D01*
X195156609Y-98135091D01*
X195176393Y-98150576D01*
X195196576Y-98165277D01*
X195217139Y-98179194D01*
X195238064Y-98192328D01*
X195259332Y-98204681D01*
X195280924Y-98216253D01*
X195302823Y-98227045D01*
X195325008Y-98237059D01*
X195347462Y-98246296D01*
X195370166Y-98254757D01*
X195393101Y-98262443D01*
X195416249Y-98269354D01*
X195439592Y-98275493D01*
X195347544Y-96888794D01*
X195330638Y-96895616D01*
X195313880Y-96902892D01*
X195297280Y-96910620D01*
X195280847Y-96918797D01*
X195264589Y-96927422D01*
X195248515Y-96936492D01*
X195232635Y-96946005D01*
X195216956Y-96955958D01*
X195201487Y-96966350D01*
X195186238Y-96977178D01*
X195171217Y-96988440D01*
X195156432Y-97000135D01*
X195141894Y-97012258D01*
X195127609Y-97024810D01*
X195113588Y-97037787D01*
X195099838Y-97051186D01*
X195073943Y-97078425D01*
X195049719Y-97106639D01*
X195027165Y-97135761D01*
X195006282Y-97165728D01*
X194987070Y-97196475D01*
X194969528Y-97227935D01*
X194953657Y-97260046D01*
X194939456Y-97292741D01*
X194926927Y-97325955D01*
X194916068Y-97359624D01*
X194906879Y-97393683D01*
X194899361Y-97428067D01*
X194893514Y-97462710D01*
X194889337Y-97497549D01*
X194886831Y-97532517D01*
X194885996Y-97567550D01*
X192779396Y-97567550D01*
X192782625Y-97432198D01*
X192792366Y-97296350D01*
D14*
X156928858Y-95571071D02*
X157428858Y-97071071D01*
X157428858Y-97071071D02*
X157928858Y-95571071D01*
X159000286Y-96999642D02*
X158857429Y-97071071D01*
X158857429Y-97071071D02*
X158571715Y-97071071D01*
X158571715Y-97071071D02*
X158428857Y-96999642D01*
X158428857Y-96999642D02*
X158357429Y-96856785D01*
X158357429Y-96856785D02*
X158357429Y-96285357D01*
X158357429Y-96285357D02*
X158428857Y-96142500D01*
X158428857Y-96142500D02*
X158571715Y-96071071D01*
X158571715Y-96071071D02*
X158857429Y-96071071D01*
X158857429Y-96071071D02*
X159000286Y-96142500D01*
X159000286Y-96142500D02*
X159071715Y-96285357D01*
X159071715Y-96285357D02*
X159071715Y-96428214D01*
X159071715Y-96428214D02*
X158357429Y-96571071D01*
X159714571Y-97071071D02*
X159714571Y-96071071D01*
X159714571Y-96356785D02*
X159786000Y-96213928D01*
X159786000Y-96213928D02*
X159857429Y-96142500D01*
X159857429Y-96142500D02*
X160000286Y-96071071D01*
X160000286Y-96071071D02*
X160143143Y-96071071D01*
X160428857Y-96071071D02*
X161000285Y-96071071D01*
X160643142Y-95571071D02*
X160643142Y-96856785D01*
X160643142Y-96856785D02*
X160714571Y-96999642D01*
X160714571Y-96999642D02*
X160857428Y-97071071D01*
X160857428Y-97071071D02*
X161000285Y-97071071D01*
X161500285Y-97071071D02*
X161500285Y-96071071D01*
X161500285Y-95571071D02*
X161428857Y-95642500D01*
X161428857Y-95642500D02*
X161500285Y-95713928D01*
X161500285Y-95713928D02*
X161571714Y-95642500D01*
X161571714Y-95642500D02*
X161500285Y-95571071D01*
X161500285Y-95571071D02*
X161500285Y-95713928D01*
X162857429Y-96999642D02*
X162714571Y-97071071D01*
X162714571Y-97071071D02*
X162428857Y-97071071D01*
X162428857Y-97071071D02*
X162286000Y-96999642D01*
X162286000Y-96999642D02*
X162214571Y-96928214D01*
X162214571Y-96928214D02*
X162143143Y-96785357D01*
X162143143Y-96785357D02*
X162143143Y-96356785D01*
X162143143Y-96356785D02*
X162214571Y-96213928D01*
X162214571Y-96213928D02*
X162286000Y-96142500D01*
X162286000Y-96142500D02*
X162428857Y-96071071D01*
X162428857Y-96071071D02*
X162714571Y-96071071D01*
X162714571Y-96071071D02*
X162857429Y-96142500D01*
X164143143Y-97071071D02*
X164143143Y-96285357D01*
X164143143Y-96285357D02*
X164071714Y-96142500D01*
X164071714Y-96142500D02*
X163928857Y-96071071D01*
X163928857Y-96071071D02*
X163643143Y-96071071D01*
X163643143Y-96071071D02*
X163500285Y-96142500D01*
X164143143Y-96999642D02*
X164000285Y-97071071D01*
X164000285Y-97071071D02*
X163643143Y-97071071D01*
X163643143Y-97071071D02*
X163500285Y-96999642D01*
X163500285Y-96999642D02*
X163428857Y-96856785D01*
X163428857Y-96856785D02*
X163428857Y-96713928D01*
X163428857Y-96713928D02*
X163500285Y-96571071D01*
X163500285Y-96571071D02*
X163643143Y-96499642D01*
X163643143Y-96499642D02*
X164000285Y-96499642D01*
X164000285Y-96499642D02*
X164143143Y-96428214D01*
X165071714Y-97071071D02*
X164928857Y-96999642D01*
X164928857Y-96999642D02*
X164857428Y-96856785D01*
X164857428Y-96856785D02*
X164857428Y-95571071D01*
X106639601Y-66084185D02*
X106639601Y-66798471D01*
X106139601Y-65298471D02*
X106639601Y-66084185D01*
X106639601Y-66084185D02*
X107139601Y-65298471D01*
X108211029Y-66727042D02*
X108068172Y-66798471D01*
X108068172Y-66798471D02*
X107782458Y-66798471D01*
X107782458Y-66798471D02*
X107639600Y-66727042D01*
X107639600Y-66727042D02*
X107568172Y-66584185D01*
X107568172Y-66584185D02*
X107568172Y-66012757D01*
X107568172Y-66012757D02*
X107639600Y-65869900D01*
X107639600Y-65869900D02*
X107782458Y-65798471D01*
X107782458Y-65798471D02*
X108068172Y-65798471D01*
X108068172Y-65798471D02*
X108211029Y-65869900D01*
X108211029Y-65869900D02*
X108282458Y-66012757D01*
X108282458Y-66012757D02*
X108282458Y-66155614D01*
X108282458Y-66155614D02*
X107568172Y-66298471D01*
X109139600Y-66798471D02*
X108996743Y-66727042D01*
X108996743Y-66727042D02*
X108925314Y-66584185D01*
X108925314Y-66584185D02*
X108925314Y-65298471D01*
X109925314Y-66798471D02*
X109782457Y-66727042D01*
X109782457Y-66727042D02*
X109711028Y-66584185D01*
X109711028Y-66584185D02*
X109711028Y-65298471D01*
X110711028Y-66798471D02*
X110568171Y-66727042D01*
X110568171Y-66727042D02*
X110496742Y-66655614D01*
X110496742Y-66655614D02*
X110425314Y-66512757D01*
X110425314Y-66512757D02*
X110425314Y-66084185D01*
X110425314Y-66084185D02*
X110496742Y-65941328D01*
X110496742Y-65941328D02*
X110568171Y-65869900D01*
X110568171Y-65869900D02*
X110711028Y-65798471D01*
X110711028Y-65798471D02*
X110925314Y-65798471D01*
X110925314Y-65798471D02*
X111068171Y-65869900D01*
X111068171Y-65869900D02*
X111139600Y-65941328D01*
X111139600Y-65941328D02*
X111211028Y-66084185D01*
X111211028Y-66084185D02*
X111211028Y-66512757D01*
X111211028Y-66512757D02*
X111139600Y-66655614D01*
X111139600Y-66655614D02*
X111068171Y-66727042D01*
X111068171Y-66727042D02*
X110925314Y-66798471D01*
X110925314Y-66798471D02*
X110711028Y-66798471D01*
X111711028Y-65798471D02*
X111996743Y-66798471D01*
X111996743Y-66798471D02*
X112282457Y-66084185D01*
X112282457Y-66084185D02*
X112568171Y-66798471D01*
X112568171Y-66798471D02*
X112853885Y-65798471D01*
X114639600Y-66798471D02*
X114568172Y-66798471D01*
X114568172Y-66798471D02*
X114425314Y-66727042D01*
X114425314Y-66727042D02*
X114211029Y-66512757D01*
X114211029Y-66512757D02*
X113853886Y-66084185D01*
X113853886Y-66084185D02*
X113711029Y-65869900D01*
X113711029Y-65869900D02*
X113639600Y-65655614D01*
X113639600Y-65655614D02*
X113639600Y-65512757D01*
X113639600Y-65512757D02*
X113711029Y-65369900D01*
X113711029Y-65369900D02*
X113853886Y-65298471D01*
X113853886Y-65298471D02*
X113925314Y-65298471D01*
X113925314Y-65298471D02*
X114068172Y-65369900D01*
X114068172Y-65369900D02*
X114139600Y-65512757D01*
X114139600Y-65512757D02*
X114139600Y-65584185D01*
X114139600Y-65584185D02*
X114068172Y-65727042D01*
X114068172Y-65727042D02*
X113996743Y-65798471D01*
X113996743Y-65798471D02*
X113568172Y-66084185D01*
X113568172Y-66084185D02*
X113496743Y-66155614D01*
X113496743Y-66155614D02*
X113425314Y-66298471D01*
X113425314Y-66298471D02*
X113425314Y-66512757D01*
X113425314Y-66512757D02*
X113496743Y-66655614D01*
X113496743Y-66655614D02*
X113568172Y-66727042D01*
X113568172Y-66727042D02*
X113711029Y-66798471D01*
X113711029Y-66798471D02*
X113925314Y-66798471D01*
X113925314Y-66798471D02*
X114068172Y-66727042D01*
X114068172Y-66727042D02*
X114139600Y-66655614D01*
X114139600Y-66655614D02*
X114353886Y-66369900D01*
X114353886Y-66369900D02*
X114425314Y-66155614D01*
X114425314Y-66155614D02*
X114425314Y-66012757D01*
X116068172Y-65369900D02*
X115925315Y-65298471D01*
X115925315Y-65298471D02*
X115711029Y-65298471D01*
X115711029Y-65298471D02*
X115496743Y-65369900D01*
X115496743Y-65369900D02*
X115353886Y-65512757D01*
X115353886Y-65512757D02*
X115282457Y-65655614D01*
X115282457Y-65655614D02*
X115211029Y-65941328D01*
X115211029Y-65941328D02*
X115211029Y-66155614D01*
X115211029Y-66155614D02*
X115282457Y-66441328D01*
X115282457Y-66441328D02*
X115353886Y-66584185D01*
X115353886Y-66584185D02*
X115496743Y-66727042D01*
X115496743Y-66727042D02*
X115711029Y-66798471D01*
X115711029Y-66798471D02*
X115853886Y-66798471D01*
X115853886Y-66798471D02*
X116068172Y-66727042D01*
X116068172Y-66727042D02*
X116139600Y-66655614D01*
X116139600Y-66655614D02*
X116139600Y-66155614D01*
X116139600Y-66155614D02*
X115853886Y-66155614D01*
X116782457Y-66798471D02*
X116782457Y-65798471D01*
X116782457Y-66084185D02*
X116853886Y-65941328D01*
X116853886Y-65941328D02*
X116925315Y-65869900D01*
X116925315Y-65869900D02*
X117068172Y-65798471D01*
X117068172Y-65798471D02*
X117211029Y-65798471D01*
X118282457Y-66727042D02*
X118139600Y-66798471D01*
X118139600Y-66798471D02*
X117853886Y-66798471D01*
X117853886Y-66798471D02*
X117711028Y-66727042D01*
X117711028Y-66727042D02*
X117639600Y-66584185D01*
X117639600Y-66584185D02*
X117639600Y-66012757D01*
X117639600Y-66012757D02*
X117711028Y-65869900D01*
X117711028Y-65869900D02*
X117853886Y-65798471D01*
X117853886Y-65798471D02*
X118139600Y-65798471D01*
X118139600Y-65798471D02*
X118282457Y-65869900D01*
X118282457Y-65869900D02*
X118353886Y-66012757D01*
X118353886Y-66012757D02*
X118353886Y-66155614D01*
X118353886Y-66155614D02*
X117639600Y-66298471D01*
X119568171Y-66727042D02*
X119425314Y-66798471D01*
X119425314Y-66798471D02*
X119139600Y-66798471D01*
X119139600Y-66798471D02*
X118996742Y-66727042D01*
X118996742Y-66727042D02*
X118925314Y-66584185D01*
X118925314Y-66584185D02*
X118925314Y-66012757D01*
X118925314Y-66012757D02*
X118996742Y-65869900D01*
X118996742Y-65869900D02*
X119139600Y-65798471D01*
X119139600Y-65798471D02*
X119425314Y-65798471D01*
X119425314Y-65798471D02*
X119568171Y-65869900D01*
X119568171Y-65869900D02*
X119639600Y-66012757D01*
X119639600Y-66012757D02*
X119639600Y-66155614D01*
X119639600Y-66155614D02*
X118925314Y-66298471D01*
X120282456Y-65798471D02*
X120282456Y-66798471D01*
X120282456Y-65941328D02*
X120353885Y-65869900D01*
X120353885Y-65869900D02*
X120496742Y-65798471D01*
X120496742Y-65798471D02*
X120711028Y-65798471D01*
X120711028Y-65798471D02*
X120853885Y-65869900D01*
X120853885Y-65869900D02*
X120925314Y-66012757D01*
X120925314Y-66012757D02*
X120925314Y-66798471D01*
X110246742Y-68442757D02*
X110461028Y-68514185D01*
X110461028Y-68514185D02*
X110532457Y-68585614D01*
X110532457Y-68585614D02*
X110603885Y-68728471D01*
X110603885Y-68728471D02*
X110603885Y-68942757D01*
X110603885Y-68942757D02*
X110532457Y-69085614D01*
X110532457Y-69085614D02*
X110461028Y-69157042D01*
X110461028Y-69157042D02*
X110318171Y-69228471D01*
X110318171Y-69228471D02*
X109746742Y-69228471D01*
X109746742Y-69228471D02*
X109746742Y-67728471D01*
X109746742Y-67728471D02*
X110246742Y-67728471D01*
X110246742Y-67728471D02*
X110389600Y-67799900D01*
X110389600Y-67799900D02*
X110461028Y-67871328D01*
X110461028Y-67871328D02*
X110532457Y-68014185D01*
X110532457Y-68014185D02*
X110532457Y-68157042D01*
X110532457Y-68157042D02*
X110461028Y-68299900D01*
X110461028Y-68299900D02*
X110389600Y-68371328D01*
X110389600Y-68371328D02*
X110246742Y-68442757D01*
X110246742Y-68442757D02*
X109746742Y-68442757D01*
X111889600Y-68228471D02*
X111889600Y-69228471D01*
X111246742Y-68228471D02*
X111246742Y-69014185D01*
X111246742Y-69014185D02*
X111318171Y-69157042D01*
X111318171Y-69157042D02*
X111461028Y-69228471D01*
X111461028Y-69228471D02*
X111675314Y-69228471D01*
X111675314Y-69228471D02*
X111818171Y-69157042D01*
X111818171Y-69157042D02*
X111889600Y-69085614D01*
X112389600Y-68228471D02*
X112961028Y-68228471D01*
X112603885Y-67728471D02*
X112603885Y-69014185D01*
X112603885Y-69014185D02*
X112675314Y-69157042D01*
X112675314Y-69157042D02*
X112818171Y-69228471D01*
X112818171Y-69228471D02*
X112961028Y-69228471D01*
X113246743Y-68228471D02*
X113818171Y-68228471D01*
X113461028Y-67728471D02*
X113461028Y-69014185D01*
X113461028Y-69014185D02*
X113532457Y-69157042D01*
X113532457Y-69157042D02*
X113675314Y-69228471D01*
X113675314Y-69228471D02*
X113818171Y-69228471D01*
X114532457Y-69228471D02*
X114389600Y-69157042D01*
X114389600Y-69157042D02*
X114318171Y-69085614D01*
X114318171Y-69085614D02*
X114246743Y-68942757D01*
X114246743Y-68942757D02*
X114246743Y-68514185D01*
X114246743Y-68514185D02*
X114318171Y-68371328D01*
X114318171Y-68371328D02*
X114389600Y-68299900D01*
X114389600Y-68299900D02*
X114532457Y-68228471D01*
X114532457Y-68228471D02*
X114746743Y-68228471D01*
X114746743Y-68228471D02*
X114889600Y-68299900D01*
X114889600Y-68299900D02*
X114961029Y-68371328D01*
X114961029Y-68371328D02*
X115032457Y-68514185D01*
X115032457Y-68514185D02*
X115032457Y-68942757D01*
X115032457Y-68942757D02*
X114961029Y-69085614D01*
X114961029Y-69085614D02*
X114889600Y-69157042D01*
X114889600Y-69157042D02*
X114746743Y-69228471D01*
X114746743Y-69228471D02*
X114532457Y-69228471D01*
X115675314Y-68228471D02*
X115675314Y-69228471D01*
X115675314Y-68371328D02*
X115746743Y-68299900D01*
X115746743Y-68299900D02*
X115889600Y-68228471D01*
X115889600Y-68228471D02*
X116103886Y-68228471D01*
X116103886Y-68228471D02*
X116246743Y-68299900D01*
X116246743Y-68299900D02*
X116318172Y-68442757D01*
X116318172Y-68442757D02*
X116318172Y-69228471D01*
X116961029Y-69157042D02*
X117103886Y-69228471D01*
X117103886Y-69228471D02*
X117389600Y-69228471D01*
X117389600Y-69228471D02*
X117532457Y-69157042D01*
X117532457Y-69157042D02*
X117603886Y-69014185D01*
X117603886Y-69014185D02*
X117603886Y-68942757D01*
X117603886Y-68942757D02*
X117532457Y-68799900D01*
X117532457Y-68799900D02*
X117389600Y-68728471D01*
X117389600Y-68728471D02*
X117175315Y-68728471D01*
X117175315Y-68728471D02*
X117032457Y-68657042D01*
X117032457Y-68657042D02*
X116961029Y-68514185D01*
X116961029Y-68514185D02*
X116961029Y-68442757D01*
X116961029Y-68442757D02*
X117032457Y-68299900D01*
X117032457Y-68299900D02*
X117175315Y-68228471D01*
X117175315Y-68228471D02*
X117389600Y-68228471D01*
X117389600Y-68228471D02*
X117532457Y-68299900D01*
D15*
X103302571Y-93698761D02*
X103302571Y-91698761D01*
X103302571Y-91698761D02*
X104064476Y-91698761D01*
X104064476Y-91698761D02*
X104254952Y-91794000D01*
X104254952Y-91794000D02*
X104350190Y-91889238D01*
X104350190Y-91889238D02*
X104445428Y-92079714D01*
X104445428Y-92079714D02*
X104445428Y-92365428D01*
X104445428Y-92365428D02*
X104350190Y-92555904D01*
X104350190Y-92555904D02*
X104254952Y-92651142D01*
X104254952Y-92651142D02*
X104064476Y-92746380D01*
X104064476Y-92746380D02*
X103302571Y-92746380D01*
X106159714Y-93698761D02*
X106159714Y-92651142D01*
X106159714Y-92651142D02*
X106064476Y-92460666D01*
X106064476Y-92460666D02*
X105874000Y-92365428D01*
X105874000Y-92365428D02*
X105493047Y-92365428D01*
X105493047Y-92365428D02*
X105302571Y-92460666D01*
X106159714Y-93603523D02*
X105969238Y-93698761D01*
X105969238Y-93698761D02*
X105493047Y-93698761D01*
X105493047Y-93698761D02*
X105302571Y-93603523D01*
X105302571Y-93603523D02*
X105207333Y-93413047D01*
X105207333Y-93413047D02*
X105207333Y-93222571D01*
X105207333Y-93222571D02*
X105302571Y-93032095D01*
X105302571Y-93032095D02*
X105493047Y-92936857D01*
X105493047Y-92936857D02*
X105969238Y-92936857D01*
X105969238Y-92936857D02*
X106159714Y-92841619D01*
X107969238Y-93698761D02*
X107969238Y-91698761D01*
X107969238Y-93603523D02*
X107778762Y-93698761D01*
X107778762Y-93698761D02*
X107397809Y-93698761D01*
X107397809Y-93698761D02*
X107207333Y-93603523D01*
X107207333Y-93603523D02*
X107112095Y-93508285D01*
X107112095Y-93508285D02*
X107016857Y-93317809D01*
X107016857Y-93317809D02*
X107016857Y-92746380D01*
X107016857Y-92746380D02*
X107112095Y-92555904D01*
X107112095Y-92555904D02*
X107207333Y-92460666D01*
X107207333Y-92460666D02*
X107397809Y-92365428D01*
X107397809Y-92365428D02*
X107778762Y-92365428D01*
X107778762Y-92365428D02*
X107969238Y-92460666D01*
X109835905Y-91698761D02*
X110502571Y-93698761D01*
X110502571Y-93698761D02*
X111169238Y-91698761D01*
X112883524Y-93698761D02*
X111740667Y-93698761D01*
X112312095Y-93698761D02*
X112312095Y-91698761D01*
X112312095Y-91698761D02*
X112121619Y-91984476D01*
X112121619Y-91984476D02*
X111931143Y-92174952D01*
X111931143Y-92174952D02*
X111740667Y-92270190D01*
X113740667Y-93508285D02*
X113835905Y-93603523D01*
X113835905Y-93603523D02*
X113740667Y-93698761D01*
X113740667Y-93698761D02*
X113645429Y-93603523D01*
X113645429Y-93603523D02*
X113740667Y-93508285D01*
X113740667Y-93508285D02*
X113740667Y-93698761D01*
X114502572Y-91698761D02*
X115740667Y-91698761D01*
X115740667Y-91698761D02*
X115074000Y-92460666D01*
X115074000Y-92460666D02*
X115359715Y-92460666D01*
X115359715Y-92460666D02*
X115550191Y-92555904D01*
X115550191Y-92555904D02*
X115645429Y-92651142D01*
X115645429Y-92651142D02*
X115740667Y-92841619D01*
X115740667Y-92841619D02*
X115740667Y-93317809D01*
X115740667Y-93317809D02*
X115645429Y-93508285D01*
X115645429Y-93508285D02*
X115550191Y-93603523D01*
X115550191Y-93603523D02*
X115359715Y-93698761D01*
X115359715Y-93698761D02*
X114788286Y-93698761D01*
X114788286Y-93698761D02*
X114597810Y-93603523D01*
X114597810Y-93603523D02*
X114502572Y-93508285D01*
X131667619Y-99349523D02*
X131953333Y-99444761D01*
X131953333Y-99444761D02*
X132429524Y-99444761D01*
X132429524Y-99444761D02*
X132620000Y-99349523D01*
X132620000Y-99349523D02*
X132715238Y-99254285D01*
X132715238Y-99254285D02*
X132810476Y-99063809D01*
X132810476Y-99063809D02*
X132810476Y-98873333D01*
X132810476Y-98873333D02*
X132715238Y-98682857D01*
X132715238Y-98682857D02*
X132620000Y-98587619D01*
X132620000Y-98587619D02*
X132429524Y-98492380D01*
X132429524Y-98492380D02*
X132048571Y-98397142D01*
X132048571Y-98397142D02*
X131858095Y-98301904D01*
X131858095Y-98301904D02*
X131762857Y-98206666D01*
X131762857Y-98206666D02*
X131667619Y-98016190D01*
X131667619Y-98016190D02*
X131667619Y-97825714D01*
X131667619Y-97825714D02*
X131762857Y-97635238D01*
X131762857Y-97635238D02*
X131858095Y-97540000D01*
X131858095Y-97540000D02*
X132048571Y-97444761D01*
X132048571Y-97444761D02*
X132524762Y-97444761D01*
X132524762Y-97444761D02*
X132810476Y-97540000D01*
X133667619Y-99444761D02*
X133667619Y-97444761D01*
X134524762Y-99444761D02*
X134524762Y-98397142D01*
X134524762Y-98397142D02*
X134429524Y-98206666D01*
X134429524Y-98206666D02*
X134239048Y-98111428D01*
X134239048Y-98111428D02*
X133953333Y-98111428D01*
X133953333Y-98111428D02*
X133762857Y-98206666D01*
X133762857Y-98206666D02*
X133667619Y-98301904D01*
X135762857Y-99444761D02*
X135572381Y-99349523D01*
X135572381Y-99349523D02*
X135477143Y-99254285D01*
X135477143Y-99254285D02*
X135381905Y-99063809D01*
X135381905Y-99063809D02*
X135381905Y-98492380D01*
X135381905Y-98492380D02*
X135477143Y-98301904D01*
X135477143Y-98301904D02*
X135572381Y-98206666D01*
X135572381Y-98206666D02*
X135762857Y-98111428D01*
X135762857Y-98111428D02*
X136048572Y-98111428D01*
X136048572Y-98111428D02*
X136239048Y-98206666D01*
X136239048Y-98206666D02*
X136334286Y-98301904D01*
X136334286Y-98301904D02*
X136429524Y-98492380D01*
X136429524Y-98492380D02*
X136429524Y-99063809D01*
X136429524Y-99063809D02*
X136334286Y-99254285D01*
X136334286Y-99254285D02*
X136239048Y-99349523D01*
X136239048Y-99349523D02*
X136048572Y-99444761D01*
X136048572Y-99444761D02*
X135762857Y-99444761D01*
X137000953Y-98111428D02*
X137762857Y-98111428D01*
X137286667Y-97444761D02*
X137286667Y-99159047D01*
X137286667Y-99159047D02*
X137381905Y-99349523D01*
X137381905Y-99349523D02*
X137572381Y-99444761D01*
X137572381Y-99444761D02*
X137762857Y-99444761D01*
X130524761Y-102589523D02*
X130810475Y-102684761D01*
X130810475Y-102684761D02*
X131286666Y-102684761D01*
X131286666Y-102684761D02*
X131477142Y-102589523D01*
X131477142Y-102589523D02*
X131572380Y-102494285D01*
X131572380Y-102494285D02*
X131667618Y-102303809D01*
X131667618Y-102303809D02*
X131667618Y-102113333D01*
X131667618Y-102113333D02*
X131572380Y-101922857D01*
X131572380Y-101922857D02*
X131477142Y-101827619D01*
X131477142Y-101827619D02*
X131286666Y-101732380D01*
X131286666Y-101732380D02*
X130905713Y-101637142D01*
X130905713Y-101637142D02*
X130715237Y-101541904D01*
X130715237Y-101541904D02*
X130619999Y-101446666D01*
X130619999Y-101446666D02*
X130524761Y-101256190D01*
X130524761Y-101256190D02*
X130524761Y-101065714D01*
X130524761Y-101065714D02*
X130619999Y-100875238D01*
X130619999Y-100875238D02*
X130715237Y-100780000D01*
X130715237Y-100780000D02*
X130905713Y-100684761D01*
X130905713Y-100684761D02*
X131381904Y-100684761D01*
X131381904Y-100684761D02*
X131667618Y-100780000D01*
X132524761Y-101351428D02*
X132524761Y-103351428D01*
X132524761Y-101446666D02*
X132715237Y-101351428D01*
X132715237Y-101351428D02*
X133096190Y-101351428D01*
X133096190Y-101351428D02*
X133286666Y-101446666D01*
X133286666Y-101446666D02*
X133381904Y-101541904D01*
X133381904Y-101541904D02*
X133477142Y-101732380D01*
X133477142Y-101732380D02*
X133477142Y-102303809D01*
X133477142Y-102303809D02*
X133381904Y-102494285D01*
X133381904Y-102494285D02*
X133286666Y-102589523D01*
X133286666Y-102589523D02*
X133096190Y-102684761D01*
X133096190Y-102684761D02*
X132715237Y-102684761D01*
X132715237Y-102684761D02*
X132524761Y-102589523D01*
X135096190Y-102589523D02*
X134905714Y-102684761D01*
X134905714Y-102684761D02*
X134524761Y-102684761D01*
X134524761Y-102684761D02*
X134334285Y-102589523D01*
X134334285Y-102589523D02*
X134239047Y-102399047D01*
X134239047Y-102399047D02*
X134239047Y-101637142D01*
X134239047Y-101637142D02*
X134334285Y-101446666D01*
X134334285Y-101446666D02*
X134524761Y-101351428D01*
X134524761Y-101351428D02*
X134905714Y-101351428D01*
X134905714Y-101351428D02*
X135096190Y-101446666D01*
X135096190Y-101446666D02*
X135191428Y-101637142D01*
X135191428Y-101637142D02*
X135191428Y-101827619D01*
X135191428Y-101827619D02*
X134239047Y-102018095D01*
X136810476Y-102589523D02*
X136620000Y-102684761D01*
X136620000Y-102684761D02*
X136239047Y-102684761D01*
X136239047Y-102684761D02*
X136048571Y-102589523D01*
X136048571Y-102589523D02*
X135953333Y-102399047D01*
X135953333Y-102399047D02*
X135953333Y-101637142D01*
X135953333Y-101637142D02*
X136048571Y-101446666D01*
X136048571Y-101446666D02*
X136239047Y-101351428D01*
X136239047Y-101351428D02*
X136620000Y-101351428D01*
X136620000Y-101351428D02*
X136810476Y-101446666D01*
X136810476Y-101446666D02*
X136905714Y-101637142D01*
X136905714Y-101637142D02*
X136905714Y-101827619D01*
X136905714Y-101827619D02*
X135953333Y-102018095D01*
X138620000Y-102684761D02*
X138620000Y-100684761D01*
X138620000Y-102589523D02*
X138429524Y-102684761D01*
X138429524Y-102684761D02*
X138048571Y-102684761D01*
X138048571Y-102684761D02*
X137858095Y-102589523D01*
X137858095Y-102589523D02*
X137762857Y-102494285D01*
X137762857Y-102494285D02*
X137667619Y-102303809D01*
X137667619Y-102303809D02*
X137667619Y-101732380D01*
X137667619Y-101732380D02*
X137762857Y-101541904D01*
X137762857Y-101541904D02*
X137858095Y-101446666D01*
X137858095Y-101446666D02*
X138048571Y-101351428D01*
X138048571Y-101351428D02*
X138429524Y-101351428D01*
X138429524Y-101351428D02*
X138620000Y-101446666D01*
X166370095Y-85570857D02*
X167893905Y-85570857D01*
D14*
X105195942Y-80256271D02*
X105195942Y-78756271D01*
X105195942Y-78756271D02*
X106053085Y-80256271D01*
X106053085Y-80256271D02*
X106053085Y-78756271D01*
X106981657Y-80256271D02*
X106838800Y-80184842D01*
X106838800Y-80184842D02*
X106767371Y-80113414D01*
X106767371Y-80113414D02*
X106695943Y-79970557D01*
X106695943Y-79970557D02*
X106695943Y-79541985D01*
X106695943Y-79541985D02*
X106767371Y-79399128D01*
X106767371Y-79399128D02*
X106838800Y-79327700D01*
X106838800Y-79327700D02*
X106981657Y-79256271D01*
X106981657Y-79256271D02*
X107195943Y-79256271D01*
X107195943Y-79256271D02*
X107338800Y-79327700D01*
X107338800Y-79327700D02*
X107410229Y-79399128D01*
X107410229Y-79399128D02*
X107481657Y-79541985D01*
X107481657Y-79541985D02*
X107481657Y-79970557D01*
X107481657Y-79970557D02*
X107410229Y-80113414D01*
X107410229Y-80113414D02*
X107338800Y-80184842D01*
X107338800Y-80184842D02*
X107195943Y-80256271D01*
X107195943Y-80256271D02*
X106981657Y-80256271D01*
X108124514Y-80256271D02*
X108124514Y-79256271D01*
X108124514Y-79541985D02*
X108195943Y-79399128D01*
X108195943Y-79399128D02*
X108267372Y-79327700D01*
X108267372Y-79327700D02*
X108410229Y-79256271D01*
X108410229Y-79256271D02*
X108553086Y-79256271D01*
X109053085Y-80256271D02*
X109053085Y-79256271D01*
X109053085Y-79399128D02*
X109124514Y-79327700D01*
X109124514Y-79327700D02*
X109267371Y-79256271D01*
X109267371Y-79256271D02*
X109481657Y-79256271D01*
X109481657Y-79256271D02*
X109624514Y-79327700D01*
X109624514Y-79327700D02*
X109695943Y-79470557D01*
X109695943Y-79470557D02*
X109695943Y-80256271D01*
X109695943Y-79470557D02*
X109767371Y-79327700D01*
X109767371Y-79327700D02*
X109910228Y-79256271D01*
X109910228Y-79256271D02*
X110124514Y-79256271D01*
X110124514Y-79256271D02*
X110267371Y-79327700D01*
X110267371Y-79327700D02*
X110338800Y-79470557D01*
X110338800Y-79470557D02*
X110338800Y-80256271D01*
X111695943Y-80256271D02*
X111695943Y-79470557D01*
X111695943Y-79470557D02*
X111624514Y-79327700D01*
X111624514Y-79327700D02*
X111481657Y-79256271D01*
X111481657Y-79256271D02*
X111195943Y-79256271D01*
X111195943Y-79256271D02*
X111053085Y-79327700D01*
X111695943Y-80184842D02*
X111553085Y-80256271D01*
X111553085Y-80256271D02*
X111195943Y-80256271D01*
X111195943Y-80256271D02*
X111053085Y-80184842D01*
X111053085Y-80184842D02*
X110981657Y-80041985D01*
X110981657Y-80041985D02*
X110981657Y-79899128D01*
X110981657Y-79899128D02*
X111053085Y-79756271D01*
X111053085Y-79756271D02*
X111195943Y-79684842D01*
X111195943Y-79684842D02*
X111553085Y-79684842D01*
X111553085Y-79684842D02*
X111695943Y-79613414D01*
X112624514Y-80256271D02*
X112481657Y-80184842D01*
X112481657Y-80184842D02*
X112410228Y-80041985D01*
X112410228Y-80041985D02*
X112410228Y-78756271D01*
X114267371Y-78684842D02*
X112981657Y-80613414D01*
X114767371Y-80256271D02*
X114767371Y-78756271D01*
X115481657Y-79256271D02*
X115481657Y-80256271D01*
X115481657Y-79399128D02*
X115553086Y-79327700D01*
X115553086Y-79327700D02*
X115695943Y-79256271D01*
X115695943Y-79256271D02*
X115910229Y-79256271D01*
X115910229Y-79256271D02*
X116053086Y-79327700D01*
X116053086Y-79327700D02*
X116124515Y-79470557D01*
X116124515Y-79470557D02*
X116124515Y-80256271D01*
X116695943Y-79256271D02*
X117053086Y-80256271D01*
X117053086Y-80256271D02*
X117410229Y-79256271D01*
X118553086Y-80184842D02*
X118410229Y-80256271D01*
X118410229Y-80256271D02*
X118124515Y-80256271D01*
X118124515Y-80256271D02*
X117981657Y-80184842D01*
X117981657Y-80184842D02*
X117910229Y-80041985D01*
X117910229Y-80041985D02*
X117910229Y-79470557D01*
X117910229Y-79470557D02*
X117981657Y-79327700D01*
X117981657Y-79327700D02*
X118124515Y-79256271D01*
X118124515Y-79256271D02*
X118410229Y-79256271D01*
X118410229Y-79256271D02*
X118553086Y-79327700D01*
X118553086Y-79327700D02*
X118624515Y-79470557D01*
X118624515Y-79470557D02*
X118624515Y-79613414D01*
X118624515Y-79613414D02*
X117910229Y-79756271D01*
X119267371Y-80256271D02*
X119267371Y-79256271D01*
X119267371Y-79541985D02*
X119338800Y-79399128D01*
X119338800Y-79399128D02*
X119410229Y-79327700D01*
X119410229Y-79327700D02*
X119553086Y-79256271D01*
X119553086Y-79256271D02*
X119695943Y-79256271D01*
X120124514Y-80184842D02*
X120267371Y-80256271D01*
X120267371Y-80256271D02*
X120553085Y-80256271D01*
X120553085Y-80256271D02*
X120695942Y-80184842D01*
X120695942Y-80184842D02*
X120767371Y-80041985D01*
X120767371Y-80041985D02*
X120767371Y-79970557D01*
X120767371Y-79970557D02*
X120695942Y-79827700D01*
X120695942Y-79827700D02*
X120553085Y-79756271D01*
X120553085Y-79756271D02*
X120338800Y-79756271D01*
X120338800Y-79756271D02*
X120195942Y-79684842D01*
X120195942Y-79684842D02*
X120124514Y-79541985D01*
X120124514Y-79541985D02*
X120124514Y-79470557D01*
X120124514Y-79470557D02*
X120195942Y-79327700D01*
X120195942Y-79327700D02*
X120338800Y-79256271D01*
X120338800Y-79256271D02*
X120553085Y-79256271D01*
X120553085Y-79256271D02*
X120695942Y-79327700D01*
X121981657Y-80184842D02*
X121838800Y-80256271D01*
X121838800Y-80256271D02*
X121553086Y-80256271D01*
X121553086Y-80256271D02*
X121410228Y-80184842D01*
X121410228Y-80184842D02*
X121338800Y-80041985D01*
X121338800Y-80041985D02*
X121338800Y-79470557D01*
X121338800Y-79470557D02*
X121410228Y-79327700D01*
X121410228Y-79327700D02*
X121553086Y-79256271D01*
X121553086Y-79256271D02*
X121838800Y-79256271D01*
X121838800Y-79256271D02*
X121981657Y-79327700D01*
X121981657Y-79327700D02*
X122053086Y-79470557D01*
X122053086Y-79470557D02*
X122053086Y-79613414D01*
X122053086Y-79613414D02*
X121338800Y-79756271D01*
D15*
X123952095Y-97762857D02*
X125475905Y-97762857D01*
X124968095Y-104112857D02*
X126491905Y-104112857D01*
X125730000Y-104874761D02*
X125730000Y-103350952D01*
D14*
X154373142Y-86657071D02*
X154373142Y-85157071D01*
X154373142Y-85871357D02*
X155230285Y-85871357D01*
X155230285Y-86657071D02*
X155230285Y-85157071D01*
X156158857Y-86657071D02*
X156016000Y-86585642D01*
X156016000Y-86585642D02*
X155944571Y-86514214D01*
X155944571Y-86514214D02*
X155873143Y-86371357D01*
X155873143Y-86371357D02*
X155873143Y-85942785D01*
X155873143Y-85942785D02*
X155944571Y-85799928D01*
X155944571Y-85799928D02*
X156016000Y-85728500D01*
X156016000Y-85728500D02*
X156158857Y-85657071D01*
X156158857Y-85657071D02*
X156373143Y-85657071D01*
X156373143Y-85657071D02*
X156516000Y-85728500D01*
X156516000Y-85728500D02*
X156587429Y-85799928D01*
X156587429Y-85799928D02*
X156658857Y-85942785D01*
X156658857Y-85942785D02*
X156658857Y-86371357D01*
X156658857Y-86371357D02*
X156587429Y-86514214D01*
X156587429Y-86514214D02*
X156516000Y-86585642D01*
X156516000Y-86585642D02*
X156373143Y-86657071D01*
X156373143Y-86657071D02*
X156158857Y-86657071D01*
X157301714Y-86657071D02*
X157301714Y-85657071D01*
X157301714Y-85942785D02*
X157373143Y-85799928D01*
X157373143Y-85799928D02*
X157444572Y-85728500D01*
X157444572Y-85728500D02*
X157587429Y-85657071D01*
X157587429Y-85657071D02*
X157730286Y-85657071D01*
X158230285Y-86657071D02*
X158230285Y-85657071D01*
X158230285Y-85157071D02*
X158158857Y-85228500D01*
X158158857Y-85228500D02*
X158230285Y-85299928D01*
X158230285Y-85299928D02*
X158301714Y-85228500D01*
X158301714Y-85228500D02*
X158230285Y-85157071D01*
X158230285Y-85157071D02*
X158230285Y-85299928D01*
X158801714Y-85657071D02*
X159587429Y-85657071D01*
X159587429Y-85657071D02*
X158801714Y-86657071D01*
X158801714Y-86657071D02*
X159587429Y-86657071D01*
X160373143Y-86657071D02*
X160230286Y-86585642D01*
X160230286Y-86585642D02*
X160158857Y-86514214D01*
X160158857Y-86514214D02*
X160087429Y-86371357D01*
X160087429Y-86371357D02*
X160087429Y-85942785D01*
X160087429Y-85942785D02*
X160158857Y-85799928D01*
X160158857Y-85799928D02*
X160230286Y-85728500D01*
X160230286Y-85728500D02*
X160373143Y-85657071D01*
X160373143Y-85657071D02*
X160587429Y-85657071D01*
X160587429Y-85657071D02*
X160730286Y-85728500D01*
X160730286Y-85728500D02*
X160801715Y-85799928D01*
X160801715Y-85799928D02*
X160873143Y-85942785D01*
X160873143Y-85942785D02*
X160873143Y-86371357D01*
X160873143Y-86371357D02*
X160801715Y-86514214D01*
X160801715Y-86514214D02*
X160730286Y-86585642D01*
X160730286Y-86585642D02*
X160587429Y-86657071D01*
X160587429Y-86657071D02*
X160373143Y-86657071D01*
X161516000Y-85657071D02*
X161516000Y-86657071D01*
X161516000Y-85799928D02*
X161587429Y-85728500D01*
X161587429Y-85728500D02*
X161730286Y-85657071D01*
X161730286Y-85657071D02*
X161944572Y-85657071D01*
X161944572Y-85657071D02*
X162087429Y-85728500D01*
X162087429Y-85728500D02*
X162158858Y-85871357D01*
X162158858Y-85871357D02*
X162158858Y-86657071D01*
X162658858Y-85657071D02*
X163230286Y-85657071D01*
X162873143Y-85157071D02*
X162873143Y-86442785D01*
X162873143Y-86442785D02*
X162944572Y-86585642D01*
X162944572Y-86585642D02*
X163087429Y-86657071D01*
X163087429Y-86657071D02*
X163230286Y-86657071D01*
X164373144Y-86657071D02*
X164373144Y-85871357D01*
X164373144Y-85871357D02*
X164301715Y-85728500D01*
X164301715Y-85728500D02*
X164158858Y-85657071D01*
X164158858Y-85657071D02*
X163873144Y-85657071D01*
X163873144Y-85657071D02*
X163730286Y-85728500D01*
X164373144Y-86585642D02*
X164230286Y-86657071D01*
X164230286Y-86657071D02*
X163873144Y-86657071D01*
X163873144Y-86657071D02*
X163730286Y-86585642D01*
X163730286Y-86585642D02*
X163658858Y-86442785D01*
X163658858Y-86442785D02*
X163658858Y-86299928D01*
X163658858Y-86299928D02*
X163730286Y-86157071D01*
X163730286Y-86157071D02*
X163873144Y-86085642D01*
X163873144Y-86085642D02*
X164230286Y-86085642D01*
X164230286Y-86085642D02*
X164373144Y-86014214D01*
X165301715Y-86657071D02*
X165158858Y-86585642D01*
X165158858Y-86585642D02*
X165087429Y-86442785D01*
X165087429Y-86442785D02*
X165087429Y-85157071D01*
D15*
X166370095Y-89380857D02*
X167893905Y-89380857D01*
X167132000Y-90142761D02*
X167132000Y-88618952D01*
X166370095Y-79220857D02*
X167893905Y-79220857D01*
X167132000Y-79982761D02*
X167132000Y-78458952D01*
X166370095Y-95730857D02*
X167893905Y-95730857D01*
D16*
%TO.C,R6*%
X132548333Y-80885380D02*
X132215000Y-80409190D01*
X131976905Y-80885380D02*
X131976905Y-79885380D01*
X131976905Y-79885380D02*
X132357857Y-79885380D01*
X132357857Y-79885380D02*
X132453095Y-79933000D01*
X132453095Y-79933000D02*
X132500714Y-79980619D01*
X132500714Y-79980619D02*
X132548333Y-80075857D01*
X132548333Y-80075857D02*
X132548333Y-80218714D01*
X132548333Y-80218714D02*
X132500714Y-80313952D01*
X132500714Y-80313952D02*
X132453095Y-80361571D01*
X132453095Y-80361571D02*
X132357857Y-80409190D01*
X132357857Y-80409190D02*
X131976905Y-80409190D01*
X133405476Y-79885380D02*
X133215000Y-79885380D01*
X133215000Y-79885380D02*
X133119762Y-79933000D01*
X133119762Y-79933000D02*
X133072143Y-79980619D01*
X133072143Y-79980619D02*
X132976905Y-80123476D01*
X132976905Y-80123476D02*
X132929286Y-80313952D01*
X132929286Y-80313952D02*
X132929286Y-80694904D01*
X132929286Y-80694904D02*
X132976905Y-80790142D01*
X132976905Y-80790142D02*
X133024524Y-80837761D01*
X133024524Y-80837761D02*
X133119762Y-80885380D01*
X133119762Y-80885380D02*
X133310238Y-80885380D01*
X133310238Y-80885380D02*
X133405476Y-80837761D01*
X133405476Y-80837761D02*
X133453095Y-80790142D01*
X133453095Y-80790142D02*
X133500714Y-80694904D01*
X133500714Y-80694904D02*
X133500714Y-80456809D01*
X133500714Y-80456809D02*
X133453095Y-80361571D01*
X133453095Y-80361571D02*
X133405476Y-80313952D01*
X133405476Y-80313952D02*
X133310238Y-80266333D01*
X133310238Y-80266333D02*
X133119762Y-80266333D01*
X133119762Y-80266333D02*
X133024524Y-80313952D01*
X133024524Y-80313952D02*
X132976905Y-80361571D01*
X132976905Y-80361571D02*
X132929286Y-80456809D01*
%TO.C,C3*%
X133183333Y-88257742D02*
X133135714Y-88305361D01*
X133135714Y-88305361D02*
X132992857Y-88352980D01*
X132992857Y-88352980D02*
X132897619Y-88352980D01*
X132897619Y-88352980D02*
X132754762Y-88305361D01*
X132754762Y-88305361D02*
X132659524Y-88210123D01*
X132659524Y-88210123D02*
X132611905Y-88114885D01*
X132611905Y-88114885D02*
X132564286Y-87924409D01*
X132564286Y-87924409D02*
X132564286Y-87781552D01*
X132564286Y-87781552D02*
X132611905Y-87591076D01*
X132611905Y-87591076D02*
X132659524Y-87495838D01*
X132659524Y-87495838D02*
X132754762Y-87400600D01*
X132754762Y-87400600D02*
X132897619Y-87352980D01*
X132897619Y-87352980D02*
X132992857Y-87352980D01*
X132992857Y-87352980D02*
X133135714Y-87400600D01*
X133135714Y-87400600D02*
X133183333Y-87448219D01*
X133516667Y-87352980D02*
X134135714Y-87352980D01*
X134135714Y-87352980D02*
X133802381Y-87733933D01*
X133802381Y-87733933D02*
X133945238Y-87733933D01*
X133945238Y-87733933D02*
X134040476Y-87781552D01*
X134040476Y-87781552D02*
X134088095Y-87829171D01*
X134088095Y-87829171D02*
X134135714Y-87924409D01*
X134135714Y-87924409D02*
X134135714Y-88162504D01*
X134135714Y-88162504D02*
X134088095Y-88257742D01*
X134088095Y-88257742D02*
X134040476Y-88305361D01*
X134040476Y-88305361D02*
X133945238Y-88352980D01*
X133945238Y-88352980D02*
X133659524Y-88352980D01*
X133659524Y-88352980D02*
X133564286Y-88305361D01*
X133564286Y-88305361D02*
X133516667Y-88257742D01*
%TO.C,U2*%
X136398095Y-74678380D02*
X136398095Y-75487904D01*
X136398095Y-75487904D02*
X136445714Y-75583142D01*
X136445714Y-75583142D02*
X136493333Y-75630761D01*
X136493333Y-75630761D02*
X136588571Y-75678380D01*
X136588571Y-75678380D02*
X136779047Y-75678380D01*
X136779047Y-75678380D02*
X136874285Y-75630761D01*
X136874285Y-75630761D02*
X136921904Y-75583142D01*
X136921904Y-75583142D02*
X136969523Y-75487904D01*
X136969523Y-75487904D02*
X136969523Y-74678380D01*
X137398095Y-74773619D02*
X137445714Y-74726000D01*
X137445714Y-74726000D02*
X137540952Y-74678380D01*
X137540952Y-74678380D02*
X137779047Y-74678380D01*
X137779047Y-74678380D02*
X137874285Y-74726000D01*
X137874285Y-74726000D02*
X137921904Y-74773619D01*
X137921904Y-74773619D02*
X137969523Y-74868857D01*
X137969523Y-74868857D02*
X137969523Y-74964095D01*
X137969523Y-74964095D02*
X137921904Y-75106952D01*
X137921904Y-75106952D02*
X137350476Y-75678380D01*
X137350476Y-75678380D02*
X137969523Y-75678380D01*
%TO.C,R8*%
X126198333Y-92950380D02*
X125865000Y-92474190D01*
X125626905Y-92950380D02*
X125626905Y-91950380D01*
X125626905Y-91950380D02*
X126007857Y-91950380D01*
X126007857Y-91950380D02*
X126103095Y-91998000D01*
X126103095Y-91998000D02*
X126150714Y-92045619D01*
X126150714Y-92045619D02*
X126198333Y-92140857D01*
X126198333Y-92140857D02*
X126198333Y-92283714D01*
X126198333Y-92283714D02*
X126150714Y-92378952D01*
X126150714Y-92378952D02*
X126103095Y-92426571D01*
X126103095Y-92426571D02*
X126007857Y-92474190D01*
X126007857Y-92474190D02*
X125626905Y-92474190D01*
X126769762Y-92378952D02*
X126674524Y-92331333D01*
X126674524Y-92331333D02*
X126626905Y-92283714D01*
X126626905Y-92283714D02*
X126579286Y-92188476D01*
X126579286Y-92188476D02*
X126579286Y-92140857D01*
X126579286Y-92140857D02*
X126626905Y-92045619D01*
X126626905Y-92045619D02*
X126674524Y-91998000D01*
X126674524Y-91998000D02*
X126769762Y-91950380D01*
X126769762Y-91950380D02*
X126960238Y-91950380D01*
X126960238Y-91950380D02*
X127055476Y-91998000D01*
X127055476Y-91998000D02*
X127103095Y-92045619D01*
X127103095Y-92045619D02*
X127150714Y-92140857D01*
X127150714Y-92140857D02*
X127150714Y-92188476D01*
X127150714Y-92188476D02*
X127103095Y-92283714D01*
X127103095Y-92283714D02*
X127055476Y-92331333D01*
X127055476Y-92331333D02*
X126960238Y-92378952D01*
X126960238Y-92378952D02*
X126769762Y-92378952D01*
X126769762Y-92378952D02*
X126674524Y-92426571D01*
X126674524Y-92426571D02*
X126626905Y-92474190D01*
X126626905Y-92474190D02*
X126579286Y-92569428D01*
X126579286Y-92569428D02*
X126579286Y-92759904D01*
X126579286Y-92759904D02*
X126626905Y-92855142D01*
X126626905Y-92855142D02*
X126674524Y-92902761D01*
X126674524Y-92902761D02*
X126769762Y-92950380D01*
X126769762Y-92950380D02*
X126960238Y-92950380D01*
X126960238Y-92950380D02*
X127055476Y-92902761D01*
X127055476Y-92902761D02*
X127103095Y-92855142D01*
X127103095Y-92855142D02*
X127150714Y-92759904D01*
X127150714Y-92759904D02*
X127150714Y-92569428D01*
X127150714Y-92569428D02*
X127103095Y-92474190D01*
X127103095Y-92474190D02*
X127055476Y-92426571D01*
X127055476Y-92426571D02*
X126960238Y-92378952D01*
%TO.C,SW7*%
X105854667Y-73878161D02*
X105997524Y-73925780D01*
X105997524Y-73925780D02*
X106235619Y-73925780D01*
X106235619Y-73925780D02*
X106330857Y-73878161D01*
X106330857Y-73878161D02*
X106378476Y-73830542D01*
X106378476Y-73830542D02*
X106426095Y-73735304D01*
X106426095Y-73735304D02*
X106426095Y-73640066D01*
X106426095Y-73640066D02*
X106378476Y-73544828D01*
X106378476Y-73544828D02*
X106330857Y-73497209D01*
X106330857Y-73497209D02*
X106235619Y-73449590D01*
X106235619Y-73449590D02*
X106045143Y-73401971D01*
X106045143Y-73401971D02*
X105949905Y-73354352D01*
X105949905Y-73354352D02*
X105902286Y-73306733D01*
X105902286Y-73306733D02*
X105854667Y-73211495D01*
X105854667Y-73211495D02*
X105854667Y-73116257D01*
X105854667Y-73116257D02*
X105902286Y-73021019D01*
X105902286Y-73021019D02*
X105949905Y-72973400D01*
X105949905Y-72973400D02*
X106045143Y-72925780D01*
X106045143Y-72925780D02*
X106283238Y-72925780D01*
X106283238Y-72925780D02*
X106426095Y-72973400D01*
X106759429Y-72925780D02*
X106997524Y-73925780D01*
X106997524Y-73925780D02*
X107188000Y-73211495D01*
X107188000Y-73211495D02*
X107378476Y-73925780D01*
X107378476Y-73925780D02*
X107616572Y-72925780D01*
X107902286Y-72925780D02*
X108568952Y-72925780D01*
X108568952Y-72925780D02*
X108140381Y-73925780D01*
%TO.C,R2*%
X159853333Y-76313380D02*
X159520000Y-75837190D01*
X159281905Y-76313380D02*
X159281905Y-75313380D01*
X159281905Y-75313380D02*
X159662857Y-75313380D01*
X159662857Y-75313380D02*
X159758095Y-75361000D01*
X159758095Y-75361000D02*
X159805714Y-75408619D01*
X159805714Y-75408619D02*
X159853333Y-75503857D01*
X159853333Y-75503857D02*
X159853333Y-75646714D01*
X159853333Y-75646714D02*
X159805714Y-75741952D01*
X159805714Y-75741952D02*
X159758095Y-75789571D01*
X159758095Y-75789571D02*
X159662857Y-75837190D01*
X159662857Y-75837190D02*
X159281905Y-75837190D01*
X160234286Y-75408619D02*
X160281905Y-75361000D01*
X160281905Y-75361000D02*
X160377143Y-75313380D01*
X160377143Y-75313380D02*
X160615238Y-75313380D01*
X160615238Y-75313380D02*
X160710476Y-75361000D01*
X160710476Y-75361000D02*
X160758095Y-75408619D01*
X160758095Y-75408619D02*
X160805714Y-75503857D01*
X160805714Y-75503857D02*
X160805714Y-75599095D01*
X160805714Y-75599095D02*
X160758095Y-75741952D01*
X160758095Y-75741952D02*
X160186667Y-76313380D01*
X160186667Y-76313380D02*
X160805714Y-76313380D01*
%TO.C,R10*%
X127627142Y-80885380D02*
X127293809Y-80409190D01*
X127055714Y-80885380D02*
X127055714Y-79885380D01*
X127055714Y-79885380D02*
X127436666Y-79885380D01*
X127436666Y-79885380D02*
X127531904Y-79933000D01*
X127531904Y-79933000D02*
X127579523Y-79980619D01*
X127579523Y-79980619D02*
X127627142Y-80075857D01*
X127627142Y-80075857D02*
X127627142Y-80218714D01*
X127627142Y-80218714D02*
X127579523Y-80313952D01*
X127579523Y-80313952D02*
X127531904Y-80361571D01*
X127531904Y-80361571D02*
X127436666Y-80409190D01*
X127436666Y-80409190D02*
X127055714Y-80409190D01*
X128579523Y-80885380D02*
X128008095Y-80885380D01*
X128293809Y-80885380D02*
X128293809Y-79885380D01*
X128293809Y-79885380D02*
X128198571Y-80028238D01*
X128198571Y-80028238D02*
X128103333Y-80123476D01*
X128103333Y-80123476D02*
X128008095Y-80171095D01*
X129198571Y-79885380D02*
X129293809Y-79885380D01*
X129293809Y-79885380D02*
X129389047Y-79933000D01*
X129389047Y-79933000D02*
X129436666Y-79980619D01*
X129436666Y-79980619D02*
X129484285Y-80075857D01*
X129484285Y-80075857D02*
X129531904Y-80266333D01*
X129531904Y-80266333D02*
X129531904Y-80504428D01*
X129531904Y-80504428D02*
X129484285Y-80694904D01*
X129484285Y-80694904D02*
X129436666Y-80790142D01*
X129436666Y-80790142D02*
X129389047Y-80837761D01*
X129389047Y-80837761D02*
X129293809Y-80885380D01*
X129293809Y-80885380D02*
X129198571Y-80885380D01*
X129198571Y-80885380D02*
X129103333Y-80837761D01*
X129103333Y-80837761D02*
X129055714Y-80790142D01*
X129055714Y-80790142D02*
X129008095Y-80694904D01*
X129008095Y-80694904D02*
X128960476Y-80504428D01*
X128960476Y-80504428D02*
X128960476Y-80266333D01*
X128960476Y-80266333D02*
X129008095Y-80075857D01*
X129008095Y-80075857D02*
X129055714Y-79980619D01*
X129055714Y-79980619D02*
X129103333Y-79933000D01*
X129103333Y-79933000D02*
X129198571Y-79885380D01*
%TO.C,R4*%
X174458333Y-77583380D02*
X174125000Y-77107190D01*
X173886905Y-77583380D02*
X173886905Y-76583380D01*
X173886905Y-76583380D02*
X174267857Y-76583380D01*
X174267857Y-76583380D02*
X174363095Y-76631000D01*
X174363095Y-76631000D02*
X174410714Y-76678619D01*
X174410714Y-76678619D02*
X174458333Y-76773857D01*
X174458333Y-76773857D02*
X174458333Y-76916714D01*
X174458333Y-76916714D02*
X174410714Y-77011952D01*
X174410714Y-77011952D02*
X174363095Y-77059571D01*
X174363095Y-77059571D02*
X174267857Y-77107190D01*
X174267857Y-77107190D02*
X173886905Y-77107190D01*
X175315476Y-76916714D02*
X175315476Y-77583380D01*
X175077381Y-76535761D02*
X174839286Y-77250047D01*
X174839286Y-77250047D02*
X175458333Y-77250047D01*
%TO.C,C2*%
X125563333Y-88257742D02*
X125515714Y-88305361D01*
X125515714Y-88305361D02*
X125372857Y-88352980D01*
X125372857Y-88352980D02*
X125277619Y-88352980D01*
X125277619Y-88352980D02*
X125134762Y-88305361D01*
X125134762Y-88305361D02*
X125039524Y-88210123D01*
X125039524Y-88210123D02*
X124991905Y-88114885D01*
X124991905Y-88114885D02*
X124944286Y-87924409D01*
X124944286Y-87924409D02*
X124944286Y-87781552D01*
X124944286Y-87781552D02*
X124991905Y-87591076D01*
X124991905Y-87591076D02*
X125039524Y-87495838D01*
X125039524Y-87495838D02*
X125134762Y-87400600D01*
X125134762Y-87400600D02*
X125277619Y-87352980D01*
X125277619Y-87352980D02*
X125372857Y-87352980D01*
X125372857Y-87352980D02*
X125515714Y-87400600D01*
X125515714Y-87400600D02*
X125563333Y-87448219D01*
X125944286Y-87448219D02*
X125991905Y-87400600D01*
X125991905Y-87400600D02*
X126087143Y-87352980D01*
X126087143Y-87352980D02*
X126325238Y-87352980D01*
X126325238Y-87352980D02*
X126420476Y-87400600D01*
X126420476Y-87400600D02*
X126468095Y-87448219D01*
X126468095Y-87448219D02*
X126515714Y-87543457D01*
X126515714Y-87543457D02*
X126515714Y-87638695D01*
X126515714Y-87638695D02*
X126468095Y-87781552D01*
X126468095Y-87781552D02*
X125896667Y-88352980D01*
X125896667Y-88352980D02*
X126515714Y-88352980D01*
%TO.C,R3*%
X174458333Y-86473380D02*
X174125000Y-85997190D01*
X173886905Y-86473380D02*
X173886905Y-85473380D01*
X173886905Y-85473380D02*
X174267857Y-85473380D01*
X174267857Y-85473380D02*
X174363095Y-85521000D01*
X174363095Y-85521000D02*
X174410714Y-85568619D01*
X174410714Y-85568619D02*
X174458333Y-85663857D01*
X174458333Y-85663857D02*
X174458333Y-85806714D01*
X174458333Y-85806714D02*
X174410714Y-85901952D01*
X174410714Y-85901952D02*
X174363095Y-85949571D01*
X174363095Y-85949571D02*
X174267857Y-85997190D01*
X174267857Y-85997190D02*
X173886905Y-85997190D01*
X174791667Y-85473380D02*
X175410714Y-85473380D01*
X175410714Y-85473380D02*
X175077381Y-85854333D01*
X175077381Y-85854333D02*
X175220238Y-85854333D01*
X175220238Y-85854333D02*
X175315476Y-85901952D01*
X175315476Y-85901952D02*
X175363095Y-85949571D01*
X175363095Y-85949571D02*
X175410714Y-86044809D01*
X175410714Y-86044809D02*
X175410714Y-86282904D01*
X175410714Y-86282904D02*
X175363095Y-86378142D01*
X175363095Y-86378142D02*
X175315476Y-86425761D01*
X175315476Y-86425761D02*
X175220238Y-86473380D01*
X175220238Y-86473380D02*
X174934524Y-86473380D01*
X174934524Y-86473380D02*
X174839286Y-86425761D01*
X174839286Y-86425761D02*
X174791667Y-86378142D01*
%TO.C,R7*%
X134453333Y-67931380D02*
X134120000Y-67455190D01*
X133881905Y-67931380D02*
X133881905Y-66931380D01*
X133881905Y-66931380D02*
X134262857Y-66931380D01*
X134262857Y-66931380D02*
X134358095Y-66979000D01*
X134358095Y-66979000D02*
X134405714Y-67026619D01*
X134405714Y-67026619D02*
X134453333Y-67121857D01*
X134453333Y-67121857D02*
X134453333Y-67264714D01*
X134453333Y-67264714D02*
X134405714Y-67359952D01*
X134405714Y-67359952D02*
X134358095Y-67407571D01*
X134358095Y-67407571D02*
X134262857Y-67455190D01*
X134262857Y-67455190D02*
X133881905Y-67455190D01*
X134786667Y-66931380D02*
X135453333Y-66931380D01*
X135453333Y-66931380D02*
X135024762Y-67931380D01*
%TO.C,R9*%
X131278333Y-67931380D02*
X130945000Y-67455190D01*
X130706905Y-67931380D02*
X130706905Y-66931380D01*
X130706905Y-66931380D02*
X131087857Y-66931380D01*
X131087857Y-66931380D02*
X131183095Y-66979000D01*
X131183095Y-66979000D02*
X131230714Y-67026619D01*
X131230714Y-67026619D02*
X131278333Y-67121857D01*
X131278333Y-67121857D02*
X131278333Y-67264714D01*
X131278333Y-67264714D02*
X131230714Y-67359952D01*
X131230714Y-67359952D02*
X131183095Y-67407571D01*
X131183095Y-67407571D02*
X131087857Y-67455190D01*
X131087857Y-67455190D02*
X130706905Y-67455190D01*
X131754524Y-67931380D02*
X131945000Y-67931380D01*
X131945000Y-67931380D02*
X132040238Y-67883761D01*
X132040238Y-67883761D02*
X132087857Y-67836142D01*
X132087857Y-67836142D02*
X132183095Y-67693285D01*
X132183095Y-67693285D02*
X132230714Y-67502809D01*
X132230714Y-67502809D02*
X132230714Y-67121857D01*
X132230714Y-67121857D02*
X132183095Y-67026619D01*
X132183095Y-67026619D02*
X132135476Y-66979000D01*
X132135476Y-66979000D02*
X132040238Y-66931380D01*
X132040238Y-66931380D02*
X131849762Y-66931380D01*
X131849762Y-66931380D02*
X131754524Y-66979000D01*
X131754524Y-66979000D02*
X131706905Y-67026619D01*
X131706905Y-67026619D02*
X131659286Y-67121857D01*
X131659286Y-67121857D02*
X131659286Y-67359952D01*
X131659286Y-67359952D02*
X131706905Y-67455190D01*
X131706905Y-67455190D02*
X131754524Y-67502809D01*
X131754524Y-67502809D02*
X131849762Y-67550428D01*
X131849762Y-67550428D02*
X132040238Y-67550428D01*
X132040238Y-67550428D02*
X132135476Y-67502809D01*
X132135476Y-67502809D02*
X132183095Y-67455190D01*
X132183095Y-67455190D02*
X132230714Y-67359952D01*
%TO.C,R1*%
X164298333Y-76313380D02*
X163965000Y-75837190D01*
X163726905Y-76313380D02*
X163726905Y-75313380D01*
X163726905Y-75313380D02*
X164107857Y-75313380D01*
X164107857Y-75313380D02*
X164203095Y-75361000D01*
X164203095Y-75361000D02*
X164250714Y-75408619D01*
X164250714Y-75408619D02*
X164298333Y-75503857D01*
X164298333Y-75503857D02*
X164298333Y-75646714D01*
X164298333Y-75646714D02*
X164250714Y-75741952D01*
X164250714Y-75741952D02*
X164203095Y-75789571D01*
X164203095Y-75789571D02*
X164107857Y-75837190D01*
X164107857Y-75837190D02*
X163726905Y-75837190D01*
X165250714Y-76313380D02*
X164679286Y-76313380D01*
X164965000Y-76313380D02*
X164965000Y-75313380D01*
X164965000Y-75313380D02*
X164869762Y-75456238D01*
X164869762Y-75456238D02*
X164774524Y-75551476D01*
X164774524Y-75551476D02*
X164679286Y-75599095D01*
%TO.C,U4*%
X126238095Y-75567380D02*
X126238095Y-76376904D01*
X126238095Y-76376904D02*
X126285714Y-76472142D01*
X126285714Y-76472142D02*
X126333333Y-76519761D01*
X126333333Y-76519761D02*
X126428571Y-76567380D01*
X126428571Y-76567380D02*
X126619047Y-76567380D01*
X126619047Y-76567380D02*
X126714285Y-76519761D01*
X126714285Y-76519761D02*
X126761904Y-76472142D01*
X126761904Y-76472142D02*
X126809523Y-76376904D01*
X126809523Y-76376904D02*
X126809523Y-75567380D01*
X127714285Y-75900714D02*
X127714285Y-76567380D01*
X127476190Y-75519761D02*
X127238095Y-76234047D01*
X127238095Y-76234047D02*
X127857142Y-76234047D01*
%TO.C,U3*%
X136398095Y-81917380D02*
X136398095Y-82726904D01*
X136398095Y-82726904D02*
X136445714Y-82822142D01*
X136445714Y-82822142D02*
X136493333Y-82869761D01*
X136493333Y-82869761D02*
X136588571Y-82917380D01*
X136588571Y-82917380D02*
X136779047Y-82917380D01*
X136779047Y-82917380D02*
X136874285Y-82869761D01*
X136874285Y-82869761D02*
X136921904Y-82822142D01*
X136921904Y-82822142D02*
X136969523Y-82726904D01*
X136969523Y-82726904D02*
X136969523Y-81917380D01*
X137350476Y-81917380D02*
X137969523Y-81917380D01*
X137969523Y-81917380D02*
X137636190Y-82298333D01*
X137636190Y-82298333D02*
X137779047Y-82298333D01*
X137779047Y-82298333D02*
X137874285Y-82345952D01*
X137874285Y-82345952D02*
X137921904Y-82393571D01*
X137921904Y-82393571D02*
X137969523Y-82488809D01*
X137969523Y-82488809D02*
X137969523Y-82726904D01*
X137969523Y-82726904D02*
X137921904Y-82822142D01*
X137921904Y-82822142D02*
X137874285Y-82869761D01*
X137874285Y-82869761D02*
X137779047Y-82917380D01*
X137779047Y-82917380D02*
X137493333Y-82917380D01*
X137493333Y-82917380D02*
X137398095Y-82869761D01*
X137398095Y-82869761D02*
X137350476Y-82822142D01*
%TO.C,U1*%
X128778095Y-83288980D02*
X128778095Y-84098504D01*
X128778095Y-84098504D02*
X128825714Y-84193742D01*
X128825714Y-84193742D02*
X128873333Y-84241361D01*
X128873333Y-84241361D02*
X128968571Y-84288980D01*
X128968571Y-84288980D02*
X129159047Y-84288980D01*
X129159047Y-84288980D02*
X129254285Y-84241361D01*
X129254285Y-84241361D02*
X129301904Y-84193742D01*
X129301904Y-84193742D02*
X129349523Y-84098504D01*
X129349523Y-84098504D02*
X129349523Y-83288980D01*
X130349523Y-84288980D02*
X129778095Y-84288980D01*
X130063809Y-84288980D02*
X130063809Y-83288980D01*
X130063809Y-83288980D02*
X129968571Y-83431838D01*
X129968571Y-83431838D02*
X129873333Y-83527076D01*
X129873333Y-83527076D02*
X129778095Y-83574695D01*
%TO.C,C4*%
X133183333Y-83457142D02*
X133135714Y-83504761D01*
X133135714Y-83504761D02*
X132992857Y-83552380D01*
X132992857Y-83552380D02*
X132897619Y-83552380D01*
X132897619Y-83552380D02*
X132754762Y-83504761D01*
X132754762Y-83504761D02*
X132659524Y-83409523D01*
X132659524Y-83409523D02*
X132611905Y-83314285D01*
X132611905Y-83314285D02*
X132564286Y-83123809D01*
X132564286Y-83123809D02*
X132564286Y-82980952D01*
X132564286Y-82980952D02*
X132611905Y-82790476D01*
X132611905Y-82790476D02*
X132659524Y-82695238D01*
X132659524Y-82695238D02*
X132754762Y-82600000D01*
X132754762Y-82600000D02*
X132897619Y-82552380D01*
X132897619Y-82552380D02*
X132992857Y-82552380D01*
X132992857Y-82552380D02*
X133135714Y-82600000D01*
X133135714Y-82600000D02*
X133183333Y-82647619D01*
X134040476Y-82885714D02*
X134040476Y-83552380D01*
X133802381Y-82504761D02*
X133564286Y-83219047D01*
X133564286Y-83219047D02*
X134183333Y-83219047D01*
%TO.C,C5*%
X136993333Y-71773142D02*
X136945714Y-71820761D01*
X136945714Y-71820761D02*
X136802857Y-71868380D01*
X136802857Y-71868380D02*
X136707619Y-71868380D01*
X136707619Y-71868380D02*
X136564762Y-71820761D01*
X136564762Y-71820761D02*
X136469524Y-71725523D01*
X136469524Y-71725523D02*
X136421905Y-71630285D01*
X136421905Y-71630285D02*
X136374286Y-71439809D01*
X136374286Y-71439809D02*
X136374286Y-71296952D01*
X136374286Y-71296952D02*
X136421905Y-71106476D01*
X136421905Y-71106476D02*
X136469524Y-71011238D01*
X136469524Y-71011238D02*
X136564762Y-70916000D01*
X136564762Y-70916000D02*
X136707619Y-70868380D01*
X136707619Y-70868380D02*
X136802857Y-70868380D01*
X136802857Y-70868380D02*
X136945714Y-70916000D01*
X136945714Y-70916000D02*
X136993333Y-70963619D01*
X137898095Y-70868380D02*
X137421905Y-70868380D01*
X137421905Y-70868380D02*
X137374286Y-71344571D01*
X137374286Y-71344571D02*
X137421905Y-71296952D01*
X137421905Y-71296952D02*
X137517143Y-71249333D01*
X137517143Y-71249333D02*
X137755238Y-71249333D01*
X137755238Y-71249333D02*
X137850476Y-71296952D01*
X137850476Y-71296952D02*
X137898095Y-71344571D01*
X137898095Y-71344571D02*
X137945714Y-71439809D01*
X137945714Y-71439809D02*
X137945714Y-71677904D01*
X137945714Y-71677904D02*
X137898095Y-71773142D01*
X137898095Y-71773142D02*
X137850476Y-71820761D01*
X137850476Y-71820761D02*
X137755238Y-71868380D01*
X137755238Y-71868380D02*
X137517143Y-71868380D01*
X137517143Y-71868380D02*
X137421905Y-71820761D01*
X137421905Y-71820761D02*
X137374286Y-71773142D01*
%TO.C,C1*%
X128103333Y-67836142D02*
X128055714Y-67883761D01*
X128055714Y-67883761D02*
X127912857Y-67931380D01*
X127912857Y-67931380D02*
X127817619Y-67931380D01*
X127817619Y-67931380D02*
X127674762Y-67883761D01*
X127674762Y-67883761D02*
X127579524Y-67788523D01*
X127579524Y-67788523D02*
X127531905Y-67693285D01*
X127531905Y-67693285D02*
X127484286Y-67502809D01*
X127484286Y-67502809D02*
X127484286Y-67359952D01*
X127484286Y-67359952D02*
X127531905Y-67169476D01*
X127531905Y-67169476D02*
X127579524Y-67074238D01*
X127579524Y-67074238D02*
X127674762Y-66979000D01*
X127674762Y-66979000D02*
X127817619Y-66931380D01*
X127817619Y-66931380D02*
X127912857Y-66931380D01*
X127912857Y-66931380D02*
X128055714Y-66979000D01*
X128055714Y-66979000D02*
X128103333Y-67026619D01*
X129055714Y-67931380D02*
X128484286Y-67931380D01*
X128770000Y-67931380D02*
X128770000Y-66931380D01*
X128770000Y-66931380D02*
X128674762Y-67074238D01*
X128674762Y-67074238D02*
X128579524Y-67169476D01*
X128579524Y-67169476D02*
X128484286Y-67217095D01*
%TO.C,R5*%
X130643333Y-92924980D02*
X130310000Y-92448790D01*
X130071905Y-92924980D02*
X130071905Y-91924980D01*
X130071905Y-91924980D02*
X130452857Y-91924980D01*
X130452857Y-91924980D02*
X130548095Y-91972600D01*
X130548095Y-91972600D02*
X130595714Y-92020219D01*
X130595714Y-92020219D02*
X130643333Y-92115457D01*
X130643333Y-92115457D02*
X130643333Y-92258314D01*
X130643333Y-92258314D02*
X130595714Y-92353552D01*
X130595714Y-92353552D02*
X130548095Y-92401171D01*
X130548095Y-92401171D02*
X130452857Y-92448790D01*
X130452857Y-92448790D02*
X130071905Y-92448790D01*
X131548095Y-91924980D02*
X131071905Y-91924980D01*
X131071905Y-91924980D02*
X131024286Y-92401171D01*
X131024286Y-92401171D02*
X131071905Y-92353552D01*
X131071905Y-92353552D02*
X131167143Y-92305933D01*
X131167143Y-92305933D02*
X131405238Y-92305933D01*
X131405238Y-92305933D02*
X131500476Y-92353552D01*
X131500476Y-92353552D02*
X131548095Y-92401171D01*
X131548095Y-92401171D02*
X131595714Y-92496409D01*
X131595714Y-92496409D02*
X131595714Y-92734504D01*
X131595714Y-92734504D02*
X131548095Y-92829742D01*
X131548095Y-92829742D02*
X131500476Y-92877361D01*
X131500476Y-92877361D02*
X131405238Y-92924980D01*
X131405238Y-92924980D02*
X131167143Y-92924980D01*
X131167143Y-92924980D02*
X131071905Y-92877361D01*
X131071905Y-92877361D02*
X131024286Y-92829742D01*
D17*
%TO.C,R6*%
X132942064Y-82650000D02*
X132487936Y-82650000D01*
X132942064Y-81180000D02*
X132487936Y-81180000D01*
%TO.C,C3*%
X134085000Y-89908748D02*
X134085000Y-90431252D01*
X132615000Y-89908748D02*
X132615000Y-90431252D01*
%TO.C,U2*%
X136060000Y-77005000D02*
X136060000Y-80005000D01*
X138260000Y-77005000D02*
X138260000Y-79205000D01*
%TO.C,R8*%
X126137936Y-93245000D02*
X126592064Y-93245000D01*
X126137936Y-94715000D02*
X126592064Y-94715000D01*
%TO.C,SW7*%
X118290000Y-75430000D02*
X118290000Y-71710000D01*
X118240000Y-71710000D02*
X116890000Y-71710000D01*
X116890000Y-75430000D02*
X118240000Y-75430000D01*
X115490000Y-78430000D02*
X113770000Y-78430000D01*
X115490000Y-77470000D02*
X115490000Y-78396000D01*
X114390000Y-75430000D02*
X115370000Y-75430000D01*
X114390000Y-71710000D02*
X115370000Y-71710000D01*
X113770000Y-78430000D02*
X113770000Y-77470000D01*
X111890000Y-75430000D02*
X112870000Y-75430000D01*
X111890000Y-71710000D02*
X112870000Y-71710000D01*
X109020000Y-75430000D02*
X110370000Y-75430000D01*
X109020000Y-71710000D02*
X110370000Y-71710000D01*
X108970000Y-75430000D02*
X108970000Y-71710000D01*
%TO.C,R2*%
X160247064Y-78205000D02*
X159792936Y-78205000D01*
X160247064Y-76735000D02*
X159792936Y-76735000D01*
%TO.C,R10*%
X128042936Y-81180000D02*
X128497064Y-81180000D01*
X128042936Y-82650000D02*
X128497064Y-82650000D01*
%TO.C,R4*%
X174852064Y-79475000D02*
X174397936Y-79475000D01*
X174852064Y-78005000D02*
X174397936Y-78005000D01*
%TO.C,C2*%
X124995000Y-90431252D02*
X124995000Y-89908748D01*
X126465000Y-90431252D02*
X126465000Y-89908748D01*
%TO.C,R3*%
X174852064Y-88365000D02*
X174397936Y-88365000D01*
X174852064Y-86895000D02*
X174397936Y-86895000D01*
%TO.C,R7*%
X135355000Y-69622936D02*
X135355000Y-70077064D01*
X133885000Y-69622936D02*
X133885000Y-70077064D01*
%TO.C,R9*%
X132180000Y-69622936D02*
X132180000Y-70077064D01*
X130710000Y-69622936D02*
X130710000Y-70077064D01*
%TO.C,R1*%
X164237936Y-76735000D02*
X164692064Y-76735000D01*
X164237936Y-78205000D02*
X164692064Y-78205000D01*
%TO.C,U4*%
X128200000Y-76200000D02*
X128200000Y-79800000D01*
X128200000Y-76200000D02*
X128200000Y-74000000D01*
X133420000Y-76200000D02*
X133420000Y-78400000D01*
X133420000Y-76200000D02*
X133420000Y-74000000D01*
%TO.C,U3*%
X135660000Y-84225000D02*
X135660000Y-88225000D01*
X138660000Y-84225000D02*
X138660000Y-87225000D01*
%TO.C,U1*%
X131150000Y-88265000D02*
X131150000Y-84665000D01*
X131150000Y-88265000D02*
X131150000Y-90465000D01*
X127930000Y-88265000D02*
X127930000Y-86065000D01*
X127930000Y-88265000D02*
X127930000Y-90465000D01*
%TO.C,C4*%
X134085000Y-84828748D02*
X134085000Y-85351252D01*
X132615000Y-84828748D02*
X132615000Y-85351252D01*
%TO.C,C5*%
X136898748Y-72290000D02*
X137421252Y-72290000D01*
X136898748Y-73760000D02*
X137421252Y-73760000D01*
%TO.C,C1*%
X127535000Y-70111252D02*
X127535000Y-69588748D01*
X129005000Y-70111252D02*
X129005000Y-69588748D01*
%TO.C,R5*%
X131037064Y-94715000D02*
X130582936Y-94715000D01*
X131037064Y-93245000D02*
X130582936Y-93245000D01*
D12*
%TO.C,VR1*%
X194150000Y-76200000D02*
G75*
G03*
X194150000Y-76200000I-3650000J0D01*
G01*
%TD*%
M02*
